G04 #@! TF.GenerationSoftware,KiCad,Pcbnew,5.0.1*
G04 #@! TF.CreationDate,2019-01-07T18:58:54+01:00*
G04 #@! TF.ProjectId,nibble++,6E6962626C652B2B2E6B696361645F70,rev?*
G04 #@! TF.SameCoordinates,Original*
G04 #@! TF.FileFunction,Copper,L2,Bot,Signal*
G04 #@! TF.FilePolarity,Positive*
%FSLAX46Y46*%
G04 Gerber Fmt 4.6, Leading zero omitted, Abs format (unit mm)*
G04 Created by KiCad (PCBNEW 5.0.1) date Mo 07 Jan 2019 18:58:54 CET*
%MOMM*%
%LPD*%
G01*
G04 APERTURE LIST*
G04 #@! TA.AperFunction,Conductor*
%ADD10C,0.100000*%
G04 #@! TD*
G04 #@! TA.AperFunction,SMDPad,CuDef*
%ADD11C,1.150000*%
G04 #@! TD*
G04 #@! TA.AperFunction,SMDPad,CuDef*
%ADD12R,1.550000X0.600000*%
G04 #@! TD*
G04 #@! TA.AperFunction,ComponentPad*
%ADD13C,5.000000*%
G04 #@! TD*
G04 #@! TA.AperFunction,SMDPad,CuDef*
%ADD14R,2.600000X3.600000*%
G04 #@! TD*
G04 #@! TA.AperFunction,SMDPad,CuDef*
%ADD15R,1.100000X1.950000*%
G04 #@! TD*
G04 #@! TA.AperFunction,ViaPad*
%ADD16C,0.800000*%
G04 #@! TD*
G04 #@! TA.AperFunction,ViaPad*
%ADD17C,0.604800*%
G04 #@! TD*
G04 #@! TA.AperFunction,Conductor*
%ADD18C,0.304800*%
G04 #@! TD*
G04 #@! TA.AperFunction,Conductor*
%ADD19C,0.250000*%
G04 #@! TD*
G04 #@! TA.AperFunction,Conductor*
%ADD20C,0.177800*%
G04 #@! TD*
G04 APERTURE END LIST*
D10*
G04 #@! TO.N,VS*
G04 #@! TO.C,C1*
G36*
X115166505Y-105219204D02*
X115190773Y-105222804D01*
X115214572Y-105228765D01*
X115237671Y-105237030D01*
X115259850Y-105247520D01*
X115280893Y-105260132D01*
X115300599Y-105274747D01*
X115318777Y-105291223D01*
X115335253Y-105309401D01*
X115349868Y-105329107D01*
X115362480Y-105350150D01*
X115372970Y-105372329D01*
X115381235Y-105395428D01*
X115387196Y-105419227D01*
X115390796Y-105443495D01*
X115392000Y-105467999D01*
X115392000Y-106368001D01*
X115390796Y-106392505D01*
X115387196Y-106416773D01*
X115381235Y-106440572D01*
X115372970Y-106463671D01*
X115362480Y-106485850D01*
X115349868Y-106506893D01*
X115335253Y-106526599D01*
X115318777Y-106544777D01*
X115300599Y-106561253D01*
X115280893Y-106575868D01*
X115259850Y-106588480D01*
X115237671Y-106598970D01*
X115214572Y-106607235D01*
X115190773Y-106613196D01*
X115166505Y-106616796D01*
X115142001Y-106618000D01*
X114491999Y-106618000D01*
X114467495Y-106616796D01*
X114443227Y-106613196D01*
X114419428Y-106607235D01*
X114396329Y-106598970D01*
X114374150Y-106588480D01*
X114353107Y-106575868D01*
X114333401Y-106561253D01*
X114315223Y-106544777D01*
X114298747Y-106526599D01*
X114284132Y-106506893D01*
X114271520Y-106485850D01*
X114261030Y-106463671D01*
X114252765Y-106440572D01*
X114246804Y-106416773D01*
X114243204Y-106392505D01*
X114242000Y-106368001D01*
X114242000Y-105467999D01*
X114243204Y-105443495D01*
X114246804Y-105419227D01*
X114252765Y-105395428D01*
X114261030Y-105372329D01*
X114271520Y-105350150D01*
X114284132Y-105329107D01*
X114298747Y-105309401D01*
X114315223Y-105291223D01*
X114333401Y-105274747D01*
X114353107Y-105260132D01*
X114374150Y-105247520D01*
X114396329Y-105237030D01*
X114419428Y-105228765D01*
X114443227Y-105222804D01*
X114467495Y-105219204D01*
X114491999Y-105218000D01*
X115142001Y-105218000D01*
X115166505Y-105219204D01*
X115166505Y-105219204D01*
G37*
D11*
G04 #@! TD*
G04 #@! TO.P,C1,2*
G04 #@! TO.N,VS*
X114817000Y-105918000D03*
D10*
G04 #@! TO.N,GND*
G04 #@! TO.C,C1*
G36*
X113116505Y-105219204D02*
X113140773Y-105222804D01*
X113164572Y-105228765D01*
X113187671Y-105237030D01*
X113209850Y-105247520D01*
X113230893Y-105260132D01*
X113250599Y-105274747D01*
X113268777Y-105291223D01*
X113285253Y-105309401D01*
X113299868Y-105329107D01*
X113312480Y-105350150D01*
X113322970Y-105372329D01*
X113331235Y-105395428D01*
X113337196Y-105419227D01*
X113340796Y-105443495D01*
X113342000Y-105467999D01*
X113342000Y-106368001D01*
X113340796Y-106392505D01*
X113337196Y-106416773D01*
X113331235Y-106440572D01*
X113322970Y-106463671D01*
X113312480Y-106485850D01*
X113299868Y-106506893D01*
X113285253Y-106526599D01*
X113268777Y-106544777D01*
X113250599Y-106561253D01*
X113230893Y-106575868D01*
X113209850Y-106588480D01*
X113187671Y-106598970D01*
X113164572Y-106607235D01*
X113140773Y-106613196D01*
X113116505Y-106616796D01*
X113092001Y-106618000D01*
X112441999Y-106618000D01*
X112417495Y-106616796D01*
X112393227Y-106613196D01*
X112369428Y-106607235D01*
X112346329Y-106598970D01*
X112324150Y-106588480D01*
X112303107Y-106575868D01*
X112283401Y-106561253D01*
X112265223Y-106544777D01*
X112248747Y-106526599D01*
X112234132Y-106506893D01*
X112221520Y-106485850D01*
X112211030Y-106463671D01*
X112202765Y-106440572D01*
X112196804Y-106416773D01*
X112193204Y-106392505D01*
X112192000Y-106368001D01*
X112192000Y-105467999D01*
X112193204Y-105443495D01*
X112196804Y-105419227D01*
X112202765Y-105395428D01*
X112211030Y-105372329D01*
X112221520Y-105350150D01*
X112234132Y-105329107D01*
X112248747Y-105309401D01*
X112265223Y-105291223D01*
X112283401Y-105274747D01*
X112303107Y-105260132D01*
X112324150Y-105247520D01*
X112346329Y-105237030D01*
X112369428Y-105228765D01*
X112393227Y-105222804D01*
X112417495Y-105219204D01*
X112441999Y-105218000D01*
X113092001Y-105218000D01*
X113116505Y-105219204D01*
X113116505Y-105219204D01*
G37*
D11*
G04 #@! TD*
G04 #@! TO.P,C1,1*
G04 #@! TO.N,GND*
X112767000Y-105918000D03*
D10*
G04 #@! TO.N,Net-(C2-Pad2)*
G04 #@! TO.C,C2*
G36*
X115166505Y-107505204D02*
X115190773Y-107508804D01*
X115214572Y-107514765D01*
X115237671Y-107523030D01*
X115259850Y-107533520D01*
X115280893Y-107546132D01*
X115300599Y-107560747D01*
X115318777Y-107577223D01*
X115335253Y-107595401D01*
X115349868Y-107615107D01*
X115362480Y-107636150D01*
X115372970Y-107658329D01*
X115381235Y-107681428D01*
X115387196Y-107705227D01*
X115390796Y-107729495D01*
X115392000Y-107753999D01*
X115392000Y-108654001D01*
X115390796Y-108678505D01*
X115387196Y-108702773D01*
X115381235Y-108726572D01*
X115372970Y-108749671D01*
X115362480Y-108771850D01*
X115349868Y-108792893D01*
X115335253Y-108812599D01*
X115318777Y-108830777D01*
X115300599Y-108847253D01*
X115280893Y-108861868D01*
X115259850Y-108874480D01*
X115237671Y-108884970D01*
X115214572Y-108893235D01*
X115190773Y-108899196D01*
X115166505Y-108902796D01*
X115142001Y-108904000D01*
X114491999Y-108904000D01*
X114467495Y-108902796D01*
X114443227Y-108899196D01*
X114419428Y-108893235D01*
X114396329Y-108884970D01*
X114374150Y-108874480D01*
X114353107Y-108861868D01*
X114333401Y-108847253D01*
X114315223Y-108830777D01*
X114298747Y-108812599D01*
X114284132Y-108792893D01*
X114271520Y-108771850D01*
X114261030Y-108749671D01*
X114252765Y-108726572D01*
X114246804Y-108702773D01*
X114243204Y-108678505D01*
X114242000Y-108654001D01*
X114242000Y-107753999D01*
X114243204Y-107729495D01*
X114246804Y-107705227D01*
X114252765Y-107681428D01*
X114261030Y-107658329D01*
X114271520Y-107636150D01*
X114284132Y-107615107D01*
X114298747Y-107595401D01*
X114315223Y-107577223D01*
X114333401Y-107560747D01*
X114353107Y-107546132D01*
X114374150Y-107533520D01*
X114396329Y-107523030D01*
X114419428Y-107514765D01*
X114443227Y-107508804D01*
X114467495Y-107505204D01*
X114491999Y-107504000D01*
X115142001Y-107504000D01*
X115166505Y-107505204D01*
X115166505Y-107505204D01*
G37*
D11*
G04 #@! TD*
G04 #@! TO.P,C2,2*
G04 #@! TO.N,Net-(C2-Pad2)*
X114817000Y-108204000D03*
D10*
G04 #@! TO.N,GND*
G04 #@! TO.C,C2*
G36*
X113116505Y-107505204D02*
X113140773Y-107508804D01*
X113164572Y-107514765D01*
X113187671Y-107523030D01*
X113209850Y-107533520D01*
X113230893Y-107546132D01*
X113250599Y-107560747D01*
X113268777Y-107577223D01*
X113285253Y-107595401D01*
X113299868Y-107615107D01*
X113312480Y-107636150D01*
X113322970Y-107658329D01*
X113331235Y-107681428D01*
X113337196Y-107705227D01*
X113340796Y-107729495D01*
X113342000Y-107753999D01*
X113342000Y-108654001D01*
X113340796Y-108678505D01*
X113337196Y-108702773D01*
X113331235Y-108726572D01*
X113322970Y-108749671D01*
X113312480Y-108771850D01*
X113299868Y-108792893D01*
X113285253Y-108812599D01*
X113268777Y-108830777D01*
X113250599Y-108847253D01*
X113230893Y-108861868D01*
X113209850Y-108874480D01*
X113187671Y-108884970D01*
X113164572Y-108893235D01*
X113140773Y-108899196D01*
X113116505Y-108902796D01*
X113092001Y-108904000D01*
X112441999Y-108904000D01*
X112417495Y-108902796D01*
X112393227Y-108899196D01*
X112369428Y-108893235D01*
X112346329Y-108884970D01*
X112324150Y-108874480D01*
X112303107Y-108861868D01*
X112283401Y-108847253D01*
X112265223Y-108830777D01*
X112248747Y-108812599D01*
X112234132Y-108792893D01*
X112221520Y-108771850D01*
X112211030Y-108749671D01*
X112202765Y-108726572D01*
X112196804Y-108702773D01*
X112193204Y-108678505D01*
X112192000Y-108654001D01*
X112192000Y-107753999D01*
X112193204Y-107729495D01*
X112196804Y-107705227D01*
X112202765Y-107681428D01*
X112211030Y-107658329D01*
X112221520Y-107636150D01*
X112234132Y-107615107D01*
X112248747Y-107595401D01*
X112265223Y-107577223D01*
X112283401Y-107560747D01*
X112303107Y-107546132D01*
X112324150Y-107533520D01*
X112346329Y-107523030D01*
X112369428Y-107514765D01*
X112393227Y-107508804D01*
X112417495Y-107505204D01*
X112441999Y-107504000D01*
X113092001Y-107504000D01*
X113116505Y-107505204D01*
X113116505Y-107505204D01*
G37*
D11*
G04 #@! TD*
G04 #@! TO.P,C2,1*
G04 #@! TO.N,GND*
X112767000Y-108204000D03*
D10*
G04 #@! TO.N,GND*
G04 #@! TO.C,C3*
G36*
X115175505Y-109791204D02*
X115199773Y-109794804D01*
X115223572Y-109800765D01*
X115246671Y-109809030D01*
X115268850Y-109819520D01*
X115289893Y-109832132D01*
X115309599Y-109846747D01*
X115327777Y-109863223D01*
X115344253Y-109881401D01*
X115358868Y-109901107D01*
X115371480Y-109922150D01*
X115381970Y-109944329D01*
X115390235Y-109967428D01*
X115396196Y-109991227D01*
X115399796Y-110015495D01*
X115401000Y-110039999D01*
X115401000Y-110940001D01*
X115399796Y-110964505D01*
X115396196Y-110988773D01*
X115390235Y-111012572D01*
X115381970Y-111035671D01*
X115371480Y-111057850D01*
X115358868Y-111078893D01*
X115344253Y-111098599D01*
X115327777Y-111116777D01*
X115309599Y-111133253D01*
X115289893Y-111147868D01*
X115268850Y-111160480D01*
X115246671Y-111170970D01*
X115223572Y-111179235D01*
X115199773Y-111185196D01*
X115175505Y-111188796D01*
X115151001Y-111190000D01*
X114500999Y-111190000D01*
X114476495Y-111188796D01*
X114452227Y-111185196D01*
X114428428Y-111179235D01*
X114405329Y-111170970D01*
X114383150Y-111160480D01*
X114362107Y-111147868D01*
X114342401Y-111133253D01*
X114324223Y-111116777D01*
X114307747Y-111098599D01*
X114293132Y-111078893D01*
X114280520Y-111057850D01*
X114270030Y-111035671D01*
X114261765Y-111012572D01*
X114255804Y-110988773D01*
X114252204Y-110964505D01*
X114251000Y-110940001D01*
X114251000Y-110039999D01*
X114252204Y-110015495D01*
X114255804Y-109991227D01*
X114261765Y-109967428D01*
X114270030Y-109944329D01*
X114280520Y-109922150D01*
X114293132Y-109901107D01*
X114307747Y-109881401D01*
X114324223Y-109863223D01*
X114342401Y-109846747D01*
X114362107Y-109832132D01*
X114383150Y-109819520D01*
X114405329Y-109809030D01*
X114428428Y-109800765D01*
X114452227Y-109794804D01*
X114476495Y-109791204D01*
X114500999Y-109790000D01*
X115151001Y-109790000D01*
X115175505Y-109791204D01*
X115175505Y-109791204D01*
G37*
D11*
G04 #@! TD*
G04 #@! TO.P,C3,2*
G04 #@! TO.N,GND*
X114826000Y-110490000D03*
D10*
G04 #@! TO.N,Net-(C3-Pad1)*
G04 #@! TO.C,C3*
G36*
X113125505Y-109791204D02*
X113149773Y-109794804D01*
X113173572Y-109800765D01*
X113196671Y-109809030D01*
X113218850Y-109819520D01*
X113239893Y-109832132D01*
X113259599Y-109846747D01*
X113277777Y-109863223D01*
X113294253Y-109881401D01*
X113308868Y-109901107D01*
X113321480Y-109922150D01*
X113331970Y-109944329D01*
X113340235Y-109967428D01*
X113346196Y-109991227D01*
X113349796Y-110015495D01*
X113351000Y-110039999D01*
X113351000Y-110940001D01*
X113349796Y-110964505D01*
X113346196Y-110988773D01*
X113340235Y-111012572D01*
X113331970Y-111035671D01*
X113321480Y-111057850D01*
X113308868Y-111078893D01*
X113294253Y-111098599D01*
X113277777Y-111116777D01*
X113259599Y-111133253D01*
X113239893Y-111147868D01*
X113218850Y-111160480D01*
X113196671Y-111170970D01*
X113173572Y-111179235D01*
X113149773Y-111185196D01*
X113125505Y-111188796D01*
X113101001Y-111190000D01*
X112450999Y-111190000D01*
X112426495Y-111188796D01*
X112402227Y-111185196D01*
X112378428Y-111179235D01*
X112355329Y-111170970D01*
X112333150Y-111160480D01*
X112312107Y-111147868D01*
X112292401Y-111133253D01*
X112274223Y-111116777D01*
X112257747Y-111098599D01*
X112243132Y-111078893D01*
X112230520Y-111057850D01*
X112220030Y-111035671D01*
X112211765Y-111012572D01*
X112205804Y-110988773D01*
X112202204Y-110964505D01*
X112201000Y-110940001D01*
X112201000Y-110039999D01*
X112202204Y-110015495D01*
X112205804Y-109991227D01*
X112211765Y-109967428D01*
X112220030Y-109944329D01*
X112230520Y-109922150D01*
X112243132Y-109901107D01*
X112257747Y-109881401D01*
X112274223Y-109863223D01*
X112292401Y-109846747D01*
X112312107Y-109832132D01*
X112333150Y-109819520D01*
X112355329Y-109809030D01*
X112378428Y-109800765D01*
X112402227Y-109794804D01*
X112426495Y-109791204D01*
X112450999Y-109790000D01*
X113101001Y-109790000D01*
X113125505Y-109791204D01*
X113125505Y-109791204D01*
G37*
D11*
G04 #@! TD*
G04 #@! TO.P,C3,1*
G04 #@! TO.N,Net-(C3-Pad1)*
X112776000Y-110490000D03*
D10*
G04 #@! TO.N,Net-(R6-Pad2)*
G04 #@! TO.C,R6*
G36*
X108553505Y-113093204D02*
X108577773Y-113096804D01*
X108601572Y-113102765D01*
X108624671Y-113111030D01*
X108646850Y-113121520D01*
X108667893Y-113134132D01*
X108687599Y-113148747D01*
X108705777Y-113165223D01*
X108722253Y-113183401D01*
X108736868Y-113203107D01*
X108749480Y-113224150D01*
X108759970Y-113246329D01*
X108768235Y-113269428D01*
X108774196Y-113293227D01*
X108777796Y-113317495D01*
X108779000Y-113341999D01*
X108779000Y-114242001D01*
X108777796Y-114266505D01*
X108774196Y-114290773D01*
X108768235Y-114314572D01*
X108759970Y-114337671D01*
X108749480Y-114359850D01*
X108736868Y-114380893D01*
X108722253Y-114400599D01*
X108705777Y-114418777D01*
X108687599Y-114435253D01*
X108667893Y-114449868D01*
X108646850Y-114462480D01*
X108624671Y-114472970D01*
X108601572Y-114481235D01*
X108577773Y-114487196D01*
X108553505Y-114490796D01*
X108529001Y-114492000D01*
X107878999Y-114492000D01*
X107854495Y-114490796D01*
X107830227Y-114487196D01*
X107806428Y-114481235D01*
X107783329Y-114472970D01*
X107761150Y-114462480D01*
X107740107Y-114449868D01*
X107720401Y-114435253D01*
X107702223Y-114418777D01*
X107685747Y-114400599D01*
X107671132Y-114380893D01*
X107658520Y-114359850D01*
X107648030Y-114337671D01*
X107639765Y-114314572D01*
X107633804Y-114290773D01*
X107630204Y-114266505D01*
X107629000Y-114242001D01*
X107629000Y-113341999D01*
X107630204Y-113317495D01*
X107633804Y-113293227D01*
X107639765Y-113269428D01*
X107648030Y-113246329D01*
X107658520Y-113224150D01*
X107671132Y-113203107D01*
X107685747Y-113183401D01*
X107702223Y-113165223D01*
X107720401Y-113148747D01*
X107740107Y-113134132D01*
X107761150Y-113121520D01*
X107783329Y-113111030D01*
X107806428Y-113102765D01*
X107830227Y-113096804D01*
X107854495Y-113093204D01*
X107878999Y-113092000D01*
X108529001Y-113092000D01*
X108553505Y-113093204D01*
X108553505Y-113093204D01*
G37*
D11*
G04 #@! TD*
G04 #@! TO.P,R6,2*
G04 #@! TO.N,Net-(R6-Pad2)*
X108204000Y-113792000D03*
D10*
G04 #@! TO.N,VS*
G04 #@! TO.C,R6*
G36*
X106503505Y-113093204D02*
X106527773Y-113096804D01*
X106551572Y-113102765D01*
X106574671Y-113111030D01*
X106596850Y-113121520D01*
X106617893Y-113134132D01*
X106637599Y-113148747D01*
X106655777Y-113165223D01*
X106672253Y-113183401D01*
X106686868Y-113203107D01*
X106699480Y-113224150D01*
X106709970Y-113246329D01*
X106718235Y-113269428D01*
X106724196Y-113293227D01*
X106727796Y-113317495D01*
X106729000Y-113341999D01*
X106729000Y-114242001D01*
X106727796Y-114266505D01*
X106724196Y-114290773D01*
X106718235Y-114314572D01*
X106709970Y-114337671D01*
X106699480Y-114359850D01*
X106686868Y-114380893D01*
X106672253Y-114400599D01*
X106655777Y-114418777D01*
X106637599Y-114435253D01*
X106617893Y-114449868D01*
X106596850Y-114462480D01*
X106574671Y-114472970D01*
X106551572Y-114481235D01*
X106527773Y-114487196D01*
X106503505Y-114490796D01*
X106479001Y-114492000D01*
X105828999Y-114492000D01*
X105804495Y-114490796D01*
X105780227Y-114487196D01*
X105756428Y-114481235D01*
X105733329Y-114472970D01*
X105711150Y-114462480D01*
X105690107Y-114449868D01*
X105670401Y-114435253D01*
X105652223Y-114418777D01*
X105635747Y-114400599D01*
X105621132Y-114380893D01*
X105608520Y-114359850D01*
X105598030Y-114337671D01*
X105589765Y-114314572D01*
X105583804Y-114290773D01*
X105580204Y-114266505D01*
X105579000Y-114242001D01*
X105579000Y-113341999D01*
X105580204Y-113317495D01*
X105583804Y-113293227D01*
X105589765Y-113269428D01*
X105598030Y-113246329D01*
X105608520Y-113224150D01*
X105621132Y-113203107D01*
X105635747Y-113183401D01*
X105652223Y-113165223D01*
X105670401Y-113148747D01*
X105690107Y-113134132D01*
X105711150Y-113121520D01*
X105733329Y-113111030D01*
X105756428Y-113102765D01*
X105780227Y-113096804D01*
X105804495Y-113093204D01*
X105828999Y-113092000D01*
X106479001Y-113092000D01*
X106503505Y-113093204D01*
X106503505Y-113093204D01*
G37*
D11*
G04 #@! TD*
G04 #@! TO.P,R6,1*
G04 #@! TO.N,VS*
X106154000Y-113792000D03*
D10*
G04 #@! TO.N,Net-(C2-Pad2)*
G04 #@! TO.C,R7*
G36*
X108553505Y-110299204D02*
X108577773Y-110302804D01*
X108601572Y-110308765D01*
X108624671Y-110317030D01*
X108646850Y-110327520D01*
X108667893Y-110340132D01*
X108687599Y-110354747D01*
X108705777Y-110371223D01*
X108722253Y-110389401D01*
X108736868Y-110409107D01*
X108749480Y-110430150D01*
X108759970Y-110452329D01*
X108768235Y-110475428D01*
X108774196Y-110499227D01*
X108777796Y-110523495D01*
X108779000Y-110547999D01*
X108779000Y-111448001D01*
X108777796Y-111472505D01*
X108774196Y-111496773D01*
X108768235Y-111520572D01*
X108759970Y-111543671D01*
X108749480Y-111565850D01*
X108736868Y-111586893D01*
X108722253Y-111606599D01*
X108705777Y-111624777D01*
X108687599Y-111641253D01*
X108667893Y-111655868D01*
X108646850Y-111668480D01*
X108624671Y-111678970D01*
X108601572Y-111687235D01*
X108577773Y-111693196D01*
X108553505Y-111696796D01*
X108529001Y-111698000D01*
X107878999Y-111698000D01*
X107854495Y-111696796D01*
X107830227Y-111693196D01*
X107806428Y-111687235D01*
X107783329Y-111678970D01*
X107761150Y-111668480D01*
X107740107Y-111655868D01*
X107720401Y-111641253D01*
X107702223Y-111624777D01*
X107685747Y-111606599D01*
X107671132Y-111586893D01*
X107658520Y-111565850D01*
X107648030Y-111543671D01*
X107639765Y-111520572D01*
X107633804Y-111496773D01*
X107630204Y-111472505D01*
X107629000Y-111448001D01*
X107629000Y-110547999D01*
X107630204Y-110523495D01*
X107633804Y-110499227D01*
X107639765Y-110475428D01*
X107648030Y-110452329D01*
X107658520Y-110430150D01*
X107671132Y-110409107D01*
X107685747Y-110389401D01*
X107702223Y-110371223D01*
X107720401Y-110354747D01*
X107740107Y-110340132D01*
X107761150Y-110327520D01*
X107783329Y-110317030D01*
X107806428Y-110308765D01*
X107830227Y-110302804D01*
X107854495Y-110299204D01*
X107878999Y-110298000D01*
X108529001Y-110298000D01*
X108553505Y-110299204D01*
X108553505Y-110299204D01*
G37*
D11*
G04 #@! TD*
G04 #@! TO.P,R7,2*
G04 #@! TO.N,Net-(C2-Pad2)*
X108204000Y-110998000D03*
D10*
G04 #@! TO.N,Net-(R6-Pad2)*
G04 #@! TO.C,R7*
G36*
X106503505Y-110299204D02*
X106527773Y-110302804D01*
X106551572Y-110308765D01*
X106574671Y-110317030D01*
X106596850Y-110327520D01*
X106617893Y-110340132D01*
X106637599Y-110354747D01*
X106655777Y-110371223D01*
X106672253Y-110389401D01*
X106686868Y-110409107D01*
X106699480Y-110430150D01*
X106709970Y-110452329D01*
X106718235Y-110475428D01*
X106724196Y-110499227D01*
X106727796Y-110523495D01*
X106729000Y-110547999D01*
X106729000Y-111448001D01*
X106727796Y-111472505D01*
X106724196Y-111496773D01*
X106718235Y-111520572D01*
X106709970Y-111543671D01*
X106699480Y-111565850D01*
X106686868Y-111586893D01*
X106672253Y-111606599D01*
X106655777Y-111624777D01*
X106637599Y-111641253D01*
X106617893Y-111655868D01*
X106596850Y-111668480D01*
X106574671Y-111678970D01*
X106551572Y-111687235D01*
X106527773Y-111693196D01*
X106503505Y-111696796D01*
X106479001Y-111698000D01*
X105828999Y-111698000D01*
X105804495Y-111696796D01*
X105780227Y-111693196D01*
X105756428Y-111687235D01*
X105733329Y-111678970D01*
X105711150Y-111668480D01*
X105690107Y-111655868D01*
X105670401Y-111641253D01*
X105652223Y-111624777D01*
X105635747Y-111606599D01*
X105621132Y-111586893D01*
X105608520Y-111565850D01*
X105598030Y-111543671D01*
X105589765Y-111520572D01*
X105583804Y-111496773D01*
X105580204Y-111472505D01*
X105579000Y-111448001D01*
X105579000Y-110547999D01*
X105580204Y-110523495D01*
X105583804Y-110499227D01*
X105589765Y-110475428D01*
X105598030Y-110452329D01*
X105608520Y-110430150D01*
X105621132Y-110409107D01*
X105635747Y-110389401D01*
X105652223Y-110371223D01*
X105670401Y-110354747D01*
X105690107Y-110340132D01*
X105711150Y-110327520D01*
X105733329Y-110317030D01*
X105756428Y-110308765D01*
X105780227Y-110302804D01*
X105804495Y-110299204D01*
X105828999Y-110298000D01*
X106479001Y-110298000D01*
X106503505Y-110299204D01*
X106503505Y-110299204D01*
G37*
D11*
G04 #@! TD*
G04 #@! TO.P,R7,1*
G04 #@! TO.N,Net-(R6-Pad2)*
X106154000Y-110998000D03*
D12*
G04 #@! TO.P,U1,8*
G04 #@! TO.N,VS*
X93632000Y-113919000D03*
G04 #@! TO.P,U1,7*
G04 #@! TO.N,Net-(R6-Pad2)*
X93632000Y-112649000D03*
G04 #@! TO.P,U1,6*
G04 #@! TO.N,Net-(C2-Pad2)*
X93632000Y-111379000D03*
G04 #@! TO.P,U1,5*
G04 #@! TO.N,Net-(C3-Pad1)*
X93632000Y-110109000D03*
G04 #@! TO.P,U1,4*
G04 #@! TO.N,VS*
X88232000Y-110109000D03*
G04 #@! TO.P,U1,3*
G04 #@! TO.N,Net-(U1-Pad3)*
X88232000Y-111379000D03*
G04 #@! TO.P,U1,2*
G04 #@! TO.N,Net-(C2-Pad2)*
X88232000Y-112649000D03*
G04 #@! TO.P,U1,1*
G04 #@! TO.N,GND*
X88232000Y-113919000D03*
G04 #@! TD*
D13*
G04 #@! TO.P,REF\002A\002A,1*
G04 #@! TO.N,N/C*
X100000000Y-84000000D03*
G04 #@! TD*
D14*
G04 #@! TO.P,BT1,2*
G04 #@! TO.N,GND*
X114650000Y-100000000D03*
G04 #@! TO.P,BT1,1*
G04 #@! TO.N,+3V3*
X85350000Y-100000000D03*
G04 #@! TD*
D15*
G04 #@! TO.P,SW1,1*
G04 #@! TO.N,VS*
X97322000Y-117856000D03*
G04 #@! TO.P,SW1,2*
G04 #@! TO.N,+3V3*
X99822000Y-117856000D03*
G04 #@! TO.P,SW1,3*
G04 #@! TO.N,Net-(SW1-Pad3)*
X102322000Y-117856000D03*
X102322000Y-112206000D03*
G04 #@! TO.P,SW1,1*
G04 #@! TO.N,VS*
X97322000Y-112206000D03*
G04 #@! TO.P,SW1,2*
G04 #@! TO.N,+3V3*
X99822000Y-112206000D03*
G04 #@! TD*
D16*
G04 #@! TO.N,GND*
X107856229Y-88267646D03*
X111675547Y-91702253D03*
D17*
X107182213Y-90906908D03*
X111498410Y-87918412D03*
D16*
G04 #@! TO.N,VS*
X103759000Y-88328500D03*
G04 #@! TO.N,Net-(R3-Pad2)*
X108861082Y-88676976D03*
X108188506Y-91751400D03*
G04 #@! TO.N,Net-(R4-Pad2)*
X110143505Y-88052807D03*
X110430189Y-91684410D03*
G04 #@! TO.N,Net-(U1-Pad3)*
X105854500Y-88963500D03*
G04 #@! TD*
D18*
G04 #@! TO.N,GND*
X112767000Y-105118000D02*
X112767000Y-105918000D01*
X113045200Y-100000000D02*
X112767000Y-100278200D01*
X112767000Y-100278200D02*
X112767000Y-105118000D01*
X114650000Y-100000000D02*
X113045200Y-100000000D01*
X114046370Y-107151590D02*
X115391530Y-107151590D01*
X115744410Y-107504470D02*
X115744410Y-109571590D01*
X115449372Y-109866628D02*
X114826000Y-110490000D01*
X115744410Y-109571590D02*
X115449372Y-109866628D01*
X115391530Y-107151590D02*
X115744410Y-107504470D01*
X112993960Y-108204000D02*
X114046370Y-107151590D01*
X112767000Y-108204000D02*
X112993960Y-108204000D01*
D19*
G04 #@! TO.N,+3V3*
X99822000Y-113431000D02*
X99822000Y-117856000D01*
X99822000Y-112206000D02*
X99822000Y-113431000D01*
X85350000Y-112697002D02*
X85350000Y-100000000D01*
X99822000Y-118281000D02*
X98946999Y-119156001D01*
X96359501Y-119156001D02*
X92075000Y-114871500D01*
X87524498Y-114871500D02*
X85350000Y-112697002D01*
X99822000Y-117856000D02*
X99822000Y-118281000D01*
X98946999Y-119156001D02*
X96359501Y-119156001D01*
X92075000Y-114871500D02*
X87524498Y-114871500D01*
G04 #@! TO.N,VS*
X97322000Y-113431000D02*
X97322000Y-117856000D01*
X97322000Y-112206000D02*
X97322000Y-113431000D01*
X97322000Y-112631000D02*
X97322000Y-112206000D01*
X96034000Y-113919000D02*
X97322000Y-112631000D01*
X93632000Y-113919000D02*
X96034000Y-113919000D01*
X93632000Y-113919000D02*
X95881116Y-113919000D01*
X104126999Y-113792000D02*
X103918999Y-114000000D01*
X106154000Y-113792000D02*
X104126999Y-113792000D01*
X103918999Y-114000000D02*
X103918999Y-113792000D01*
X104140000Y-113792000D02*
X106154000Y-113792000D01*
X103918999Y-113570999D02*
X104140000Y-113792000D01*
X103918999Y-113792000D02*
X104140000Y-113792000D01*
X103918999Y-113538000D02*
X103918999Y-113570999D01*
X103918999Y-113792000D02*
X103918999Y-113538000D01*
X104158999Y-87928501D02*
X103759000Y-88328500D01*
X117221000Y-103514000D02*
X117221000Y-94688966D01*
X114817000Y-105918000D02*
X117221000Y-103514000D01*
X117221000Y-94688966D02*
X110871000Y-88338966D01*
X110871000Y-88338966D02*
X110871000Y-87578008D01*
X110871000Y-87578008D02*
X110584002Y-87291010D01*
X104796490Y-87291010D02*
X104158999Y-87928501D01*
X110584002Y-87291010D02*
X104796490Y-87291010D01*
X105664000Y-116612501D02*
X110291689Y-116612501D01*
X103918999Y-114867500D02*
X105664000Y-116612501D01*
X110291689Y-116612501D02*
X116221820Y-110682370D01*
X116221820Y-110682370D02*
X116221820Y-107306721D01*
X103918999Y-114000000D02*
X103918999Y-114867500D01*
X115440372Y-106541372D02*
X114817000Y-105918000D01*
X115456471Y-106541372D02*
X115440372Y-106541372D01*
X116221820Y-107306721D02*
X115456471Y-106541372D01*
X90425410Y-110109000D02*
X88232000Y-110109000D01*
X113343810Y-107178990D02*
X93355420Y-107178990D01*
X93355420Y-107178990D02*
X90425410Y-110109000D01*
X114817000Y-105918000D02*
X114604800Y-105918000D01*
X114604800Y-105918000D02*
X113343810Y-107178990D01*
X97322000Y-111781000D02*
X97322000Y-112206000D01*
X98229989Y-110873011D02*
X97322000Y-111781000D01*
X103387177Y-110873011D02*
X98229989Y-110873011D01*
X103918999Y-111404833D02*
X103387177Y-110873011D01*
X103918999Y-113538000D02*
X103918999Y-111404833D01*
G04 #@! TO.N,Net-(C2-Pad2)*
X92607000Y-111379000D02*
X93632000Y-111379000D01*
X90527000Y-111379000D02*
X92607000Y-111379000D01*
X88232000Y-112649000D02*
X89257000Y-112649000D01*
X93632000Y-111379000D02*
X94107000Y-111379000D01*
X108204000Y-110198000D02*
X108204000Y-110998000D01*
X96113022Y-109372978D02*
X107378978Y-109372978D01*
X107378978Y-109372978D02*
X108204000Y-110198000D01*
X89257000Y-112649000D02*
X90527000Y-111379000D01*
X94107000Y-111379000D02*
X96113022Y-109372978D01*
X108879000Y-110998000D02*
X110022000Y-112141000D01*
X108204000Y-110998000D02*
X108879000Y-110998000D01*
X110022000Y-112141000D02*
X112903000Y-112141000D01*
X113925990Y-109095010D02*
X114193628Y-108827372D01*
X113925990Y-111118010D02*
X113925990Y-109095010D01*
X114193628Y-108827372D02*
X114817000Y-108204000D01*
X112903000Y-112141000D02*
X113925990Y-111118010D01*
G04 #@! TO.N,Net-(C3-Pad1)*
X93441500Y-110299500D02*
X93632000Y-110109000D01*
X93632000Y-109559000D02*
X94479000Y-108712000D01*
X93632000Y-110109000D02*
X93632000Y-109559000D01*
X110998000Y-108712000D02*
X112776000Y-110490000D01*
X94479000Y-108712000D02*
X110998000Y-108712000D01*
G04 #@! TO.N,Net-(R3-Pad2)*
X108861082Y-88676976D02*
X108188506Y-89349552D01*
X108188506Y-89349552D02*
X108188506Y-91185715D01*
X108188506Y-91185715D02*
X108188506Y-91751400D01*
G04 #@! TO.N,Net-(R4-Pad2)*
X110143505Y-91397726D02*
X110430189Y-91684410D01*
X110143505Y-88052807D02*
X110143505Y-91397726D01*
G04 #@! TO.N,Net-(R6-Pad2)*
X106154000Y-111742000D02*
X106154000Y-110998000D01*
X108204000Y-113792000D02*
X106154000Y-111742000D01*
X104753998Y-110272998D02*
X105479000Y-110998000D01*
X105479000Y-110998000D02*
X106154000Y-110998000D01*
X97033002Y-110272998D02*
X104753998Y-110272998D01*
X93632000Y-112649000D02*
X94657000Y-112649000D01*
X94657000Y-112649000D02*
X97033002Y-110272998D01*
G04 #@! TO.N,Net-(SW1-Pad3)*
X102322000Y-113431000D02*
X102322000Y-117856000D01*
X102322000Y-112206000D02*
X102322000Y-113431000D01*
D18*
G04 #@! TO.N,Net-(U1-Pad3)*
X105664000Y-88963500D02*
X105854500Y-88963500D01*
X86487000Y-108140500D02*
X105664000Y-88963500D01*
X86487000Y-110109000D02*
X86487000Y-108140500D01*
X88232000Y-111379000D02*
X87757000Y-111379000D01*
X87757000Y-111379000D02*
X86487000Y-110109000D01*
G04 #@! TD*
D20*
G04 #@! TO.N,GND*
G36*
X101133073Y-80348939D02*
X102875455Y-80527460D01*
X104595069Y-80860162D01*
X106278299Y-81344411D01*
X107911819Y-81976372D01*
X109482695Y-82751042D01*
X110978487Y-83662287D01*
X112387354Y-84702892D01*
X113698139Y-85864617D01*
X114900464Y-87138265D01*
X115984809Y-88513750D01*
X116942588Y-89980181D01*
X117766218Y-91525949D01*
X118449177Y-93138812D01*
X118986059Y-94806002D01*
X119372611Y-96514317D01*
X119605774Y-98250231D01*
X119683700Y-100000000D01*
X119656724Y-101030165D01*
X119487329Y-102773458D01*
X119163635Y-104494790D01*
X118688206Y-106180533D01*
X118064807Y-107817340D01*
X117298372Y-109392250D01*
X116635720Y-110492912D01*
X116635720Y-107327038D01*
X116637721Y-107306721D01*
X116635720Y-107286403D01*
X116635720Y-107286393D01*
X116629731Y-107225583D01*
X116606063Y-107147562D01*
X116567630Y-107075658D01*
X116515907Y-107012634D01*
X116500119Y-106999677D01*
X115763519Y-106263078D01*
X115750558Y-106247285D01*
X115687534Y-106195562D01*
X115682297Y-106192763D01*
X115682297Y-105638045D01*
X117499300Y-103821043D01*
X117515087Y-103808087D01*
X117566810Y-103745063D01*
X117605243Y-103673159D01*
X117628911Y-103595138D01*
X117634900Y-103534328D01*
X117634900Y-103534318D01*
X117636901Y-103514001D01*
X117634900Y-103493683D01*
X117634900Y-94709283D01*
X117636901Y-94688965D01*
X117634900Y-94668648D01*
X117634900Y-94668638D01*
X117628911Y-94607828D01*
X117605243Y-94529807D01*
X117566810Y-94457903D01*
X117515087Y-94394879D01*
X117499299Y-94381922D01*
X111284900Y-88167524D01*
X111284900Y-87598325D01*
X111286901Y-87578007D01*
X111284900Y-87557690D01*
X111284900Y-87557680D01*
X111278911Y-87496870D01*
X111255243Y-87418849D01*
X111216810Y-87346945D01*
X111165087Y-87283921D01*
X111149298Y-87270964D01*
X110891050Y-87012716D01*
X110878089Y-86996923D01*
X110815065Y-86945200D01*
X110743161Y-86906767D01*
X110665140Y-86883099D01*
X110604330Y-86877110D01*
X110604319Y-86877110D01*
X110584002Y-86875109D01*
X110563685Y-86877110D01*
X104816807Y-86877110D01*
X104796489Y-86875109D01*
X104776172Y-86877110D01*
X104776162Y-86877110D01*
X104715352Y-86883099D01*
X104637331Y-86906767D01*
X104565427Y-86945200D01*
X104502403Y-86996923D01*
X104489446Y-87012711D01*
X103880706Y-87621452D01*
X103880701Y-87621456D01*
X103856633Y-87645524D01*
X103826851Y-87639600D01*
X103691149Y-87639600D01*
X103558055Y-87666074D01*
X103432684Y-87718005D01*
X103319852Y-87793397D01*
X103223897Y-87889352D01*
X103148505Y-88002184D01*
X103096574Y-88127555D01*
X103070100Y-88260649D01*
X103070100Y-88396351D01*
X103096574Y-88529445D01*
X103148505Y-88654816D01*
X103223897Y-88767648D01*
X103319852Y-88863603D01*
X103432684Y-88938995D01*
X103558055Y-88990926D01*
X103691149Y-89017400D01*
X103826851Y-89017400D01*
X103959945Y-88990926D01*
X104085316Y-88938995D01*
X104198148Y-88863603D01*
X104294103Y-88767648D01*
X104369495Y-88654816D01*
X104421426Y-88529445D01*
X104447900Y-88396351D01*
X104447900Y-88260649D01*
X104441976Y-88230867D01*
X104466044Y-88206799D01*
X104466048Y-88206794D01*
X104967933Y-87704910D01*
X109547430Y-87704910D01*
X109533010Y-87726491D01*
X109481079Y-87851862D01*
X109454605Y-87984956D01*
X109454605Y-88120658D01*
X109481079Y-88253752D01*
X109533010Y-88379123D01*
X109608402Y-88491955D01*
X109704357Y-88587910D01*
X109729605Y-88604780D01*
X109729606Y-91377398D01*
X109727604Y-91397726D01*
X109735595Y-91478864D01*
X109755576Y-91544733D01*
X109741289Y-91616559D01*
X109741289Y-91752261D01*
X109767763Y-91885355D01*
X109819694Y-92010726D01*
X109895086Y-92123558D01*
X109991041Y-92219513D01*
X110103873Y-92294905D01*
X110229244Y-92346836D01*
X110362338Y-92373310D01*
X110498040Y-92373310D01*
X110631134Y-92346836D01*
X110756505Y-92294905D01*
X110869337Y-92219513D01*
X110965292Y-92123558D01*
X111040684Y-92010726D01*
X111092615Y-91885355D01*
X111119089Y-91752261D01*
X111119089Y-91616559D01*
X111092615Y-91483465D01*
X111040684Y-91358094D01*
X110965292Y-91245262D01*
X110869337Y-91149307D01*
X110756505Y-91073915D01*
X110631134Y-91021984D01*
X110557405Y-91007318D01*
X110557405Y-88609282D01*
X110576913Y-88633053D01*
X110592707Y-88646015D01*
X116807101Y-94860410D01*
X116807100Y-103342557D01*
X115214786Y-104934872D01*
X115142001Y-104927703D01*
X114491999Y-104927703D01*
X114386592Y-104938085D01*
X114285237Y-104968831D01*
X114191827Y-105018759D01*
X114109952Y-105085952D01*
X114042759Y-105167827D01*
X113992831Y-105261237D01*
X113962085Y-105362592D01*
X113951703Y-105467999D01*
X113951703Y-105985754D01*
X113608700Y-106328758D01*
X113608700Y-106149775D01*
X113542025Y-106083100D01*
X112932100Y-106083100D01*
X112932100Y-106103100D01*
X112601900Y-106103100D01*
X112601900Y-106083100D01*
X111991975Y-106083100D01*
X111925300Y-106149775D01*
X111925300Y-106644267D01*
X111935549Y-106695793D01*
X111955653Y-106744330D01*
X111969525Y-106765090D01*
X93375737Y-106765090D01*
X93355420Y-106763089D01*
X93335102Y-106765090D01*
X93335092Y-106765090D01*
X93274282Y-106771079D01*
X93196261Y-106794747D01*
X93124357Y-106833180D01*
X93061333Y-106884903D01*
X93048376Y-106900691D01*
X90253968Y-109695100D01*
X89273698Y-109695100D01*
X89248373Y-109647720D01*
X89212271Y-109603729D01*
X89168280Y-109567627D01*
X89118092Y-109540801D01*
X89063634Y-109524281D01*
X89007000Y-109518703D01*
X87457000Y-109518703D01*
X87400366Y-109524281D01*
X87345908Y-109540801D01*
X87295720Y-109567627D01*
X87251729Y-109603729D01*
X87215627Y-109647720D01*
X87188801Y-109697908D01*
X87172281Y-109752366D01*
X87166703Y-109809000D01*
X87166703Y-110164612D01*
X86928300Y-109926209D01*
X86928300Y-108323291D01*
X90059858Y-105191733D01*
X111925300Y-105191733D01*
X111925300Y-105686225D01*
X111991975Y-105752900D01*
X112601900Y-105752900D01*
X112601900Y-105017975D01*
X112932100Y-105017975D01*
X112932100Y-105752900D01*
X113542025Y-105752900D01*
X113608700Y-105686225D01*
X113608700Y-105191733D01*
X113598451Y-105140207D01*
X113578347Y-105091670D01*
X113549160Y-105047989D01*
X113512012Y-105010841D01*
X113468330Y-104981654D01*
X113419794Y-104961549D01*
X113368268Y-104951300D01*
X112998775Y-104951300D01*
X112932100Y-105017975D01*
X112601900Y-105017975D01*
X112535225Y-104951300D01*
X112165732Y-104951300D01*
X112114206Y-104961549D01*
X112065670Y-104981654D01*
X112021988Y-105010841D01*
X111984840Y-105047989D01*
X111955653Y-105091670D01*
X111935549Y-105140207D01*
X111925300Y-105191733D01*
X90059858Y-105191733D01*
X95019816Y-100231775D01*
X113083300Y-100231775D01*
X113083300Y-101826267D01*
X113093549Y-101877793D01*
X113113653Y-101926330D01*
X113142840Y-101970011D01*
X113179988Y-102007159D01*
X113223670Y-102036346D01*
X113272206Y-102056451D01*
X113323732Y-102066700D01*
X114418225Y-102066700D01*
X114484900Y-102000025D01*
X114484900Y-100165100D01*
X114815100Y-100165100D01*
X114815100Y-102000025D01*
X114881775Y-102066700D01*
X115976268Y-102066700D01*
X116027794Y-102056451D01*
X116076330Y-102036346D01*
X116120012Y-102007159D01*
X116157160Y-101970011D01*
X116186347Y-101926330D01*
X116206451Y-101877793D01*
X116216700Y-101826267D01*
X116216700Y-100231775D01*
X116150025Y-100165100D01*
X114815100Y-100165100D01*
X114484900Y-100165100D01*
X113149975Y-100165100D01*
X113083300Y-100231775D01*
X95019816Y-100231775D01*
X97077858Y-98173733D01*
X113083300Y-98173733D01*
X113083300Y-99768225D01*
X113149975Y-99834900D01*
X114484900Y-99834900D01*
X114484900Y-97999975D01*
X114815100Y-97999975D01*
X114815100Y-99834900D01*
X116150025Y-99834900D01*
X116216700Y-99768225D01*
X116216700Y-98173733D01*
X116206451Y-98122207D01*
X116186347Y-98073670D01*
X116157160Y-98029989D01*
X116120012Y-97992841D01*
X116076330Y-97963654D01*
X116027794Y-97943549D01*
X115976268Y-97933300D01*
X114881775Y-97933300D01*
X114815100Y-97999975D01*
X114484900Y-97999975D01*
X114418225Y-97933300D01*
X113323732Y-97933300D01*
X113272206Y-97943549D01*
X113223670Y-97963654D01*
X113179988Y-97992841D01*
X113142840Y-98029989D01*
X113113653Y-98073670D01*
X113093549Y-98122207D01*
X113083300Y-98173733D01*
X97077858Y-98173733D01*
X103568042Y-91683549D01*
X107499606Y-91683549D01*
X107499606Y-91819251D01*
X107526080Y-91952345D01*
X107578011Y-92077716D01*
X107653403Y-92190548D01*
X107749358Y-92286503D01*
X107862190Y-92361895D01*
X107987561Y-92413826D01*
X108120655Y-92440300D01*
X108256357Y-92440300D01*
X108389451Y-92413826D01*
X108514822Y-92361895D01*
X108627654Y-92286503D01*
X108723609Y-92190548D01*
X108799001Y-92077716D01*
X108850932Y-91952345D01*
X108877406Y-91819251D01*
X108877406Y-91683549D01*
X108850932Y-91550455D01*
X108799001Y-91425084D01*
X108723609Y-91312252D01*
X108627654Y-91216297D01*
X108602406Y-91199427D01*
X108602406Y-89520994D01*
X108763449Y-89359952D01*
X108793231Y-89365876D01*
X108928933Y-89365876D01*
X109062027Y-89339402D01*
X109187398Y-89287471D01*
X109300230Y-89212079D01*
X109396185Y-89116124D01*
X109471577Y-89003292D01*
X109523508Y-88877921D01*
X109549982Y-88744827D01*
X109549982Y-88609125D01*
X109523508Y-88476031D01*
X109471577Y-88350660D01*
X109396185Y-88237828D01*
X109300230Y-88141873D01*
X109187398Y-88066481D01*
X109062027Y-88014550D01*
X108928933Y-87988076D01*
X108793231Y-87988076D01*
X108660137Y-88014550D01*
X108534766Y-88066481D01*
X108421934Y-88141873D01*
X108325979Y-88237828D01*
X108250587Y-88350660D01*
X108198656Y-88476031D01*
X108172182Y-88609125D01*
X108172182Y-88744827D01*
X108178106Y-88774609D01*
X107910212Y-89042504D01*
X107894419Y-89055465D01*
X107842696Y-89118490D01*
X107804263Y-89190394D01*
X107780595Y-89268415D01*
X107774606Y-89329225D01*
X107774606Y-89329235D01*
X107772605Y-89349552D01*
X107774606Y-89369870D01*
X107774607Y-91165378D01*
X107774606Y-91165388D01*
X107774606Y-91199427D01*
X107749358Y-91216297D01*
X107653403Y-91312252D01*
X107578011Y-91425084D01*
X107526080Y-91550455D01*
X107499606Y-91683549D01*
X103568042Y-91683549D01*
X105633835Y-89617757D01*
X105653555Y-89625926D01*
X105786649Y-89652400D01*
X105922351Y-89652400D01*
X106055445Y-89625926D01*
X106180816Y-89573995D01*
X106293648Y-89498603D01*
X106389603Y-89402648D01*
X106464995Y-89289816D01*
X106516926Y-89164445D01*
X106543400Y-89031351D01*
X106543400Y-88895649D01*
X106516926Y-88762555D01*
X106464995Y-88637184D01*
X106389603Y-88524352D01*
X106293648Y-88428397D01*
X106180816Y-88353005D01*
X106055445Y-88301074D01*
X105922351Y-88274600D01*
X105786649Y-88274600D01*
X105653555Y-88301074D01*
X105528184Y-88353005D01*
X105415352Y-88428397D01*
X105319397Y-88524352D01*
X105244005Y-88637184D01*
X105192074Y-88762555D01*
X105179962Y-88823446D01*
X86190286Y-107813123D01*
X86173445Y-107826944D01*
X86159626Y-107843783D01*
X86118297Y-107894141D01*
X86077320Y-107970805D01*
X86052086Y-108053990D01*
X86043565Y-108140500D01*
X86045701Y-108162186D01*
X86045700Y-110087324D01*
X86043565Y-110109000D01*
X86045700Y-110130676D01*
X86045700Y-110130677D01*
X86052085Y-110195509D01*
X86077319Y-110278694D01*
X86087706Y-110298127D01*
X86118297Y-110355359D01*
X86134683Y-110375325D01*
X86173444Y-110422556D01*
X86190291Y-110436382D01*
X87166703Y-111412795D01*
X87166703Y-111679000D01*
X87172281Y-111735634D01*
X87188801Y-111790092D01*
X87215627Y-111840280D01*
X87251729Y-111884271D01*
X87295720Y-111920373D01*
X87345908Y-111947199D01*
X87400366Y-111963719D01*
X87457000Y-111969297D01*
X89007000Y-111969297D01*
X89063634Y-111963719D01*
X89118092Y-111947199D01*
X89168280Y-111920373D01*
X89212271Y-111884271D01*
X89248373Y-111840280D01*
X89275199Y-111790092D01*
X89291719Y-111735634D01*
X89297297Y-111679000D01*
X89297297Y-111079000D01*
X89291719Y-111022366D01*
X89275199Y-110967908D01*
X89248373Y-110917720D01*
X89212271Y-110873729D01*
X89168280Y-110837627D01*
X89118092Y-110810801D01*
X89063634Y-110794281D01*
X89007000Y-110788703D01*
X87790795Y-110788703D01*
X87701389Y-110699297D01*
X89007000Y-110699297D01*
X89063634Y-110693719D01*
X89118092Y-110677199D01*
X89168280Y-110650373D01*
X89212271Y-110614271D01*
X89248373Y-110570280D01*
X89273698Y-110522900D01*
X90405093Y-110522900D01*
X90425410Y-110524901D01*
X90445727Y-110522900D01*
X90445738Y-110522900D01*
X90506548Y-110516911D01*
X90584569Y-110493243D01*
X90656473Y-110454810D01*
X90719497Y-110403087D01*
X90732459Y-110387293D01*
X93526863Y-107592890D01*
X111925300Y-107592890D01*
X111925300Y-107972225D01*
X111991975Y-108038900D01*
X112601900Y-108038900D01*
X112601900Y-108018900D01*
X112932100Y-108018900D01*
X112932100Y-108038900D01*
X113542025Y-108038900D01*
X113608700Y-107972225D01*
X113608700Y-107497039D01*
X113637897Y-107473077D01*
X113650859Y-107457283D01*
X114256392Y-106851751D01*
X114285237Y-106867169D01*
X114386592Y-106897915D01*
X114491999Y-106908297D01*
X115142001Y-106908297D01*
X115229441Y-106899685D01*
X115807921Y-107478165D01*
X115807920Y-110510927D01*
X115632386Y-110686461D01*
X115601025Y-110655100D01*
X114991100Y-110655100D01*
X114991100Y-111327747D01*
X110120247Y-116198601D01*
X105835443Y-116198601D01*
X104332899Y-114696058D01*
X104332899Y-114205900D01*
X105288703Y-114205900D01*
X105288703Y-114242001D01*
X105299085Y-114347408D01*
X105329831Y-114448763D01*
X105379759Y-114542173D01*
X105446952Y-114624048D01*
X105528827Y-114691241D01*
X105622237Y-114741169D01*
X105723592Y-114771915D01*
X105828999Y-114782297D01*
X106479001Y-114782297D01*
X106584408Y-114771915D01*
X106685763Y-114741169D01*
X106779173Y-114691241D01*
X106861048Y-114624048D01*
X106928241Y-114542173D01*
X106978169Y-114448763D01*
X107008915Y-114347408D01*
X107019297Y-114242001D01*
X107019297Y-113341999D01*
X107008915Y-113236592D01*
X106985256Y-113158598D01*
X107338703Y-113512046D01*
X107338703Y-114242001D01*
X107349085Y-114347408D01*
X107379831Y-114448763D01*
X107429759Y-114542173D01*
X107496952Y-114624048D01*
X107578827Y-114691241D01*
X107672237Y-114741169D01*
X107773592Y-114771915D01*
X107878999Y-114782297D01*
X108529001Y-114782297D01*
X108634408Y-114771915D01*
X108735763Y-114741169D01*
X108829173Y-114691241D01*
X108911048Y-114624048D01*
X108978241Y-114542173D01*
X109028169Y-114448763D01*
X109058915Y-114347408D01*
X109069297Y-114242001D01*
X109069297Y-113341999D01*
X109058915Y-113236592D01*
X109028169Y-113135237D01*
X108978241Y-113041827D01*
X108911048Y-112959952D01*
X108829173Y-112892759D01*
X108735763Y-112842831D01*
X108634408Y-112812085D01*
X108529001Y-112801703D01*
X107878999Y-112801703D01*
X107806215Y-112808872D01*
X106842562Y-111845219D01*
X106861048Y-111830048D01*
X106928241Y-111748173D01*
X106978169Y-111654763D01*
X107008915Y-111553408D01*
X107019297Y-111448001D01*
X107019297Y-110547999D01*
X107008915Y-110442592D01*
X106978169Y-110341237D01*
X106928241Y-110247827D01*
X106861048Y-110165952D01*
X106779173Y-110098759D01*
X106685763Y-110048831D01*
X106584408Y-110018085D01*
X106479001Y-110007703D01*
X105828999Y-110007703D01*
X105723592Y-110018085D01*
X105622237Y-110048831D01*
X105528827Y-110098759D01*
X105446952Y-110165952D01*
X105379759Y-110247827D01*
X105356913Y-110290570D01*
X105061046Y-109994704D01*
X105048085Y-109978911D01*
X104985061Y-109927188D01*
X104913157Y-109888755D01*
X104835136Y-109865087D01*
X104774326Y-109859098D01*
X104774315Y-109859098D01*
X104753998Y-109857097D01*
X104733681Y-109859098D01*
X97053319Y-109859098D01*
X97033001Y-109857097D01*
X97012684Y-109859098D01*
X97012674Y-109859098D01*
X96951864Y-109865087D01*
X96873843Y-109888755D01*
X96801939Y-109927188D01*
X96801937Y-109927189D01*
X96801938Y-109927189D01*
X96774337Y-109949841D01*
X96738915Y-109978911D01*
X96725958Y-109994699D01*
X94592859Y-112127799D01*
X94568280Y-112107627D01*
X94518092Y-112080801D01*
X94463634Y-112064281D01*
X94407000Y-112058703D01*
X92857000Y-112058703D01*
X92800366Y-112064281D01*
X92745908Y-112080801D01*
X92695720Y-112107627D01*
X92651729Y-112143729D01*
X92615627Y-112187720D01*
X92588801Y-112237908D01*
X92572281Y-112292366D01*
X92566703Y-112349000D01*
X92566703Y-112949000D01*
X92572281Y-113005634D01*
X92588801Y-113060092D01*
X92615627Y-113110280D01*
X92651729Y-113154271D01*
X92695720Y-113190373D01*
X92745908Y-113217199D01*
X92800366Y-113233719D01*
X92857000Y-113239297D01*
X94407000Y-113239297D01*
X94463634Y-113233719D01*
X94518092Y-113217199D01*
X94568280Y-113190373D01*
X94612271Y-113154271D01*
X94648373Y-113110280D01*
X94673497Y-113063276D01*
X94677317Y-113062900D01*
X94677328Y-113062900D01*
X94738138Y-113056911D01*
X94816159Y-113033243D01*
X94888063Y-112994810D01*
X94951087Y-112943087D01*
X94964049Y-112927293D01*
X96481703Y-111409640D01*
X96481703Y-112885954D01*
X95862558Y-113505100D01*
X94673698Y-113505100D01*
X94648373Y-113457720D01*
X94612271Y-113413729D01*
X94568280Y-113377627D01*
X94518092Y-113350801D01*
X94463634Y-113334281D01*
X94407000Y-113328703D01*
X92857000Y-113328703D01*
X92800366Y-113334281D01*
X92745908Y-113350801D01*
X92695720Y-113377627D01*
X92651729Y-113413729D01*
X92615627Y-113457720D01*
X92588801Y-113507908D01*
X92572281Y-113562366D01*
X92566703Y-113619000D01*
X92566703Y-114219000D01*
X92572281Y-114275634D01*
X92588801Y-114330092D01*
X92615627Y-114380280D01*
X92651729Y-114424271D01*
X92695720Y-114460373D01*
X92745908Y-114487199D01*
X92800366Y-114503719D01*
X92857000Y-114509297D01*
X94407000Y-114509297D01*
X94463634Y-114503719D01*
X94518092Y-114487199D01*
X94568280Y-114460373D01*
X94612271Y-114424271D01*
X94648373Y-114380280D01*
X94673698Y-114332900D01*
X96013683Y-114332900D01*
X96034000Y-114334901D01*
X96054317Y-114332900D01*
X96054328Y-114332900D01*
X96115138Y-114326911D01*
X96193159Y-114303243D01*
X96265063Y-114264810D01*
X96328087Y-114213087D01*
X96341049Y-114197293D01*
X96908100Y-113630242D01*
X96908101Y-116590703D01*
X96772000Y-116590703D01*
X96715366Y-116596281D01*
X96660908Y-116612801D01*
X96610720Y-116639627D01*
X96566729Y-116675729D01*
X96530627Y-116719720D01*
X96503801Y-116769908D01*
X96487281Y-116824366D01*
X96481703Y-116881000D01*
X96481703Y-118692860D01*
X92382049Y-114593207D01*
X92369087Y-114577413D01*
X92306063Y-114525690D01*
X92234159Y-114487257D01*
X92156138Y-114463589D01*
X92095328Y-114457600D01*
X92095317Y-114457600D01*
X92075000Y-114455599D01*
X92054683Y-114457600D01*
X89127889Y-114457600D01*
X89133330Y-114455346D01*
X89177012Y-114426159D01*
X89214160Y-114389011D01*
X89243347Y-114345330D01*
X89263451Y-114296793D01*
X89273700Y-114245267D01*
X89273700Y-114135675D01*
X89207025Y-114069000D01*
X88397100Y-114069000D01*
X88397100Y-114104100D01*
X88066900Y-114104100D01*
X88066900Y-114069000D01*
X87307341Y-114069000D01*
X86831074Y-113592733D01*
X87190300Y-113592733D01*
X87190300Y-113702325D01*
X87256975Y-113769000D01*
X88066900Y-113769000D01*
X88066900Y-113418975D01*
X88397100Y-113418975D01*
X88397100Y-113769000D01*
X89207025Y-113769000D01*
X89273700Y-113702325D01*
X89273700Y-113592733D01*
X89263451Y-113541207D01*
X89243347Y-113492670D01*
X89214160Y-113448989D01*
X89177012Y-113411841D01*
X89133330Y-113382654D01*
X89084794Y-113362549D01*
X89033268Y-113352300D01*
X88463775Y-113352300D01*
X88397100Y-113418975D01*
X88066900Y-113418975D01*
X88000225Y-113352300D01*
X87430732Y-113352300D01*
X87379206Y-113362549D01*
X87330670Y-113382654D01*
X87286988Y-113411841D01*
X87249840Y-113448989D01*
X87220653Y-113492670D01*
X87200549Y-113541207D01*
X87190300Y-113592733D01*
X86831074Y-113592733D01*
X85763900Y-112525560D01*
X85763900Y-112349000D01*
X87166703Y-112349000D01*
X87166703Y-112949000D01*
X87172281Y-113005634D01*
X87188801Y-113060092D01*
X87215627Y-113110280D01*
X87251729Y-113154271D01*
X87295720Y-113190373D01*
X87345908Y-113217199D01*
X87400366Y-113233719D01*
X87457000Y-113239297D01*
X89007000Y-113239297D01*
X89063634Y-113233719D01*
X89118092Y-113217199D01*
X89168280Y-113190373D01*
X89212271Y-113154271D01*
X89248373Y-113110280D01*
X89273497Y-113063276D01*
X89277317Y-113062900D01*
X89277328Y-113062900D01*
X89338138Y-113056911D01*
X89416159Y-113033243D01*
X89488063Y-112994810D01*
X89551087Y-112943087D01*
X89564049Y-112927293D01*
X90698443Y-111792900D01*
X92590302Y-111792900D01*
X92615627Y-111840280D01*
X92651729Y-111884271D01*
X92695720Y-111920373D01*
X92745908Y-111947199D01*
X92800366Y-111963719D01*
X92857000Y-111969297D01*
X94407000Y-111969297D01*
X94463634Y-111963719D01*
X94518092Y-111947199D01*
X94568280Y-111920373D01*
X94612271Y-111884271D01*
X94648373Y-111840280D01*
X94675199Y-111790092D01*
X94691719Y-111735634D01*
X94697297Y-111679000D01*
X94697297Y-111374045D01*
X96284465Y-109786878D01*
X107207536Y-109786878D01*
X107546196Y-110125539D01*
X107496952Y-110165952D01*
X107429759Y-110247827D01*
X107379831Y-110341237D01*
X107349085Y-110442592D01*
X107338703Y-110547999D01*
X107338703Y-111448001D01*
X107349085Y-111553408D01*
X107379831Y-111654763D01*
X107429759Y-111748173D01*
X107496952Y-111830048D01*
X107578827Y-111897241D01*
X107672237Y-111947169D01*
X107773592Y-111977915D01*
X107878999Y-111988297D01*
X108529001Y-111988297D01*
X108634408Y-111977915D01*
X108735763Y-111947169D01*
X108829173Y-111897241D01*
X108911048Y-111830048D01*
X108978241Y-111748173D01*
X109001087Y-111705430D01*
X109714956Y-112419299D01*
X109727913Y-112435087D01*
X109790937Y-112486810D01*
X109862841Y-112525243D01*
X109940862Y-112548911D01*
X110001672Y-112554900D01*
X110001682Y-112554900D01*
X110021999Y-112556901D01*
X110042317Y-112554900D01*
X112882683Y-112554900D01*
X112903000Y-112556901D01*
X112923317Y-112554900D01*
X112923328Y-112554900D01*
X112984138Y-112548911D01*
X113062159Y-112525243D01*
X113134063Y-112486810D01*
X113197087Y-112435087D01*
X113210049Y-112419294D01*
X114181285Y-111448058D01*
X114224732Y-111456700D01*
X114594225Y-111456700D01*
X114660900Y-111390025D01*
X114660900Y-110655100D01*
X114640900Y-110655100D01*
X114640900Y-110324900D01*
X114660900Y-110324900D01*
X114660900Y-109589975D01*
X114991100Y-109589975D01*
X114991100Y-110324900D01*
X115601025Y-110324900D01*
X115667700Y-110258225D01*
X115667700Y-109763733D01*
X115657451Y-109712207D01*
X115637347Y-109663670D01*
X115608160Y-109619989D01*
X115571012Y-109582841D01*
X115527330Y-109553654D01*
X115478794Y-109533549D01*
X115427268Y-109523300D01*
X115057775Y-109523300D01*
X114991100Y-109589975D01*
X114660900Y-109589975D01*
X114594225Y-109523300D01*
X114339890Y-109523300D01*
X114339890Y-109266452D01*
X114419214Y-109187128D01*
X114491999Y-109194297D01*
X115142001Y-109194297D01*
X115247408Y-109183915D01*
X115348763Y-109153169D01*
X115442173Y-109103241D01*
X115524048Y-109036048D01*
X115591241Y-108954173D01*
X115641169Y-108860763D01*
X115671915Y-108759408D01*
X115682297Y-108654001D01*
X115682297Y-107753999D01*
X115671915Y-107648592D01*
X115641169Y-107547237D01*
X115591241Y-107453827D01*
X115524048Y-107371952D01*
X115442173Y-107304759D01*
X115348763Y-107254831D01*
X115247408Y-107224085D01*
X115142001Y-107213703D01*
X114491999Y-107213703D01*
X114386592Y-107224085D01*
X114285237Y-107254831D01*
X114191827Y-107304759D01*
X114109952Y-107371952D01*
X114042759Y-107453827D01*
X113992831Y-107547237D01*
X113962085Y-107648592D01*
X113951703Y-107753999D01*
X113951703Y-108483955D01*
X113647692Y-108787966D01*
X113631904Y-108800923D01*
X113618947Y-108816711D01*
X113618945Y-108816713D01*
X113608700Y-108829197D01*
X113608700Y-108435775D01*
X113542025Y-108369100D01*
X112932100Y-108369100D01*
X112932100Y-109104025D01*
X112998775Y-109170700D01*
X113368268Y-109170700D01*
X113419794Y-109160451D01*
X113468330Y-109140346D01*
X113511700Y-109111367D01*
X113512091Y-109115337D01*
X113512091Y-109693341D01*
X113483048Y-109657952D01*
X113401173Y-109590759D01*
X113307763Y-109540831D01*
X113206408Y-109510085D01*
X113101001Y-109499703D01*
X112450999Y-109499703D01*
X112378214Y-109506872D01*
X111307117Y-108435775D01*
X111925300Y-108435775D01*
X111925300Y-108930267D01*
X111935549Y-108981793D01*
X111955653Y-109030330D01*
X111984840Y-109074011D01*
X112021988Y-109111159D01*
X112065670Y-109140346D01*
X112114206Y-109160451D01*
X112165732Y-109170700D01*
X112535225Y-109170700D01*
X112601900Y-109104025D01*
X112601900Y-108369100D01*
X111991975Y-108369100D01*
X111925300Y-108435775D01*
X111307117Y-108435775D01*
X111305049Y-108433707D01*
X111292087Y-108417913D01*
X111229063Y-108366190D01*
X111157159Y-108327757D01*
X111079138Y-108304089D01*
X111018328Y-108298100D01*
X111018317Y-108298100D01*
X110998000Y-108296099D01*
X110977683Y-108298100D01*
X94499317Y-108298100D01*
X94479000Y-108296099D01*
X94458682Y-108298100D01*
X94458672Y-108298100D01*
X94397862Y-108304089D01*
X94319841Y-108327757D01*
X94247937Y-108366190D01*
X94184913Y-108417913D01*
X94171956Y-108433701D01*
X93353702Y-109251956D01*
X93337914Y-109264913D01*
X93324957Y-109280701D01*
X93324955Y-109280703D01*
X93286191Y-109327937D01*
X93247757Y-109399842D01*
X93224090Y-109477862D01*
X93220068Y-109518703D01*
X92857000Y-109518703D01*
X92800366Y-109524281D01*
X92745908Y-109540801D01*
X92695720Y-109567627D01*
X92651729Y-109603729D01*
X92615627Y-109647720D01*
X92588801Y-109697908D01*
X92572281Y-109752366D01*
X92566703Y-109809000D01*
X92566703Y-110409000D01*
X92572281Y-110465634D01*
X92588801Y-110520092D01*
X92615627Y-110570280D01*
X92651729Y-110614271D01*
X92695720Y-110650373D01*
X92745908Y-110677199D01*
X92800366Y-110693719D01*
X92857000Y-110699297D01*
X93333617Y-110699297D01*
X93360362Y-110707410D01*
X93441500Y-110715401D01*
X93522638Y-110707410D01*
X93549383Y-110699297D01*
X94201361Y-110699297D01*
X94111955Y-110788703D01*
X92857000Y-110788703D01*
X92800366Y-110794281D01*
X92745908Y-110810801D01*
X92695720Y-110837627D01*
X92651729Y-110873729D01*
X92615627Y-110917720D01*
X92590302Y-110965100D01*
X90547317Y-110965100D01*
X90526999Y-110963099D01*
X90506682Y-110965100D01*
X90506672Y-110965100D01*
X90445862Y-110971089D01*
X90367841Y-110994757D01*
X90295937Y-111033190D01*
X90271502Y-111053244D01*
X90251426Y-111069720D01*
X90232913Y-111084913D01*
X90219956Y-111100701D01*
X89192859Y-112127798D01*
X89168280Y-112107627D01*
X89118092Y-112080801D01*
X89063634Y-112064281D01*
X89007000Y-112058703D01*
X87457000Y-112058703D01*
X87400366Y-112064281D01*
X87345908Y-112080801D01*
X87295720Y-112107627D01*
X87251729Y-112143729D01*
X87215627Y-112187720D01*
X87188801Y-112237908D01*
X87172281Y-112292366D01*
X87166703Y-112349000D01*
X85763900Y-112349000D01*
X85763900Y-102090297D01*
X86650000Y-102090297D01*
X86706634Y-102084719D01*
X86761092Y-102068199D01*
X86811280Y-102041373D01*
X86855271Y-102005271D01*
X86891373Y-101961280D01*
X86918199Y-101911092D01*
X86934719Y-101856634D01*
X86940297Y-101800000D01*
X86940297Y-98200000D01*
X86934719Y-98143366D01*
X86918199Y-98088908D01*
X86891373Y-98038720D01*
X86855271Y-97994729D01*
X86811280Y-97958627D01*
X86761092Y-97931801D01*
X86706634Y-97915281D01*
X86650000Y-97909703D01*
X84050000Y-97909703D01*
X83993366Y-97915281D01*
X83938908Y-97931801D01*
X83888720Y-97958627D01*
X83844729Y-97994729D01*
X83808627Y-98038720D01*
X83781801Y-98088908D01*
X83765281Y-98143366D01*
X83759703Y-98200000D01*
X83759703Y-101800000D01*
X83765281Y-101856634D01*
X83781801Y-101911092D01*
X83808627Y-101961280D01*
X83844729Y-102005271D01*
X83888720Y-102041373D01*
X83938908Y-102068199D01*
X83993366Y-102084719D01*
X84050000Y-102090297D01*
X84936101Y-102090297D01*
X84936100Y-112655002D01*
X84767961Y-112467279D01*
X83719994Y-111063881D01*
X82800930Y-109572880D01*
X82018045Y-108006082D01*
X81377540Y-106375893D01*
X80884484Y-104695221D01*
X80542783Y-102977373D01*
X80355141Y-101235950D01*
X80323045Y-99484741D01*
X80446748Y-97737612D01*
X80725272Y-96008396D01*
X81156410Y-94310785D01*
X81736750Y-92658220D01*
X82461695Y-91063787D01*
X83325506Y-89540110D01*
X84321344Y-88099252D01*
X85441323Y-86752624D01*
X86676576Y-85510886D01*
X88017323Y-84383871D01*
X88959583Y-83725317D01*
X97211100Y-83725317D01*
X97211100Y-84274683D01*
X97318276Y-84813492D01*
X97528509Y-85321039D01*
X97833720Y-85777820D01*
X98222180Y-86166280D01*
X98678961Y-86471491D01*
X99186508Y-86681724D01*
X99725317Y-86788900D01*
X100274683Y-86788900D01*
X100813492Y-86681724D01*
X101321039Y-86471491D01*
X101777820Y-86166280D01*
X102166280Y-85777820D01*
X102471491Y-85321039D01*
X102681724Y-84813492D01*
X102788900Y-84274683D01*
X102788900Y-83725317D01*
X102681724Y-83186508D01*
X102471491Y-82678961D01*
X102166280Y-82222180D01*
X101777820Y-81833720D01*
X101321039Y-81528509D01*
X100813492Y-81318276D01*
X100274683Y-81211100D01*
X99725317Y-81211100D01*
X99186508Y-81318276D01*
X98678961Y-81528509D01*
X98222180Y-81833720D01*
X97833720Y-82222180D01*
X97528509Y-82678961D01*
X97318276Y-83186508D01*
X97211100Y-83725317D01*
X88959583Y-83725317D01*
X89452946Y-83380502D01*
X90972080Y-82508725D01*
X92562695Y-81775441D01*
X94212198Y-81186457D01*
X95907529Y-80746436D01*
X97635263Y-80458862D01*
X99381720Y-80326013D01*
X101133073Y-80348939D01*
X101133073Y-80348939D01*
G37*
X101133073Y-80348939D02*
X102875455Y-80527460D01*
X104595069Y-80860162D01*
X106278299Y-81344411D01*
X107911819Y-81976372D01*
X109482695Y-82751042D01*
X110978487Y-83662287D01*
X112387354Y-84702892D01*
X113698139Y-85864617D01*
X114900464Y-87138265D01*
X115984809Y-88513750D01*
X116942588Y-89980181D01*
X117766218Y-91525949D01*
X118449177Y-93138812D01*
X118986059Y-94806002D01*
X119372611Y-96514317D01*
X119605774Y-98250231D01*
X119683700Y-100000000D01*
X119656724Y-101030165D01*
X119487329Y-102773458D01*
X119163635Y-104494790D01*
X118688206Y-106180533D01*
X118064807Y-107817340D01*
X117298372Y-109392250D01*
X116635720Y-110492912D01*
X116635720Y-107327038D01*
X116637721Y-107306721D01*
X116635720Y-107286403D01*
X116635720Y-107286393D01*
X116629731Y-107225583D01*
X116606063Y-107147562D01*
X116567630Y-107075658D01*
X116515907Y-107012634D01*
X116500119Y-106999677D01*
X115763519Y-106263078D01*
X115750558Y-106247285D01*
X115687534Y-106195562D01*
X115682297Y-106192763D01*
X115682297Y-105638045D01*
X117499300Y-103821043D01*
X117515087Y-103808087D01*
X117566810Y-103745063D01*
X117605243Y-103673159D01*
X117628911Y-103595138D01*
X117634900Y-103534328D01*
X117634900Y-103534318D01*
X117636901Y-103514001D01*
X117634900Y-103493683D01*
X117634900Y-94709283D01*
X117636901Y-94688965D01*
X117634900Y-94668648D01*
X117634900Y-94668638D01*
X117628911Y-94607828D01*
X117605243Y-94529807D01*
X117566810Y-94457903D01*
X117515087Y-94394879D01*
X117499299Y-94381922D01*
X111284900Y-88167524D01*
X111284900Y-87598325D01*
X111286901Y-87578007D01*
X111284900Y-87557690D01*
X111284900Y-87557680D01*
X111278911Y-87496870D01*
X111255243Y-87418849D01*
X111216810Y-87346945D01*
X111165087Y-87283921D01*
X111149298Y-87270964D01*
X110891050Y-87012716D01*
X110878089Y-86996923D01*
X110815065Y-86945200D01*
X110743161Y-86906767D01*
X110665140Y-86883099D01*
X110604330Y-86877110D01*
X110604319Y-86877110D01*
X110584002Y-86875109D01*
X110563685Y-86877110D01*
X104816807Y-86877110D01*
X104796489Y-86875109D01*
X104776172Y-86877110D01*
X104776162Y-86877110D01*
X104715352Y-86883099D01*
X104637331Y-86906767D01*
X104565427Y-86945200D01*
X104502403Y-86996923D01*
X104489446Y-87012711D01*
X103880706Y-87621452D01*
X103880701Y-87621456D01*
X103856633Y-87645524D01*
X103826851Y-87639600D01*
X103691149Y-87639600D01*
X103558055Y-87666074D01*
X103432684Y-87718005D01*
X103319852Y-87793397D01*
X103223897Y-87889352D01*
X103148505Y-88002184D01*
X103096574Y-88127555D01*
X103070100Y-88260649D01*
X103070100Y-88396351D01*
X103096574Y-88529445D01*
X103148505Y-88654816D01*
X103223897Y-88767648D01*
X103319852Y-88863603D01*
X103432684Y-88938995D01*
X103558055Y-88990926D01*
X103691149Y-89017400D01*
X103826851Y-89017400D01*
X103959945Y-88990926D01*
X104085316Y-88938995D01*
X104198148Y-88863603D01*
X104294103Y-88767648D01*
X104369495Y-88654816D01*
X104421426Y-88529445D01*
X104447900Y-88396351D01*
X104447900Y-88260649D01*
X104441976Y-88230867D01*
X104466044Y-88206799D01*
X104466048Y-88206794D01*
X104967933Y-87704910D01*
X109547430Y-87704910D01*
X109533010Y-87726491D01*
X109481079Y-87851862D01*
X109454605Y-87984956D01*
X109454605Y-88120658D01*
X109481079Y-88253752D01*
X109533010Y-88379123D01*
X109608402Y-88491955D01*
X109704357Y-88587910D01*
X109729605Y-88604780D01*
X109729606Y-91377398D01*
X109727604Y-91397726D01*
X109735595Y-91478864D01*
X109755576Y-91544733D01*
X109741289Y-91616559D01*
X109741289Y-91752261D01*
X109767763Y-91885355D01*
X109819694Y-92010726D01*
X109895086Y-92123558D01*
X109991041Y-92219513D01*
X110103873Y-92294905D01*
X110229244Y-92346836D01*
X110362338Y-92373310D01*
X110498040Y-92373310D01*
X110631134Y-92346836D01*
X110756505Y-92294905D01*
X110869337Y-92219513D01*
X110965292Y-92123558D01*
X111040684Y-92010726D01*
X111092615Y-91885355D01*
X111119089Y-91752261D01*
X111119089Y-91616559D01*
X111092615Y-91483465D01*
X111040684Y-91358094D01*
X110965292Y-91245262D01*
X110869337Y-91149307D01*
X110756505Y-91073915D01*
X110631134Y-91021984D01*
X110557405Y-91007318D01*
X110557405Y-88609282D01*
X110576913Y-88633053D01*
X110592707Y-88646015D01*
X116807101Y-94860410D01*
X116807100Y-103342557D01*
X115214786Y-104934872D01*
X115142001Y-104927703D01*
X114491999Y-104927703D01*
X114386592Y-104938085D01*
X114285237Y-104968831D01*
X114191827Y-105018759D01*
X114109952Y-105085952D01*
X114042759Y-105167827D01*
X113992831Y-105261237D01*
X113962085Y-105362592D01*
X113951703Y-105467999D01*
X113951703Y-105985754D01*
X113608700Y-106328758D01*
X113608700Y-106149775D01*
X113542025Y-106083100D01*
X112932100Y-106083100D01*
X112932100Y-106103100D01*
X112601900Y-106103100D01*
X112601900Y-106083100D01*
X111991975Y-106083100D01*
X111925300Y-106149775D01*
X111925300Y-106644267D01*
X111935549Y-106695793D01*
X111955653Y-106744330D01*
X111969525Y-106765090D01*
X93375737Y-106765090D01*
X93355420Y-106763089D01*
X93335102Y-106765090D01*
X93335092Y-106765090D01*
X93274282Y-106771079D01*
X93196261Y-106794747D01*
X93124357Y-106833180D01*
X93061333Y-106884903D01*
X93048376Y-106900691D01*
X90253968Y-109695100D01*
X89273698Y-109695100D01*
X89248373Y-109647720D01*
X89212271Y-109603729D01*
X89168280Y-109567627D01*
X89118092Y-109540801D01*
X89063634Y-109524281D01*
X89007000Y-109518703D01*
X87457000Y-109518703D01*
X87400366Y-109524281D01*
X87345908Y-109540801D01*
X87295720Y-109567627D01*
X87251729Y-109603729D01*
X87215627Y-109647720D01*
X87188801Y-109697908D01*
X87172281Y-109752366D01*
X87166703Y-109809000D01*
X87166703Y-110164612D01*
X86928300Y-109926209D01*
X86928300Y-108323291D01*
X90059858Y-105191733D01*
X111925300Y-105191733D01*
X111925300Y-105686225D01*
X111991975Y-105752900D01*
X112601900Y-105752900D01*
X112601900Y-105017975D01*
X112932100Y-105017975D01*
X112932100Y-105752900D01*
X113542025Y-105752900D01*
X113608700Y-105686225D01*
X113608700Y-105191733D01*
X113598451Y-105140207D01*
X113578347Y-105091670D01*
X113549160Y-105047989D01*
X113512012Y-105010841D01*
X113468330Y-104981654D01*
X113419794Y-104961549D01*
X113368268Y-104951300D01*
X112998775Y-104951300D01*
X112932100Y-105017975D01*
X112601900Y-105017975D01*
X112535225Y-104951300D01*
X112165732Y-104951300D01*
X112114206Y-104961549D01*
X112065670Y-104981654D01*
X112021988Y-105010841D01*
X111984840Y-105047989D01*
X111955653Y-105091670D01*
X111935549Y-105140207D01*
X111925300Y-105191733D01*
X90059858Y-105191733D01*
X95019816Y-100231775D01*
X113083300Y-100231775D01*
X113083300Y-101826267D01*
X113093549Y-101877793D01*
X113113653Y-101926330D01*
X113142840Y-101970011D01*
X113179988Y-102007159D01*
X113223670Y-102036346D01*
X113272206Y-102056451D01*
X113323732Y-102066700D01*
X114418225Y-102066700D01*
X114484900Y-102000025D01*
X114484900Y-100165100D01*
X114815100Y-100165100D01*
X114815100Y-102000025D01*
X114881775Y-102066700D01*
X115976268Y-102066700D01*
X116027794Y-102056451D01*
X116076330Y-102036346D01*
X116120012Y-102007159D01*
X116157160Y-101970011D01*
X116186347Y-101926330D01*
X116206451Y-101877793D01*
X116216700Y-101826267D01*
X116216700Y-100231775D01*
X116150025Y-100165100D01*
X114815100Y-100165100D01*
X114484900Y-100165100D01*
X113149975Y-100165100D01*
X113083300Y-100231775D01*
X95019816Y-100231775D01*
X97077858Y-98173733D01*
X113083300Y-98173733D01*
X113083300Y-99768225D01*
X113149975Y-99834900D01*
X114484900Y-99834900D01*
X114484900Y-97999975D01*
X114815100Y-97999975D01*
X114815100Y-99834900D01*
X116150025Y-99834900D01*
X116216700Y-99768225D01*
X116216700Y-98173733D01*
X116206451Y-98122207D01*
X116186347Y-98073670D01*
X116157160Y-98029989D01*
X116120012Y-97992841D01*
X116076330Y-97963654D01*
X116027794Y-97943549D01*
X115976268Y-97933300D01*
X114881775Y-97933300D01*
X114815100Y-97999975D01*
X114484900Y-97999975D01*
X114418225Y-97933300D01*
X113323732Y-97933300D01*
X113272206Y-97943549D01*
X113223670Y-97963654D01*
X113179988Y-97992841D01*
X113142840Y-98029989D01*
X113113653Y-98073670D01*
X113093549Y-98122207D01*
X113083300Y-98173733D01*
X97077858Y-98173733D01*
X103568042Y-91683549D01*
X107499606Y-91683549D01*
X107499606Y-91819251D01*
X107526080Y-91952345D01*
X107578011Y-92077716D01*
X107653403Y-92190548D01*
X107749358Y-92286503D01*
X107862190Y-92361895D01*
X107987561Y-92413826D01*
X108120655Y-92440300D01*
X108256357Y-92440300D01*
X108389451Y-92413826D01*
X108514822Y-92361895D01*
X108627654Y-92286503D01*
X108723609Y-92190548D01*
X108799001Y-92077716D01*
X108850932Y-91952345D01*
X108877406Y-91819251D01*
X108877406Y-91683549D01*
X108850932Y-91550455D01*
X108799001Y-91425084D01*
X108723609Y-91312252D01*
X108627654Y-91216297D01*
X108602406Y-91199427D01*
X108602406Y-89520994D01*
X108763449Y-89359952D01*
X108793231Y-89365876D01*
X108928933Y-89365876D01*
X109062027Y-89339402D01*
X109187398Y-89287471D01*
X109300230Y-89212079D01*
X109396185Y-89116124D01*
X109471577Y-89003292D01*
X109523508Y-88877921D01*
X109549982Y-88744827D01*
X109549982Y-88609125D01*
X109523508Y-88476031D01*
X109471577Y-88350660D01*
X109396185Y-88237828D01*
X109300230Y-88141873D01*
X109187398Y-88066481D01*
X109062027Y-88014550D01*
X108928933Y-87988076D01*
X108793231Y-87988076D01*
X108660137Y-88014550D01*
X108534766Y-88066481D01*
X108421934Y-88141873D01*
X108325979Y-88237828D01*
X108250587Y-88350660D01*
X108198656Y-88476031D01*
X108172182Y-88609125D01*
X108172182Y-88744827D01*
X108178106Y-88774609D01*
X107910212Y-89042504D01*
X107894419Y-89055465D01*
X107842696Y-89118490D01*
X107804263Y-89190394D01*
X107780595Y-89268415D01*
X107774606Y-89329225D01*
X107774606Y-89329235D01*
X107772605Y-89349552D01*
X107774606Y-89369870D01*
X107774607Y-91165378D01*
X107774606Y-91165388D01*
X107774606Y-91199427D01*
X107749358Y-91216297D01*
X107653403Y-91312252D01*
X107578011Y-91425084D01*
X107526080Y-91550455D01*
X107499606Y-91683549D01*
X103568042Y-91683549D01*
X105633835Y-89617757D01*
X105653555Y-89625926D01*
X105786649Y-89652400D01*
X105922351Y-89652400D01*
X106055445Y-89625926D01*
X106180816Y-89573995D01*
X106293648Y-89498603D01*
X106389603Y-89402648D01*
X106464995Y-89289816D01*
X106516926Y-89164445D01*
X106543400Y-89031351D01*
X106543400Y-88895649D01*
X106516926Y-88762555D01*
X106464995Y-88637184D01*
X106389603Y-88524352D01*
X106293648Y-88428397D01*
X106180816Y-88353005D01*
X106055445Y-88301074D01*
X105922351Y-88274600D01*
X105786649Y-88274600D01*
X105653555Y-88301074D01*
X105528184Y-88353005D01*
X105415352Y-88428397D01*
X105319397Y-88524352D01*
X105244005Y-88637184D01*
X105192074Y-88762555D01*
X105179962Y-88823446D01*
X86190286Y-107813123D01*
X86173445Y-107826944D01*
X86159626Y-107843783D01*
X86118297Y-107894141D01*
X86077320Y-107970805D01*
X86052086Y-108053990D01*
X86043565Y-108140500D01*
X86045701Y-108162186D01*
X86045700Y-110087324D01*
X86043565Y-110109000D01*
X86045700Y-110130676D01*
X86045700Y-110130677D01*
X86052085Y-110195509D01*
X86077319Y-110278694D01*
X86087706Y-110298127D01*
X86118297Y-110355359D01*
X86134683Y-110375325D01*
X86173444Y-110422556D01*
X86190291Y-110436382D01*
X87166703Y-111412795D01*
X87166703Y-111679000D01*
X87172281Y-111735634D01*
X87188801Y-111790092D01*
X87215627Y-111840280D01*
X87251729Y-111884271D01*
X87295720Y-111920373D01*
X87345908Y-111947199D01*
X87400366Y-111963719D01*
X87457000Y-111969297D01*
X89007000Y-111969297D01*
X89063634Y-111963719D01*
X89118092Y-111947199D01*
X89168280Y-111920373D01*
X89212271Y-111884271D01*
X89248373Y-111840280D01*
X89275199Y-111790092D01*
X89291719Y-111735634D01*
X89297297Y-111679000D01*
X89297297Y-111079000D01*
X89291719Y-111022366D01*
X89275199Y-110967908D01*
X89248373Y-110917720D01*
X89212271Y-110873729D01*
X89168280Y-110837627D01*
X89118092Y-110810801D01*
X89063634Y-110794281D01*
X89007000Y-110788703D01*
X87790795Y-110788703D01*
X87701389Y-110699297D01*
X89007000Y-110699297D01*
X89063634Y-110693719D01*
X89118092Y-110677199D01*
X89168280Y-110650373D01*
X89212271Y-110614271D01*
X89248373Y-110570280D01*
X89273698Y-110522900D01*
X90405093Y-110522900D01*
X90425410Y-110524901D01*
X90445727Y-110522900D01*
X90445738Y-110522900D01*
X90506548Y-110516911D01*
X90584569Y-110493243D01*
X90656473Y-110454810D01*
X90719497Y-110403087D01*
X90732459Y-110387293D01*
X93526863Y-107592890D01*
X111925300Y-107592890D01*
X111925300Y-107972225D01*
X111991975Y-108038900D01*
X112601900Y-108038900D01*
X112601900Y-108018900D01*
X112932100Y-108018900D01*
X112932100Y-108038900D01*
X113542025Y-108038900D01*
X113608700Y-107972225D01*
X113608700Y-107497039D01*
X113637897Y-107473077D01*
X113650859Y-107457283D01*
X114256392Y-106851751D01*
X114285237Y-106867169D01*
X114386592Y-106897915D01*
X114491999Y-106908297D01*
X115142001Y-106908297D01*
X115229441Y-106899685D01*
X115807921Y-107478165D01*
X115807920Y-110510927D01*
X115632386Y-110686461D01*
X115601025Y-110655100D01*
X114991100Y-110655100D01*
X114991100Y-111327747D01*
X110120247Y-116198601D01*
X105835443Y-116198601D01*
X104332899Y-114696058D01*
X104332899Y-114205900D01*
X105288703Y-114205900D01*
X105288703Y-114242001D01*
X105299085Y-114347408D01*
X105329831Y-114448763D01*
X105379759Y-114542173D01*
X105446952Y-114624048D01*
X105528827Y-114691241D01*
X105622237Y-114741169D01*
X105723592Y-114771915D01*
X105828999Y-114782297D01*
X106479001Y-114782297D01*
X106584408Y-114771915D01*
X106685763Y-114741169D01*
X106779173Y-114691241D01*
X106861048Y-114624048D01*
X106928241Y-114542173D01*
X106978169Y-114448763D01*
X107008915Y-114347408D01*
X107019297Y-114242001D01*
X107019297Y-113341999D01*
X107008915Y-113236592D01*
X106985256Y-113158598D01*
X107338703Y-113512046D01*
X107338703Y-114242001D01*
X107349085Y-114347408D01*
X107379831Y-114448763D01*
X107429759Y-114542173D01*
X107496952Y-114624048D01*
X107578827Y-114691241D01*
X107672237Y-114741169D01*
X107773592Y-114771915D01*
X107878999Y-114782297D01*
X108529001Y-114782297D01*
X108634408Y-114771915D01*
X108735763Y-114741169D01*
X108829173Y-114691241D01*
X108911048Y-114624048D01*
X108978241Y-114542173D01*
X109028169Y-114448763D01*
X109058915Y-114347408D01*
X109069297Y-114242001D01*
X109069297Y-113341999D01*
X109058915Y-113236592D01*
X109028169Y-113135237D01*
X108978241Y-113041827D01*
X108911048Y-112959952D01*
X108829173Y-112892759D01*
X108735763Y-112842831D01*
X108634408Y-112812085D01*
X108529001Y-112801703D01*
X107878999Y-112801703D01*
X107806215Y-112808872D01*
X106842562Y-111845219D01*
X106861048Y-111830048D01*
X106928241Y-111748173D01*
X106978169Y-111654763D01*
X107008915Y-111553408D01*
X107019297Y-111448001D01*
X107019297Y-110547999D01*
X107008915Y-110442592D01*
X106978169Y-110341237D01*
X106928241Y-110247827D01*
X106861048Y-110165952D01*
X106779173Y-110098759D01*
X106685763Y-110048831D01*
X106584408Y-110018085D01*
X106479001Y-110007703D01*
X105828999Y-110007703D01*
X105723592Y-110018085D01*
X105622237Y-110048831D01*
X105528827Y-110098759D01*
X105446952Y-110165952D01*
X105379759Y-110247827D01*
X105356913Y-110290570D01*
X105061046Y-109994704D01*
X105048085Y-109978911D01*
X104985061Y-109927188D01*
X104913157Y-109888755D01*
X104835136Y-109865087D01*
X104774326Y-109859098D01*
X104774315Y-109859098D01*
X104753998Y-109857097D01*
X104733681Y-109859098D01*
X97053319Y-109859098D01*
X97033001Y-109857097D01*
X97012684Y-109859098D01*
X97012674Y-109859098D01*
X96951864Y-109865087D01*
X96873843Y-109888755D01*
X96801939Y-109927188D01*
X96801937Y-109927189D01*
X96801938Y-109927189D01*
X96774337Y-109949841D01*
X96738915Y-109978911D01*
X96725958Y-109994699D01*
X94592859Y-112127799D01*
X94568280Y-112107627D01*
X94518092Y-112080801D01*
X94463634Y-112064281D01*
X94407000Y-112058703D01*
X92857000Y-112058703D01*
X92800366Y-112064281D01*
X92745908Y-112080801D01*
X92695720Y-112107627D01*
X92651729Y-112143729D01*
X92615627Y-112187720D01*
X92588801Y-112237908D01*
X92572281Y-112292366D01*
X92566703Y-112349000D01*
X92566703Y-112949000D01*
X92572281Y-113005634D01*
X92588801Y-113060092D01*
X92615627Y-113110280D01*
X92651729Y-113154271D01*
X92695720Y-113190373D01*
X92745908Y-113217199D01*
X92800366Y-113233719D01*
X92857000Y-113239297D01*
X94407000Y-113239297D01*
X94463634Y-113233719D01*
X94518092Y-113217199D01*
X94568280Y-113190373D01*
X94612271Y-113154271D01*
X94648373Y-113110280D01*
X94673497Y-113063276D01*
X94677317Y-113062900D01*
X94677328Y-113062900D01*
X94738138Y-113056911D01*
X94816159Y-113033243D01*
X94888063Y-112994810D01*
X94951087Y-112943087D01*
X94964049Y-112927293D01*
X96481703Y-111409640D01*
X96481703Y-112885954D01*
X95862558Y-113505100D01*
X94673698Y-113505100D01*
X94648373Y-113457720D01*
X94612271Y-113413729D01*
X94568280Y-113377627D01*
X94518092Y-113350801D01*
X94463634Y-113334281D01*
X94407000Y-113328703D01*
X92857000Y-113328703D01*
X92800366Y-113334281D01*
X92745908Y-113350801D01*
X92695720Y-113377627D01*
X92651729Y-113413729D01*
X92615627Y-113457720D01*
X92588801Y-113507908D01*
X92572281Y-113562366D01*
X92566703Y-113619000D01*
X92566703Y-114219000D01*
X92572281Y-114275634D01*
X92588801Y-114330092D01*
X92615627Y-114380280D01*
X92651729Y-114424271D01*
X92695720Y-114460373D01*
X92745908Y-114487199D01*
X92800366Y-114503719D01*
X92857000Y-114509297D01*
X94407000Y-114509297D01*
X94463634Y-114503719D01*
X94518092Y-114487199D01*
X94568280Y-114460373D01*
X94612271Y-114424271D01*
X94648373Y-114380280D01*
X94673698Y-114332900D01*
X96013683Y-114332900D01*
X96034000Y-114334901D01*
X96054317Y-114332900D01*
X96054328Y-114332900D01*
X96115138Y-114326911D01*
X96193159Y-114303243D01*
X96265063Y-114264810D01*
X96328087Y-114213087D01*
X96341049Y-114197293D01*
X96908100Y-113630242D01*
X96908101Y-116590703D01*
X96772000Y-116590703D01*
X96715366Y-116596281D01*
X96660908Y-116612801D01*
X96610720Y-116639627D01*
X96566729Y-116675729D01*
X96530627Y-116719720D01*
X96503801Y-116769908D01*
X96487281Y-116824366D01*
X96481703Y-116881000D01*
X96481703Y-118692860D01*
X92382049Y-114593207D01*
X92369087Y-114577413D01*
X92306063Y-114525690D01*
X92234159Y-114487257D01*
X92156138Y-114463589D01*
X92095328Y-114457600D01*
X92095317Y-114457600D01*
X92075000Y-114455599D01*
X92054683Y-114457600D01*
X89127889Y-114457600D01*
X89133330Y-114455346D01*
X89177012Y-114426159D01*
X89214160Y-114389011D01*
X89243347Y-114345330D01*
X89263451Y-114296793D01*
X89273700Y-114245267D01*
X89273700Y-114135675D01*
X89207025Y-114069000D01*
X88397100Y-114069000D01*
X88397100Y-114104100D01*
X88066900Y-114104100D01*
X88066900Y-114069000D01*
X87307341Y-114069000D01*
X86831074Y-113592733D01*
X87190300Y-113592733D01*
X87190300Y-113702325D01*
X87256975Y-113769000D01*
X88066900Y-113769000D01*
X88066900Y-113418975D01*
X88397100Y-113418975D01*
X88397100Y-113769000D01*
X89207025Y-113769000D01*
X89273700Y-113702325D01*
X89273700Y-113592733D01*
X89263451Y-113541207D01*
X89243347Y-113492670D01*
X89214160Y-113448989D01*
X89177012Y-113411841D01*
X89133330Y-113382654D01*
X89084794Y-113362549D01*
X89033268Y-113352300D01*
X88463775Y-113352300D01*
X88397100Y-113418975D01*
X88066900Y-113418975D01*
X88000225Y-113352300D01*
X87430732Y-113352300D01*
X87379206Y-113362549D01*
X87330670Y-113382654D01*
X87286988Y-113411841D01*
X87249840Y-113448989D01*
X87220653Y-113492670D01*
X87200549Y-113541207D01*
X87190300Y-113592733D01*
X86831074Y-113592733D01*
X85763900Y-112525560D01*
X85763900Y-112349000D01*
X87166703Y-112349000D01*
X87166703Y-112949000D01*
X87172281Y-113005634D01*
X87188801Y-113060092D01*
X87215627Y-113110280D01*
X87251729Y-113154271D01*
X87295720Y-113190373D01*
X87345908Y-113217199D01*
X87400366Y-113233719D01*
X87457000Y-113239297D01*
X89007000Y-113239297D01*
X89063634Y-113233719D01*
X89118092Y-113217199D01*
X89168280Y-113190373D01*
X89212271Y-113154271D01*
X89248373Y-113110280D01*
X89273497Y-113063276D01*
X89277317Y-113062900D01*
X89277328Y-113062900D01*
X89338138Y-113056911D01*
X89416159Y-113033243D01*
X89488063Y-112994810D01*
X89551087Y-112943087D01*
X89564049Y-112927293D01*
X90698443Y-111792900D01*
X92590302Y-111792900D01*
X92615627Y-111840280D01*
X92651729Y-111884271D01*
X92695720Y-111920373D01*
X92745908Y-111947199D01*
X92800366Y-111963719D01*
X92857000Y-111969297D01*
X94407000Y-111969297D01*
X94463634Y-111963719D01*
X94518092Y-111947199D01*
X94568280Y-111920373D01*
X94612271Y-111884271D01*
X94648373Y-111840280D01*
X94675199Y-111790092D01*
X94691719Y-111735634D01*
X94697297Y-111679000D01*
X94697297Y-111374045D01*
X96284465Y-109786878D01*
X107207536Y-109786878D01*
X107546196Y-110125539D01*
X107496952Y-110165952D01*
X107429759Y-110247827D01*
X107379831Y-110341237D01*
X107349085Y-110442592D01*
X107338703Y-110547999D01*
X107338703Y-111448001D01*
X107349085Y-111553408D01*
X107379831Y-111654763D01*
X107429759Y-111748173D01*
X107496952Y-111830048D01*
X107578827Y-111897241D01*
X107672237Y-111947169D01*
X107773592Y-111977915D01*
X107878999Y-111988297D01*
X108529001Y-111988297D01*
X108634408Y-111977915D01*
X108735763Y-111947169D01*
X108829173Y-111897241D01*
X108911048Y-111830048D01*
X108978241Y-111748173D01*
X109001087Y-111705430D01*
X109714956Y-112419299D01*
X109727913Y-112435087D01*
X109790937Y-112486810D01*
X109862841Y-112525243D01*
X109940862Y-112548911D01*
X110001672Y-112554900D01*
X110001682Y-112554900D01*
X110021999Y-112556901D01*
X110042317Y-112554900D01*
X112882683Y-112554900D01*
X112903000Y-112556901D01*
X112923317Y-112554900D01*
X112923328Y-112554900D01*
X112984138Y-112548911D01*
X113062159Y-112525243D01*
X113134063Y-112486810D01*
X113197087Y-112435087D01*
X113210049Y-112419294D01*
X114181285Y-111448058D01*
X114224732Y-111456700D01*
X114594225Y-111456700D01*
X114660900Y-111390025D01*
X114660900Y-110655100D01*
X114640900Y-110655100D01*
X114640900Y-110324900D01*
X114660900Y-110324900D01*
X114660900Y-109589975D01*
X114991100Y-109589975D01*
X114991100Y-110324900D01*
X115601025Y-110324900D01*
X115667700Y-110258225D01*
X115667700Y-109763733D01*
X115657451Y-109712207D01*
X115637347Y-109663670D01*
X115608160Y-109619989D01*
X115571012Y-109582841D01*
X115527330Y-109553654D01*
X115478794Y-109533549D01*
X115427268Y-109523300D01*
X115057775Y-109523300D01*
X114991100Y-109589975D01*
X114660900Y-109589975D01*
X114594225Y-109523300D01*
X114339890Y-109523300D01*
X114339890Y-109266452D01*
X114419214Y-109187128D01*
X114491999Y-109194297D01*
X115142001Y-109194297D01*
X115247408Y-109183915D01*
X115348763Y-109153169D01*
X115442173Y-109103241D01*
X115524048Y-109036048D01*
X115591241Y-108954173D01*
X115641169Y-108860763D01*
X115671915Y-108759408D01*
X115682297Y-108654001D01*
X115682297Y-107753999D01*
X115671915Y-107648592D01*
X115641169Y-107547237D01*
X115591241Y-107453827D01*
X115524048Y-107371952D01*
X115442173Y-107304759D01*
X115348763Y-107254831D01*
X115247408Y-107224085D01*
X115142001Y-107213703D01*
X114491999Y-107213703D01*
X114386592Y-107224085D01*
X114285237Y-107254831D01*
X114191827Y-107304759D01*
X114109952Y-107371952D01*
X114042759Y-107453827D01*
X113992831Y-107547237D01*
X113962085Y-107648592D01*
X113951703Y-107753999D01*
X113951703Y-108483955D01*
X113647692Y-108787966D01*
X113631904Y-108800923D01*
X113618947Y-108816711D01*
X113618945Y-108816713D01*
X113608700Y-108829197D01*
X113608700Y-108435775D01*
X113542025Y-108369100D01*
X112932100Y-108369100D01*
X112932100Y-109104025D01*
X112998775Y-109170700D01*
X113368268Y-109170700D01*
X113419794Y-109160451D01*
X113468330Y-109140346D01*
X113511700Y-109111367D01*
X113512091Y-109115337D01*
X113512091Y-109693341D01*
X113483048Y-109657952D01*
X113401173Y-109590759D01*
X113307763Y-109540831D01*
X113206408Y-109510085D01*
X113101001Y-109499703D01*
X112450999Y-109499703D01*
X112378214Y-109506872D01*
X111307117Y-108435775D01*
X111925300Y-108435775D01*
X111925300Y-108930267D01*
X111935549Y-108981793D01*
X111955653Y-109030330D01*
X111984840Y-109074011D01*
X112021988Y-109111159D01*
X112065670Y-109140346D01*
X112114206Y-109160451D01*
X112165732Y-109170700D01*
X112535225Y-109170700D01*
X112601900Y-109104025D01*
X112601900Y-108369100D01*
X111991975Y-108369100D01*
X111925300Y-108435775D01*
X111307117Y-108435775D01*
X111305049Y-108433707D01*
X111292087Y-108417913D01*
X111229063Y-108366190D01*
X111157159Y-108327757D01*
X111079138Y-108304089D01*
X111018328Y-108298100D01*
X111018317Y-108298100D01*
X110998000Y-108296099D01*
X110977683Y-108298100D01*
X94499317Y-108298100D01*
X94479000Y-108296099D01*
X94458682Y-108298100D01*
X94458672Y-108298100D01*
X94397862Y-108304089D01*
X94319841Y-108327757D01*
X94247937Y-108366190D01*
X94184913Y-108417913D01*
X94171956Y-108433701D01*
X93353702Y-109251956D01*
X93337914Y-109264913D01*
X93324957Y-109280701D01*
X93324955Y-109280703D01*
X93286191Y-109327937D01*
X93247757Y-109399842D01*
X93224090Y-109477862D01*
X93220068Y-109518703D01*
X92857000Y-109518703D01*
X92800366Y-109524281D01*
X92745908Y-109540801D01*
X92695720Y-109567627D01*
X92651729Y-109603729D01*
X92615627Y-109647720D01*
X92588801Y-109697908D01*
X92572281Y-109752366D01*
X92566703Y-109809000D01*
X92566703Y-110409000D01*
X92572281Y-110465634D01*
X92588801Y-110520092D01*
X92615627Y-110570280D01*
X92651729Y-110614271D01*
X92695720Y-110650373D01*
X92745908Y-110677199D01*
X92800366Y-110693719D01*
X92857000Y-110699297D01*
X93333617Y-110699297D01*
X93360362Y-110707410D01*
X93441500Y-110715401D01*
X93522638Y-110707410D01*
X93549383Y-110699297D01*
X94201361Y-110699297D01*
X94111955Y-110788703D01*
X92857000Y-110788703D01*
X92800366Y-110794281D01*
X92745908Y-110810801D01*
X92695720Y-110837627D01*
X92651729Y-110873729D01*
X92615627Y-110917720D01*
X92590302Y-110965100D01*
X90547317Y-110965100D01*
X90526999Y-110963099D01*
X90506682Y-110965100D01*
X90506672Y-110965100D01*
X90445862Y-110971089D01*
X90367841Y-110994757D01*
X90295937Y-111033190D01*
X90271502Y-111053244D01*
X90251426Y-111069720D01*
X90232913Y-111084913D01*
X90219956Y-111100701D01*
X89192859Y-112127798D01*
X89168280Y-112107627D01*
X89118092Y-112080801D01*
X89063634Y-112064281D01*
X89007000Y-112058703D01*
X87457000Y-112058703D01*
X87400366Y-112064281D01*
X87345908Y-112080801D01*
X87295720Y-112107627D01*
X87251729Y-112143729D01*
X87215627Y-112187720D01*
X87188801Y-112237908D01*
X87172281Y-112292366D01*
X87166703Y-112349000D01*
X85763900Y-112349000D01*
X85763900Y-102090297D01*
X86650000Y-102090297D01*
X86706634Y-102084719D01*
X86761092Y-102068199D01*
X86811280Y-102041373D01*
X86855271Y-102005271D01*
X86891373Y-101961280D01*
X86918199Y-101911092D01*
X86934719Y-101856634D01*
X86940297Y-101800000D01*
X86940297Y-98200000D01*
X86934719Y-98143366D01*
X86918199Y-98088908D01*
X86891373Y-98038720D01*
X86855271Y-97994729D01*
X86811280Y-97958627D01*
X86761092Y-97931801D01*
X86706634Y-97915281D01*
X86650000Y-97909703D01*
X84050000Y-97909703D01*
X83993366Y-97915281D01*
X83938908Y-97931801D01*
X83888720Y-97958627D01*
X83844729Y-97994729D01*
X83808627Y-98038720D01*
X83781801Y-98088908D01*
X83765281Y-98143366D01*
X83759703Y-98200000D01*
X83759703Y-101800000D01*
X83765281Y-101856634D01*
X83781801Y-101911092D01*
X83808627Y-101961280D01*
X83844729Y-102005271D01*
X83888720Y-102041373D01*
X83938908Y-102068199D01*
X83993366Y-102084719D01*
X84050000Y-102090297D01*
X84936101Y-102090297D01*
X84936100Y-112655002D01*
X84767961Y-112467279D01*
X83719994Y-111063881D01*
X82800930Y-109572880D01*
X82018045Y-108006082D01*
X81377540Y-106375893D01*
X80884484Y-104695221D01*
X80542783Y-102977373D01*
X80355141Y-101235950D01*
X80323045Y-99484741D01*
X80446748Y-97737612D01*
X80725272Y-96008396D01*
X81156410Y-94310785D01*
X81736750Y-92658220D01*
X82461695Y-91063787D01*
X83325506Y-89540110D01*
X84321344Y-88099252D01*
X85441323Y-86752624D01*
X86676576Y-85510886D01*
X88017323Y-84383871D01*
X88959583Y-83725317D01*
X97211100Y-83725317D01*
X97211100Y-84274683D01*
X97318276Y-84813492D01*
X97528509Y-85321039D01*
X97833720Y-85777820D01*
X98222180Y-86166280D01*
X98678961Y-86471491D01*
X99186508Y-86681724D01*
X99725317Y-86788900D01*
X100274683Y-86788900D01*
X100813492Y-86681724D01*
X101321039Y-86471491D01*
X101777820Y-86166280D01*
X102166280Y-85777820D01*
X102471491Y-85321039D01*
X102681724Y-84813492D01*
X102788900Y-84274683D01*
X102788900Y-83725317D01*
X102681724Y-83186508D01*
X102471491Y-82678961D01*
X102166280Y-82222180D01*
X101777820Y-81833720D01*
X101321039Y-81528509D01*
X100813492Y-81318276D01*
X100274683Y-81211100D01*
X99725317Y-81211100D01*
X99186508Y-81318276D01*
X98678961Y-81528509D01*
X98222180Y-81833720D01*
X97833720Y-82222180D01*
X97528509Y-82678961D01*
X97318276Y-83186508D01*
X97211100Y-83725317D01*
X88959583Y-83725317D01*
X89452946Y-83380502D01*
X90972080Y-82508725D01*
X92562695Y-81775441D01*
X94212198Y-81186457D01*
X95907529Y-80746436D01*
X97635263Y-80458862D01*
X99381720Y-80326013D01*
X101133073Y-80348939D01*
G04 #@! TD*
M02*
