G04 #@! TF.GenerationSoftware,KiCad,Pcbnew,5.1.9*
G04 #@! TF.CreationDate,2021-04-20T19:19:39+02:00*
G04 #@! TF.ProjectId,nibble++,6e696262-6c65-42b2-9b2e-6b696361645f,rev?*
G04 #@! TF.SameCoordinates,Original*
G04 #@! TF.FileFunction,Soldermask,Bot*
G04 #@! TF.FilePolarity,Negative*
%FSLAX46Y46*%
G04 Gerber Fmt 4.6, Leading zero omitted, Abs format (unit mm)*
G04 Created by KiCad (PCBNEW 5.1.9) date 2021-04-20 19:19:39*
%MOMM*%
%LPD*%
G01*
G04 APERTURE LIST*
%ADD10C,5.101600*%
G04 APERTURE END LIST*
G36*
G01*
X115600800Y-105439285D02*
X115600800Y-106396715D01*
G75*
G02*
X115328715Y-106668800I-272085J0D01*
G01*
X114621285Y-106668800D01*
G75*
G02*
X114349200Y-106396715I0J272085D01*
G01*
X114349200Y-105439285D01*
G75*
G02*
X114621285Y-105167200I272085J0D01*
G01*
X115328715Y-105167200D01*
G75*
G02*
X115600800Y-105439285I0J-272085D01*
G01*
G37*
G36*
G01*
X117650800Y-105439285D02*
X117650800Y-106396715D01*
G75*
G02*
X117378715Y-106668800I-272085J0D01*
G01*
X116671285Y-106668800D01*
G75*
G02*
X116399200Y-106396715I0J272085D01*
G01*
X116399200Y-105439285D01*
G75*
G02*
X116671285Y-105167200I272085J0D01*
G01*
X117378715Y-105167200D01*
G75*
G02*
X117650800Y-105439285I0J-272085D01*
G01*
G37*
G36*
G01*
X115600800Y-107725285D02*
X115600800Y-108682715D01*
G75*
G02*
X115328715Y-108954800I-272085J0D01*
G01*
X114621285Y-108954800D01*
G75*
G02*
X114349200Y-108682715I0J272085D01*
G01*
X114349200Y-107725285D01*
G75*
G02*
X114621285Y-107453200I272085J0D01*
G01*
X115328715Y-107453200D01*
G75*
G02*
X115600800Y-107725285I0J-272085D01*
G01*
G37*
G36*
G01*
X117650800Y-107725285D02*
X117650800Y-108682715D01*
G75*
G02*
X117378715Y-108954800I-272085J0D01*
G01*
X116671285Y-108954800D01*
G75*
G02*
X116399200Y-108682715I0J272085D01*
G01*
X116399200Y-107725285D01*
G75*
G02*
X116671285Y-107453200I272085J0D01*
G01*
X117378715Y-107453200D01*
G75*
G02*
X117650800Y-107725285I0J-272085D01*
G01*
G37*
G36*
G01*
X114200200Y-110968715D02*
X114200200Y-110011285D01*
G75*
G02*
X114472285Y-109739200I272085J0D01*
G01*
X115179715Y-109739200D01*
G75*
G02*
X115451800Y-110011285I0J-272085D01*
G01*
X115451800Y-110968715D01*
G75*
G02*
X115179715Y-111240800I-272085J0D01*
G01*
X114472285Y-111240800D01*
G75*
G02*
X114200200Y-110968715I0J272085D01*
G01*
G37*
G36*
G01*
X112150200Y-110968715D02*
X112150200Y-110011285D01*
G75*
G02*
X112422285Y-109739200I272085J0D01*
G01*
X113129715Y-109739200D01*
G75*
G02*
X113401800Y-110011285I0J-272085D01*
G01*
X113401800Y-110968715D01*
G75*
G02*
X113129715Y-111240800I-272085J0D01*
G01*
X112422285Y-111240800D01*
G75*
G02*
X112150200Y-110968715I0J272085D01*
G01*
G37*
G36*
G01*
X107578200Y-114270715D02*
X107578200Y-113313285D01*
G75*
G02*
X107850285Y-113041200I272085J0D01*
G01*
X108557715Y-113041200D01*
G75*
G02*
X108829800Y-113313285I0J-272085D01*
G01*
X108829800Y-114270715D01*
G75*
G02*
X108557715Y-114542800I-272085J0D01*
G01*
X107850285Y-114542800D01*
G75*
G02*
X107578200Y-114270715I0J272085D01*
G01*
G37*
G36*
G01*
X105528200Y-114270715D02*
X105528200Y-113313285D01*
G75*
G02*
X105800285Y-113041200I272085J0D01*
G01*
X106507715Y-113041200D01*
G75*
G02*
X106779800Y-113313285I0J-272085D01*
G01*
X106779800Y-114270715D01*
G75*
G02*
X106507715Y-114542800I-272085J0D01*
G01*
X105800285Y-114542800D01*
G75*
G02*
X105528200Y-114270715I0J272085D01*
G01*
G37*
G36*
G01*
X107578200Y-111476715D02*
X107578200Y-110519285D01*
G75*
G02*
X107850285Y-110247200I272085J0D01*
G01*
X108557715Y-110247200D01*
G75*
G02*
X108829800Y-110519285I0J-272085D01*
G01*
X108829800Y-111476715D01*
G75*
G02*
X108557715Y-111748800I-272085J0D01*
G01*
X107850285Y-111748800D01*
G75*
G02*
X107578200Y-111476715I0J272085D01*
G01*
G37*
G36*
G01*
X105528200Y-111476715D02*
X105528200Y-110519285D01*
G75*
G02*
X105800285Y-110247200I272085J0D01*
G01*
X106507715Y-110247200D01*
G75*
G02*
X106779800Y-110519285I0J-272085D01*
G01*
X106779800Y-111476715D01*
G75*
G02*
X106507715Y-111748800I-272085J0D01*
G01*
X105800285Y-111748800D01*
G75*
G02*
X105528200Y-111476715I0J272085D01*
G01*
G37*
G36*
G01*
X92806200Y-114219000D02*
X92806200Y-113619000D01*
G75*
G02*
X92857000Y-113568200I50800J0D01*
G01*
X94407000Y-113568200D01*
G75*
G02*
X94457800Y-113619000I0J-50800D01*
G01*
X94457800Y-114219000D01*
G75*
G02*
X94407000Y-114269800I-50800J0D01*
G01*
X92857000Y-114269800D01*
G75*
G02*
X92806200Y-114219000I0J50800D01*
G01*
G37*
G36*
G01*
X92806200Y-112949000D02*
X92806200Y-112349000D01*
G75*
G02*
X92857000Y-112298200I50800J0D01*
G01*
X94407000Y-112298200D01*
G75*
G02*
X94457800Y-112349000I0J-50800D01*
G01*
X94457800Y-112949000D01*
G75*
G02*
X94407000Y-112999800I-50800J0D01*
G01*
X92857000Y-112999800D01*
G75*
G02*
X92806200Y-112949000I0J50800D01*
G01*
G37*
G36*
G01*
X92806200Y-111679000D02*
X92806200Y-111079000D01*
G75*
G02*
X92857000Y-111028200I50800J0D01*
G01*
X94407000Y-111028200D01*
G75*
G02*
X94457800Y-111079000I0J-50800D01*
G01*
X94457800Y-111679000D01*
G75*
G02*
X94407000Y-111729800I-50800J0D01*
G01*
X92857000Y-111729800D01*
G75*
G02*
X92806200Y-111679000I0J50800D01*
G01*
G37*
G36*
G01*
X92806200Y-110409000D02*
X92806200Y-109809000D01*
G75*
G02*
X92857000Y-109758200I50800J0D01*
G01*
X94407000Y-109758200D01*
G75*
G02*
X94457800Y-109809000I0J-50800D01*
G01*
X94457800Y-110409000D01*
G75*
G02*
X94407000Y-110459800I-50800J0D01*
G01*
X92857000Y-110459800D01*
G75*
G02*
X92806200Y-110409000I0J50800D01*
G01*
G37*
G36*
G01*
X87406200Y-110409000D02*
X87406200Y-109809000D01*
G75*
G02*
X87457000Y-109758200I50800J0D01*
G01*
X89007000Y-109758200D01*
G75*
G02*
X89057800Y-109809000I0J-50800D01*
G01*
X89057800Y-110409000D01*
G75*
G02*
X89007000Y-110459800I-50800J0D01*
G01*
X87457000Y-110459800D01*
G75*
G02*
X87406200Y-110409000I0J50800D01*
G01*
G37*
G36*
G01*
X87406200Y-111679000D02*
X87406200Y-111079000D01*
G75*
G02*
X87457000Y-111028200I50800J0D01*
G01*
X89007000Y-111028200D01*
G75*
G02*
X89057800Y-111079000I0J-50800D01*
G01*
X89057800Y-111679000D01*
G75*
G02*
X89007000Y-111729800I-50800J0D01*
G01*
X87457000Y-111729800D01*
G75*
G02*
X87406200Y-111679000I0J50800D01*
G01*
G37*
G36*
G01*
X87406200Y-112949000D02*
X87406200Y-112349000D01*
G75*
G02*
X87457000Y-112298200I50800J0D01*
G01*
X89007000Y-112298200D01*
G75*
G02*
X89057800Y-112349000I0J-50800D01*
G01*
X89057800Y-112949000D01*
G75*
G02*
X89007000Y-112999800I-50800J0D01*
G01*
X87457000Y-112999800D01*
G75*
G02*
X87406200Y-112949000I0J50800D01*
G01*
G37*
G36*
G01*
X87406200Y-114219000D02*
X87406200Y-113619000D01*
G75*
G02*
X87457000Y-113568200I50800J0D01*
G01*
X89007000Y-113568200D01*
G75*
G02*
X89057800Y-113619000I0J-50800D01*
G01*
X89057800Y-114219000D01*
G75*
G02*
X89007000Y-114269800I-50800J0D01*
G01*
X87457000Y-114269800D01*
G75*
G02*
X87406200Y-114219000I0J50800D01*
G01*
G37*
D10*
X100000000Y-84000000D03*
G36*
G01*
X116000800Y-98200000D02*
X116000800Y-101800000D01*
G75*
G02*
X115950000Y-101850800I-50800J0D01*
G01*
X113350000Y-101850800D01*
G75*
G02*
X113299200Y-101800000I0J50800D01*
G01*
X113299200Y-98200000D01*
G75*
G02*
X113350000Y-98149200I50800J0D01*
G01*
X115950000Y-98149200D01*
G75*
G02*
X116000800Y-98200000I0J-50800D01*
G01*
G37*
G36*
G01*
X86700800Y-98200000D02*
X86700800Y-101800000D01*
G75*
G02*
X86650000Y-101850800I-50800J0D01*
G01*
X84050000Y-101850800D01*
G75*
G02*
X83999200Y-101800000I0J50800D01*
G01*
X83999200Y-98200000D01*
G75*
G02*
X84050000Y-98149200I50800J0D01*
G01*
X86650000Y-98149200D01*
G75*
G02*
X86700800Y-98200000I0J-50800D01*
G01*
G37*
G36*
G01*
X96721200Y-118831000D02*
X96721200Y-116881000D01*
G75*
G02*
X96772000Y-116830200I50800J0D01*
G01*
X97872000Y-116830200D01*
G75*
G02*
X97922800Y-116881000I0J-50800D01*
G01*
X97922800Y-118831000D01*
G75*
G02*
X97872000Y-118881800I-50800J0D01*
G01*
X96772000Y-118881800D01*
G75*
G02*
X96721200Y-118831000I0J50800D01*
G01*
G37*
G36*
G01*
X99221200Y-118831000D02*
X99221200Y-116881000D01*
G75*
G02*
X99272000Y-116830200I50800J0D01*
G01*
X100372000Y-116830200D01*
G75*
G02*
X100422800Y-116881000I0J-50800D01*
G01*
X100422800Y-118831000D01*
G75*
G02*
X100372000Y-118881800I-50800J0D01*
G01*
X99272000Y-118881800D01*
G75*
G02*
X99221200Y-118831000I0J50800D01*
G01*
G37*
G36*
G01*
X101721200Y-118831000D02*
X101721200Y-116881000D01*
G75*
G02*
X101772000Y-116830200I50800J0D01*
G01*
X102872000Y-116830200D01*
G75*
G02*
X102922800Y-116881000I0J-50800D01*
G01*
X102922800Y-118831000D01*
G75*
G02*
X102872000Y-118881800I-50800J0D01*
G01*
X101772000Y-118881800D01*
G75*
G02*
X101721200Y-118831000I0J50800D01*
G01*
G37*
G36*
G01*
X101721200Y-113181000D02*
X101721200Y-111231000D01*
G75*
G02*
X101772000Y-111180200I50800J0D01*
G01*
X102872000Y-111180200D01*
G75*
G02*
X102922800Y-111231000I0J-50800D01*
G01*
X102922800Y-113181000D01*
G75*
G02*
X102872000Y-113231800I-50800J0D01*
G01*
X101772000Y-113231800D01*
G75*
G02*
X101721200Y-113181000I0J50800D01*
G01*
G37*
G36*
G01*
X96721200Y-113181000D02*
X96721200Y-111231000D01*
G75*
G02*
X96772000Y-111180200I50800J0D01*
G01*
X97872000Y-111180200D01*
G75*
G02*
X97922800Y-111231000I0J-50800D01*
G01*
X97922800Y-113181000D01*
G75*
G02*
X97872000Y-113231800I-50800J0D01*
G01*
X96772000Y-113231800D01*
G75*
G02*
X96721200Y-113181000I0J50800D01*
G01*
G37*
G36*
G01*
X99221200Y-113181000D02*
X99221200Y-111231000D01*
G75*
G02*
X99272000Y-111180200I50800J0D01*
G01*
X100372000Y-111180200D01*
G75*
G02*
X100422800Y-111231000I0J-50800D01*
G01*
X100422800Y-113181000D01*
G75*
G02*
X100372000Y-113231800I-50800J0D01*
G01*
X99272000Y-113231800D01*
G75*
G02*
X99221200Y-113181000I0J50800D01*
G01*
G37*
M02*
