G04 #@! TF.GenerationSoftware,KiCad,Pcbnew,5.0.1*
G04 #@! TF.CreationDate,2019-01-07T18:58:54+01:00*
G04 #@! TF.ProjectId,nibble++,6E6962626C652B2B2E6B696361645F70,rev?*
G04 #@! TF.SameCoordinates,Original*
G04 #@! TF.FileFunction,Soldermask,Bot*
G04 #@! TF.FilePolarity,Negative*
%FSLAX46Y46*%
G04 Gerber Fmt 4.6, Leading zero omitted, Abs format (unit mm)*
G04 Created by KiCad (PCBNEW 5.0.1) date Mo 07 Jan 2019 18:58:54 CET*
%MOMM*%
%LPD*%
G01*
G04 APERTURE LIST*
%ADD10C,0.100000*%
G04 APERTURE END LIST*
D10*
G36*
X97922800Y-118881800D02*
X96721200Y-118881800D01*
X96721200Y-116830200D01*
X97922800Y-116830200D01*
X97922800Y-118881800D01*
X97922800Y-118881800D01*
G37*
G36*
X102922800Y-118881800D02*
X101721200Y-118881800D01*
X101721200Y-116830200D01*
X102922800Y-116830200D01*
X102922800Y-118881800D01*
X102922800Y-118881800D01*
G37*
G36*
X100422800Y-118881800D02*
X99221200Y-118881800D01*
X99221200Y-116830200D01*
X100422800Y-116830200D01*
X100422800Y-118881800D01*
X100422800Y-118881800D01*
G37*
G36*
X108622330Y-113046273D02*
X108670651Y-113060931D01*
X108715189Y-113084738D01*
X108754226Y-113116774D01*
X108786262Y-113155811D01*
X108810069Y-113200349D01*
X108824727Y-113248670D01*
X108829800Y-113300181D01*
X108829800Y-114283819D01*
X108824727Y-114335330D01*
X108810069Y-114383651D01*
X108786262Y-114428189D01*
X108754226Y-114467226D01*
X108715189Y-114499262D01*
X108670651Y-114523069D01*
X108622330Y-114537727D01*
X108570819Y-114542800D01*
X107837181Y-114542800D01*
X107785670Y-114537727D01*
X107737349Y-114523069D01*
X107692811Y-114499262D01*
X107653774Y-114467226D01*
X107621738Y-114428189D01*
X107597931Y-114383651D01*
X107583273Y-114335330D01*
X107578200Y-114283819D01*
X107578200Y-113300181D01*
X107583273Y-113248670D01*
X107597931Y-113200349D01*
X107621738Y-113155811D01*
X107653774Y-113116774D01*
X107692811Y-113084738D01*
X107737349Y-113060931D01*
X107785670Y-113046273D01*
X107837181Y-113041200D01*
X108570819Y-113041200D01*
X108622330Y-113046273D01*
X108622330Y-113046273D01*
G37*
G36*
X106572330Y-113046273D02*
X106620651Y-113060931D01*
X106665189Y-113084738D01*
X106704226Y-113116774D01*
X106736262Y-113155811D01*
X106760069Y-113200349D01*
X106774727Y-113248670D01*
X106779800Y-113300181D01*
X106779800Y-114283819D01*
X106774727Y-114335330D01*
X106760069Y-114383651D01*
X106736262Y-114428189D01*
X106704226Y-114467226D01*
X106665189Y-114499262D01*
X106620651Y-114523069D01*
X106572330Y-114537727D01*
X106520819Y-114542800D01*
X105787181Y-114542800D01*
X105735670Y-114537727D01*
X105687349Y-114523069D01*
X105642811Y-114499262D01*
X105603774Y-114467226D01*
X105571738Y-114428189D01*
X105547931Y-114383651D01*
X105533273Y-114335330D01*
X105528200Y-114283819D01*
X105528200Y-113300181D01*
X105533273Y-113248670D01*
X105547931Y-113200349D01*
X105571738Y-113155811D01*
X105603774Y-113116774D01*
X105642811Y-113084738D01*
X105687349Y-113060931D01*
X105735670Y-113046273D01*
X105787181Y-113041200D01*
X106520819Y-113041200D01*
X106572330Y-113046273D01*
X106572330Y-113046273D01*
G37*
G36*
X89057800Y-114269800D02*
X87406200Y-114269800D01*
X87406200Y-113568200D01*
X89057800Y-113568200D01*
X89057800Y-114269800D01*
X89057800Y-114269800D01*
G37*
G36*
X94457800Y-114269800D02*
X92806200Y-114269800D01*
X92806200Y-113568200D01*
X94457800Y-113568200D01*
X94457800Y-114269800D01*
X94457800Y-114269800D01*
G37*
G36*
X97922800Y-113231800D02*
X96721200Y-113231800D01*
X96721200Y-111180200D01*
X97922800Y-111180200D01*
X97922800Y-113231800D01*
X97922800Y-113231800D01*
G37*
G36*
X102922800Y-113231800D02*
X101721200Y-113231800D01*
X101721200Y-111180200D01*
X102922800Y-111180200D01*
X102922800Y-113231800D01*
X102922800Y-113231800D01*
G37*
G36*
X100422800Y-113231800D02*
X99221200Y-113231800D01*
X99221200Y-111180200D01*
X100422800Y-111180200D01*
X100422800Y-113231800D01*
X100422800Y-113231800D01*
G37*
G36*
X94457800Y-112999800D02*
X92806200Y-112999800D01*
X92806200Y-112298200D01*
X94457800Y-112298200D01*
X94457800Y-112999800D01*
X94457800Y-112999800D01*
G37*
G36*
X89057800Y-112999800D02*
X87406200Y-112999800D01*
X87406200Y-112298200D01*
X89057800Y-112298200D01*
X89057800Y-112999800D01*
X89057800Y-112999800D01*
G37*
G36*
X106572330Y-110252273D02*
X106620651Y-110266931D01*
X106665189Y-110290738D01*
X106704226Y-110322774D01*
X106736262Y-110361811D01*
X106760069Y-110406349D01*
X106774727Y-110454670D01*
X106779800Y-110506181D01*
X106779800Y-111489819D01*
X106774727Y-111541330D01*
X106760069Y-111589651D01*
X106736262Y-111634189D01*
X106704226Y-111673226D01*
X106665189Y-111705262D01*
X106620651Y-111729069D01*
X106572330Y-111743727D01*
X106520819Y-111748800D01*
X105787181Y-111748800D01*
X105735670Y-111743727D01*
X105687349Y-111729069D01*
X105642811Y-111705262D01*
X105603774Y-111673226D01*
X105571738Y-111634189D01*
X105547931Y-111589651D01*
X105533273Y-111541330D01*
X105528200Y-111489819D01*
X105528200Y-110506181D01*
X105533273Y-110454670D01*
X105547931Y-110406349D01*
X105571738Y-110361811D01*
X105603774Y-110322774D01*
X105642811Y-110290738D01*
X105687349Y-110266931D01*
X105735670Y-110252273D01*
X105787181Y-110247200D01*
X106520819Y-110247200D01*
X106572330Y-110252273D01*
X106572330Y-110252273D01*
G37*
G36*
X108622330Y-110252273D02*
X108670651Y-110266931D01*
X108715189Y-110290738D01*
X108754226Y-110322774D01*
X108786262Y-110361811D01*
X108810069Y-110406349D01*
X108824727Y-110454670D01*
X108829800Y-110506181D01*
X108829800Y-111489819D01*
X108824727Y-111541330D01*
X108810069Y-111589651D01*
X108786262Y-111634189D01*
X108754226Y-111673226D01*
X108715189Y-111705262D01*
X108670651Y-111729069D01*
X108622330Y-111743727D01*
X108570819Y-111748800D01*
X107837181Y-111748800D01*
X107785670Y-111743727D01*
X107737349Y-111729069D01*
X107692811Y-111705262D01*
X107653774Y-111673226D01*
X107621738Y-111634189D01*
X107597931Y-111589651D01*
X107583273Y-111541330D01*
X107578200Y-111489819D01*
X107578200Y-110506181D01*
X107583273Y-110454670D01*
X107597931Y-110406349D01*
X107621738Y-110361811D01*
X107653774Y-110322774D01*
X107692811Y-110290738D01*
X107737349Y-110266931D01*
X107785670Y-110252273D01*
X107837181Y-110247200D01*
X108570819Y-110247200D01*
X108622330Y-110252273D01*
X108622330Y-110252273D01*
G37*
G36*
X89057800Y-111729800D02*
X87406200Y-111729800D01*
X87406200Y-111028200D01*
X89057800Y-111028200D01*
X89057800Y-111729800D01*
X89057800Y-111729800D01*
G37*
G36*
X94457800Y-111729800D02*
X92806200Y-111729800D01*
X92806200Y-111028200D01*
X94457800Y-111028200D01*
X94457800Y-111729800D01*
X94457800Y-111729800D01*
G37*
G36*
X115244330Y-109744273D02*
X115292651Y-109758931D01*
X115337189Y-109782738D01*
X115376226Y-109814774D01*
X115408262Y-109853811D01*
X115432069Y-109898349D01*
X115446727Y-109946670D01*
X115451800Y-109998181D01*
X115451800Y-110981819D01*
X115446727Y-111033330D01*
X115432069Y-111081651D01*
X115408262Y-111126189D01*
X115376226Y-111165226D01*
X115337189Y-111197262D01*
X115292651Y-111221069D01*
X115244330Y-111235727D01*
X115192819Y-111240800D01*
X114459181Y-111240800D01*
X114407670Y-111235727D01*
X114359349Y-111221069D01*
X114314811Y-111197262D01*
X114275774Y-111165226D01*
X114243738Y-111126189D01*
X114219931Y-111081651D01*
X114205273Y-111033330D01*
X114200200Y-110981819D01*
X114200200Y-109998181D01*
X114205273Y-109946670D01*
X114219931Y-109898349D01*
X114243738Y-109853811D01*
X114275774Y-109814774D01*
X114314811Y-109782738D01*
X114359349Y-109758931D01*
X114407670Y-109744273D01*
X114459181Y-109739200D01*
X115192819Y-109739200D01*
X115244330Y-109744273D01*
X115244330Y-109744273D01*
G37*
G36*
X113194330Y-109744273D02*
X113242651Y-109758931D01*
X113287189Y-109782738D01*
X113326226Y-109814774D01*
X113358262Y-109853811D01*
X113382069Y-109898349D01*
X113396727Y-109946670D01*
X113401800Y-109998181D01*
X113401800Y-110981819D01*
X113396727Y-111033330D01*
X113382069Y-111081651D01*
X113358262Y-111126189D01*
X113326226Y-111165226D01*
X113287189Y-111197262D01*
X113242651Y-111221069D01*
X113194330Y-111235727D01*
X113142819Y-111240800D01*
X112409181Y-111240800D01*
X112357670Y-111235727D01*
X112309349Y-111221069D01*
X112264811Y-111197262D01*
X112225774Y-111165226D01*
X112193738Y-111126189D01*
X112169931Y-111081651D01*
X112155273Y-111033330D01*
X112150200Y-110981819D01*
X112150200Y-109998181D01*
X112155273Y-109946670D01*
X112169931Y-109898349D01*
X112193738Y-109853811D01*
X112225774Y-109814774D01*
X112264811Y-109782738D01*
X112309349Y-109758931D01*
X112357670Y-109744273D01*
X112409181Y-109739200D01*
X113142819Y-109739200D01*
X113194330Y-109744273D01*
X113194330Y-109744273D01*
G37*
G36*
X89057800Y-110459800D02*
X87406200Y-110459800D01*
X87406200Y-109758200D01*
X89057800Y-109758200D01*
X89057800Y-110459800D01*
X89057800Y-110459800D01*
G37*
G36*
X94457800Y-110459800D02*
X92806200Y-110459800D01*
X92806200Y-109758200D01*
X94457800Y-109758200D01*
X94457800Y-110459800D01*
X94457800Y-110459800D01*
G37*
G36*
X113185330Y-107458273D02*
X113233651Y-107472931D01*
X113278189Y-107496738D01*
X113317226Y-107528774D01*
X113349262Y-107567811D01*
X113373069Y-107612349D01*
X113387727Y-107660670D01*
X113392800Y-107712181D01*
X113392800Y-108695819D01*
X113387727Y-108747330D01*
X113373069Y-108795651D01*
X113349262Y-108840189D01*
X113317226Y-108879226D01*
X113278189Y-108911262D01*
X113233651Y-108935069D01*
X113185330Y-108949727D01*
X113133819Y-108954800D01*
X112400181Y-108954800D01*
X112348670Y-108949727D01*
X112300349Y-108935069D01*
X112255811Y-108911262D01*
X112216774Y-108879226D01*
X112184738Y-108840189D01*
X112160931Y-108795651D01*
X112146273Y-108747330D01*
X112141200Y-108695819D01*
X112141200Y-107712181D01*
X112146273Y-107660670D01*
X112160931Y-107612349D01*
X112184738Y-107567811D01*
X112216774Y-107528774D01*
X112255811Y-107496738D01*
X112300349Y-107472931D01*
X112348670Y-107458273D01*
X112400181Y-107453200D01*
X113133819Y-107453200D01*
X113185330Y-107458273D01*
X113185330Y-107458273D01*
G37*
G36*
X115235330Y-107458273D02*
X115283651Y-107472931D01*
X115328189Y-107496738D01*
X115367226Y-107528774D01*
X115399262Y-107567811D01*
X115423069Y-107612349D01*
X115437727Y-107660670D01*
X115442800Y-107712181D01*
X115442800Y-108695819D01*
X115437727Y-108747330D01*
X115423069Y-108795651D01*
X115399262Y-108840189D01*
X115367226Y-108879226D01*
X115328189Y-108911262D01*
X115283651Y-108935069D01*
X115235330Y-108949727D01*
X115183819Y-108954800D01*
X114450181Y-108954800D01*
X114398670Y-108949727D01*
X114350349Y-108935069D01*
X114305811Y-108911262D01*
X114266774Y-108879226D01*
X114234738Y-108840189D01*
X114210931Y-108795651D01*
X114196273Y-108747330D01*
X114191200Y-108695819D01*
X114191200Y-107712181D01*
X114196273Y-107660670D01*
X114210931Y-107612349D01*
X114234738Y-107567811D01*
X114266774Y-107528774D01*
X114305811Y-107496738D01*
X114350349Y-107472931D01*
X114398670Y-107458273D01*
X114450181Y-107453200D01*
X115183819Y-107453200D01*
X115235330Y-107458273D01*
X115235330Y-107458273D01*
G37*
G36*
X113185330Y-105172273D02*
X113233651Y-105186931D01*
X113278189Y-105210738D01*
X113317226Y-105242774D01*
X113349262Y-105281811D01*
X113373069Y-105326349D01*
X113387727Y-105374670D01*
X113392800Y-105426181D01*
X113392800Y-106409819D01*
X113387727Y-106461330D01*
X113373069Y-106509651D01*
X113349262Y-106554189D01*
X113317226Y-106593226D01*
X113278189Y-106625262D01*
X113233651Y-106649069D01*
X113185330Y-106663727D01*
X113133819Y-106668800D01*
X112400181Y-106668800D01*
X112348670Y-106663727D01*
X112300349Y-106649069D01*
X112255811Y-106625262D01*
X112216774Y-106593226D01*
X112184738Y-106554189D01*
X112160931Y-106509651D01*
X112146273Y-106461330D01*
X112141200Y-106409819D01*
X112141200Y-105426181D01*
X112146273Y-105374670D01*
X112160931Y-105326349D01*
X112184738Y-105281811D01*
X112216774Y-105242774D01*
X112255811Y-105210738D01*
X112300349Y-105186931D01*
X112348670Y-105172273D01*
X112400181Y-105167200D01*
X113133819Y-105167200D01*
X113185330Y-105172273D01*
X113185330Y-105172273D01*
G37*
G36*
X115235330Y-105172273D02*
X115283651Y-105186931D01*
X115328189Y-105210738D01*
X115367226Y-105242774D01*
X115399262Y-105281811D01*
X115423069Y-105326349D01*
X115437727Y-105374670D01*
X115442800Y-105426181D01*
X115442800Y-106409819D01*
X115437727Y-106461330D01*
X115423069Y-106509651D01*
X115399262Y-106554189D01*
X115367226Y-106593226D01*
X115328189Y-106625262D01*
X115283651Y-106649069D01*
X115235330Y-106663727D01*
X115183819Y-106668800D01*
X114450181Y-106668800D01*
X114398670Y-106663727D01*
X114350349Y-106649069D01*
X114305811Y-106625262D01*
X114266774Y-106593226D01*
X114234738Y-106554189D01*
X114210931Y-106509651D01*
X114196273Y-106461330D01*
X114191200Y-106409819D01*
X114191200Y-105426181D01*
X114196273Y-105374670D01*
X114210931Y-105326349D01*
X114234738Y-105281811D01*
X114266774Y-105242774D01*
X114305811Y-105210738D01*
X114350349Y-105186931D01*
X114398670Y-105172273D01*
X114450181Y-105167200D01*
X115183819Y-105167200D01*
X115235330Y-105172273D01*
X115235330Y-105172273D01*
G37*
G36*
X86700800Y-101850800D02*
X83999200Y-101850800D01*
X83999200Y-98149200D01*
X86700800Y-98149200D01*
X86700800Y-101850800D01*
X86700800Y-101850800D01*
G37*
G36*
X116000800Y-101850800D02*
X113299200Y-101850800D01*
X113299200Y-98149200D01*
X116000800Y-98149200D01*
X116000800Y-101850800D01*
X116000800Y-101850800D01*
G37*
G36*
X100744041Y-81547226D02*
X101002962Y-81654475D01*
X101208261Y-81739512D01*
X101626036Y-82018661D01*
X101626040Y-82018664D01*
X101981336Y-82373960D01*
X101981338Y-82373963D01*
X101981339Y-82373964D01*
X102260488Y-82791739D01*
X102345525Y-82997038D01*
X102452774Y-83255959D01*
X102550800Y-83748768D01*
X102550800Y-84251232D01*
X102452774Y-84744041D01*
X102345525Y-85002962D01*
X102260488Y-85208261D01*
X101981339Y-85626036D01*
X101981336Y-85626040D01*
X101626040Y-85981336D01*
X101626037Y-85981338D01*
X101626036Y-85981339D01*
X101208261Y-86260488D01*
X101002962Y-86345525D01*
X100744041Y-86452774D01*
X100251232Y-86550800D01*
X99748768Y-86550800D01*
X99255959Y-86452774D01*
X98997038Y-86345525D01*
X98791739Y-86260488D01*
X98373964Y-85981339D01*
X98373963Y-85981338D01*
X98373960Y-85981336D01*
X98018664Y-85626040D01*
X98018661Y-85626036D01*
X97739512Y-85208261D01*
X97654475Y-85002962D01*
X97547226Y-84744041D01*
X97449200Y-84251232D01*
X97449200Y-83748768D01*
X97547226Y-83255959D01*
X97654475Y-82997038D01*
X97739512Y-82791739D01*
X98018661Y-82373964D01*
X98018662Y-82373963D01*
X98018664Y-82373960D01*
X98373960Y-82018664D01*
X98373964Y-82018661D01*
X98791739Y-81739512D01*
X98997038Y-81654475D01*
X99255959Y-81547226D01*
X99748768Y-81449200D01*
X100251232Y-81449200D01*
X100744041Y-81547226D01*
X100744041Y-81547226D01*
G37*
M02*
