G04 #@! TF.GenerationSoftware,KiCad,Pcbnew,5.1.9*
G04 #@! TF.CreationDate,2021-04-20T19:19:39+02:00*
G04 #@! TF.ProjectId,nibble++,6e696262-6c65-42b2-9b2e-6b696361645f,rev?*
G04 #@! TF.SameCoordinates,Original*
G04 #@! TF.FileFunction,Copper,L2,Bot*
G04 #@! TF.FilePolarity,Positive*
%FSLAX46Y46*%
G04 Gerber Fmt 4.6, Leading zero omitted, Abs format (unit mm)*
G04 Created by KiCad (PCBNEW 5.1.9) date 2021-04-20 19:19:39*
%MOMM*%
%LPD*%
G01*
G04 APERTURE LIST*
G04 #@! TA.AperFunction,SMDPad,CuDef*
%ADD10R,1.550000X0.600000*%
G04 #@! TD*
G04 #@! TA.AperFunction,ComponentPad*
%ADD11C,5.000000*%
G04 #@! TD*
G04 #@! TA.AperFunction,SMDPad,CuDef*
%ADD12R,2.600000X3.600000*%
G04 #@! TD*
G04 #@! TA.AperFunction,SMDPad,CuDef*
%ADD13R,1.100000X1.950000*%
G04 #@! TD*
G04 #@! TA.AperFunction,ViaPad*
%ADD14C,0.800000*%
G04 #@! TD*
G04 #@! TA.AperFunction,ViaPad*
%ADD15C,0.604800*%
G04 #@! TD*
G04 #@! TA.AperFunction,Conductor*
%ADD16C,0.250000*%
G04 #@! TD*
G04 #@! TA.AperFunction,Conductor*
%ADD17C,0.304800*%
G04 #@! TD*
G04 #@! TA.AperFunction,Conductor*
%ADD18C,0.177800*%
G04 #@! TD*
G04 #@! TA.AperFunction,Conductor*
%ADD19C,0.100000*%
G04 #@! TD*
G04 APERTURE END LIST*
G04 #@! TA.AperFunction,SMDPad,CuDef*
G36*
G01*
X115550000Y-105467999D02*
X115550000Y-106368001D01*
G75*
G02*
X115300001Y-106618000I-249999J0D01*
G01*
X114649999Y-106618000D01*
G75*
G02*
X114400000Y-106368001I0J249999D01*
G01*
X114400000Y-105467999D01*
G75*
G02*
X114649999Y-105218000I249999J0D01*
G01*
X115300001Y-105218000D01*
G75*
G02*
X115550000Y-105467999I0J-249999D01*
G01*
G37*
G04 #@! TD.AperFunction*
G04 #@! TA.AperFunction,SMDPad,CuDef*
G36*
G01*
X117600000Y-105467999D02*
X117600000Y-106368001D01*
G75*
G02*
X117350001Y-106618000I-249999J0D01*
G01*
X116699999Y-106618000D01*
G75*
G02*
X116450000Y-106368001I0J249999D01*
G01*
X116450000Y-105467999D01*
G75*
G02*
X116699999Y-105218000I249999J0D01*
G01*
X117350001Y-105218000D01*
G75*
G02*
X117600000Y-105467999I0J-249999D01*
G01*
G37*
G04 #@! TD.AperFunction*
G04 #@! TA.AperFunction,SMDPad,CuDef*
G36*
G01*
X115550000Y-107753999D02*
X115550000Y-108654001D01*
G75*
G02*
X115300001Y-108904000I-249999J0D01*
G01*
X114649999Y-108904000D01*
G75*
G02*
X114400000Y-108654001I0J249999D01*
G01*
X114400000Y-107753999D01*
G75*
G02*
X114649999Y-107504000I249999J0D01*
G01*
X115300001Y-107504000D01*
G75*
G02*
X115550000Y-107753999I0J-249999D01*
G01*
G37*
G04 #@! TD.AperFunction*
G04 #@! TA.AperFunction,SMDPad,CuDef*
G36*
G01*
X117600000Y-107753999D02*
X117600000Y-108654001D01*
G75*
G02*
X117350001Y-108904000I-249999J0D01*
G01*
X116699999Y-108904000D01*
G75*
G02*
X116450000Y-108654001I0J249999D01*
G01*
X116450000Y-107753999D01*
G75*
G02*
X116699999Y-107504000I249999J0D01*
G01*
X117350001Y-107504000D01*
G75*
G02*
X117600000Y-107753999I0J-249999D01*
G01*
G37*
G04 #@! TD.AperFunction*
G04 #@! TA.AperFunction,SMDPad,CuDef*
G36*
G01*
X114251000Y-110940001D02*
X114251000Y-110039999D01*
G75*
G02*
X114500999Y-109790000I249999J0D01*
G01*
X115151001Y-109790000D01*
G75*
G02*
X115401000Y-110039999I0J-249999D01*
G01*
X115401000Y-110940001D01*
G75*
G02*
X115151001Y-111190000I-249999J0D01*
G01*
X114500999Y-111190000D01*
G75*
G02*
X114251000Y-110940001I0J249999D01*
G01*
G37*
G04 #@! TD.AperFunction*
G04 #@! TA.AperFunction,SMDPad,CuDef*
G36*
G01*
X112201000Y-110940001D02*
X112201000Y-110039999D01*
G75*
G02*
X112450999Y-109790000I249999J0D01*
G01*
X113101001Y-109790000D01*
G75*
G02*
X113351000Y-110039999I0J-249999D01*
G01*
X113351000Y-110940001D01*
G75*
G02*
X113101001Y-111190000I-249999J0D01*
G01*
X112450999Y-111190000D01*
G75*
G02*
X112201000Y-110940001I0J249999D01*
G01*
G37*
G04 #@! TD.AperFunction*
G04 #@! TA.AperFunction,SMDPad,CuDef*
G36*
G01*
X107629000Y-114242001D02*
X107629000Y-113341999D01*
G75*
G02*
X107878999Y-113092000I249999J0D01*
G01*
X108529001Y-113092000D01*
G75*
G02*
X108779000Y-113341999I0J-249999D01*
G01*
X108779000Y-114242001D01*
G75*
G02*
X108529001Y-114492000I-249999J0D01*
G01*
X107878999Y-114492000D01*
G75*
G02*
X107629000Y-114242001I0J249999D01*
G01*
G37*
G04 #@! TD.AperFunction*
G04 #@! TA.AperFunction,SMDPad,CuDef*
G36*
G01*
X105579000Y-114242001D02*
X105579000Y-113341999D01*
G75*
G02*
X105828999Y-113092000I249999J0D01*
G01*
X106479001Y-113092000D01*
G75*
G02*
X106729000Y-113341999I0J-249999D01*
G01*
X106729000Y-114242001D01*
G75*
G02*
X106479001Y-114492000I-249999J0D01*
G01*
X105828999Y-114492000D01*
G75*
G02*
X105579000Y-114242001I0J249999D01*
G01*
G37*
G04 #@! TD.AperFunction*
G04 #@! TA.AperFunction,SMDPad,CuDef*
G36*
G01*
X107629000Y-111448001D02*
X107629000Y-110547999D01*
G75*
G02*
X107878999Y-110298000I249999J0D01*
G01*
X108529001Y-110298000D01*
G75*
G02*
X108779000Y-110547999I0J-249999D01*
G01*
X108779000Y-111448001D01*
G75*
G02*
X108529001Y-111698000I-249999J0D01*
G01*
X107878999Y-111698000D01*
G75*
G02*
X107629000Y-111448001I0J249999D01*
G01*
G37*
G04 #@! TD.AperFunction*
G04 #@! TA.AperFunction,SMDPad,CuDef*
G36*
G01*
X105579000Y-111448001D02*
X105579000Y-110547999D01*
G75*
G02*
X105828999Y-110298000I249999J0D01*
G01*
X106479001Y-110298000D01*
G75*
G02*
X106729000Y-110547999I0J-249999D01*
G01*
X106729000Y-111448001D01*
G75*
G02*
X106479001Y-111698000I-249999J0D01*
G01*
X105828999Y-111698000D01*
G75*
G02*
X105579000Y-111448001I0J249999D01*
G01*
G37*
G04 #@! TD.AperFunction*
D10*
X93632000Y-113919000D03*
X93632000Y-112649000D03*
X93632000Y-111379000D03*
X93632000Y-110109000D03*
X88232000Y-110109000D03*
X88232000Y-111379000D03*
X88232000Y-112649000D03*
X88232000Y-113919000D03*
D11*
X100000000Y-84000000D03*
D12*
X114650000Y-100000000D03*
X85350000Y-100000000D03*
D13*
X97322000Y-117856000D03*
X99822000Y-117856000D03*
X102322000Y-117856000D03*
X102322000Y-112206000D03*
X97322000Y-112206000D03*
X99822000Y-112206000D03*
D14*
X107856229Y-88267646D03*
X111675547Y-91702253D03*
D15*
X107182213Y-90906908D03*
X111498410Y-87918412D03*
D14*
X103759000Y-88328500D03*
X108861082Y-88676976D03*
X108188506Y-91751400D03*
X110143505Y-88052807D03*
X110430189Y-91684410D03*
X105854500Y-88963500D03*
D16*
X99822000Y-113431000D02*
X99822000Y-117856000D01*
X99822000Y-112206000D02*
X99822000Y-113431000D01*
X85350000Y-112697002D02*
X85350000Y-100000000D01*
X99822000Y-118281000D02*
X98946999Y-119156001D01*
X96359501Y-119156001D02*
X92075000Y-114871500D01*
X87524498Y-114871500D02*
X85350000Y-112697002D01*
X99822000Y-117856000D02*
X99822000Y-118281000D01*
X98946999Y-119156001D02*
X96359501Y-119156001D01*
X92075000Y-114871500D02*
X87524498Y-114871500D01*
X97322000Y-113431000D02*
X97322000Y-117856000D01*
X97322000Y-112206000D02*
X97322000Y-113431000D01*
X97322000Y-112631000D02*
X97322000Y-112206000D01*
X96034000Y-113919000D02*
X97322000Y-112631000D01*
X93632000Y-113919000D02*
X96034000Y-113919000D01*
X93632000Y-113919000D02*
X95881116Y-113919000D01*
X106154000Y-113792000D02*
X104126999Y-113792000D01*
X104140000Y-113792000D02*
X106154000Y-113792000D01*
X103918999Y-113570999D02*
X104140000Y-113792000D01*
X103918999Y-113538000D02*
X103918999Y-113570999D01*
X104158999Y-87928501D02*
X103759000Y-88328500D01*
X117221000Y-103514000D02*
X117221000Y-94688966D01*
X117221000Y-94688966D02*
X110871000Y-88338966D01*
X110871000Y-88338966D02*
X110871000Y-87578008D01*
X110871000Y-87578008D02*
X110584002Y-87291010D01*
X104796490Y-87291010D02*
X104158999Y-87928501D01*
X110584002Y-87291010D02*
X104796490Y-87291010D01*
X114817000Y-105918000D02*
X114604800Y-105918000D01*
X97322000Y-111781000D02*
X97322000Y-112206000D01*
X98229989Y-110873011D02*
X97322000Y-111781000D01*
X103387177Y-110873011D02*
X98229989Y-110873011D01*
X103918999Y-111404833D02*
X103387177Y-110873011D01*
X103918999Y-113538000D02*
X103918999Y-111404833D01*
X113714010Y-107178990D02*
X114975000Y-105918000D01*
X93355420Y-107178990D02*
X113714010Y-107178990D01*
X90425410Y-110109000D02*
X93355420Y-107178990D01*
X88232000Y-110109000D02*
X90425410Y-110109000D01*
X114975000Y-105918000D02*
X114975000Y-105760000D01*
X107179010Y-114817010D02*
X106154000Y-113792000D01*
X115875010Y-111029180D02*
X112087180Y-114817010D01*
X115875010Y-104859990D02*
X115875010Y-111029180D01*
X116367500Y-104367500D02*
X115875010Y-104859990D01*
X112087180Y-114817010D02*
X107179010Y-114817010D01*
X114975000Y-105760000D02*
X116367500Y-104367500D01*
X116367500Y-104367500D02*
X117221000Y-103514000D01*
X92607000Y-111379000D02*
X93632000Y-111379000D01*
X90527000Y-111379000D02*
X92607000Y-111379000D01*
X88232000Y-112649000D02*
X89257000Y-112649000D01*
X93632000Y-111379000D02*
X94107000Y-111379000D01*
X108204000Y-110198000D02*
X108204000Y-110998000D01*
X96113022Y-109372978D02*
X107378978Y-109372978D01*
X107378978Y-109372978D02*
X108204000Y-110198000D01*
X89257000Y-112649000D02*
X90527000Y-111379000D01*
X94107000Y-111379000D02*
X96113022Y-109372978D01*
X108879000Y-110998000D02*
X110022000Y-112141000D01*
X108204000Y-110998000D02*
X108879000Y-110998000D01*
X110022000Y-112141000D02*
X112903000Y-112141000D01*
X113925990Y-109253010D02*
X114975000Y-108204000D01*
X113925990Y-111074010D02*
X113925990Y-109253010D01*
X112903000Y-112097000D02*
X113925990Y-111074010D01*
X112903000Y-112141000D02*
X112903000Y-112097000D01*
X93441500Y-110299500D02*
X93632000Y-110109000D01*
X93632000Y-109559000D02*
X94479000Y-108712000D01*
X93632000Y-110109000D02*
X93632000Y-109559000D01*
X110998000Y-108712000D02*
X112776000Y-110490000D01*
X94479000Y-108712000D02*
X110998000Y-108712000D01*
X108861082Y-88676976D02*
X108188506Y-89349552D01*
X108188506Y-89349552D02*
X108188506Y-91185715D01*
X108188506Y-91185715D02*
X108188506Y-91751400D01*
X110143505Y-91397726D02*
X110430189Y-91684410D01*
X110143505Y-88052807D02*
X110143505Y-91397726D01*
X106154000Y-111742000D02*
X106154000Y-110998000D01*
X108204000Y-113792000D02*
X106154000Y-111742000D01*
X104753998Y-110272998D02*
X105479000Y-110998000D01*
X105479000Y-110998000D02*
X106154000Y-110998000D01*
X97033002Y-110272998D02*
X104753998Y-110272998D01*
X93632000Y-112649000D02*
X94657000Y-112649000D01*
X94657000Y-112649000D02*
X97033002Y-110272998D01*
X102322000Y-113431000D02*
X102322000Y-117856000D01*
X102322000Y-112206000D02*
X102322000Y-113431000D01*
D17*
X105664000Y-88963500D02*
X105854500Y-88963500D01*
X86487000Y-108140500D02*
X105664000Y-88963500D01*
X86487000Y-110109000D02*
X86487000Y-108140500D01*
X88232000Y-111379000D02*
X87757000Y-111379000D01*
X87757000Y-111379000D02*
X86487000Y-110109000D01*
D18*
X101764433Y-80395541D02*
X103514660Y-80632625D01*
X105236589Y-81025644D01*
X106916357Y-81571434D01*
X108540437Y-82265599D01*
X110095756Y-83102551D01*
X111569789Y-84075552D01*
X112950668Y-85176767D01*
X114227277Y-86397330D01*
X115389336Y-87727414D01*
X116427490Y-89156309D01*
X117333378Y-90672511D01*
X118099709Y-92263813D01*
X118720311Y-93917402D01*
X119190189Y-95619965D01*
X119505558Y-97357793D01*
X119663880Y-99116894D01*
X119663880Y-100883106D01*
X119505558Y-102642207D01*
X119190189Y-104380035D01*
X118720311Y-106082598D01*
X118099709Y-107736187D01*
X117794914Y-108369100D01*
X117190100Y-108369100D01*
X117190100Y-109104025D01*
X117256775Y-109170700D01*
X117408609Y-109171271D01*
X117333378Y-109327489D01*
X116427490Y-110843691D01*
X116290628Y-111032065D01*
X116290912Y-111029180D01*
X116288910Y-111008852D01*
X116288910Y-109116811D01*
X116301113Y-109126826D01*
X116347445Y-109151590D01*
X116397718Y-109166841D01*
X116450000Y-109171990D01*
X116793225Y-109170700D01*
X116859900Y-109104025D01*
X116859900Y-108369100D01*
X116839900Y-108369100D01*
X116839900Y-108038900D01*
X116859900Y-108038900D01*
X116859900Y-107303975D01*
X117190100Y-107303975D01*
X117190100Y-108038900D01*
X117800025Y-108038900D01*
X117866700Y-107972225D01*
X117867990Y-107504000D01*
X117862841Y-107451718D01*
X117847590Y-107401445D01*
X117822826Y-107355113D01*
X117789498Y-107314502D01*
X117748887Y-107281174D01*
X117702555Y-107256410D01*
X117652282Y-107241159D01*
X117600000Y-107236010D01*
X117256775Y-107237300D01*
X117190100Y-107303975D01*
X116859900Y-107303975D01*
X116793225Y-107237300D01*
X116450000Y-107236010D01*
X116397718Y-107241159D01*
X116347445Y-107256410D01*
X116301113Y-107281174D01*
X116288910Y-107291189D01*
X116288910Y-106830811D01*
X116301113Y-106840826D01*
X116347445Y-106865590D01*
X116397718Y-106880841D01*
X116450000Y-106885990D01*
X116793225Y-106884700D01*
X116859900Y-106818025D01*
X116859900Y-106083100D01*
X117190100Y-106083100D01*
X117190100Y-106818025D01*
X117256775Y-106884700D01*
X117600000Y-106885990D01*
X117652282Y-106880841D01*
X117702555Y-106865590D01*
X117748887Y-106840826D01*
X117789498Y-106807498D01*
X117822826Y-106766887D01*
X117847590Y-106720555D01*
X117862841Y-106670282D01*
X117867990Y-106618000D01*
X117866700Y-106149775D01*
X117800025Y-106083100D01*
X117190100Y-106083100D01*
X116859900Y-106083100D01*
X116839900Y-106083100D01*
X116839900Y-105752900D01*
X116859900Y-105752900D01*
X116859900Y-105017975D01*
X117190100Y-105017975D01*
X117190100Y-105752900D01*
X117800025Y-105752900D01*
X117866700Y-105686225D01*
X117867990Y-105218000D01*
X117862841Y-105165718D01*
X117847590Y-105115445D01*
X117822826Y-105069113D01*
X117789498Y-105028502D01*
X117748887Y-104995174D01*
X117702555Y-104970410D01*
X117652282Y-104955159D01*
X117600000Y-104950010D01*
X117256775Y-104951300D01*
X117190100Y-105017975D01*
X116859900Y-105017975D01*
X116793225Y-104951300D01*
X116450000Y-104950010D01*
X116397718Y-104955159D01*
X116351016Y-104969327D01*
X116674545Y-104645798D01*
X116674549Y-104645793D01*
X117499300Y-103821043D01*
X117515087Y-103808087D01*
X117566810Y-103745063D01*
X117605243Y-103673159D01*
X117628911Y-103595138D01*
X117634900Y-103534328D01*
X117634900Y-103534318D01*
X117636901Y-103514001D01*
X117634900Y-103493683D01*
X117634900Y-94709283D01*
X117636901Y-94688965D01*
X117634900Y-94668648D01*
X117634900Y-94668638D01*
X117628911Y-94607828D01*
X117605243Y-94529807D01*
X117566810Y-94457903D01*
X117515087Y-94394879D01*
X117499299Y-94381922D01*
X111284900Y-88167524D01*
X111284900Y-87598325D01*
X111286901Y-87578007D01*
X111284900Y-87557690D01*
X111284900Y-87557680D01*
X111278911Y-87496870D01*
X111255243Y-87418849D01*
X111216810Y-87346945D01*
X111165087Y-87283921D01*
X111149298Y-87270964D01*
X110891050Y-87012716D01*
X110878089Y-86996923D01*
X110815065Y-86945200D01*
X110743161Y-86906767D01*
X110665140Y-86883099D01*
X110604330Y-86877110D01*
X110604319Y-86877110D01*
X110584002Y-86875109D01*
X110563685Y-86877110D01*
X104816807Y-86877110D01*
X104796489Y-86875109D01*
X104776172Y-86877110D01*
X104776162Y-86877110D01*
X104715352Y-86883099D01*
X104637331Y-86906767D01*
X104565427Y-86945200D01*
X104502403Y-86996923D01*
X104489446Y-87012711D01*
X103880706Y-87621452D01*
X103880701Y-87621456D01*
X103856633Y-87645524D01*
X103826851Y-87639600D01*
X103691149Y-87639600D01*
X103558055Y-87666074D01*
X103432684Y-87718005D01*
X103319852Y-87793397D01*
X103223897Y-87889352D01*
X103148505Y-88002184D01*
X103096574Y-88127555D01*
X103070100Y-88260649D01*
X103070100Y-88396351D01*
X103096574Y-88529445D01*
X103148505Y-88654816D01*
X103223897Y-88767648D01*
X103319852Y-88863603D01*
X103432684Y-88938995D01*
X103558055Y-88990926D01*
X103691149Y-89017400D01*
X103826851Y-89017400D01*
X103959945Y-88990926D01*
X104085316Y-88938995D01*
X104198148Y-88863603D01*
X104294103Y-88767648D01*
X104369495Y-88654816D01*
X104421426Y-88529445D01*
X104447900Y-88396351D01*
X104447900Y-88260649D01*
X104441976Y-88230867D01*
X104466044Y-88206799D01*
X104466048Y-88206794D01*
X104967933Y-87704910D01*
X109547430Y-87704910D01*
X109533010Y-87726491D01*
X109481079Y-87851862D01*
X109454605Y-87984956D01*
X109454605Y-88120658D01*
X109481079Y-88253752D01*
X109533010Y-88379123D01*
X109608402Y-88491955D01*
X109704357Y-88587910D01*
X109729605Y-88604780D01*
X109729606Y-91377398D01*
X109727604Y-91397726D01*
X109735595Y-91478864D01*
X109755576Y-91544733D01*
X109741289Y-91616559D01*
X109741289Y-91752261D01*
X109767763Y-91885355D01*
X109819694Y-92010726D01*
X109895086Y-92123558D01*
X109991041Y-92219513D01*
X110103873Y-92294905D01*
X110229244Y-92346836D01*
X110362338Y-92373310D01*
X110498040Y-92373310D01*
X110631134Y-92346836D01*
X110756505Y-92294905D01*
X110869337Y-92219513D01*
X110965292Y-92123558D01*
X111040684Y-92010726D01*
X111092615Y-91885355D01*
X111119089Y-91752261D01*
X111119089Y-91616559D01*
X111092615Y-91483465D01*
X111040684Y-91358094D01*
X110965292Y-91245262D01*
X110869337Y-91149307D01*
X110756505Y-91073915D01*
X110631134Y-91021984D01*
X110557405Y-91007318D01*
X110557405Y-88609282D01*
X110576913Y-88633053D01*
X110592707Y-88646015D01*
X116807101Y-94860410D01*
X116807100Y-103342557D01*
X116089207Y-104060451D01*
X116089202Y-104060455D01*
X115596713Y-104552944D01*
X115580923Y-104565903D01*
X115567965Y-104581692D01*
X115221955Y-104927703D01*
X114649999Y-104927703D01*
X114544592Y-104938085D01*
X114443237Y-104968831D01*
X114349827Y-105018759D01*
X114267952Y-105085952D01*
X114200759Y-105167827D01*
X114150831Y-105261237D01*
X114120085Y-105362592D01*
X114109703Y-105467999D01*
X114109703Y-106197954D01*
X113542568Y-106765090D01*
X93375737Y-106765090D01*
X93355420Y-106763089D01*
X93335102Y-106765090D01*
X93335092Y-106765090D01*
X93274282Y-106771079D01*
X93196261Y-106794747D01*
X93124357Y-106833180D01*
X93061333Y-106884903D01*
X93048376Y-106900691D01*
X90253968Y-109695100D01*
X89273698Y-109695100D01*
X89248373Y-109647720D01*
X89212271Y-109603729D01*
X89168280Y-109567627D01*
X89118092Y-109540801D01*
X89063634Y-109524281D01*
X89007000Y-109518703D01*
X87457000Y-109518703D01*
X87400366Y-109524281D01*
X87345908Y-109540801D01*
X87295720Y-109567627D01*
X87251729Y-109603729D01*
X87215627Y-109647720D01*
X87188801Y-109697908D01*
X87172281Y-109752366D01*
X87166703Y-109809000D01*
X87166703Y-110164612D01*
X86928300Y-109926209D01*
X86928300Y-108323291D01*
X93451591Y-101800000D01*
X113082010Y-101800000D01*
X113087159Y-101852282D01*
X113102410Y-101902555D01*
X113127174Y-101948887D01*
X113160502Y-101989498D01*
X113201113Y-102022826D01*
X113247445Y-102047590D01*
X113297718Y-102062841D01*
X113350000Y-102067990D01*
X114418225Y-102066700D01*
X114484900Y-102000025D01*
X114484900Y-100165100D01*
X114815100Y-100165100D01*
X114815100Y-102000025D01*
X114881775Y-102066700D01*
X115950000Y-102067990D01*
X116002282Y-102062841D01*
X116052555Y-102047590D01*
X116098887Y-102022826D01*
X116139498Y-101989498D01*
X116172826Y-101948887D01*
X116197590Y-101902555D01*
X116212841Y-101852282D01*
X116217990Y-101800000D01*
X116216700Y-100231775D01*
X116150025Y-100165100D01*
X114815100Y-100165100D01*
X114484900Y-100165100D01*
X113149975Y-100165100D01*
X113083300Y-100231775D01*
X113082010Y-101800000D01*
X93451591Y-101800000D01*
X97051591Y-98200000D01*
X113082010Y-98200000D01*
X113083300Y-99768225D01*
X113149975Y-99834900D01*
X114484900Y-99834900D01*
X114484900Y-97999975D01*
X114815100Y-97999975D01*
X114815100Y-99834900D01*
X116150025Y-99834900D01*
X116216700Y-99768225D01*
X116217990Y-98200000D01*
X116212841Y-98147718D01*
X116197590Y-98097445D01*
X116172826Y-98051113D01*
X116139498Y-98010502D01*
X116098887Y-97977174D01*
X116052555Y-97952410D01*
X116002282Y-97937159D01*
X115950000Y-97932010D01*
X114881775Y-97933300D01*
X114815100Y-97999975D01*
X114484900Y-97999975D01*
X114418225Y-97933300D01*
X113350000Y-97932010D01*
X113297718Y-97937159D01*
X113247445Y-97952410D01*
X113201113Y-97977174D01*
X113160502Y-98010502D01*
X113127174Y-98051113D01*
X113102410Y-98097445D01*
X113087159Y-98147718D01*
X113082010Y-98200000D01*
X97051591Y-98200000D01*
X103568042Y-91683549D01*
X107499606Y-91683549D01*
X107499606Y-91819251D01*
X107526080Y-91952345D01*
X107578011Y-92077716D01*
X107653403Y-92190548D01*
X107749358Y-92286503D01*
X107862190Y-92361895D01*
X107987561Y-92413826D01*
X108120655Y-92440300D01*
X108256357Y-92440300D01*
X108389451Y-92413826D01*
X108514822Y-92361895D01*
X108627654Y-92286503D01*
X108723609Y-92190548D01*
X108799001Y-92077716D01*
X108850932Y-91952345D01*
X108877406Y-91819251D01*
X108877406Y-91683549D01*
X108850932Y-91550455D01*
X108799001Y-91425084D01*
X108723609Y-91312252D01*
X108627654Y-91216297D01*
X108602406Y-91199427D01*
X108602406Y-89520994D01*
X108763449Y-89359952D01*
X108793231Y-89365876D01*
X108928933Y-89365876D01*
X109062027Y-89339402D01*
X109187398Y-89287471D01*
X109300230Y-89212079D01*
X109396185Y-89116124D01*
X109471577Y-89003292D01*
X109523508Y-88877921D01*
X109549982Y-88744827D01*
X109549982Y-88609125D01*
X109523508Y-88476031D01*
X109471577Y-88350660D01*
X109396185Y-88237828D01*
X109300230Y-88141873D01*
X109187398Y-88066481D01*
X109062027Y-88014550D01*
X108928933Y-87988076D01*
X108793231Y-87988076D01*
X108660137Y-88014550D01*
X108534766Y-88066481D01*
X108421934Y-88141873D01*
X108325979Y-88237828D01*
X108250587Y-88350660D01*
X108198656Y-88476031D01*
X108172182Y-88609125D01*
X108172182Y-88744827D01*
X108178106Y-88774609D01*
X107910212Y-89042504D01*
X107894419Y-89055465D01*
X107842696Y-89118490D01*
X107804263Y-89190394D01*
X107780595Y-89268415D01*
X107774606Y-89329225D01*
X107774606Y-89329235D01*
X107772605Y-89349552D01*
X107774606Y-89369870D01*
X107774607Y-91165378D01*
X107774606Y-91165388D01*
X107774606Y-91199427D01*
X107749358Y-91216297D01*
X107653403Y-91312252D01*
X107578011Y-91425084D01*
X107526080Y-91550455D01*
X107499606Y-91683549D01*
X103568042Y-91683549D01*
X105633835Y-89617757D01*
X105653555Y-89625926D01*
X105786649Y-89652400D01*
X105922351Y-89652400D01*
X106055445Y-89625926D01*
X106180816Y-89573995D01*
X106293648Y-89498603D01*
X106389603Y-89402648D01*
X106464995Y-89289816D01*
X106516926Y-89164445D01*
X106543400Y-89031351D01*
X106543400Y-88895649D01*
X106516926Y-88762555D01*
X106464995Y-88637184D01*
X106389603Y-88524352D01*
X106293648Y-88428397D01*
X106180816Y-88353005D01*
X106055445Y-88301074D01*
X105922351Y-88274600D01*
X105786649Y-88274600D01*
X105653555Y-88301074D01*
X105528184Y-88353005D01*
X105415352Y-88428397D01*
X105319397Y-88524352D01*
X105244005Y-88637184D01*
X105192074Y-88762555D01*
X105179962Y-88823446D01*
X86190286Y-107813123D01*
X86173445Y-107826944D01*
X86159626Y-107843783D01*
X86118297Y-107894141D01*
X86077320Y-107970805D01*
X86052086Y-108053990D01*
X86043565Y-108140500D01*
X86045701Y-108162186D01*
X86045700Y-110087324D01*
X86043565Y-110109000D01*
X86045700Y-110130676D01*
X86045700Y-110130677D01*
X86052085Y-110195509D01*
X86077319Y-110278694D01*
X86088440Y-110299500D01*
X86118297Y-110355359D01*
X86135367Y-110376159D01*
X86173444Y-110422556D01*
X86190291Y-110436382D01*
X87166703Y-111412795D01*
X87166703Y-111679000D01*
X87172281Y-111735634D01*
X87188801Y-111790092D01*
X87215627Y-111840280D01*
X87251729Y-111884271D01*
X87295720Y-111920373D01*
X87345908Y-111947199D01*
X87400366Y-111963719D01*
X87457000Y-111969297D01*
X89007000Y-111969297D01*
X89063634Y-111963719D01*
X89118092Y-111947199D01*
X89168280Y-111920373D01*
X89212271Y-111884271D01*
X89248373Y-111840280D01*
X89275199Y-111790092D01*
X89291719Y-111735634D01*
X89297297Y-111679000D01*
X89297297Y-111079000D01*
X89291719Y-111022366D01*
X89275199Y-110967908D01*
X89248373Y-110917720D01*
X89212271Y-110873729D01*
X89168280Y-110837627D01*
X89118092Y-110810801D01*
X89063634Y-110794281D01*
X89007000Y-110788703D01*
X87790795Y-110788703D01*
X87701389Y-110699297D01*
X89007000Y-110699297D01*
X89063634Y-110693719D01*
X89118092Y-110677199D01*
X89168280Y-110650373D01*
X89212271Y-110614271D01*
X89248373Y-110570280D01*
X89273698Y-110522900D01*
X90405093Y-110522900D01*
X90425410Y-110524901D01*
X90445727Y-110522900D01*
X90445738Y-110522900D01*
X90506548Y-110516911D01*
X90584569Y-110493243D01*
X90656473Y-110454810D01*
X90719497Y-110403087D01*
X90732459Y-110387293D01*
X93526863Y-107592890D01*
X113693693Y-107592890D01*
X113714010Y-107594891D01*
X113734327Y-107592890D01*
X113734338Y-107592890D01*
X113795148Y-107586901D01*
X113873169Y-107563233D01*
X113945073Y-107524800D01*
X114008097Y-107473077D01*
X114021059Y-107457283D01*
X114577214Y-106901128D01*
X114649999Y-106908297D01*
X115300001Y-106908297D01*
X115405408Y-106897915D01*
X115461110Y-106881018D01*
X115461110Y-107240982D01*
X115405408Y-107224085D01*
X115300001Y-107213703D01*
X114649999Y-107213703D01*
X114544592Y-107224085D01*
X114443237Y-107254831D01*
X114349827Y-107304759D01*
X114267952Y-107371952D01*
X114200759Y-107453827D01*
X114150831Y-107547237D01*
X114120085Y-107648592D01*
X114109703Y-107753999D01*
X114109703Y-108483955D01*
X113647692Y-108945966D01*
X113631904Y-108958923D01*
X113618947Y-108974711D01*
X113618945Y-108974713D01*
X113580181Y-109021947D01*
X113541747Y-109093852D01*
X113518080Y-109171872D01*
X113510089Y-109253010D01*
X113512091Y-109273337D01*
X113512091Y-109693341D01*
X113483048Y-109657952D01*
X113401173Y-109590759D01*
X113307763Y-109540831D01*
X113206408Y-109510085D01*
X113101001Y-109499703D01*
X112450999Y-109499703D01*
X112378214Y-109506872D01*
X111305049Y-108433707D01*
X111292087Y-108417913D01*
X111229063Y-108366190D01*
X111157159Y-108327757D01*
X111079138Y-108304089D01*
X111018328Y-108298100D01*
X111018317Y-108298100D01*
X110998000Y-108296099D01*
X110977683Y-108298100D01*
X94499317Y-108298100D01*
X94479000Y-108296099D01*
X94458682Y-108298100D01*
X94458672Y-108298100D01*
X94397862Y-108304089D01*
X94319841Y-108327757D01*
X94247937Y-108366190D01*
X94184913Y-108417913D01*
X94171956Y-108433701D01*
X93353702Y-109251956D01*
X93337914Y-109264913D01*
X93324957Y-109280701D01*
X93324955Y-109280703D01*
X93286191Y-109327937D01*
X93247757Y-109399842D01*
X93224090Y-109477862D01*
X93220068Y-109518703D01*
X92857000Y-109518703D01*
X92800366Y-109524281D01*
X92745908Y-109540801D01*
X92695720Y-109567627D01*
X92651729Y-109603729D01*
X92615627Y-109647720D01*
X92588801Y-109697908D01*
X92572281Y-109752366D01*
X92566703Y-109809000D01*
X92566703Y-110409000D01*
X92572281Y-110465634D01*
X92588801Y-110520092D01*
X92615627Y-110570280D01*
X92651729Y-110614271D01*
X92695720Y-110650373D01*
X92745908Y-110677199D01*
X92800366Y-110693719D01*
X92857000Y-110699297D01*
X93333617Y-110699297D01*
X93360362Y-110707410D01*
X93441500Y-110715401D01*
X93522638Y-110707410D01*
X93549383Y-110699297D01*
X94201361Y-110699297D01*
X94111955Y-110788703D01*
X92857000Y-110788703D01*
X92800366Y-110794281D01*
X92745908Y-110810801D01*
X92695720Y-110837627D01*
X92651729Y-110873729D01*
X92615627Y-110917720D01*
X92590302Y-110965100D01*
X90547317Y-110965100D01*
X90526999Y-110963099D01*
X90506682Y-110965100D01*
X90506672Y-110965100D01*
X90445862Y-110971089D01*
X90367841Y-110994757D01*
X90295937Y-111033190D01*
X90276054Y-111049508D01*
X90251426Y-111069720D01*
X90232913Y-111084913D01*
X90219956Y-111100701D01*
X89192859Y-112127798D01*
X89168280Y-112107627D01*
X89118092Y-112080801D01*
X89063634Y-112064281D01*
X89007000Y-112058703D01*
X87457000Y-112058703D01*
X87400366Y-112064281D01*
X87345908Y-112080801D01*
X87295720Y-112107627D01*
X87251729Y-112143729D01*
X87215627Y-112187720D01*
X87188801Y-112237908D01*
X87172281Y-112292366D01*
X87166703Y-112349000D01*
X87166703Y-112949000D01*
X87172281Y-113005634D01*
X87188801Y-113060092D01*
X87215627Y-113110280D01*
X87251729Y-113154271D01*
X87295720Y-113190373D01*
X87345908Y-113217199D01*
X87400366Y-113233719D01*
X87457000Y-113239297D01*
X89007000Y-113239297D01*
X89063634Y-113233719D01*
X89118092Y-113217199D01*
X89168280Y-113190373D01*
X89212271Y-113154271D01*
X89248373Y-113110280D01*
X89273497Y-113063276D01*
X89277317Y-113062900D01*
X89277328Y-113062900D01*
X89338138Y-113056911D01*
X89416159Y-113033243D01*
X89488063Y-112994810D01*
X89551087Y-112943087D01*
X89564049Y-112927293D01*
X90698443Y-111792900D01*
X92590302Y-111792900D01*
X92615627Y-111840280D01*
X92651729Y-111884271D01*
X92695720Y-111920373D01*
X92745908Y-111947199D01*
X92800366Y-111963719D01*
X92857000Y-111969297D01*
X94407000Y-111969297D01*
X94463634Y-111963719D01*
X94518092Y-111947199D01*
X94568280Y-111920373D01*
X94612271Y-111884271D01*
X94648373Y-111840280D01*
X94675199Y-111790092D01*
X94691719Y-111735634D01*
X94697297Y-111679000D01*
X94697297Y-111374045D01*
X96284465Y-109786878D01*
X107207536Y-109786878D01*
X107546196Y-110125539D01*
X107496952Y-110165952D01*
X107429759Y-110247827D01*
X107379831Y-110341237D01*
X107349085Y-110442592D01*
X107338703Y-110547999D01*
X107338703Y-111448001D01*
X107349085Y-111553408D01*
X107379831Y-111654763D01*
X107429759Y-111748173D01*
X107496952Y-111830048D01*
X107578827Y-111897241D01*
X107672237Y-111947169D01*
X107773592Y-111977915D01*
X107878999Y-111988297D01*
X108529001Y-111988297D01*
X108634408Y-111977915D01*
X108735763Y-111947169D01*
X108829173Y-111897241D01*
X108911048Y-111830048D01*
X108978241Y-111748173D01*
X109001087Y-111705430D01*
X109714956Y-112419299D01*
X109727913Y-112435087D01*
X109790937Y-112486810D01*
X109862841Y-112525243D01*
X109940862Y-112548911D01*
X110001672Y-112554900D01*
X110001682Y-112554900D01*
X110021999Y-112556901D01*
X110042317Y-112554900D01*
X112882672Y-112554900D01*
X112903000Y-112556902D01*
X112923327Y-112554900D01*
X112923328Y-112554900D01*
X112984138Y-112548911D01*
X113062159Y-112525243D01*
X113134063Y-112486810D01*
X113197087Y-112435087D01*
X113248810Y-112372063D01*
X113287243Y-112300159D01*
X113288140Y-112297202D01*
X114147994Y-111437349D01*
X114148445Y-111437590D01*
X114198718Y-111452841D01*
X114251000Y-111457990D01*
X114594225Y-111456700D01*
X114660900Y-111390025D01*
X114660900Y-110655100D01*
X114640900Y-110655100D01*
X114640900Y-110324900D01*
X114660900Y-110324900D01*
X114660900Y-109589975D01*
X114594225Y-109523300D01*
X114339890Y-109522344D01*
X114339890Y-109424452D01*
X114577214Y-109187128D01*
X114649999Y-109194297D01*
X115300001Y-109194297D01*
X115405408Y-109183915D01*
X115461111Y-109167018D01*
X115461111Y-109529534D01*
X115453282Y-109527159D01*
X115401000Y-109522010D01*
X115057775Y-109523300D01*
X114991100Y-109589975D01*
X114991100Y-110324900D01*
X115011100Y-110324900D01*
X115011100Y-110655100D01*
X114991100Y-110655100D01*
X114991100Y-111327747D01*
X111915738Y-114403110D01*
X109042018Y-114403110D01*
X109058915Y-114347408D01*
X109069297Y-114242001D01*
X109069297Y-113341999D01*
X109058915Y-113236592D01*
X109028169Y-113135237D01*
X108978241Y-113041827D01*
X108911048Y-112959952D01*
X108829173Y-112892759D01*
X108735763Y-112842831D01*
X108634408Y-112812085D01*
X108529001Y-112801703D01*
X107878999Y-112801703D01*
X107806215Y-112808872D01*
X106842562Y-111845219D01*
X106861048Y-111830048D01*
X106928241Y-111748173D01*
X106978169Y-111654763D01*
X107008915Y-111553408D01*
X107019297Y-111448001D01*
X107019297Y-110547999D01*
X107008915Y-110442592D01*
X106978169Y-110341237D01*
X106928241Y-110247827D01*
X106861048Y-110165952D01*
X106779173Y-110098759D01*
X106685763Y-110048831D01*
X106584408Y-110018085D01*
X106479001Y-110007703D01*
X105828999Y-110007703D01*
X105723592Y-110018085D01*
X105622237Y-110048831D01*
X105528827Y-110098759D01*
X105446952Y-110165952D01*
X105379759Y-110247827D01*
X105356913Y-110290570D01*
X105061046Y-109994704D01*
X105048085Y-109978911D01*
X104985061Y-109927188D01*
X104913157Y-109888755D01*
X104835136Y-109865087D01*
X104774326Y-109859098D01*
X104774315Y-109859098D01*
X104753998Y-109857097D01*
X104733681Y-109859098D01*
X97053319Y-109859098D01*
X97033001Y-109857097D01*
X97012684Y-109859098D01*
X97012674Y-109859098D01*
X96951864Y-109865087D01*
X96873843Y-109888755D01*
X96801939Y-109927188D01*
X96801937Y-109927189D01*
X96801938Y-109927189D01*
X96774337Y-109949841D01*
X96738915Y-109978911D01*
X96725958Y-109994699D01*
X94592859Y-112127799D01*
X94568280Y-112107627D01*
X94518092Y-112080801D01*
X94463634Y-112064281D01*
X94407000Y-112058703D01*
X92857000Y-112058703D01*
X92800366Y-112064281D01*
X92745908Y-112080801D01*
X92695720Y-112107627D01*
X92651729Y-112143729D01*
X92615627Y-112187720D01*
X92588801Y-112237908D01*
X92572281Y-112292366D01*
X92566703Y-112349000D01*
X92566703Y-112949000D01*
X92572281Y-113005634D01*
X92588801Y-113060092D01*
X92615627Y-113110280D01*
X92651729Y-113154271D01*
X92695720Y-113190373D01*
X92745908Y-113217199D01*
X92800366Y-113233719D01*
X92857000Y-113239297D01*
X94407000Y-113239297D01*
X94463634Y-113233719D01*
X94518092Y-113217199D01*
X94568280Y-113190373D01*
X94612271Y-113154271D01*
X94648373Y-113110280D01*
X94673497Y-113063276D01*
X94677317Y-113062900D01*
X94677328Y-113062900D01*
X94738138Y-113056911D01*
X94816159Y-113033243D01*
X94888063Y-112994810D01*
X94951087Y-112943087D01*
X94964049Y-112927293D01*
X96481703Y-111409640D01*
X96481703Y-112885954D01*
X95862558Y-113505100D01*
X94673698Y-113505100D01*
X94648373Y-113457720D01*
X94612271Y-113413729D01*
X94568280Y-113377627D01*
X94518092Y-113350801D01*
X94463634Y-113334281D01*
X94407000Y-113328703D01*
X92857000Y-113328703D01*
X92800366Y-113334281D01*
X92745908Y-113350801D01*
X92695720Y-113377627D01*
X92651729Y-113413729D01*
X92615627Y-113457720D01*
X92588801Y-113507908D01*
X92572281Y-113562366D01*
X92566703Y-113619000D01*
X92566703Y-114219000D01*
X92572281Y-114275634D01*
X92588801Y-114330092D01*
X92615627Y-114380280D01*
X92651729Y-114424271D01*
X92695720Y-114460373D01*
X92745908Y-114487199D01*
X92800366Y-114503719D01*
X92857000Y-114509297D01*
X94407000Y-114509297D01*
X94463634Y-114503719D01*
X94518092Y-114487199D01*
X94568280Y-114460373D01*
X94612271Y-114424271D01*
X94648373Y-114380280D01*
X94673698Y-114332900D01*
X96013683Y-114332900D01*
X96034000Y-114334901D01*
X96054317Y-114332900D01*
X96054328Y-114332900D01*
X96115138Y-114326911D01*
X96193159Y-114303243D01*
X96265063Y-114264810D01*
X96328087Y-114213087D01*
X96341049Y-114197293D01*
X96908100Y-113630242D01*
X96908101Y-116590703D01*
X96772000Y-116590703D01*
X96715366Y-116596281D01*
X96660908Y-116612801D01*
X96610720Y-116639627D01*
X96566729Y-116675729D01*
X96530627Y-116719720D01*
X96503801Y-116769908D01*
X96487281Y-116824366D01*
X96481703Y-116881000D01*
X96481703Y-118692860D01*
X92382049Y-114593207D01*
X92369087Y-114577413D01*
X92306063Y-114525690D01*
X92234159Y-114487257D01*
X92156138Y-114463589D01*
X92095328Y-114457600D01*
X92095317Y-114457600D01*
X92075000Y-114455599D01*
X92054683Y-114457600D01*
X89126375Y-114457600D01*
X89155887Y-114441826D01*
X89196498Y-114408498D01*
X89229826Y-114367887D01*
X89254590Y-114321555D01*
X89269841Y-114271282D01*
X89274990Y-114219000D01*
X89273700Y-114150775D01*
X89207025Y-114084100D01*
X88397100Y-114084100D01*
X88397100Y-114104100D01*
X88066900Y-114104100D01*
X88066900Y-114084100D01*
X87322441Y-114084100D01*
X86857341Y-113619000D01*
X87189010Y-113619000D01*
X87190300Y-113687225D01*
X87256975Y-113753900D01*
X88066900Y-113753900D01*
X88066900Y-113418975D01*
X88397100Y-113418975D01*
X88397100Y-113753900D01*
X89207025Y-113753900D01*
X89273700Y-113687225D01*
X89274990Y-113619000D01*
X89269841Y-113566718D01*
X89254590Y-113516445D01*
X89229826Y-113470113D01*
X89196498Y-113429502D01*
X89155887Y-113396174D01*
X89109555Y-113371410D01*
X89059282Y-113356159D01*
X89007000Y-113351010D01*
X88463775Y-113352300D01*
X88397100Y-113418975D01*
X88066900Y-113418975D01*
X88000225Y-113352300D01*
X87457000Y-113351010D01*
X87404718Y-113356159D01*
X87354445Y-113371410D01*
X87308113Y-113396174D01*
X87267502Y-113429502D01*
X87234174Y-113470113D01*
X87209410Y-113516445D01*
X87194159Y-113566718D01*
X87189010Y-113619000D01*
X86857341Y-113619000D01*
X85763900Y-112525560D01*
X85763900Y-102090297D01*
X86650000Y-102090297D01*
X86706634Y-102084719D01*
X86761092Y-102068199D01*
X86811280Y-102041373D01*
X86855271Y-102005271D01*
X86891373Y-101961280D01*
X86918199Y-101911092D01*
X86934719Y-101856634D01*
X86940297Y-101800000D01*
X86940297Y-98200000D01*
X86934719Y-98143366D01*
X86918199Y-98088908D01*
X86891373Y-98038720D01*
X86855271Y-97994729D01*
X86811280Y-97958627D01*
X86761092Y-97931801D01*
X86706634Y-97915281D01*
X86650000Y-97909703D01*
X84050000Y-97909703D01*
X83993366Y-97915281D01*
X83938908Y-97931801D01*
X83888720Y-97958627D01*
X83844729Y-97994729D01*
X83808627Y-98038720D01*
X83781801Y-98088908D01*
X83765281Y-98143366D01*
X83759703Y-98200000D01*
X83759703Y-101800000D01*
X83765281Y-101856634D01*
X83781801Y-101911092D01*
X83808627Y-101961280D01*
X83844729Y-102005271D01*
X83888720Y-102041373D01*
X83938908Y-102068199D01*
X83993366Y-102084719D01*
X84050000Y-102090297D01*
X84936101Y-102090297D01*
X84936100Y-112645078D01*
X84610664Y-112272586D01*
X83572510Y-110843691D01*
X82666622Y-109327489D01*
X81900291Y-107736187D01*
X81279689Y-106082598D01*
X80809811Y-104380035D01*
X80494442Y-102642207D01*
X80336120Y-100883106D01*
X80336120Y-99116894D01*
X80494442Y-97357793D01*
X80809811Y-95619965D01*
X81279689Y-93917402D01*
X81900291Y-92263813D01*
X82666622Y-90672511D01*
X83572510Y-89156309D01*
X84610664Y-87727414D01*
X85772723Y-86397330D01*
X87049332Y-85176767D01*
X88430211Y-84075552D01*
X88960794Y-83725317D01*
X97211100Y-83725317D01*
X97211100Y-84274683D01*
X97318276Y-84813492D01*
X97528509Y-85321039D01*
X97833720Y-85777820D01*
X98222180Y-86166280D01*
X98678961Y-86471491D01*
X99186508Y-86681724D01*
X99725317Y-86788900D01*
X100274683Y-86788900D01*
X100813492Y-86681724D01*
X101321039Y-86471491D01*
X101777820Y-86166280D01*
X102166280Y-85777820D01*
X102471491Y-85321039D01*
X102681724Y-84813492D01*
X102788900Y-84274683D01*
X102788900Y-83725317D01*
X102681724Y-83186508D01*
X102471491Y-82678961D01*
X102166280Y-82222180D01*
X101777820Y-81833720D01*
X101321039Y-81528509D01*
X100813492Y-81318276D01*
X100274683Y-81211100D01*
X99725317Y-81211100D01*
X99186508Y-81318276D01*
X98678961Y-81528509D01*
X98222180Y-81833720D01*
X97833720Y-82222180D01*
X97528509Y-82678961D01*
X97318276Y-83186508D01*
X97211100Y-83725317D01*
X88960794Y-83725317D01*
X89904244Y-83102551D01*
X91459563Y-82265599D01*
X93083643Y-81571434D01*
X94763411Y-81025644D01*
X96485340Y-80632625D01*
X98235567Y-80395541D01*
X100000000Y-80316300D01*
X101764433Y-80395541D01*
G04 #@! TA.AperFunction,Conductor*
D19*
G36*
X101764433Y-80395541D02*
G01*
X103514660Y-80632625D01*
X105236589Y-81025644D01*
X106916357Y-81571434D01*
X108540437Y-82265599D01*
X110095756Y-83102551D01*
X111569789Y-84075552D01*
X112950668Y-85176767D01*
X114227277Y-86397330D01*
X115389336Y-87727414D01*
X116427490Y-89156309D01*
X117333378Y-90672511D01*
X118099709Y-92263813D01*
X118720311Y-93917402D01*
X119190189Y-95619965D01*
X119505558Y-97357793D01*
X119663880Y-99116894D01*
X119663880Y-100883106D01*
X119505558Y-102642207D01*
X119190189Y-104380035D01*
X118720311Y-106082598D01*
X118099709Y-107736187D01*
X117794914Y-108369100D01*
X117190100Y-108369100D01*
X117190100Y-109104025D01*
X117256775Y-109170700D01*
X117408609Y-109171271D01*
X117333378Y-109327489D01*
X116427490Y-110843691D01*
X116290628Y-111032065D01*
X116290912Y-111029180D01*
X116288910Y-111008852D01*
X116288910Y-109116811D01*
X116301113Y-109126826D01*
X116347445Y-109151590D01*
X116397718Y-109166841D01*
X116450000Y-109171990D01*
X116793225Y-109170700D01*
X116859900Y-109104025D01*
X116859900Y-108369100D01*
X116839900Y-108369100D01*
X116839900Y-108038900D01*
X116859900Y-108038900D01*
X116859900Y-107303975D01*
X117190100Y-107303975D01*
X117190100Y-108038900D01*
X117800025Y-108038900D01*
X117866700Y-107972225D01*
X117867990Y-107504000D01*
X117862841Y-107451718D01*
X117847590Y-107401445D01*
X117822826Y-107355113D01*
X117789498Y-107314502D01*
X117748887Y-107281174D01*
X117702555Y-107256410D01*
X117652282Y-107241159D01*
X117600000Y-107236010D01*
X117256775Y-107237300D01*
X117190100Y-107303975D01*
X116859900Y-107303975D01*
X116793225Y-107237300D01*
X116450000Y-107236010D01*
X116397718Y-107241159D01*
X116347445Y-107256410D01*
X116301113Y-107281174D01*
X116288910Y-107291189D01*
X116288910Y-106830811D01*
X116301113Y-106840826D01*
X116347445Y-106865590D01*
X116397718Y-106880841D01*
X116450000Y-106885990D01*
X116793225Y-106884700D01*
X116859900Y-106818025D01*
X116859900Y-106083100D01*
X117190100Y-106083100D01*
X117190100Y-106818025D01*
X117256775Y-106884700D01*
X117600000Y-106885990D01*
X117652282Y-106880841D01*
X117702555Y-106865590D01*
X117748887Y-106840826D01*
X117789498Y-106807498D01*
X117822826Y-106766887D01*
X117847590Y-106720555D01*
X117862841Y-106670282D01*
X117867990Y-106618000D01*
X117866700Y-106149775D01*
X117800025Y-106083100D01*
X117190100Y-106083100D01*
X116859900Y-106083100D01*
X116839900Y-106083100D01*
X116839900Y-105752900D01*
X116859900Y-105752900D01*
X116859900Y-105017975D01*
X117190100Y-105017975D01*
X117190100Y-105752900D01*
X117800025Y-105752900D01*
X117866700Y-105686225D01*
X117867990Y-105218000D01*
X117862841Y-105165718D01*
X117847590Y-105115445D01*
X117822826Y-105069113D01*
X117789498Y-105028502D01*
X117748887Y-104995174D01*
X117702555Y-104970410D01*
X117652282Y-104955159D01*
X117600000Y-104950010D01*
X117256775Y-104951300D01*
X117190100Y-105017975D01*
X116859900Y-105017975D01*
X116793225Y-104951300D01*
X116450000Y-104950010D01*
X116397718Y-104955159D01*
X116351016Y-104969327D01*
X116674545Y-104645798D01*
X116674549Y-104645793D01*
X117499300Y-103821043D01*
X117515087Y-103808087D01*
X117566810Y-103745063D01*
X117605243Y-103673159D01*
X117628911Y-103595138D01*
X117634900Y-103534328D01*
X117634900Y-103534318D01*
X117636901Y-103514001D01*
X117634900Y-103493683D01*
X117634900Y-94709283D01*
X117636901Y-94688965D01*
X117634900Y-94668648D01*
X117634900Y-94668638D01*
X117628911Y-94607828D01*
X117605243Y-94529807D01*
X117566810Y-94457903D01*
X117515087Y-94394879D01*
X117499299Y-94381922D01*
X111284900Y-88167524D01*
X111284900Y-87598325D01*
X111286901Y-87578007D01*
X111284900Y-87557690D01*
X111284900Y-87557680D01*
X111278911Y-87496870D01*
X111255243Y-87418849D01*
X111216810Y-87346945D01*
X111165087Y-87283921D01*
X111149298Y-87270964D01*
X110891050Y-87012716D01*
X110878089Y-86996923D01*
X110815065Y-86945200D01*
X110743161Y-86906767D01*
X110665140Y-86883099D01*
X110604330Y-86877110D01*
X110604319Y-86877110D01*
X110584002Y-86875109D01*
X110563685Y-86877110D01*
X104816807Y-86877110D01*
X104796489Y-86875109D01*
X104776172Y-86877110D01*
X104776162Y-86877110D01*
X104715352Y-86883099D01*
X104637331Y-86906767D01*
X104565427Y-86945200D01*
X104502403Y-86996923D01*
X104489446Y-87012711D01*
X103880706Y-87621452D01*
X103880701Y-87621456D01*
X103856633Y-87645524D01*
X103826851Y-87639600D01*
X103691149Y-87639600D01*
X103558055Y-87666074D01*
X103432684Y-87718005D01*
X103319852Y-87793397D01*
X103223897Y-87889352D01*
X103148505Y-88002184D01*
X103096574Y-88127555D01*
X103070100Y-88260649D01*
X103070100Y-88396351D01*
X103096574Y-88529445D01*
X103148505Y-88654816D01*
X103223897Y-88767648D01*
X103319852Y-88863603D01*
X103432684Y-88938995D01*
X103558055Y-88990926D01*
X103691149Y-89017400D01*
X103826851Y-89017400D01*
X103959945Y-88990926D01*
X104085316Y-88938995D01*
X104198148Y-88863603D01*
X104294103Y-88767648D01*
X104369495Y-88654816D01*
X104421426Y-88529445D01*
X104447900Y-88396351D01*
X104447900Y-88260649D01*
X104441976Y-88230867D01*
X104466044Y-88206799D01*
X104466048Y-88206794D01*
X104967933Y-87704910D01*
X109547430Y-87704910D01*
X109533010Y-87726491D01*
X109481079Y-87851862D01*
X109454605Y-87984956D01*
X109454605Y-88120658D01*
X109481079Y-88253752D01*
X109533010Y-88379123D01*
X109608402Y-88491955D01*
X109704357Y-88587910D01*
X109729605Y-88604780D01*
X109729606Y-91377398D01*
X109727604Y-91397726D01*
X109735595Y-91478864D01*
X109755576Y-91544733D01*
X109741289Y-91616559D01*
X109741289Y-91752261D01*
X109767763Y-91885355D01*
X109819694Y-92010726D01*
X109895086Y-92123558D01*
X109991041Y-92219513D01*
X110103873Y-92294905D01*
X110229244Y-92346836D01*
X110362338Y-92373310D01*
X110498040Y-92373310D01*
X110631134Y-92346836D01*
X110756505Y-92294905D01*
X110869337Y-92219513D01*
X110965292Y-92123558D01*
X111040684Y-92010726D01*
X111092615Y-91885355D01*
X111119089Y-91752261D01*
X111119089Y-91616559D01*
X111092615Y-91483465D01*
X111040684Y-91358094D01*
X110965292Y-91245262D01*
X110869337Y-91149307D01*
X110756505Y-91073915D01*
X110631134Y-91021984D01*
X110557405Y-91007318D01*
X110557405Y-88609282D01*
X110576913Y-88633053D01*
X110592707Y-88646015D01*
X116807101Y-94860410D01*
X116807100Y-103342557D01*
X116089207Y-104060451D01*
X116089202Y-104060455D01*
X115596713Y-104552944D01*
X115580923Y-104565903D01*
X115567965Y-104581692D01*
X115221955Y-104927703D01*
X114649999Y-104927703D01*
X114544592Y-104938085D01*
X114443237Y-104968831D01*
X114349827Y-105018759D01*
X114267952Y-105085952D01*
X114200759Y-105167827D01*
X114150831Y-105261237D01*
X114120085Y-105362592D01*
X114109703Y-105467999D01*
X114109703Y-106197954D01*
X113542568Y-106765090D01*
X93375737Y-106765090D01*
X93355420Y-106763089D01*
X93335102Y-106765090D01*
X93335092Y-106765090D01*
X93274282Y-106771079D01*
X93196261Y-106794747D01*
X93124357Y-106833180D01*
X93061333Y-106884903D01*
X93048376Y-106900691D01*
X90253968Y-109695100D01*
X89273698Y-109695100D01*
X89248373Y-109647720D01*
X89212271Y-109603729D01*
X89168280Y-109567627D01*
X89118092Y-109540801D01*
X89063634Y-109524281D01*
X89007000Y-109518703D01*
X87457000Y-109518703D01*
X87400366Y-109524281D01*
X87345908Y-109540801D01*
X87295720Y-109567627D01*
X87251729Y-109603729D01*
X87215627Y-109647720D01*
X87188801Y-109697908D01*
X87172281Y-109752366D01*
X87166703Y-109809000D01*
X87166703Y-110164612D01*
X86928300Y-109926209D01*
X86928300Y-108323291D01*
X93451591Y-101800000D01*
X113082010Y-101800000D01*
X113087159Y-101852282D01*
X113102410Y-101902555D01*
X113127174Y-101948887D01*
X113160502Y-101989498D01*
X113201113Y-102022826D01*
X113247445Y-102047590D01*
X113297718Y-102062841D01*
X113350000Y-102067990D01*
X114418225Y-102066700D01*
X114484900Y-102000025D01*
X114484900Y-100165100D01*
X114815100Y-100165100D01*
X114815100Y-102000025D01*
X114881775Y-102066700D01*
X115950000Y-102067990D01*
X116002282Y-102062841D01*
X116052555Y-102047590D01*
X116098887Y-102022826D01*
X116139498Y-101989498D01*
X116172826Y-101948887D01*
X116197590Y-101902555D01*
X116212841Y-101852282D01*
X116217990Y-101800000D01*
X116216700Y-100231775D01*
X116150025Y-100165100D01*
X114815100Y-100165100D01*
X114484900Y-100165100D01*
X113149975Y-100165100D01*
X113083300Y-100231775D01*
X113082010Y-101800000D01*
X93451591Y-101800000D01*
X97051591Y-98200000D01*
X113082010Y-98200000D01*
X113083300Y-99768225D01*
X113149975Y-99834900D01*
X114484900Y-99834900D01*
X114484900Y-97999975D01*
X114815100Y-97999975D01*
X114815100Y-99834900D01*
X116150025Y-99834900D01*
X116216700Y-99768225D01*
X116217990Y-98200000D01*
X116212841Y-98147718D01*
X116197590Y-98097445D01*
X116172826Y-98051113D01*
X116139498Y-98010502D01*
X116098887Y-97977174D01*
X116052555Y-97952410D01*
X116002282Y-97937159D01*
X115950000Y-97932010D01*
X114881775Y-97933300D01*
X114815100Y-97999975D01*
X114484900Y-97999975D01*
X114418225Y-97933300D01*
X113350000Y-97932010D01*
X113297718Y-97937159D01*
X113247445Y-97952410D01*
X113201113Y-97977174D01*
X113160502Y-98010502D01*
X113127174Y-98051113D01*
X113102410Y-98097445D01*
X113087159Y-98147718D01*
X113082010Y-98200000D01*
X97051591Y-98200000D01*
X103568042Y-91683549D01*
X107499606Y-91683549D01*
X107499606Y-91819251D01*
X107526080Y-91952345D01*
X107578011Y-92077716D01*
X107653403Y-92190548D01*
X107749358Y-92286503D01*
X107862190Y-92361895D01*
X107987561Y-92413826D01*
X108120655Y-92440300D01*
X108256357Y-92440300D01*
X108389451Y-92413826D01*
X108514822Y-92361895D01*
X108627654Y-92286503D01*
X108723609Y-92190548D01*
X108799001Y-92077716D01*
X108850932Y-91952345D01*
X108877406Y-91819251D01*
X108877406Y-91683549D01*
X108850932Y-91550455D01*
X108799001Y-91425084D01*
X108723609Y-91312252D01*
X108627654Y-91216297D01*
X108602406Y-91199427D01*
X108602406Y-89520994D01*
X108763449Y-89359952D01*
X108793231Y-89365876D01*
X108928933Y-89365876D01*
X109062027Y-89339402D01*
X109187398Y-89287471D01*
X109300230Y-89212079D01*
X109396185Y-89116124D01*
X109471577Y-89003292D01*
X109523508Y-88877921D01*
X109549982Y-88744827D01*
X109549982Y-88609125D01*
X109523508Y-88476031D01*
X109471577Y-88350660D01*
X109396185Y-88237828D01*
X109300230Y-88141873D01*
X109187398Y-88066481D01*
X109062027Y-88014550D01*
X108928933Y-87988076D01*
X108793231Y-87988076D01*
X108660137Y-88014550D01*
X108534766Y-88066481D01*
X108421934Y-88141873D01*
X108325979Y-88237828D01*
X108250587Y-88350660D01*
X108198656Y-88476031D01*
X108172182Y-88609125D01*
X108172182Y-88744827D01*
X108178106Y-88774609D01*
X107910212Y-89042504D01*
X107894419Y-89055465D01*
X107842696Y-89118490D01*
X107804263Y-89190394D01*
X107780595Y-89268415D01*
X107774606Y-89329225D01*
X107774606Y-89329235D01*
X107772605Y-89349552D01*
X107774606Y-89369870D01*
X107774607Y-91165378D01*
X107774606Y-91165388D01*
X107774606Y-91199427D01*
X107749358Y-91216297D01*
X107653403Y-91312252D01*
X107578011Y-91425084D01*
X107526080Y-91550455D01*
X107499606Y-91683549D01*
X103568042Y-91683549D01*
X105633835Y-89617757D01*
X105653555Y-89625926D01*
X105786649Y-89652400D01*
X105922351Y-89652400D01*
X106055445Y-89625926D01*
X106180816Y-89573995D01*
X106293648Y-89498603D01*
X106389603Y-89402648D01*
X106464995Y-89289816D01*
X106516926Y-89164445D01*
X106543400Y-89031351D01*
X106543400Y-88895649D01*
X106516926Y-88762555D01*
X106464995Y-88637184D01*
X106389603Y-88524352D01*
X106293648Y-88428397D01*
X106180816Y-88353005D01*
X106055445Y-88301074D01*
X105922351Y-88274600D01*
X105786649Y-88274600D01*
X105653555Y-88301074D01*
X105528184Y-88353005D01*
X105415352Y-88428397D01*
X105319397Y-88524352D01*
X105244005Y-88637184D01*
X105192074Y-88762555D01*
X105179962Y-88823446D01*
X86190286Y-107813123D01*
X86173445Y-107826944D01*
X86159626Y-107843783D01*
X86118297Y-107894141D01*
X86077320Y-107970805D01*
X86052086Y-108053990D01*
X86043565Y-108140500D01*
X86045701Y-108162186D01*
X86045700Y-110087324D01*
X86043565Y-110109000D01*
X86045700Y-110130676D01*
X86045700Y-110130677D01*
X86052085Y-110195509D01*
X86077319Y-110278694D01*
X86088440Y-110299500D01*
X86118297Y-110355359D01*
X86135367Y-110376159D01*
X86173444Y-110422556D01*
X86190291Y-110436382D01*
X87166703Y-111412795D01*
X87166703Y-111679000D01*
X87172281Y-111735634D01*
X87188801Y-111790092D01*
X87215627Y-111840280D01*
X87251729Y-111884271D01*
X87295720Y-111920373D01*
X87345908Y-111947199D01*
X87400366Y-111963719D01*
X87457000Y-111969297D01*
X89007000Y-111969297D01*
X89063634Y-111963719D01*
X89118092Y-111947199D01*
X89168280Y-111920373D01*
X89212271Y-111884271D01*
X89248373Y-111840280D01*
X89275199Y-111790092D01*
X89291719Y-111735634D01*
X89297297Y-111679000D01*
X89297297Y-111079000D01*
X89291719Y-111022366D01*
X89275199Y-110967908D01*
X89248373Y-110917720D01*
X89212271Y-110873729D01*
X89168280Y-110837627D01*
X89118092Y-110810801D01*
X89063634Y-110794281D01*
X89007000Y-110788703D01*
X87790795Y-110788703D01*
X87701389Y-110699297D01*
X89007000Y-110699297D01*
X89063634Y-110693719D01*
X89118092Y-110677199D01*
X89168280Y-110650373D01*
X89212271Y-110614271D01*
X89248373Y-110570280D01*
X89273698Y-110522900D01*
X90405093Y-110522900D01*
X90425410Y-110524901D01*
X90445727Y-110522900D01*
X90445738Y-110522900D01*
X90506548Y-110516911D01*
X90584569Y-110493243D01*
X90656473Y-110454810D01*
X90719497Y-110403087D01*
X90732459Y-110387293D01*
X93526863Y-107592890D01*
X113693693Y-107592890D01*
X113714010Y-107594891D01*
X113734327Y-107592890D01*
X113734338Y-107592890D01*
X113795148Y-107586901D01*
X113873169Y-107563233D01*
X113945073Y-107524800D01*
X114008097Y-107473077D01*
X114021059Y-107457283D01*
X114577214Y-106901128D01*
X114649999Y-106908297D01*
X115300001Y-106908297D01*
X115405408Y-106897915D01*
X115461110Y-106881018D01*
X115461110Y-107240982D01*
X115405408Y-107224085D01*
X115300001Y-107213703D01*
X114649999Y-107213703D01*
X114544592Y-107224085D01*
X114443237Y-107254831D01*
X114349827Y-107304759D01*
X114267952Y-107371952D01*
X114200759Y-107453827D01*
X114150831Y-107547237D01*
X114120085Y-107648592D01*
X114109703Y-107753999D01*
X114109703Y-108483955D01*
X113647692Y-108945966D01*
X113631904Y-108958923D01*
X113618947Y-108974711D01*
X113618945Y-108974713D01*
X113580181Y-109021947D01*
X113541747Y-109093852D01*
X113518080Y-109171872D01*
X113510089Y-109253010D01*
X113512091Y-109273337D01*
X113512091Y-109693341D01*
X113483048Y-109657952D01*
X113401173Y-109590759D01*
X113307763Y-109540831D01*
X113206408Y-109510085D01*
X113101001Y-109499703D01*
X112450999Y-109499703D01*
X112378214Y-109506872D01*
X111305049Y-108433707D01*
X111292087Y-108417913D01*
X111229063Y-108366190D01*
X111157159Y-108327757D01*
X111079138Y-108304089D01*
X111018328Y-108298100D01*
X111018317Y-108298100D01*
X110998000Y-108296099D01*
X110977683Y-108298100D01*
X94499317Y-108298100D01*
X94479000Y-108296099D01*
X94458682Y-108298100D01*
X94458672Y-108298100D01*
X94397862Y-108304089D01*
X94319841Y-108327757D01*
X94247937Y-108366190D01*
X94184913Y-108417913D01*
X94171956Y-108433701D01*
X93353702Y-109251956D01*
X93337914Y-109264913D01*
X93324957Y-109280701D01*
X93324955Y-109280703D01*
X93286191Y-109327937D01*
X93247757Y-109399842D01*
X93224090Y-109477862D01*
X93220068Y-109518703D01*
X92857000Y-109518703D01*
X92800366Y-109524281D01*
X92745908Y-109540801D01*
X92695720Y-109567627D01*
X92651729Y-109603729D01*
X92615627Y-109647720D01*
X92588801Y-109697908D01*
X92572281Y-109752366D01*
X92566703Y-109809000D01*
X92566703Y-110409000D01*
X92572281Y-110465634D01*
X92588801Y-110520092D01*
X92615627Y-110570280D01*
X92651729Y-110614271D01*
X92695720Y-110650373D01*
X92745908Y-110677199D01*
X92800366Y-110693719D01*
X92857000Y-110699297D01*
X93333617Y-110699297D01*
X93360362Y-110707410D01*
X93441500Y-110715401D01*
X93522638Y-110707410D01*
X93549383Y-110699297D01*
X94201361Y-110699297D01*
X94111955Y-110788703D01*
X92857000Y-110788703D01*
X92800366Y-110794281D01*
X92745908Y-110810801D01*
X92695720Y-110837627D01*
X92651729Y-110873729D01*
X92615627Y-110917720D01*
X92590302Y-110965100D01*
X90547317Y-110965100D01*
X90526999Y-110963099D01*
X90506682Y-110965100D01*
X90506672Y-110965100D01*
X90445862Y-110971089D01*
X90367841Y-110994757D01*
X90295937Y-111033190D01*
X90276054Y-111049508D01*
X90251426Y-111069720D01*
X90232913Y-111084913D01*
X90219956Y-111100701D01*
X89192859Y-112127798D01*
X89168280Y-112107627D01*
X89118092Y-112080801D01*
X89063634Y-112064281D01*
X89007000Y-112058703D01*
X87457000Y-112058703D01*
X87400366Y-112064281D01*
X87345908Y-112080801D01*
X87295720Y-112107627D01*
X87251729Y-112143729D01*
X87215627Y-112187720D01*
X87188801Y-112237908D01*
X87172281Y-112292366D01*
X87166703Y-112349000D01*
X87166703Y-112949000D01*
X87172281Y-113005634D01*
X87188801Y-113060092D01*
X87215627Y-113110280D01*
X87251729Y-113154271D01*
X87295720Y-113190373D01*
X87345908Y-113217199D01*
X87400366Y-113233719D01*
X87457000Y-113239297D01*
X89007000Y-113239297D01*
X89063634Y-113233719D01*
X89118092Y-113217199D01*
X89168280Y-113190373D01*
X89212271Y-113154271D01*
X89248373Y-113110280D01*
X89273497Y-113063276D01*
X89277317Y-113062900D01*
X89277328Y-113062900D01*
X89338138Y-113056911D01*
X89416159Y-113033243D01*
X89488063Y-112994810D01*
X89551087Y-112943087D01*
X89564049Y-112927293D01*
X90698443Y-111792900D01*
X92590302Y-111792900D01*
X92615627Y-111840280D01*
X92651729Y-111884271D01*
X92695720Y-111920373D01*
X92745908Y-111947199D01*
X92800366Y-111963719D01*
X92857000Y-111969297D01*
X94407000Y-111969297D01*
X94463634Y-111963719D01*
X94518092Y-111947199D01*
X94568280Y-111920373D01*
X94612271Y-111884271D01*
X94648373Y-111840280D01*
X94675199Y-111790092D01*
X94691719Y-111735634D01*
X94697297Y-111679000D01*
X94697297Y-111374045D01*
X96284465Y-109786878D01*
X107207536Y-109786878D01*
X107546196Y-110125539D01*
X107496952Y-110165952D01*
X107429759Y-110247827D01*
X107379831Y-110341237D01*
X107349085Y-110442592D01*
X107338703Y-110547999D01*
X107338703Y-111448001D01*
X107349085Y-111553408D01*
X107379831Y-111654763D01*
X107429759Y-111748173D01*
X107496952Y-111830048D01*
X107578827Y-111897241D01*
X107672237Y-111947169D01*
X107773592Y-111977915D01*
X107878999Y-111988297D01*
X108529001Y-111988297D01*
X108634408Y-111977915D01*
X108735763Y-111947169D01*
X108829173Y-111897241D01*
X108911048Y-111830048D01*
X108978241Y-111748173D01*
X109001087Y-111705430D01*
X109714956Y-112419299D01*
X109727913Y-112435087D01*
X109790937Y-112486810D01*
X109862841Y-112525243D01*
X109940862Y-112548911D01*
X110001672Y-112554900D01*
X110001682Y-112554900D01*
X110021999Y-112556901D01*
X110042317Y-112554900D01*
X112882672Y-112554900D01*
X112903000Y-112556902D01*
X112923327Y-112554900D01*
X112923328Y-112554900D01*
X112984138Y-112548911D01*
X113062159Y-112525243D01*
X113134063Y-112486810D01*
X113197087Y-112435087D01*
X113248810Y-112372063D01*
X113287243Y-112300159D01*
X113288140Y-112297202D01*
X114147994Y-111437349D01*
X114148445Y-111437590D01*
X114198718Y-111452841D01*
X114251000Y-111457990D01*
X114594225Y-111456700D01*
X114660900Y-111390025D01*
X114660900Y-110655100D01*
X114640900Y-110655100D01*
X114640900Y-110324900D01*
X114660900Y-110324900D01*
X114660900Y-109589975D01*
X114594225Y-109523300D01*
X114339890Y-109522344D01*
X114339890Y-109424452D01*
X114577214Y-109187128D01*
X114649999Y-109194297D01*
X115300001Y-109194297D01*
X115405408Y-109183915D01*
X115461111Y-109167018D01*
X115461111Y-109529534D01*
X115453282Y-109527159D01*
X115401000Y-109522010D01*
X115057775Y-109523300D01*
X114991100Y-109589975D01*
X114991100Y-110324900D01*
X115011100Y-110324900D01*
X115011100Y-110655100D01*
X114991100Y-110655100D01*
X114991100Y-111327747D01*
X111915738Y-114403110D01*
X109042018Y-114403110D01*
X109058915Y-114347408D01*
X109069297Y-114242001D01*
X109069297Y-113341999D01*
X109058915Y-113236592D01*
X109028169Y-113135237D01*
X108978241Y-113041827D01*
X108911048Y-112959952D01*
X108829173Y-112892759D01*
X108735763Y-112842831D01*
X108634408Y-112812085D01*
X108529001Y-112801703D01*
X107878999Y-112801703D01*
X107806215Y-112808872D01*
X106842562Y-111845219D01*
X106861048Y-111830048D01*
X106928241Y-111748173D01*
X106978169Y-111654763D01*
X107008915Y-111553408D01*
X107019297Y-111448001D01*
X107019297Y-110547999D01*
X107008915Y-110442592D01*
X106978169Y-110341237D01*
X106928241Y-110247827D01*
X106861048Y-110165952D01*
X106779173Y-110098759D01*
X106685763Y-110048831D01*
X106584408Y-110018085D01*
X106479001Y-110007703D01*
X105828999Y-110007703D01*
X105723592Y-110018085D01*
X105622237Y-110048831D01*
X105528827Y-110098759D01*
X105446952Y-110165952D01*
X105379759Y-110247827D01*
X105356913Y-110290570D01*
X105061046Y-109994704D01*
X105048085Y-109978911D01*
X104985061Y-109927188D01*
X104913157Y-109888755D01*
X104835136Y-109865087D01*
X104774326Y-109859098D01*
X104774315Y-109859098D01*
X104753998Y-109857097D01*
X104733681Y-109859098D01*
X97053319Y-109859098D01*
X97033001Y-109857097D01*
X97012684Y-109859098D01*
X97012674Y-109859098D01*
X96951864Y-109865087D01*
X96873843Y-109888755D01*
X96801939Y-109927188D01*
X96801937Y-109927189D01*
X96801938Y-109927189D01*
X96774337Y-109949841D01*
X96738915Y-109978911D01*
X96725958Y-109994699D01*
X94592859Y-112127799D01*
X94568280Y-112107627D01*
X94518092Y-112080801D01*
X94463634Y-112064281D01*
X94407000Y-112058703D01*
X92857000Y-112058703D01*
X92800366Y-112064281D01*
X92745908Y-112080801D01*
X92695720Y-112107627D01*
X92651729Y-112143729D01*
X92615627Y-112187720D01*
X92588801Y-112237908D01*
X92572281Y-112292366D01*
X92566703Y-112349000D01*
X92566703Y-112949000D01*
X92572281Y-113005634D01*
X92588801Y-113060092D01*
X92615627Y-113110280D01*
X92651729Y-113154271D01*
X92695720Y-113190373D01*
X92745908Y-113217199D01*
X92800366Y-113233719D01*
X92857000Y-113239297D01*
X94407000Y-113239297D01*
X94463634Y-113233719D01*
X94518092Y-113217199D01*
X94568280Y-113190373D01*
X94612271Y-113154271D01*
X94648373Y-113110280D01*
X94673497Y-113063276D01*
X94677317Y-113062900D01*
X94677328Y-113062900D01*
X94738138Y-113056911D01*
X94816159Y-113033243D01*
X94888063Y-112994810D01*
X94951087Y-112943087D01*
X94964049Y-112927293D01*
X96481703Y-111409640D01*
X96481703Y-112885954D01*
X95862558Y-113505100D01*
X94673698Y-113505100D01*
X94648373Y-113457720D01*
X94612271Y-113413729D01*
X94568280Y-113377627D01*
X94518092Y-113350801D01*
X94463634Y-113334281D01*
X94407000Y-113328703D01*
X92857000Y-113328703D01*
X92800366Y-113334281D01*
X92745908Y-113350801D01*
X92695720Y-113377627D01*
X92651729Y-113413729D01*
X92615627Y-113457720D01*
X92588801Y-113507908D01*
X92572281Y-113562366D01*
X92566703Y-113619000D01*
X92566703Y-114219000D01*
X92572281Y-114275634D01*
X92588801Y-114330092D01*
X92615627Y-114380280D01*
X92651729Y-114424271D01*
X92695720Y-114460373D01*
X92745908Y-114487199D01*
X92800366Y-114503719D01*
X92857000Y-114509297D01*
X94407000Y-114509297D01*
X94463634Y-114503719D01*
X94518092Y-114487199D01*
X94568280Y-114460373D01*
X94612271Y-114424271D01*
X94648373Y-114380280D01*
X94673698Y-114332900D01*
X96013683Y-114332900D01*
X96034000Y-114334901D01*
X96054317Y-114332900D01*
X96054328Y-114332900D01*
X96115138Y-114326911D01*
X96193159Y-114303243D01*
X96265063Y-114264810D01*
X96328087Y-114213087D01*
X96341049Y-114197293D01*
X96908100Y-113630242D01*
X96908101Y-116590703D01*
X96772000Y-116590703D01*
X96715366Y-116596281D01*
X96660908Y-116612801D01*
X96610720Y-116639627D01*
X96566729Y-116675729D01*
X96530627Y-116719720D01*
X96503801Y-116769908D01*
X96487281Y-116824366D01*
X96481703Y-116881000D01*
X96481703Y-118692860D01*
X92382049Y-114593207D01*
X92369087Y-114577413D01*
X92306063Y-114525690D01*
X92234159Y-114487257D01*
X92156138Y-114463589D01*
X92095328Y-114457600D01*
X92095317Y-114457600D01*
X92075000Y-114455599D01*
X92054683Y-114457600D01*
X89126375Y-114457600D01*
X89155887Y-114441826D01*
X89196498Y-114408498D01*
X89229826Y-114367887D01*
X89254590Y-114321555D01*
X89269841Y-114271282D01*
X89274990Y-114219000D01*
X89273700Y-114150775D01*
X89207025Y-114084100D01*
X88397100Y-114084100D01*
X88397100Y-114104100D01*
X88066900Y-114104100D01*
X88066900Y-114084100D01*
X87322441Y-114084100D01*
X86857341Y-113619000D01*
X87189010Y-113619000D01*
X87190300Y-113687225D01*
X87256975Y-113753900D01*
X88066900Y-113753900D01*
X88066900Y-113418975D01*
X88397100Y-113418975D01*
X88397100Y-113753900D01*
X89207025Y-113753900D01*
X89273700Y-113687225D01*
X89274990Y-113619000D01*
X89269841Y-113566718D01*
X89254590Y-113516445D01*
X89229826Y-113470113D01*
X89196498Y-113429502D01*
X89155887Y-113396174D01*
X89109555Y-113371410D01*
X89059282Y-113356159D01*
X89007000Y-113351010D01*
X88463775Y-113352300D01*
X88397100Y-113418975D01*
X88066900Y-113418975D01*
X88000225Y-113352300D01*
X87457000Y-113351010D01*
X87404718Y-113356159D01*
X87354445Y-113371410D01*
X87308113Y-113396174D01*
X87267502Y-113429502D01*
X87234174Y-113470113D01*
X87209410Y-113516445D01*
X87194159Y-113566718D01*
X87189010Y-113619000D01*
X86857341Y-113619000D01*
X85763900Y-112525560D01*
X85763900Y-102090297D01*
X86650000Y-102090297D01*
X86706634Y-102084719D01*
X86761092Y-102068199D01*
X86811280Y-102041373D01*
X86855271Y-102005271D01*
X86891373Y-101961280D01*
X86918199Y-101911092D01*
X86934719Y-101856634D01*
X86940297Y-101800000D01*
X86940297Y-98200000D01*
X86934719Y-98143366D01*
X86918199Y-98088908D01*
X86891373Y-98038720D01*
X86855271Y-97994729D01*
X86811280Y-97958627D01*
X86761092Y-97931801D01*
X86706634Y-97915281D01*
X86650000Y-97909703D01*
X84050000Y-97909703D01*
X83993366Y-97915281D01*
X83938908Y-97931801D01*
X83888720Y-97958627D01*
X83844729Y-97994729D01*
X83808627Y-98038720D01*
X83781801Y-98088908D01*
X83765281Y-98143366D01*
X83759703Y-98200000D01*
X83759703Y-101800000D01*
X83765281Y-101856634D01*
X83781801Y-101911092D01*
X83808627Y-101961280D01*
X83844729Y-102005271D01*
X83888720Y-102041373D01*
X83938908Y-102068199D01*
X83993366Y-102084719D01*
X84050000Y-102090297D01*
X84936101Y-102090297D01*
X84936100Y-112645078D01*
X84610664Y-112272586D01*
X83572510Y-110843691D01*
X82666622Y-109327489D01*
X81900291Y-107736187D01*
X81279689Y-106082598D01*
X80809811Y-104380035D01*
X80494442Y-102642207D01*
X80336120Y-100883106D01*
X80336120Y-99116894D01*
X80494442Y-97357793D01*
X80809811Y-95619965D01*
X81279689Y-93917402D01*
X81900291Y-92263813D01*
X82666622Y-90672511D01*
X83572510Y-89156309D01*
X84610664Y-87727414D01*
X85772723Y-86397330D01*
X87049332Y-85176767D01*
X88430211Y-84075552D01*
X88960794Y-83725317D01*
X97211100Y-83725317D01*
X97211100Y-84274683D01*
X97318276Y-84813492D01*
X97528509Y-85321039D01*
X97833720Y-85777820D01*
X98222180Y-86166280D01*
X98678961Y-86471491D01*
X99186508Y-86681724D01*
X99725317Y-86788900D01*
X100274683Y-86788900D01*
X100813492Y-86681724D01*
X101321039Y-86471491D01*
X101777820Y-86166280D01*
X102166280Y-85777820D01*
X102471491Y-85321039D01*
X102681724Y-84813492D01*
X102788900Y-84274683D01*
X102788900Y-83725317D01*
X102681724Y-83186508D01*
X102471491Y-82678961D01*
X102166280Y-82222180D01*
X101777820Y-81833720D01*
X101321039Y-81528509D01*
X100813492Y-81318276D01*
X100274683Y-81211100D01*
X99725317Y-81211100D01*
X99186508Y-81318276D01*
X98678961Y-81528509D01*
X98222180Y-81833720D01*
X97833720Y-82222180D01*
X97528509Y-82678961D01*
X97318276Y-83186508D01*
X97211100Y-83725317D01*
X88960794Y-83725317D01*
X89904244Y-83102551D01*
X91459563Y-82265599D01*
X93083643Y-81571434D01*
X94763411Y-81025644D01*
X96485340Y-80632625D01*
X98235567Y-80395541D01*
X100000000Y-80316300D01*
X101764433Y-80395541D01*
G37*
G04 #@! TD.AperFunction*
M02*
