G04 #@! TF.GenerationSoftware,KiCad,Pcbnew,5.1.9*
G04 #@! TF.CreationDate,2021-04-20T19:19:39+02:00*
G04 #@! TF.ProjectId,nibble++,6e696262-6c65-42b2-9b2e-6b696361645f,rev?*
G04 #@! TF.SameCoordinates,Original*
G04 #@! TF.FileFunction,Copper,L1,Top*
G04 #@! TF.FilePolarity,Positive*
%FSLAX46Y46*%
G04 Gerber Fmt 4.6, Leading zero omitted, Abs format (unit mm)*
G04 Created by KiCad (PCBNEW 5.1.9) date 2021-04-20 19:19:39*
%MOMM*%
%LPD*%
G01*
G04 APERTURE LIST*
G04 #@! TA.AperFunction,ComponentPad*
%ADD10C,5.000000*%
G04 #@! TD*
G04 #@! TA.AperFunction,SMDPad,CuDef*
%ADD11R,0.800000X1.300000*%
G04 #@! TD*
G04 #@! TA.AperFunction,ViaPad*
%ADD12C,0.800000*%
G04 #@! TD*
G04 #@! TA.AperFunction,ViaPad*
%ADD13C,0.604800*%
G04 #@! TD*
G04 #@! TA.AperFunction,Conductor*
%ADD14C,0.152400*%
G04 #@! TD*
G04 #@! TA.AperFunction,Conductor*
%ADD15C,0.304800*%
G04 #@! TD*
G04 #@! TA.AperFunction,Conductor*
%ADD16C,0.250000*%
G04 #@! TD*
G04 #@! TA.AperFunction,Conductor*
%ADD17C,0.177800*%
G04 #@! TD*
G04 #@! TA.AperFunction,Conductor*
%ADD18C,0.100000*%
G04 #@! TD*
G04 APERTURE END LIST*
G04 #@! TA.AperFunction,SMDPad,CuDef*
G36*
G01*
X103600000Y-106237500D02*
X103600000Y-105762500D01*
G75*
G02*
X103837500Y-105525000I237500J0D01*
G01*
X104412500Y-105525000D01*
G75*
G02*
X104650000Y-105762500I0J-237500D01*
G01*
X104650000Y-106237500D01*
G75*
G02*
X104412500Y-106475000I-237500J0D01*
G01*
X103837500Y-106475000D01*
G75*
G02*
X103600000Y-106237500I0J237500D01*
G01*
G37*
G04 #@! TD.AperFunction*
G04 #@! TA.AperFunction,SMDPad,CuDef*
G36*
G01*
X105350000Y-106237500D02*
X105350000Y-105762500D01*
G75*
G02*
X105587500Y-105525000I237500J0D01*
G01*
X106162500Y-105525000D01*
G75*
G02*
X106400000Y-105762500I0J-237500D01*
G01*
X106400000Y-106237500D01*
G75*
G02*
X106162500Y-106475000I-237500J0D01*
G01*
X105587500Y-106475000D01*
G75*
G02*
X105350000Y-106237500I0J237500D01*
G01*
G37*
G04 #@! TD.AperFunction*
G04 #@! TA.AperFunction,SMDPad,CuDef*
G36*
G01*
X103400000Y-103450001D02*
X103400000Y-102549999D01*
G75*
G02*
X103649999Y-102300000I249999J0D01*
G01*
X104300001Y-102300000D01*
G75*
G02*
X104550000Y-102549999I0J-249999D01*
G01*
X104550000Y-103450001D01*
G75*
G02*
X104300001Y-103700000I-249999J0D01*
G01*
X103649999Y-103700000D01*
G75*
G02*
X103400000Y-103450001I0J249999D01*
G01*
G37*
G04 #@! TD.AperFunction*
G04 #@! TA.AperFunction,SMDPad,CuDef*
G36*
G01*
X105450000Y-103450001D02*
X105450000Y-102549999D01*
G75*
G02*
X105699999Y-102300000I249999J0D01*
G01*
X106350001Y-102300000D01*
G75*
G02*
X106600000Y-102549999I0J-249999D01*
G01*
X106600000Y-103450001D01*
G75*
G02*
X106350001Y-103700000I-249999J0D01*
G01*
X105699999Y-103700000D01*
G75*
G02*
X105450000Y-103450001I0J249999D01*
G01*
G37*
G04 #@! TD.AperFunction*
G04 #@! TA.AperFunction,SMDPad,CuDef*
G36*
G01*
X100190000Y-109172500D02*
X100190000Y-108827500D01*
G75*
G02*
X100337500Y-108680000I147500J0D01*
G01*
X100632500Y-108680000D01*
G75*
G02*
X100780000Y-108827500I0J-147500D01*
G01*
X100780000Y-109172500D01*
G75*
G02*
X100632500Y-109320000I-147500J0D01*
G01*
X100337500Y-109320000D01*
G75*
G02*
X100190000Y-109172500I0J147500D01*
G01*
G37*
G04 #@! TD.AperFunction*
G04 #@! TA.AperFunction,SMDPad,CuDef*
G36*
G01*
X99220000Y-109172500D02*
X99220000Y-108827500D01*
G75*
G02*
X99367500Y-108680000I147500J0D01*
G01*
X99662500Y-108680000D01*
G75*
G02*
X99810000Y-108827500I0J-147500D01*
G01*
X99810000Y-109172500D01*
G75*
G02*
X99662500Y-109320000I-147500J0D01*
G01*
X99367500Y-109320000D01*
G75*
G02*
X99220000Y-109172500I0J147500D01*
G01*
G37*
G04 #@! TD.AperFunction*
D10*
X100000000Y-84000000D03*
G04 #@! TA.AperFunction,SMDPad,CuDef*
G36*
G01*
X105190000Y-109172500D02*
X105190000Y-108827500D01*
G75*
G02*
X105337500Y-108680000I147500J0D01*
G01*
X105632500Y-108680000D01*
G75*
G02*
X105780000Y-108827500I0J-147500D01*
G01*
X105780000Y-109172500D01*
G75*
G02*
X105632500Y-109320000I-147500J0D01*
G01*
X105337500Y-109320000D01*
G75*
G02*
X105190000Y-109172500I0J147500D01*
G01*
G37*
G04 #@! TD.AperFunction*
G04 #@! TA.AperFunction,SMDPad,CuDef*
G36*
G01*
X104220000Y-109172500D02*
X104220000Y-108827500D01*
G75*
G02*
X104367500Y-108680000I147500J0D01*
G01*
X104662500Y-108680000D01*
G75*
G02*
X104810000Y-108827500I0J-147500D01*
G01*
X104810000Y-109172500D01*
G75*
G02*
X104662500Y-109320000I-147500J0D01*
G01*
X104367500Y-109320000D01*
G75*
G02*
X104220000Y-109172500I0J147500D01*
G01*
G37*
G04 #@! TD.AperFunction*
G04 #@! TA.AperFunction,SMDPad,CuDef*
G36*
G01*
X98400000Y-103450001D02*
X98400000Y-102549999D01*
G75*
G02*
X98649999Y-102300000I249999J0D01*
G01*
X99300001Y-102300000D01*
G75*
G02*
X99550000Y-102549999I0J-249999D01*
G01*
X99550000Y-103450001D01*
G75*
G02*
X99300001Y-103700000I-249999J0D01*
G01*
X98649999Y-103700000D01*
G75*
G02*
X98400000Y-103450001I0J249999D01*
G01*
G37*
G04 #@! TD.AperFunction*
G04 #@! TA.AperFunction,SMDPad,CuDef*
G36*
G01*
X100450000Y-103450001D02*
X100450000Y-102549999D01*
G75*
G02*
X100699999Y-102300000I249999J0D01*
G01*
X101350001Y-102300000D01*
G75*
G02*
X101600000Y-102549999I0J-249999D01*
G01*
X101600000Y-103450001D01*
G75*
G02*
X101350001Y-103700000I-249999J0D01*
G01*
X100699999Y-103700000D01*
G75*
G02*
X100450000Y-103450001I0J249999D01*
G01*
G37*
G04 #@! TD.AperFunction*
G04 #@! TA.AperFunction,SMDPad,CuDef*
G36*
G01*
X98600000Y-106237500D02*
X98600000Y-105762500D01*
G75*
G02*
X98837500Y-105525000I237500J0D01*
G01*
X99412500Y-105525000D01*
G75*
G02*
X99650000Y-105762500I0J-237500D01*
G01*
X99650000Y-106237500D01*
G75*
G02*
X99412500Y-106475000I-237500J0D01*
G01*
X98837500Y-106475000D01*
G75*
G02*
X98600000Y-106237500I0J237500D01*
G01*
G37*
G04 #@! TD.AperFunction*
G04 #@! TA.AperFunction,SMDPad,CuDef*
G36*
G01*
X100350000Y-106237500D02*
X100350000Y-105762500D01*
G75*
G02*
X100587500Y-105525000I237500J0D01*
G01*
X101162500Y-105525000D01*
G75*
G02*
X101400000Y-105762500I0J-237500D01*
G01*
X101400000Y-106237500D01*
G75*
G02*
X101162500Y-106475000I-237500J0D01*
G01*
X100587500Y-106475000D01*
G75*
G02*
X100350000Y-106237500I0J237500D01*
G01*
G37*
G04 #@! TD.AperFunction*
G04 #@! TA.AperFunction,SMDPad,CuDef*
G36*
G01*
X100064200Y-112088600D02*
X100064200Y-111888600D01*
G75*
G02*
X100164200Y-111788600I100000J0D01*
G01*
X100564200Y-111788600D01*
G75*
G02*
X100664200Y-111888600I0J-100000D01*
G01*
X100664200Y-112088600D01*
G75*
G02*
X100564200Y-112188600I-100000J0D01*
G01*
X100164200Y-112188600D01*
G75*
G02*
X100064200Y-112088600I0J100000D01*
G01*
G37*
G04 #@! TD.AperFunction*
G04 #@! TA.AperFunction,SMDPad,CuDef*
G36*
G01*
X99264200Y-112088600D02*
X99264200Y-111888600D01*
G75*
G02*
X99364200Y-111788600I100000J0D01*
G01*
X99764200Y-111788600D01*
G75*
G02*
X99864200Y-111888600I0J-100000D01*
G01*
X99864200Y-112088600D01*
G75*
G02*
X99764200Y-112188600I-100000J0D01*
G01*
X99364200Y-112188600D01*
G75*
G02*
X99264200Y-112088600I0J100000D01*
G01*
G37*
G04 #@! TD.AperFunction*
G04 #@! TA.AperFunction,SMDPad,CuDef*
G36*
G01*
X99300000Y-115100000D02*
X99300000Y-114900000D01*
G75*
G02*
X99400000Y-114800000I100000J0D01*
G01*
X99800000Y-114800000D01*
G75*
G02*
X99900000Y-114900000I0J-100000D01*
G01*
X99900000Y-115100000D01*
G75*
G02*
X99800000Y-115200000I-100000J0D01*
G01*
X99400000Y-115200000D01*
G75*
G02*
X99300000Y-115100000I0J100000D01*
G01*
G37*
G04 #@! TD.AperFunction*
G04 #@! TA.AperFunction,SMDPad,CuDef*
G36*
G01*
X100100000Y-115100000D02*
X100100000Y-114900000D01*
G75*
G02*
X100200000Y-114800000I100000J0D01*
G01*
X100600000Y-114800000D01*
G75*
G02*
X100700000Y-114900000I0J-100000D01*
G01*
X100700000Y-115100000D01*
G75*
G02*
X100600000Y-115200000I-100000J0D01*
G01*
X100200000Y-115200000D01*
G75*
G02*
X100100000Y-115100000I0J100000D01*
G01*
G37*
G04 #@! TD.AperFunction*
G04 #@! TA.AperFunction,SMDPad,CuDef*
G36*
G01*
X104300000Y-112100000D02*
X104300000Y-111900000D01*
G75*
G02*
X104400000Y-111800000I100000J0D01*
G01*
X104800000Y-111800000D01*
G75*
G02*
X104900000Y-111900000I0J-100000D01*
G01*
X104900000Y-112100000D01*
G75*
G02*
X104800000Y-112200000I-100000J0D01*
G01*
X104400000Y-112200000D01*
G75*
G02*
X104300000Y-112100000I0J100000D01*
G01*
G37*
G04 #@! TD.AperFunction*
G04 #@! TA.AperFunction,SMDPad,CuDef*
G36*
G01*
X105100000Y-112100000D02*
X105100000Y-111900000D01*
G75*
G02*
X105200000Y-111800000I100000J0D01*
G01*
X105600000Y-111800000D01*
G75*
G02*
X105700000Y-111900000I0J-100000D01*
G01*
X105700000Y-112100000D01*
G75*
G02*
X105600000Y-112200000I-100000J0D01*
G01*
X105200000Y-112200000D01*
G75*
G02*
X105100000Y-112100000I0J100000D01*
G01*
G37*
G04 #@! TD.AperFunction*
G04 #@! TA.AperFunction,SMDPad,CuDef*
G36*
G01*
X104300000Y-115073500D02*
X104300000Y-114923500D01*
G75*
G02*
X104375000Y-114848500I75000J0D01*
G01*
X104825000Y-114848500D01*
G75*
G02*
X104900000Y-114923500I0J-75000D01*
G01*
X104900000Y-115073500D01*
G75*
G02*
X104825000Y-115148500I-75000J0D01*
G01*
X104375000Y-115148500D01*
G75*
G02*
X104300000Y-115073500I0J75000D01*
G01*
G37*
G04 #@! TD.AperFunction*
G04 #@! TA.AperFunction,SMDPad,CuDef*
G36*
G01*
X105100000Y-115073500D02*
X105100000Y-114923500D01*
G75*
G02*
X105175000Y-114848500I75000J0D01*
G01*
X105625000Y-114848500D01*
G75*
G02*
X105700000Y-114923500I0J-75000D01*
G01*
X105700000Y-115073500D01*
G75*
G02*
X105625000Y-115148500I-75000J0D01*
G01*
X105175000Y-115148500D01*
G75*
G02*
X105100000Y-115073500I0J75000D01*
G01*
G37*
G04 #@! TD.AperFunction*
D11*
X103754000Y-93066000D03*
X105034000Y-93066000D03*
X106294000Y-93066000D03*
X107564000Y-93066000D03*
X108844000Y-93066000D03*
X110114000Y-93066000D03*
X111374000Y-93066000D03*
X112654000Y-93066000D03*
X112654000Y-86766000D03*
X111374000Y-86766000D03*
X110114000Y-86766000D03*
X108844000Y-86766000D03*
X107564000Y-86766000D03*
X106294000Y-86766000D03*
X105034000Y-86766000D03*
X103754000Y-86766000D03*
D12*
X107856229Y-88267646D03*
X111675547Y-91702253D03*
D13*
X107182213Y-90906908D03*
X111498410Y-87918412D03*
D12*
X103759000Y-88328500D03*
X108861082Y-88676976D03*
X108188506Y-91751400D03*
X110143505Y-88052807D03*
X110430189Y-91684410D03*
X105854500Y-88963500D03*
D14*
X99515000Y-106390000D02*
X99125000Y-106000000D01*
X99680000Y-109165000D02*
X99515000Y-109000000D01*
X107564000Y-86766000D02*
X107564000Y-87975417D01*
X107564000Y-87975417D02*
X107856229Y-88267646D01*
X109537283Y-88606399D02*
X109537283Y-88352399D01*
X116344644Y-104825856D02*
X116344644Y-92087644D01*
X99680000Y-111700000D02*
X99874000Y-111506000D01*
X106807000Y-111506000D02*
X109601000Y-108712000D01*
X109601000Y-108712000D02*
X112458500Y-108712000D01*
X116344644Y-92087644D02*
X113182400Y-88925400D01*
X109052531Y-87867647D02*
X108256228Y-87867647D01*
X109537283Y-88352399D02*
X109052531Y-87867647D01*
X112458500Y-108712000D02*
X116344644Y-104825856D01*
X109856284Y-88925400D02*
X109537283Y-88606399D01*
X113182400Y-88925400D02*
X109856284Y-88925400D01*
X99874000Y-111506000D02*
X106807000Y-111506000D01*
X108256228Y-87867647D02*
X107856229Y-88267646D01*
D15*
X112654000Y-92680706D02*
X112075546Y-92102252D01*
X112075546Y-92102252D02*
X111675547Y-91702253D01*
X112654000Y-93066000D02*
X112654000Y-92680706D01*
D14*
X99826800Y-111506000D02*
X99644200Y-111688600D01*
X99644200Y-111688600D02*
X99644200Y-111988600D01*
X99874000Y-111506000D02*
X99826800Y-111506000D01*
X107856229Y-88833331D02*
X107856229Y-88267646D01*
X108805519Y-89782621D02*
X107856229Y-88833331D01*
X112702293Y-89782621D02*
X108805519Y-89782621D01*
X115487422Y-92567750D02*
X112702293Y-89782621D01*
X100111210Y-108403790D02*
X107191410Y-108403790D01*
X107191410Y-108403790D02*
X109550200Y-106045000D01*
X99515000Y-109000000D02*
X100111210Y-108403790D01*
X115487422Y-102596978D02*
X115487422Y-92567750D01*
X109550200Y-106045000D02*
X112039400Y-106045000D01*
X112039400Y-106045000D02*
X115487422Y-102596978D01*
X107484612Y-90604509D02*
X107182213Y-90906908D01*
X114617500Y-92925900D02*
X112296109Y-90604509D01*
X99876210Y-105248790D02*
X107806410Y-105248790D01*
X109550200Y-103505000D02*
X112268000Y-103505000D01*
X99125000Y-106000000D02*
X99876210Y-105248790D01*
X112296109Y-90604509D02*
X107484612Y-90604509D01*
X107806410Y-105248790D02*
X109550200Y-103505000D01*
X112268000Y-103505000D02*
X114617500Y-101155500D01*
X114617500Y-101155500D02*
X114617500Y-92925900D01*
X113093500Y-111442500D02*
X117205111Y-107330889D01*
X110239080Y-111442500D02*
X113093500Y-111442500D01*
X113689872Y-88220578D02*
X111800576Y-88220578D01*
X117205111Y-107330889D02*
X117205111Y-91735817D01*
X111800576Y-88220578D02*
X111498410Y-87918412D01*
X99680000Y-115000000D02*
X99680000Y-114700000D01*
X117205111Y-91735817D02*
X113689872Y-88220578D01*
X107157790Y-114523790D02*
X110239080Y-111442500D01*
X99680000Y-114700000D02*
X99856210Y-114523790D01*
X99856210Y-114523790D02*
X107157790Y-114523790D01*
X113466000Y-93066000D02*
X112654000Y-93066000D01*
X113728500Y-93328500D02*
X113466000Y-93066000D01*
X108966000Y-100965000D02*
X111760000Y-100965000D01*
X113728500Y-98996500D02*
X113728500Y-93328500D01*
X98975000Y-103000000D02*
X99951210Y-102023790D01*
X99951210Y-102023790D02*
X107907210Y-102023790D01*
X107907210Y-102023790D02*
X108966000Y-100965000D01*
X111760000Y-100965000D02*
X113728500Y-98996500D01*
D16*
X103759000Y-86771000D02*
X103754000Y-86766000D01*
X103759000Y-88328500D02*
X103759000Y-86771000D01*
X101025000Y-103000000D02*
X103975000Y-103000000D01*
X100875000Y-106000000D02*
X104125000Y-106000000D01*
X100485000Y-109000000D02*
X104515000Y-109000000D01*
D15*
X104668600Y-111988600D02*
X104680000Y-112000000D01*
X100284200Y-111988600D02*
X104668600Y-111988600D01*
D16*
X100320000Y-115000000D02*
X104724990Y-115000000D01*
D14*
X113426889Y-92341435D02*
X113225253Y-92139799D01*
X113225253Y-92139799D02*
X113196399Y-92139799D01*
X113196399Y-92139799D02*
X112064800Y-91008200D01*
X106887799Y-92472201D02*
X106294000Y-93066000D01*
X106887799Y-92051329D02*
X106887799Y-92472201D01*
X107930928Y-91008200D02*
X106887799Y-92051329D01*
X112064800Y-91008200D02*
X107930928Y-91008200D01*
X106025000Y-103000000D02*
X106931000Y-103000000D01*
D15*
X114173000Y-93087546D02*
X113426889Y-92341435D01*
X114173000Y-99187000D02*
X114173000Y-93087546D01*
X111950500Y-101409500D02*
X114173000Y-99187000D01*
X109220000Y-101409500D02*
X111950500Y-101409500D01*
X107629500Y-103000000D02*
X109220000Y-101409500D01*
D14*
X106025000Y-103000000D02*
X107108800Y-103000000D01*
D15*
X107108800Y-103000000D02*
X107629500Y-103000000D01*
D16*
X105034000Y-93066000D02*
X105034000Y-92166000D01*
X105034000Y-92166000D02*
X106914577Y-90285423D01*
D14*
X112746884Y-90445684D02*
X112436231Y-90135031D01*
X112746884Y-90449137D02*
X112746884Y-90445684D01*
X107064969Y-90135031D02*
X106914577Y-90285423D01*
X112436231Y-90135031D02*
X107064969Y-90135031D01*
D15*
X114795036Y-92497289D02*
X112746884Y-90449137D01*
X107664800Y-106000000D02*
X109731189Y-103933611D01*
X109731189Y-103933611D02*
X112521736Y-103933611D01*
X112521736Y-103933611D02*
X115058811Y-101396536D01*
X115058811Y-101396536D02*
X115058811Y-92761064D01*
X115058811Y-92761064D02*
X114795036Y-92497289D01*
X107048300Y-106000000D02*
X107664800Y-106000000D01*
D14*
X105875000Y-106000000D02*
X107048300Y-106000000D01*
D15*
X115461599Y-91935780D02*
X115461598Y-91935780D01*
X115461599Y-91935780D02*
X115461597Y-91935780D01*
X115461597Y-91935780D02*
X112933817Y-89408000D01*
D14*
X112823611Y-89430211D02*
X109614317Y-89430211D01*
X109261081Y-89076975D02*
X108861082Y-88676976D01*
X109614317Y-89430211D02*
X109261081Y-89076975D01*
D15*
X115916033Y-92390214D02*
X115461599Y-91935780D01*
X107201346Y-109000000D02*
X109727735Y-106473611D01*
X112293136Y-106473611D02*
X115916033Y-102850714D01*
X109727735Y-106473611D02*
X112293136Y-106473611D01*
X115916033Y-102850714D02*
X115916033Y-92390214D01*
D16*
X107978600Y-91751400D02*
X108188506Y-91751400D01*
X107564000Y-92166000D02*
X107978600Y-91751400D01*
X107564000Y-93066000D02*
X107564000Y-92166000D01*
D14*
X105485000Y-109000000D02*
X106104400Y-109000000D01*
X105485000Y-109000000D02*
X106294900Y-109000000D01*
D15*
X106294900Y-109000000D02*
X107201346Y-109000000D01*
D16*
X111374000Y-93066000D02*
X111374000Y-92449400D01*
D15*
X106919146Y-112000000D02*
X109778535Y-109140611D01*
X109778535Y-109140611D02*
X112636036Y-109140611D01*
X112636036Y-109140611D02*
X116776500Y-105000147D01*
X116776500Y-105000147D02*
X116776500Y-91913353D01*
X116776500Y-91913353D02*
X113512336Y-88649189D01*
D14*
X113512336Y-88649189D02*
X113436136Y-88572989D01*
X110663687Y-88572989D02*
X110543504Y-88452806D01*
X110543504Y-88452806D02*
X110143505Y-88052807D01*
X113436136Y-88572989D02*
X110663687Y-88572989D01*
D16*
X111374000Y-92816000D02*
X110430189Y-91872189D01*
X110430189Y-91872189D02*
X110430189Y-91684410D01*
X111374000Y-93066000D02*
X111374000Y-92816000D01*
D14*
X105400000Y-112000000D02*
X106081800Y-112000000D01*
D15*
X106081800Y-112000000D02*
X106919146Y-112000000D01*
D14*
X105250000Y-115000000D02*
X106100000Y-115000000D01*
D15*
X107377000Y-115000000D02*
X110490000Y-111887000D01*
X110490000Y-111887000D02*
X112712500Y-111887000D01*
X112712500Y-111887000D02*
X112776000Y-111887000D01*
X113255147Y-111887000D02*
X110490000Y-111887000D01*
X117633722Y-107508425D02*
X113255147Y-111887000D01*
X117633722Y-91558281D02*
X117633722Y-107508425D01*
X113182400Y-87791967D02*
X113867408Y-87791967D01*
X113867408Y-87791967D02*
X117633722Y-91558281D01*
D14*
X111374000Y-86766000D02*
X111374000Y-86930799D01*
X113128411Y-87737978D02*
X113182400Y-87791967D01*
X112181179Y-87737978D02*
X113128411Y-87737978D01*
X111374000Y-86930799D02*
X112181179Y-87737978D01*
D15*
X106100000Y-115000000D02*
X107377000Y-115000000D01*
X105854500Y-87205500D02*
X106294000Y-86766000D01*
X105854500Y-88963500D02*
X105854500Y-87205500D01*
D16*
X105034000Y-88126502D02*
X105034000Y-87666000D01*
X105034000Y-87666000D02*
X105034000Y-86766000D01*
X103754000Y-89406502D02*
X105034000Y-88126502D01*
X103754000Y-93066000D02*
X103754000Y-89406502D01*
D17*
X101764433Y-80395541D02*
X103514660Y-80632625D01*
X105236589Y-81025644D01*
X106916357Y-81571434D01*
X108540437Y-82265599D01*
X110095756Y-83102551D01*
X111569789Y-84075552D01*
X112950668Y-85176767D01*
X114227277Y-86397330D01*
X115389336Y-87727414D01*
X116427490Y-89156309D01*
X117275986Y-90576454D01*
X114194790Y-87495258D01*
X114180964Y-87478411D01*
X114113767Y-87423264D01*
X114037103Y-87382286D01*
X113953918Y-87357052D01*
X113889086Y-87350667D01*
X113889084Y-87350667D01*
X113867408Y-87348532D01*
X113845732Y-87350667D01*
X113344297Y-87350667D01*
X113344297Y-86116000D01*
X113338719Y-86059366D01*
X113322199Y-86004908D01*
X113295373Y-85954720D01*
X113259271Y-85910729D01*
X113215280Y-85874627D01*
X113165092Y-85847801D01*
X113110634Y-85831281D01*
X113054000Y-85825703D01*
X112254000Y-85825703D01*
X112197366Y-85831281D01*
X112142908Y-85847801D01*
X112092720Y-85874627D01*
X112048729Y-85910729D01*
X112014000Y-85953047D01*
X111979271Y-85910729D01*
X111935280Y-85874627D01*
X111885092Y-85847801D01*
X111830634Y-85831281D01*
X111774000Y-85825703D01*
X110974000Y-85825703D01*
X110917366Y-85831281D01*
X110862908Y-85847801D01*
X110812720Y-85874627D01*
X110768729Y-85910729D01*
X110744000Y-85940862D01*
X110719271Y-85910729D01*
X110675280Y-85874627D01*
X110625092Y-85847801D01*
X110570634Y-85831281D01*
X110514000Y-85825703D01*
X109714000Y-85825703D01*
X109657366Y-85831281D01*
X109602908Y-85847801D01*
X109552720Y-85874627D01*
X109508729Y-85910729D01*
X109479000Y-85946954D01*
X109449271Y-85910729D01*
X109405280Y-85874627D01*
X109355092Y-85847801D01*
X109300634Y-85831281D01*
X109244000Y-85825703D01*
X108444000Y-85825703D01*
X108387366Y-85831281D01*
X108332908Y-85847801D01*
X108282720Y-85874627D01*
X108238729Y-85910729D01*
X108204000Y-85953047D01*
X108169271Y-85910729D01*
X108125280Y-85874627D01*
X108075092Y-85847801D01*
X108020634Y-85831281D01*
X107964000Y-85825703D01*
X107164000Y-85825703D01*
X107107366Y-85831281D01*
X107052908Y-85847801D01*
X107002720Y-85874627D01*
X106958729Y-85910729D01*
X106929000Y-85946954D01*
X106899271Y-85910729D01*
X106855280Y-85874627D01*
X106805092Y-85847801D01*
X106750634Y-85831281D01*
X106694000Y-85825703D01*
X105894000Y-85825703D01*
X105837366Y-85831281D01*
X105782908Y-85847801D01*
X105732720Y-85874627D01*
X105688729Y-85910729D01*
X105664000Y-85940862D01*
X105639271Y-85910729D01*
X105595280Y-85874627D01*
X105545092Y-85847801D01*
X105490634Y-85831281D01*
X105434000Y-85825703D01*
X104634000Y-85825703D01*
X104577366Y-85831281D01*
X104522908Y-85847801D01*
X104472720Y-85874627D01*
X104428729Y-85910729D01*
X104392627Y-85954720D01*
X104381414Y-85975697D01*
X104376826Y-85967113D01*
X104343498Y-85926502D01*
X104302887Y-85893174D01*
X104256555Y-85868410D01*
X104206282Y-85853159D01*
X104154000Y-85848010D01*
X103985775Y-85849300D01*
X103919100Y-85915975D01*
X103919100Y-86600900D01*
X103939100Y-86600900D01*
X103939100Y-86931100D01*
X103919100Y-86931100D01*
X103919100Y-87616025D01*
X103985775Y-87682700D01*
X104154000Y-87683990D01*
X104206282Y-87678841D01*
X104256555Y-87663590D01*
X104302887Y-87638826D01*
X104343498Y-87605498D01*
X104376826Y-87564887D01*
X104381414Y-87556303D01*
X104392627Y-87577280D01*
X104428729Y-87621271D01*
X104472720Y-87657373D01*
X104522908Y-87684199D01*
X104577366Y-87700719D01*
X104620101Y-87704928D01*
X104620100Y-87955059D01*
X103475702Y-89099458D01*
X103459914Y-89112415D01*
X103446957Y-89128203D01*
X103446955Y-89128205D01*
X103408191Y-89175439D01*
X103369757Y-89247344D01*
X103346090Y-89325364D01*
X103338099Y-89406502D01*
X103340101Y-89426830D01*
X103340100Y-92127072D01*
X103297366Y-92131281D01*
X103242908Y-92147801D01*
X103192720Y-92174627D01*
X103148729Y-92210729D01*
X103112627Y-92254720D01*
X103085801Y-92304908D01*
X103069281Y-92359366D01*
X103063703Y-92416000D01*
X103063703Y-93716000D01*
X103069281Y-93772634D01*
X103085801Y-93827092D01*
X103112627Y-93877280D01*
X103148729Y-93921271D01*
X103192720Y-93957373D01*
X103242908Y-93984199D01*
X103297366Y-94000719D01*
X103354000Y-94006297D01*
X104154000Y-94006297D01*
X104210634Y-94000719D01*
X104265092Y-93984199D01*
X104315280Y-93957373D01*
X104359271Y-93921271D01*
X104394000Y-93878953D01*
X104428729Y-93921271D01*
X104472720Y-93957373D01*
X104522908Y-93984199D01*
X104577366Y-94000719D01*
X104634000Y-94006297D01*
X105434000Y-94006297D01*
X105490634Y-94000719D01*
X105545092Y-93984199D01*
X105595280Y-93957373D01*
X105639271Y-93921271D01*
X105664000Y-93891138D01*
X105688729Y-93921271D01*
X105732720Y-93957373D01*
X105782908Y-93984199D01*
X105837366Y-94000719D01*
X105894000Y-94006297D01*
X106694000Y-94006297D01*
X106750634Y-94000719D01*
X106805092Y-93984199D01*
X106855280Y-93957373D01*
X106899271Y-93921271D01*
X106929000Y-93885046D01*
X106958729Y-93921271D01*
X107002720Y-93957373D01*
X107052908Y-93984199D01*
X107107366Y-94000719D01*
X107164000Y-94006297D01*
X107964000Y-94006297D01*
X108020634Y-94000719D01*
X108075092Y-93984199D01*
X108125280Y-93957373D01*
X108169271Y-93921271D01*
X108204000Y-93878953D01*
X108238729Y-93921271D01*
X108282720Y-93957373D01*
X108332908Y-93984199D01*
X108387366Y-94000719D01*
X108444000Y-94006297D01*
X109244000Y-94006297D01*
X109300634Y-94000719D01*
X109355092Y-93984199D01*
X109405280Y-93957373D01*
X109449271Y-93921271D01*
X109479000Y-93885046D01*
X109508729Y-93921271D01*
X109552720Y-93957373D01*
X109602908Y-93984199D01*
X109657366Y-94000719D01*
X109714000Y-94006297D01*
X110514000Y-94006297D01*
X110570634Y-94000719D01*
X110625092Y-93984199D01*
X110675280Y-93957373D01*
X110719271Y-93921271D01*
X110744000Y-93891138D01*
X110768729Y-93921271D01*
X110812720Y-93957373D01*
X110862908Y-93984199D01*
X110917366Y-94000719D01*
X110974000Y-94006297D01*
X111774000Y-94006297D01*
X111830634Y-94000719D01*
X111885092Y-93984199D01*
X111935280Y-93957373D01*
X111979271Y-93921271D01*
X112014000Y-93878953D01*
X112048729Y-93921271D01*
X112092720Y-93957373D01*
X112142908Y-93984199D01*
X112197366Y-94000719D01*
X112254000Y-94006297D01*
X113054000Y-94006297D01*
X113110634Y-94000719D01*
X113165092Y-93984199D01*
X113215280Y-93957373D01*
X113259271Y-93921271D01*
X113295373Y-93877280D01*
X113322199Y-93827092D01*
X113338719Y-93772634D01*
X113344297Y-93716000D01*
X113344297Y-93460626D01*
X113363401Y-93479730D01*
X113363400Y-98845271D01*
X111608772Y-100599900D01*
X108983920Y-100599900D01*
X108965999Y-100598135D01*
X108948078Y-100599900D01*
X108948069Y-100599900D01*
X108894428Y-100605183D01*
X108825606Y-100626060D01*
X108762180Y-100659962D01*
X108706587Y-100705587D01*
X108695158Y-100719513D01*
X107755982Y-101658690D01*
X99969130Y-101658690D01*
X99951209Y-101656925D01*
X99933288Y-101658690D01*
X99933279Y-101658690D01*
X99879638Y-101663973D01*
X99810816Y-101684850D01*
X99747390Y-101718752D01*
X99691797Y-101764377D01*
X99680368Y-101778303D01*
X99430864Y-102027807D01*
X99405408Y-102020085D01*
X99300001Y-102009703D01*
X98649999Y-102009703D01*
X98544592Y-102020085D01*
X98443237Y-102050831D01*
X98349827Y-102100759D01*
X98267952Y-102167952D01*
X98200759Y-102249827D01*
X98150831Y-102343237D01*
X98120085Y-102444592D01*
X98109703Y-102549999D01*
X98109703Y-103450001D01*
X98120085Y-103555408D01*
X98150831Y-103656763D01*
X98200759Y-103750173D01*
X98267952Y-103832048D01*
X98349827Y-103899241D01*
X98443237Y-103949169D01*
X98544592Y-103979915D01*
X98649999Y-103990297D01*
X99300001Y-103990297D01*
X99405408Y-103979915D01*
X99506763Y-103949169D01*
X99600173Y-103899241D01*
X99682048Y-103832048D01*
X99749241Y-103750173D01*
X99799169Y-103656763D01*
X99829915Y-103555408D01*
X99840297Y-103450001D01*
X99840297Y-102651032D01*
X100102439Y-102388890D01*
X100186982Y-102388890D01*
X100170085Y-102444592D01*
X100159703Y-102549999D01*
X100159703Y-103450001D01*
X100170085Y-103555408D01*
X100200831Y-103656763D01*
X100250759Y-103750173D01*
X100317952Y-103832048D01*
X100399827Y-103899241D01*
X100493237Y-103949169D01*
X100594592Y-103979915D01*
X100699999Y-103990297D01*
X101350001Y-103990297D01*
X101455408Y-103979915D01*
X101556763Y-103949169D01*
X101650173Y-103899241D01*
X101732048Y-103832048D01*
X101799241Y-103750173D01*
X101849169Y-103656763D01*
X101879915Y-103555408D01*
X101890297Y-103450001D01*
X101890297Y-103413900D01*
X103109703Y-103413900D01*
X103109703Y-103450001D01*
X103120085Y-103555408D01*
X103150831Y-103656763D01*
X103200759Y-103750173D01*
X103267952Y-103832048D01*
X103349827Y-103899241D01*
X103443237Y-103949169D01*
X103544592Y-103979915D01*
X103649999Y-103990297D01*
X104300001Y-103990297D01*
X104405408Y-103979915D01*
X104506763Y-103949169D01*
X104600173Y-103899241D01*
X104682048Y-103832048D01*
X104749241Y-103750173D01*
X104799169Y-103656763D01*
X104829915Y-103555408D01*
X104840297Y-103450001D01*
X104840297Y-102549999D01*
X104829915Y-102444592D01*
X104813018Y-102388890D01*
X105186982Y-102388890D01*
X105170085Y-102444592D01*
X105159703Y-102549999D01*
X105159703Y-103450001D01*
X105170085Y-103555408D01*
X105200831Y-103656763D01*
X105250759Y-103750173D01*
X105317952Y-103832048D01*
X105399827Y-103899241D01*
X105493237Y-103949169D01*
X105594592Y-103979915D01*
X105699999Y-103990297D01*
X106350001Y-103990297D01*
X106455408Y-103979915D01*
X106556763Y-103949169D01*
X106650173Y-103899241D01*
X106732048Y-103832048D01*
X106799241Y-103750173D01*
X106849169Y-103656763D01*
X106879915Y-103555408D01*
X106890297Y-103450001D01*
X106890297Y-103383592D01*
X106939105Y-103409681D01*
X107022290Y-103434915D01*
X107087122Y-103441300D01*
X107607824Y-103441300D01*
X107629500Y-103443435D01*
X107651176Y-103441300D01*
X107651178Y-103441300D01*
X107716010Y-103434915D01*
X107799195Y-103409681D01*
X107875859Y-103368703D01*
X107943056Y-103313556D01*
X107956881Y-103296710D01*
X109402793Y-101850800D01*
X111928824Y-101850800D01*
X111950500Y-101852935D01*
X111972176Y-101850800D01*
X111972178Y-101850800D01*
X112037010Y-101844415D01*
X112120195Y-101819181D01*
X112196859Y-101778203D01*
X112264056Y-101723056D01*
X112277882Y-101706210D01*
X114252400Y-99731693D01*
X114252400Y-101004271D01*
X112116772Y-103139900D01*
X109568120Y-103139900D01*
X109550199Y-103138135D01*
X109532278Y-103139900D01*
X109532269Y-103139900D01*
X109478628Y-103145183D01*
X109409806Y-103166060D01*
X109346380Y-103199962D01*
X109290787Y-103245587D01*
X109279358Y-103259513D01*
X107655182Y-104883690D01*
X99894130Y-104883690D01*
X99876209Y-104881925D01*
X99858288Y-104883690D01*
X99858279Y-104883690D01*
X99804638Y-104888973D01*
X99735816Y-104909850D01*
X99672390Y-104943752D01*
X99616797Y-104989377D01*
X99605368Y-105003303D01*
X99373968Y-105234703D01*
X98837500Y-105234703D01*
X98734532Y-105244844D01*
X98635521Y-105274879D01*
X98544272Y-105323653D01*
X98464291Y-105389291D01*
X98398653Y-105469272D01*
X98349879Y-105560521D01*
X98319844Y-105659532D01*
X98309703Y-105762500D01*
X98309703Y-106237500D01*
X98319844Y-106340468D01*
X98349879Y-106439479D01*
X98398653Y-106530728D01*
X98464291Y-106610709D01*
X98544272Y-106676347D01*
X98635521Y-106725121D01*
X98734532Y-106755156D01*
X98837500Y-106765297D01*
X99412500Y-106765297D01*
X99506557Y-106756034D01*
X99514999Y-106756865D01*
X99586571Y-106749816D01*
X99655393Y-106728940D01*
X99718819Y-106695037D01*
X99774413Y-106649413D01*
X99820037Y-106593819D01*
X99853940Y-106530393D01*
X99857107Y-106519951D01*
X99900121Y-106439479D01*
X99930156Y-106340468D01*
X99940297Y-106237500D01*
X99940297Y-105762500D01*
X99934786Y-105706543D01*
X100027439Y-105613890D01*
X100083690Y-105613890D01*
X100069844Y-105659532D01*
X100059703Y-105762500D01*
X100059703Y-106237500D01*
X100069844Y-106340468D01*
X100099879Y-106439479D01*
X100148653Y-106530728D01*
X100214291Y-106610709D01*
X100294272Y-106676347D01*
X100385521Y-106725121D01*
X100484532Y-106755156D01*
X100587500Y-106765297D01*
X101162500Y-106765297D01*
X101265468Y-106755156D01*
X101364479Y-106725121D01*
X101455728Y-106676347D01*
X101535709Y-106610709D01*
X101601347Y-106530728D01*
X101650121Y-106439479D01*
X101657880Y-106413900D01*
X103342120Y-106413900D01*
X103349879Y-106439479D01*
X103398653Y-106530728D01*
X103464291Y-106610709D01*
X103544272Y-106676347D01*
X103635521Y-106725121D01*
X103734532Y-106755156D01*
X103837500Y-106765297D01*
X104412500Y-106765297D01*
X104515468Y-106755156D01*
X104614479Y-106725121D01*
X104705728Y-106676347D01*
X104785709Y-106610709D01*
X104851347Y-106530728D01*
X104900121Y-106439479D01*
X104930156Y-106340468D01*
X104940297Y-106237500D01*
X104940297Y-105762500D01*
X104930156Y-105659532D01*
X104916310Y-105613890D01*
X105083690Y-105613890D01*
X105069844Y-105659532D01*
X105059703Y-105762500D01*
X105059703Y-106237500D01*
X105069844Y-106340468D01*
X105099879Y-106439479D01*
X105148653Y-106530728D01*
X105214291Y-106610709D01*
X105294272Y-106676347D01*
X105385521Y-106725121D01*
X105484532Y-106755156D01*
X105587500Y-106765297D01*
X106162500Y-106765297D01*
X106265468Y-106755156D01*
X106364479Y-106725121D01*
X106455728Y-106676347D01*
X106535709Y-106610709D01*
X106601347Y-106530728D01*
X106650121Y-106439479D01*
X106672684Y-106365100D01*
X106797551Y-106365100D01*
X106801941Y-106368703D01*
X106878605Y-106409681D01*
X106961790Y-106434915D01*
X107026622Y-106441300D01*
X107643124Y-106441300D01*
X107664800Y-106443435D01*
X107686476Y-106441300D01*
X107686478Y-106441300D01*
X107751310Y-106434915D01*
X107834495Y-106409681D01*
X107911159Y-106368703D01*
X107978356Y-106313556D01*
X107992182Y-106296709D01*
X109913981Y-104374911D01*
X112500060Y-104374911D01*
X112521736Y-104377046D01*
X112543412Y-104374911D01*
X112543414Y-104374911D01*
X112608246Y-104368526D01*
X112691431Y-104343292D01*
X112768095Y-104302314D01*
X112835292Y-104247167D01*
X112849118Y-104230320D01*
X115122322Y-101957117D01*
X115122322Y-102445749D01*
X111888172Y-105679900D01*
X109568123Y-105679900D01*
X109550200Y-105678135D01*
X109532277Y-105679900D01*
X109532269Y-105679900D01*
X109478628Y-105685183D01*
X109409806Y-105706060D01*
X109346380Y-105739962D01*
X109311075Y-105768937D01*
X109290787Y-105785587D01*
X109279358Y-105799513D01*
X107040182Y-108038690D01*
X100129130Y-108038690D01*
X100111209Y-108036925D01*
X100093288Y-108038690D01*
X100093279Y-108038690D01*
X100039638Y-108043973D01*
X99970816Y-108064850D01*
X99907390Y-108098752D01*
X99851797Y-108144377D01*
X99840368Y-108158303D01*
X99608968Y-108389703D01*
X99367500Y-108389703D01*
X99282090Y-108398115D01*
X99199962Y-108423028D01*
X99124273Y-108463485D01*
X99057931Y-108517931D01*
X99003485Y-108584273D01*
X98963028Y-108659962D01*
X98938115Y-108742090D01*
X98929703Y-108827500D01*
X98929703Y-109172500D01*
X98938115Y-109257910D01*
X98963028Y-109340038D01*
X99003485Y-109415727D01*
X99057931Y-109482069D01*
X99124273Y-109536515D01*
X99199962Y-109576972D01*
X99282090Y-109601885D01*
X99367500Y-109610297D01*
X99662500Y-109610297D01*
X99747910Y-109601885D01*
X99830038Y-109576972D01*
X99905727Y-109536515D01*
X99972069Y-109482069D01*
X100000000Y-109448035D01*
X100027931Y-109482069D01*
X100094273Y-109536515D01*
X100169962Y-109576972D01*
X100252090Y-109601885D01*
X100337500Y-109610297D01*
X100632500Y-109610297D01*
X100717910Y-109601885D01*
X100800038Y-109576972D01*
X100875727Y-109536515D01*
X100942069Y-109482069D01*
X100996515Y-109415727D01*
X100997492Y-109413900D01*
X104002508Y-109413900D01*
X104003485Y-109415727D01*
X104057931Y-109482069D01*
X104124273Y-109536515D01*
X104199962Y-109576972D01*
X104282090Y-109601885D01*
X104367500Y-109610297D01*
X104662500Y-109610297D01*
X104747910Y-109601885D01*
X104830038Y-109576972D01*
X104905727Y-109536515D01*
X104972069Y-109482069D01*
X105000000Y-109448035D01*
X105027931Y-109482069D01*
X105094273Y-109536515D01*
X105169962Y-109576972D01*
X105252090Y-109601885D01*
X105337500Y-109610297D01*
X105632500Y-109610297D01*
X105717910Y-109601885D01*
X105800038Y-109576972D01*
X105875727Y-109536515D01*
X105942069Y-109482069D01*
X105996515Y-109415727D01*
X106023576Y-109365100D01*
X106044151Y-109365100D01*
X106048541Y-109368703D01*
X106125205Y-109409681D01*
X106208390Y-109434915D01*
X106273222Y-109441300D01*
X107179670Y-109441300D01*
X107201346Y-109443435D01*
X107223022Y-109441300D01*
X107223024Y-109441300D01*
X107287856Y-109434915D01*
X107371041Y-109409681D01*
X107447705Y-109368703D01*
X107514902Y-109313556D01*
X107528728Y-109296709D01*
X109910528Y-106914911D01*
X112271460Y-106914911D01*
X112293136Y-106917046D01*
X112314812Y-106914911D01*
X112314814Y-106914911D01*
X112379646Y-106908526D01*
X112462831Y-106883292D01*
X112539495Y-106842314D01*
X112606692Y-106787167D01*
X112620518Y-106770320D01*
X115979544Y-103411295D01*
X115979544Y-104674626D01*
X112307272Y-108346900D01*
X109618923Y-108346900D01*
X109601000Y-108345135D01*
X109583077Y-108346900D01*
X109583069Y-108346900D01*
X109529428Y-108352183D01*
X109460606Y-108373060D01*
X109397180Y-108406962D01*
X109355514Y-108441156D01*
X109355508Y-108441162D01*
X109341587Y-108452587D01*
X109330162Y-108466508D01*
X106655772Y-111140900D01*
X99891920Y-111140900D01*
X99873999Y-111139135D01*
X99856078Y-111140900D01*
X99844720Y-111140900D01*
X99826799Y-111139135D01*
X99808878Y-111140900D01*
X99808869Y-111140900D01*
X99755228Y-111146183D01*
X99686406Y-111167060D01*
X99622980Y-111200962D01*
X99567387Y-111246587D01*
X99555953Y-111260519D01*
X99398715Y-111417757D01*
X99384787Y-111429188D01*
X99373358Y-111443114D01*
X99373357Y-111443115D01*
X99365995Y-111452086D01*
X99339162Y-111484781D01*
X99330141Y-111501657D01*
X99288057Y-111505802D01*
X99214840Y-111528013D01*
X99147363Y-111564080D01*
X99088218Y-111612618D01*
X99039680Y-111671763D01*
X99003613Y-111739240D01*
X98981402Y-111812457D01*
X98973903Y-111888600D01*
X98973903Y-112088600D01*
X98981402Y-112164743D01*
X99003613Y-112237960D01*
X99039680Y-112305437D01*
X99088218Y-112364582D01*
X99147363Y-112413120D01*
X99214840Y-112449187D01*
X99288057Y-112471398D01*
X99364200Y-112478897D01*
X99764200Y-112478897D01*
X99840343Y-112471398D01*
X99913560Y-112449187D01*
X99964200Y-112422120D01*
X100014840Y-112449187D01*
X100088057Y-112471398D01*
X100164200Y-112478897D01*
X100564200Y-112478897D01*
X100640343Y-112471398D01*
X100713560Y-112449187D01*
X100749644Y-112429900D01*
X104193228Y-112429900D01*
X104250640Y-112460587D01*
X104323857Y-112482798D01*
X104400000Y-112490297D01*
X104800000Y-112490297D01*
X104876143Y-112482798D01*
X104949360Y-112460587D01*
X105000000Y-112433520D01*
X105050640Y-112460587D01*
X105123857Y-112482798D01*
X105200000Y-112490297D01*
X105600000Y-112490297D01*
X105676143Y-112482798D01*
X105749360Y-112460587D01*
X105816837Y-112424520D01*
X105865363Y-112384697D01*
X105912105Y-112409681D01*
X105995290Y-112434915D01*
X106060122Y-112441300D01*
X106897470Y-112441300D01*
X106919146Y-112443435D01*
X106940822Y-112441300D01*
X106940824Y-112441300D01*
X107005656Y-112434915D01*
X107088841Y-112409681D01*
X107165505Y-112368703D01*
X107232702Y-112313556D01*
X107246528Y-112296709D01*
X109961328Y-109581911D01*
X112614360Y-109581911D01*
X112636036Y-109584046D01*
X112657712Y-109581911D01*
X112657714Y-109581911D01*
X112722546Y-109575526D01*
X112805731Y-109550292D01*
X112882395Y-109509314D01*
X112949592Y-109454167D01*
X112963418Y-109437320D01*
X116840011Y-105560728D01*
X116840011Y-107179660D01*
X112942272Y-111077400D01*
X110257000Y-111077400D01*
X110239079Y-111075635D01*
X110221158Y-111077400D01*
X110221149Y-111077400D01*
X110167508Y-111082683D01*
X110098686Y-111103560D01*
X110035259Y-111137462D01*
X109993594Y-111171657D01*
X109979667Y-111183087D01*
X109968238Y-111197013D01*
X107006562Y-114158690D01*
X99874133Y-114158690D01*
X99856210Y-114156925D01*
X99838287Y-114158690D01*
X99838279Y-114158690D01*
X99784638Y-114163973D01*
X99715816Y-114184850D01*
X99652390Y-114218752D01*
X99596797Y-114264377D01*
X99585367Y-114278304D01*
X99434513Y-114429158D01*
X99420588Y-114440587D01*
X99409159Y-114454513D01*
X99409157Y-114454515D01*
X99374962Y-114496181D01*
X99365941Y-114513057D01*
X99323857Y-114517202D01*
X99250640Y-114539413D01*
X99183163Y-114575480D01*
X99124018Y-114624018D01*
X99075480Y-114683163D01*
X99039413Y-114750640D01*
X99017202Y-114823857D01*
X99009703Y-114900000D01*
X99009703Y-115100000D01*
X99017202Y-115176143D01*
X99039413Y-115249360D01*
X99075480Y-115316837D01*
X99124018Y-115375982D01*
X99183163Y-115424520D01*
X99250640Y-115460587D01*
X99323857Y-115482798D01*
X99400000Y-115490297D01*
X99800000Y-115490297D01*
X99876143Y-115482798D01*
X99949360Y-115460587D01*
X100000000Y-115433520D01*
X100050640Y-115460587D01*
X100123857Y-115482798D01*
X100200000Y-115490297D01*
X100600000Y-115490297D01*
X100676143Y-115482798D01*
X100749360Y-115460587D01*
X100816837Y-115424520D01*
X100829778Y-115413900D01*
X104244800Y-115413900D01*
X104303734Y-115431778D01*
X104375000Y-115438797D01*
X104825000Y-115438797D01*
X104896266Y-115431778D01*
X104964793Y-115410990D01*
X105000000Y-115392171D01*
X105035207Y-115410990D01*
X105103734Y-115431778D01*
X105175000Y-115438797D01*
X105625000Y-115438797D01*
X105696266Y-115431778D01*
X105764793Y-115410990D01*
X105827948Y-115377233D01*
X105842732Y-115365100D01*
X105849251Y-115365100D01*
X105853641Y-115368703D01*
X105930305Y-115409681D01*
X106013490Y-115434915D01*
X106078322Y-115441300D01*
X107355324Y-115441300D01*
X107377000Y-115443435D01*
X107398676Y-115441300D01*
X107398678Y-115441300D01*
X107463510Y-115434915D01*
X107546695Y-115409681D01*
X107623359Y-115368703D01*
X107690556Y-115313556D01*
X107704382Y-115296709D01*
X110672793Y-112328300D01*
X113233471Y-112328300D01*
X113255147Y-112330435D01*
X113276823Y-112328300D01*
X113276825Y-112328300D01*
X113341657Y-112321915D01*
X113424842Y-112296681D01*
X113501506Y-112255703D01*
X113568703Y-112200556D01*
X113582529Y-112183709D01*
X117930437Y-107835802D01*
X117947278Y-107821981D01*
X117977702Y-107784910D01*
X118002425Y-107754785D01*
X118032908Y-107697755D01*
X118043403Y-107678120D01*
X118068637Y-107594935D01*
X118075022Y-107530103D01*
X118075022Y-107530102D01*
X118077157Y-107508426D01*
X118075022Y-107486750D01*
X118075022Y-92212550D01*
X118099709Y-92263813D01*
X118720311Y-93917402D01*
X119190189Y-95619965D01*
X119505558Y-97357793D01*
X119663880Y-99116894D01*
X119663880Y-100883106D01*
X119505558Y-102642207D01*
X119190189Y-104380035D01*
X118720311Y-106082598D01*
X118099709Y-107736187D01*
X117333378Y-109327489D01*
X116427490Y-110843691D01*
X115389336Y-112272586D01*
X114227277Y-113602670D01*
X112950668Y-114823233D01*
X111569789Y-115924448D01*
X110095756Y-116897449D01*
X108540437Y-117734401D01*
X106916357Y-118428566D01*
X105236589Y-118974356D01*
X103514660Y-119367375D01*
X101764433Y-119604459D01*
X100000000Y-119683700D01*
X98235567Y-119604459D01*
X96485340Y-119367375D01*
X94763411Y-118974356D01*
X93083643Y-118428566D01*
X91459563Y-117734401D01*
X89904244Y-116897449D01*
X88430211Y-115924448D01*
X87049332Y-114823233D01*
X85772723Y-113602670D01*
X84610664Y-112272586D01*
X83572510Y-110843691D01*
X82666622Y-109327489D01*
X81900291Y-107736187D01*
X81279689Y-106082598D01*
X80809811Y-104380035D01*
X80494442Y-102642207D01*
X80336120Y-100883106D01*
X80336120Y-99116894D01*
X80494442Y-97357793D01*
X80809811Y-95619965D01*
X81279689Y-93917402D01*
X81900291Y-92263813D01*
X82666622Y-90672511D01*
X83572510Y-89156309D01*
X84610664Y-87727414D01*
X84882738Y-87416000D01*
X103086010Y-87416000D01*
X103091159Y-87468282D01*
X103106410Y-87518555D01*
X103131174Y-87564887D01*
X103164502Y-87605498D01*
X103205113Y-87638826D01*
X103251445Y-87663590D01*
X103301718Y-87678841D01*
X103354000Y-87683990D01*
X103522225Y-87682700D01*
X103588900Y-87616025D01*
X103588900Y-86931100D01*
X103153975Y-86931100D01*
X103087300Y-86997775D01*
X103086010Y-87416000D01*
X84882738Y-87416000D01*
X85772723Y-86397330D01*
X87049332Y-85176767D01*
X88430211Y-84075552D01*
X88960794Y-83725317D01*
X97211100Y-83725317D01*
X97211100Y-84274683D01*
X97318276Y-84813492D01*
X97528509Y-85321039D01*
X97833720Y-85777820D01*
X98222180Y-86166280D01*
X98678961Y-86471491D01*
X99186508Y-86681724D01*
X99725317Y-86788900D01*
X100274683Y-86788900D01*
X100813492Y-86681724D01*
X101321039Y-86471491D01*
X101777820Y-86166280D01*
X101828100Y-86116000D01*
X103086010Y-86116000D01*
X103087300Y-86534225D01*
X103153975Y-86600900D01*
X103588900Y-86600900D01*
X103588900Y-85915975D01*
X103522225Y-85849300D01*
X103354000Y-85848010D01*
X103301718Y-85853159D01*
X103251445Y-85868410D01*
X103205113Y-85893174D01*
X103164502Y-85926502D01*
X103131174Y-85967113D01*
X103106410Y-86013445D01*
X103091159Y-86063718D01*
X103086010Y-86116000D01*
X101828100Y-86116000D01*
X102166280Y-85777820D01*
X102471491Y-85321039D01*
X102681724Y-84813492D01*
X102788900Y-84274683D01*
X102788900Y-83725317D01*
X102681724Y-83186508D01*
X102471491Y-82678961D01*
X102166280Y-82222180D01*
X101777820Y-81833720D01*
X101321039Y-81528509D01*
X100813492Y-81318276D01*
X100274683Y-81211100D01*
X99725317Y-81211100D01*
X99186508Y-81318276D01*
X98678961Y-81528509D01*
X98222180Y-81833720D01*
X97833720Y-82222180D01*
X97528509Y-82678961D01*
X97318276Y-83186508D01*
X97211100Y-83725317D01*
X88960794Y-83725317D01*
X89904244Y-83102551D01*
X91459563Y-82265599D01*
X93083643Y-81571434D01*
X94763411Y-81025644D01*
X96485340Y-80632625D01*
X98235567Y-80395541D01*
X100000000Y-80316300D01*
X101764433Y-80395541D01*
G04 #@! TA.AperFunction,Conductor*
D18*
G36*
X101764433Y-80395541D02*
G01*
X103514660Y-80632625D01*
X105236589Y-81025644D01*
X106916357Y-81571434D01*
X108540437Y-82265599D01*
X110095756Y-83102551D01*
X111569789Y-84075552D01*
X112950668Y-85176767D01*
X114227277Y-86397330D01*
X115389336Y-87727414D01*
X116427490Y-89156309D01*
X117275986Y-90576454D01*
X114194790Y-87495258D01*
X114180964Y-87478411D01*
X114113767Y-87423264D01*
X114037103Y-87382286D01*
X113953918Y-87357052D01*
X113889086Y-87350667D01*
X113889084Y-87350667D01*
X113867408Y-87348532D01*
X113845732Y-87350667D01*
X113344297Y-87350667D01*
X113344297Y-86116000D01*
X113338719Y-86059366D01*
X113322199Y-86004908D01*
X113295373Y-85954720D01*
X113259271Y-85910729D01*
X113215280Y-85874627D01*
X113165092Y-85847801D01*
X113110634Y-85831281D01*
X113054000Y-85825703D01*
X112254000Y-85825703D01*
X112197366Y-85831281D01*
X112142908Y-85847801D01*
X112092720Y-85874627D01*
X112048729Y-85910729D01*
X112014000Y-85953047D01*
X111979271Y-85910729D01*
X111935280Y-85874627D01*
X111885092Y-85847801D01*
X111830634Y-85831281D01*
X111774000Y-85825703D01*
X110974000Y-85825703D01*
X110917366Y-85831281D01*
X110862908Y-85847801D01*
X110812720Y-85874627D01*
X110768729Y-85910729D01*
X110744000Y-85940862D01*
X110719271Y-85910729D01*
X110675280Y-85874627D01*
X110625092Y-85847801D01*
X110570634Y-85831281D01*
X110514000Y-85825703D01*
X109714000Y-85825703D01*
X109657366Y-85831281D01*
X109602908Y-85847801D01*
X109552720Y-85874627D01*
X109508729Y-85910729D01*
X109479000Y-85946954D01*
X109449271Y-85910729D01*
X109405280Y-85874627D01*
X109355092Y-85847801D01*
X109300634Y-85831281D01*
X109244000Y-85825703D01*
X108444000Y-85825703D01*
X108387366Y-85831281D01*
X108332908Y-85847801D01*
X108282720Y-85874627D01*
X108238729Y-85910729D01*
X108204000Y-85953047D01*
X108169271Y-85910729D01*
X108125280Y-85874627D01*
X108075092Y-85847801D01*
X108020634Y-85831281D01*
X107964000Y-85825703D01*
X107164000Y-85825703D01*
X107107366Y-85831281D01*
X107052908Y-85847801D01*
X107002720Y-85874627D01*
X106958729Y-85910729D01*
X106929000Y-85946954D01*
X106899271Y-85910729D01*
X106855280Y-85874627D01*
X106805092Y-85847801D01*
X106750634Y-85831281D01*
X106694000Y-85825703D01*
X105894000Y-85825703D01*
X105837366Y-85831281D01*
X105782908Y-85847801D01*
X105732720Y-85874627D01*
X105688729Y-85910729D01*
X105664000Y-85940862D01*
X105639271Y-85910729D01*
X105595280Y-85874627D01*
X105545092Y-85847801D01*
X105490634Y-85831281D01*
X105434000Y-85825703D01*
X104634000Y-85825703D01*
X104577366Y-85831281D01*
X104522908Y-85847801D01*
X104472720Y-85874627D01*
X104428729Y-85910729D01*
X104392627Y-85954720D01*
X104381414Y-85975697D01*
X104376826Y-85967113D01*
X104343498Y-85926502D01*
X104302887Y-85893174D01*
X104256555Y-85868410D01*
X104206282Y-85853159D01*
X104154000Y-85848010D01*
X103985775Y-85849300D01*
X103919100Y-85915975D01*
X103919100Y-86600900D01*
X103939100Y-86600900D01*
X103939100Y-86931100D01*
X103919100Y-86931100D01*
X103919100Y-87616025D01*
X103985775Y-87682700D01*
X104154000Y-87683990D01*
X104206282Y-87678841D01*
X104256555Y-87663590D01*
X104302887Y-87638826D01*
X104343498Y-87605498D01*
X104376826Y-87564887D01*
X104381414Y-87556303D01*
X104392627Y-87577280D01*
X104428729Y-87621271D01*
X104472720Y-87657373D01*
X104522908Y-87684199D01*
X104577366Y-87700719D01*
X104620101Y-87704928D01*
X104620100Y-87955059D01*
X103475702Y-89099458D01*
X103459914Y-89112415D01*
X103446957Y-89128203D01*
X103446955Y-89128205D01*
X103408191Y-89175439D01*
X103369757Y-89247344D01*
X103346090Y-89325364D01*
X103338099Y-89406502D01*
X103340101Y-89426830D01*
X103340100Y-92127072D01*
X103297366Y-92131281D01*
X103242908Y-92147801D01*
X103192720Y-92174627D01*
X103148729Y-92210729D01*
X103112627Y-92254720D01*
X103085801Y-92304908D01*
X103069281Y-92359366D01*
X103063703Y-92416000D01*
X103063703Y-93716000D01*
X103069281Y-93772634D01*
X103085801Y-93827092D01*
X103112627Y-93877280D01*
X103148729Y-93921271D01*
X103192720Y-93957373D01*
X103242908Y-93984199D01*
X103297366Y-94000719D01*
X103354000Y-94006297D01*
X104154000Y-94006297D01*
X104210634Y-94000719D01*
X104265092Y-93984199D01*
X104315280Y-93957373D01*
X104359271Y-93921271D01*
X104394000Y-93878953D01*
X104428729Y-93921271D01*
X104472720Y-93957373D01*
X104522908Y-93984199D01*
X104577366Y-94000719D01*
X104634000Y-94006297D01*
X105434000Y-94006297D01*
X105490634Y-94000719D01*
X105545092Y-93984199D01*
X105595280Y-93957373D01*
X105639271Y-93921271D01*
X105664000Y-93891138D01*
X105688729Y-93921271D01*
X105732720Y-93957373D01*
X105782908Y-93984199D01*
X105837366Y-94000719D01*
X105894000Y-94006297D01*
X106694000Y-94006297D01*
X106750634Y-94000719D01*
X106805092Y-93984199D01*
X106855280Y-93957373D01*
X106899271Y-93921271D01*
X106929000Y-93885046D01*
X106958729Y-93921271D01*
X107002720Y-93957373D01*
X107052908Y-93984199D01*
X107107366Y-94000719D01*
X107164000Y-94006297D01*
X107964000Y-94006297D01*
X108020634Y-94000719D01*
X108075092Y-93984199D01*
X108125280Y-93957373D01*
X108169271Y-93921271D01*
X108204000Y-93878953D01*
X108238729Y-93921271D01*
X108282720Y-93957373D01*
X108332908Y-93984199D01*
X108387366Y-94000719D01*
X108444000Y-94006297D01*
X109244000Y-94006297D01*
X109300634Y-94000719D01*
X109355092Y-93984199D01*
X109405280Y-93957373D01*
X109449271Y-93921271D01*
X109479000Y-93885046D01*
X109508729Y-93921271D01*
X109552720Y-93957373D01*
X109602908Y-93984199D01*
X109657366Y-94000719D01*
X109714000Y-94006297D01*
X110514000Y-94006297D01*
X110570634Y-94000719D01*
X110625092Y-93984199D01*
X110675280Y-93957373D01*
X110719271Y-93921271D01*
X110744000Y-93891138D01*
X110768729Y-93921271D01*
X110812720Y-93957373D01*
X110862908Y-93984199D01*
X110917366Y-94000719D01*
X110974000Y-94006297D01*
X111774000Y-94006297D01*
X111830634Y-94000719D01*
X111885092Y-93984199D01*
X111935280Y-93957373D01*
X111979271Y-93921271D01*
X112014000Y-93878953D01*
X112048729Y-93921271D01*
X112092720Y-93957373D01*
X112142908Y-93984199D01*
X112197366Y-94000719D01*
X112254000Y-94006297D01*
X113054000Y-94006297D01*
X113110634Y-94000719D01*
X113165092Y-93984199D01*
X113215280Y-93957373D01*
X113259271Y-93921271D01*
X113295373Y-93877280D01*
X113322199Y-93827092D01*
X113338719Y-93772634D01*
X113344297Y-93716000D01*
X113344297Y-93460626D01*
X113363401Y-93479730D01*
X113363400Y-98845271D01*
X111608772Y-100599900D01*
X108983920Y-100599900D01*
X108965999Y-100598135D01*
X108948078Y-100599900D01*
X108948069Y-100599900D01*
X108894428Y-100605183D01*
X108825606Y-100626060D01*
X108762180Y-100659962D01*
X108706587Y-100705587D01*
X108695158Y-100719513D01*
X107755982Y-101658690D01*
X99969130Y-101658690D01*
X99951209Y-101656925D01*
X99933288Y-101658690D01*
X99933279Y-101658690D01*
X99879638Y-101663973D01*
X99810816Y-101684850D01*
X99747390Y-101718752D01*
X99691797Y-101764377D01*
X99680368Y-101778303D01*
X99430864Y-102027807D01*
X99405408Y-102020085D01*
X99300001Y-102009703D01*
X98649999Y-102009703D01*
X98544592Y-102020085D01*
X98443237Y-102050831D01*
X98349827Y-102100759D01*
X98267952Y-102167952D01*
X98200759Y-102249827D01*
X98150831Y-102343237D01*
X98120085Y-102444592D01*
X98109703Y-102549999D01*
X98109703Y-103450001D01*
X98120085Y-103555408D01*
X98150831Y-103656763D01*
X98200759Y-103750173D01*
X98267952Y-103832048D01*
X98349827Y-103899241D01*
X98443237Y-103949169D01*
X98544592Y-103979915D01*
X98649999Y-103990297D01*
X99300001Y-103990297D01*
X99405408Y-103979915D01*
X99506763Y-103949169D01*
X99600173Y-103899241D01*
X99682048Y-103832048D01*
X99749241Y-103750173D01*
X99799169Y-103656763D01*
X99829915Y-103555408D01*
X99840297Y-103450001D01*
X99840297Y-102651032D01*
X100102439Y-102388890D01*
X100186982Y-102388890D01*
X100170085Y-102444592D01*
X100159703Y-102549999D01*
X100159703Y-103450001D01*
X100170085Y-103555408D01*
X100200831Y-103656763D01*
X100250759Y-103750173D01*
X100317952Y-103832048D01*
X100399827Y-103899241D01*
X100493237Y-103949169D01*
X100594592Y-103979915D01*
X100699999Y-103990297D01*
X101350001Y-103990297D01*
X101455408Y-103979915D01*
X101556763Y-103949169D01*
X101650173Y-103899241D01*
X101732048Y-103832048D01*
X101799241Y-103750173D01*
X101849169Y-103656763D01*
X101879915Y-103555408D01*
X101890297Y-103450001D01*
X101890297Y-103413900D01*
X103109703Y-103413900D01*
X103109703Y-103450001D01*
X103120085Y-103555408D01*
X103150831Y-103656763D01*
X103200759Y-103750173D01*
X103267952Y-103832048D01*
X103349827Y-103899241D01*
X103443237Y-103949169D01*
X103544592Y-103979915D01*
X103649999Y-103990297D01*
X104300001Y-103990297D01*
X104405408Y-103979915D01*
X104506763Y-103949169D01*
X104600173Y-103899241D01*
X104682048Y-103832048D01*
X104749241Y-103750173D01*
X104799169Y-103656763D01*
X104829915Y-103555408D01*
X104840297Y-103450001D01*
X104840297Y-102549999D01*
X104829915Y-102444592D01*
X104813018Y-102388890D01*
X105186982Y-102388890D01*
X105170085Y-102444592D01*
X105159703Y-102549999D01*
X105159703Y-103450001D01*
X105170085Y-103555408D01*
X105200831Y-103656763D01*
X105250759Y-103750173D01*
X105317952Y-103832048D01*
X105399827Y-103899241D01*
X105493237Y-103949169D01*
X105594592Y-103979915D01*
X105699999Y-103990297D01*
X106350001Y-103990297D01*
X106455408Y-103979915D01*
X106556763Y-103949169D01*
X106650173Y-103899241D01*
X106732048Y-103832048D01*
X106799241Y-103750173D01*
X106849169Y-103656763D01*
X106879915Y-103555408D01*
X106890297Y-103450001D01*
X106890297Y-103383592D01*
X106939105Y-103409681D01*
X107022290Y-103434915D01*
X107087122Y-103441300D01*
X107607824Y-103441300D01*
X107629500Y-103443435D01*
X107651176Y-103441300D01*
X107651178Y-103441300D01*
X107716010Y-103434915D01*
X107799195Y-103409681D01*
X107875859Y-103368703D01*
X107943056Y-103313556D01*
X107956881Y-103296710D01*
X109402793Y-101850800D01*
X111928824Y-101850800D01*
X111950500Y-101852935D01*
X111972176Y-101850800D01*
X111972178Y-101850800D01*
X112037010Y-101844415D01*
X112120195Y-101819181D01*
X112196859Y-101778203D01*
X112264056Y-101723056D01*
X112277882Y-101706210D01*
X114252400Y-99731693D01*
X114252400Y-101004271D01*
X112116772Y-103139900D01*
X109568120Y-103139900D01*
X109550199Y-103138135D01*
X109532278Y-103139900D01*
X109532269Y-103139900D01*
X109478628Y-103145183D01*
X109409806Y-103166060D01*
X109346380Y-103199962D01*
X109290787Y-103245587D01*
X109279358Y-103259513D01*
X107655182Y-104883690D01*
X99894130Y-104883690D01*
X99876209Y-104881925D01*
X99858288Y-104883690D01*
X99858279Y-104883690D01*
X99804638Y-104888973D01*
X99735816Y-104909850D01*
X99672390Y-104943752D01*
X99616797Y-104989377D01*
X99605368Y-105003303D01*
X99373968Y-105234703D01*
X98837500Y-105234703D01*
X98734532Y-105244844D01*
X98635521Y-105274879D01*
X98544272Y-105323653D01*
X98464291Y-105389291D01*
X98398653Y-105469272D01*
X98349879Y-105560521D01*
X98319844Y-105659532D01*
X98309703Y-105762500D01*
X98309703Y-106237500D01*
X98319844Y-106340468D01*
X98349879Y-106439479D01*
X98398653Y-106530728D01*
X98464291Y-106610709D01*
X98544272Y-106676347D01*
X98635521Y-106725121D01*
X98734532Y-106755156D01*
X98837500Y-106765297D01*
X99412500Y-106765297D01*
X99506557Y-106756034D01*
X99514999Y-106756865D01*
X99586571Y-106749816D01*
X99655393Y-106728940D01*
X99718819Y-106695037D01*
X99774413Y-106649413D01*
X99820037Y-106593819D01*
X99853940Y-106530393D01*
X99857107Y-106519951D01*
X99900121Y-106439479D01*
X99930156Y-106340468D01*
X99940297Y-106237500D01*
X99940297Y-105762500D01*
X99934786Y-105706543D01*
X100027439Y-105613890D01*
X100083690Y-105613890D01*
X100069844Y-105659532D01*
X100059703Y-105762500D01*
X100059703Y-106237500D01*
X100069844Y-106340468D01*
X100099879Y-106439479D01*
X100148653Y-106530728D01*
X100214291Y-106610709D01*
X100294272Y-106676347D01*
X100385521Y-106725121D01*
X100484532Y-106755156D01*
X100587500Y-106765297D01*
X101162500Y-106765297D01*
X101265468Y-106755156D01*
X101364479Y-106725121D01*
X101455728Y-106676347D01*
X101535709Y-106610709D01*
X101601347Y-106530728D01*
X101650121Y-106439479D01*
X101657880Y-106413900D01*
X103342120Y-106413900D01*
X103349879Y-106439479D01*
X103398653Y-106530728D01*
X103464291Y-106610709D01*
X103544272Y-106676347D01*
X103635521Y-106725121D01*
X103734532Y-106755156D01*
X103837500Y-106765297D01*
X104412500Y-106765297D01*
X104515468Y-106755156D01*
X104614479Y-106725121D01*
X104705728Y-106676347D01*
X104785709Y-106610709D01*
X104851347Y-106530728D01*
X104900121Y-106439479D01*
X104930156Y-106340468D01*
X104940297Y-106237500D01*
X104940297Y-105762500D01*
X104930156Y-105659532D01*
X104916310Y-105613890D01*
X105083690Y-105613890D01*
X105069844Y-105659532D01*
X105059703Y-105762500D01*
X105059703Y-106237500D01*
X105069844Y-106340468D01*
X105099879Y-106439479D01*
X105148653Y-106530728D01*
X105214291Y-106610709D01*
X105294272Y-106676347D01*
X105385521Y-106725121D01*
X105484532Y-106755156D01*
X105587500Y-106765297D01*
X106162500Y-106765297D01*
X106265468Y-106755156D01*
X106364479Y-106725121D01*
X106455728Y-106676347D01*
X106535709Y-106610709D01*
X106601347Y-106530728D01*
X106650121Y-106439479D01*
X106672684Y-106365100D01*
X106797551Y-106365100D01*
X106801941Y-106368703D01*
X106878605Y-106409681D01*
X106961790Y-106434915D01*
X107026622Y-106441300D01*
X107643124Y-106441300D01*
X107664800Y-106443435D01*
X107686476Y-106441300D01*
X107686478Y-106441300D01*
X107751310Y-106434915D01*
X107834495Y-106409681D01*
X107911159Y-106368703D01*
X107978356Y-106313556D01*
X107992182Y-106296709D01*
X109913981Y-104374911D01*
X112500060Y-104374911D01*
X112521736Y-104377046D01*
X112543412Y-104374911D01*
X112543414Y-104374911D01*
X112608246Y-104368526D01*
X112691431Y-104343292D01*
X112768095Y-104302314D01*
X112835292Y-104247167D01*
X112849118Y-104230320D01*
X115122322Y-101957117D01*
X115122322Y-102445749D01*
X111888172Y-105679900D01*
X109568123Y-105679900D01*
X109550200Y-105678135D01*
X109532277Y-105679900D01*
X109532269Y-105679900D01*
X109478628Y-105685183D01*
X109409806Y-105706060D01*
X109346380Y-105739962D01*
X109311075Y-105768937D01*
X109290787Y-105785587D01*
X109279358Y-105799513D01*
X107040182Y-108038690D01*
X100129130Y-108038690D01*
X100111209Y-108036925D01*
X100093288Y-108038690D01*
X100093279Y-108038690D01*
X100039638Y-108043973D01*
X99970816Y-108064850D01*
X99907390Y-108098752D01*
X99851797Y-108144377D01*
X99840368Y-108158303D01*
X99608968Y-108389703D01*
X99367500Y-108389703D01*
X99282090Y-108398115D01*
X99199962Y-108423028D01*
X99124273Y-108463485D01*
X99057931Y-108517931D01*
X99003485Y-108584273D01*
X98963028Y-108659962D01*
X98938115Y-108742090D01*
X98929703Y-108827500D01*
X98929703Y-109172500D01*
X98938115Y-109257910D01*
X98963028Y-109340038D01*
X99003485Y-109415727D01*
X99057931Y-109482069D01*
X99124273Y-109536515D01*
X99199962Y-109576972D01*
X99282090Y-109601885D01*
X99367500Y-109610297D01*
X99662500Y-109610297D01*
X99747910Y-109601885D01*
X99830038Y-109576972D01*
X99905727Y-109536515D01*
X99972069Y-109482069D01*
X100000000Y-109448035D01*
X100027931Y-109482069D01*
X100094273Y-109536515D01*
X100169962Y-109576972D01*
X100252090Y-109601885D01*
X100337500Y-109610297D01*
X100632500Y-109610297D01*
X100717910Y-109601885D01*
X100800038Y-109576972D01*
X100875727Y-109536515D01*
X100942069Y-109482069D01*
X100996515Y-109415727D01*
X100997492Y-109413900D01*
X104002508Y-109413900D01*
X104003485Y-109415727D01*
X104057931Y-109482069D01*
X104124273Y-109536515D01*
X104199962Y-109576972D01*
X104282090Y-109601885D01*
X104367500Y-109610297D01*
X104662500Y-109610297D01*
X104747910Y-109601885D01*
X104830038Y-109576972D01*
X104905727Y-109536515D01*
X104972069Y-109482069D01*
X105000000Y-109448035D01*
X105027931Y-109482069D01*
X105094273Y-109536515D01*
X105169962Y-109576972D01*
X105252090Y-109601885D01*
X105337500Y-109610297D01*
X105632500Y-109610297D01*
X105717910Y-109601885D01*
X105800038Y-109576972D01*
X105875727Y-109536515D01*
X105942069Y-109482069D01*
X105996515Y-109415727D01*
X106023576Y-109365100D01*
X106044151Y-109365100D01*
X106048541Y-109368703D01*
X106125205Y-109409681D01*
X106208390Y-109434915D01*
X106273222Y-109441300D01*
X107179670Y-109441300D01*
X107201346Y-109443435D01*
X107223022Y-109441300D01*
X107223024Y-109441300D01*
X107287856Y-109434915D01*
X107371041Y-109409681D01*
X107447705Y-109368703D01*
X107514902Y-109313556D01*
X107528728Y-109296709D01*
X109910528Y-106914911D01*
X112271460Y-106914911D01*
X112293136Y-106917046D01*
X112314812Y-106914911D01*
X112314814Y-106914911D01*
X112379646Y-106908526D01*
X112462831Y-106883292D01*
X112539495Y-106842314D01*
X112606692Y-106787167D01*
X112620518Y-106770320D01*
X115979544Y-103411295D01*
X115979544Y-104674626D01*
X112307272Y-108346900D01*
X109618923Y-108346900D01*
X109601000Y-108345135D01*
X109583077Y-108346900D01*
X109583069Y-108346900D01*
X109529428Y-108352183D01*
X109460606Y-108373060D01*
X109397180Y-108406962D01*
X109355514Y-108441156D01*
X109355508Y-108441162D01*
X109341587Y-108452587D01*
X109330162Y-108466508D01*
X106655772Y-111140900D01*
X99891920Y-111140900D01*
X99873999Y-111139135D01*
X99856078Y-111140900D01*
X99844720Y-111140900D01*
X99826799Y-111139135D01*
X99808878Y-111140900D01*
X99808869Y-111140900D01*
X99755228Y-111146183D01*
X99686406Y-111167060D01*
X99622980Y-111200962D01*
X99567387Y-111246587D01*
X99555953Y-111260519D01*
X99398715Y-111417757D01*
X99384787Y-111429188D01*
X99373358Y-111443114D01*
X99373357Y-111443115D01*
X99365995Y-111452086D01*
X99339162Y-111484781D01*
X99330141Y-111501657D01*
X99288057Y-111505802D01*
X99214840Y-111528013D01*
X99147363Y-111564080D01*
X99088218Y-111612618D01*
X99039680Y-111671763D01*
X99003613Y-111739240D01*
X98981402Y-111812457D01*
X98973903Y-111888600D01*
X98973903Y-112088600D01*
X98981402Y-112164743D01*
X99003613Y-112237960D01*
X99039680Y-112305437D01*
X99088218Y-112364582D01*
X99147363Y-112413120D01*
X99214840Y-112449187D01*
X99288057Y-112471398D01*
X99364200Y-112478897D01*
X99764200Y-112478897D01*
X99840343Y-112471398D01*
X99913560Y-112449187D01*
X99964200Y-112422120D01*
X100014840Y-112449187D01*
X100088057Y-112471398D01*
X100164200Y-112478897D01*
X100564200Y-112478897D01*
X100640343Y-112471398D01*
X100713560Y-112449187D01*
X100749644Y-112429900D01*
X104193228Y-112429900D01*
X104250640Y-112460587D01*
X104323857Y-112482798D01*
X104400000Y-112490297D01*
X104800000Y-112490297D01*
X104876143Y-112482798D01*
X104949360Y-112460587D01*
X105000000Y-112433520D01*
X105050640Y-112460587D01*
X105123857Y-112482798D01*
X105200000Y-112490297D01*
X105600000Y-112490297D01*
X105676143Y-112482798D01*
X105749360Y-112460587D01*
X105816837Y-112424520D01*
X105865363Y-112384697D01*
X105912105Y-112409681D01*
X105995290Y-112434915D01*
X106060122Y-112441300D01*
X106897470Y-112441300D01*
X106919146Y-112443435D01*
X106940822Y-112441300D01*
X106940824Y-112441300D01*
X107005656Y-112434915D01*
X107088841Y-112409681D01*
X107165505Y-112368703D01*
X107232702Y-112313556D01*
X107246528Y-112296709D01*
X109961328Y-109581911D01*
X112614360Y-109581911D01*
X112636036Y-109584046D01*
X112657712Y-109581911D01*
X112657714Y-109581911D01*
X112722546Y-109575526D01*
X112805731Y-109550292D01*
X112882395Y-109509314D01*
X112949592Y-109454167D01*
X112963418Y-109437320D01*
X116840011Y-105560728D01*
X116840011Y-107179660D01*
X112942272Y-111077400D01*
X110257000Y-111077400D01*
X110239079Y-111075635D01*
X110221158Y-111077400D01*
X110221149Y-111077400D01*
X110167508Y-111082683D01*
X110098686Y-111103560D01*
X110035259Y-111137462D01*
X109993594Y-111171657D01*
X109979667Y-111183087D01*
X109968238Y-111197013D01*
X107006562Y-114158690D01*
X99874133Y-114158690D01*
X99856210Y-114156925D01*
X99838287Y-114158690D01*
X99838279Y-114158690D01*
X99784638Y-114163973D01*
X99715816Y-114184850D01*
X99652390Y-114218752D01*
X99596797Y-114264377D01*
X99585367Y-114278304D01*
X99434513Y-114429158D01*
X99420588Y-114440587D01*
X99409159Y-114454513D01*
X99409157Y-114454515D01*
X99374962Y-114496181D01*
X99365941Y-114513057D01*
X99323857Y-114517202D01*
X99250640Y-114539413D01*
X99183163Y-114575480D01*
X99124018Y-114624018D01*
X99075480Y-114683163D01*
X99039413Y-114750640D01*
X99017202Y-114823857D01*
X99009703Y-114900000D01*
X99009703Y-115100000D01*
X99017202Y-115176143D01*
X99039413Y-115249360D01*
X99075480Y-115316837D01*
X99124018Y-115375982D01*
X99183163Y-115424520D01*
X99250640Y-115460587D01*
X99323857Y-115482798D01*
X99400000Y-115490297D01*
X99800000Y-115490297D01*
X99876143Y-115482798D01*
X99949360Y-115460587D01*
X100000000Y-115433520D01*
X100050640Y-115460587D01*
X100123857Y-115482798D01*
X100200000Y-115490297D01*
X100600000Y-115490297D01*
X100676143Y-115482798D01*
X100749360Y-115460587D01*
X100816837Y-115424520D01*
X100829778Y-115413900D01*
X104244800Y-115413900D01*
X104303734Y-115431778D01*
X104375000Y-115438797D01*
X104825000Y-115438797D01*
X104896266Y-115431778D01*
X104964793Y-115410990D01*
X105000000Y-115392171D01*
X105035207Y-115410990D01*
X105103734Y-115431778D01*
X105175000Y-115438797D01*
X105625000Y-115438797D01*
X105696266Y-115431778D01*
X105764793Y-115410990D01*
X105827948Y-115377233D01*
X105842732Y-115365100D01*
X105849251Y-115365100D01*
X105853641Y-115368703D01*
X105930305Y-115409681D01*
X106013490Y-115434915D01*
X106078322Y-115441300D01*
X107355324Y-115441300D01*
X107377000Y-115443435D01*
X107398676Y-115441300D01*
X107398678Y-115441300D01*
X107463510Y-115434915D01*
X107546695Y-115409681D01*
X107623359Y-115368703D01*
X107690556Y-115313556D01*
X107704382Y-115296709D01*
X110672793Y-112328300D01*
X113233471Y-112328300D01*
X113255147Y-112330435D01*
X113276823Y-112328300D01*
X113276825Y-112328300D01*
X113341657Y-112321915D01*
X113424842Y-112296681D01*
X113501506Y-112255703D01*
X113568703Y-112200556D01*
X113582529Y-112183709D01*
X117930437Y-107835802D01*
X117947278Y-107821981D01*
X117977702Y-107784910D01*
X118002425Y-107754785D01*
X118032908Y-107697755D01*
X118043403Y-107678120D01*
X118068637Y-107594935D01*
X118075022Y-107530103D01*
X118075022Y-107530102D01*
X118077157Y-107508426D01*
X118075022Y-107486750D01*
X118075022Y-92212550D01*
X118099709Y-92263813D01*
X118720311Y-93917402D01*
X119190189Y-95619965D01*
X119505558Y-97357793D01*
X119663880Y-99116894D01*
X119663880Y-100883106D01*
X119505558Y-102642207D01*
X119190189Y-104380035D01*
X118720311Y-106082598D01*
X118099709Y-107736187D01*
X117333378Y-109327489D01*
X116427490Y-110843691D01*
X115389336Y-112272586D01*
X114227277Y-113602670D01*
X112950668Y-114823233D01*
X111569789Y-115924448D01*
X110095756Y-116897449D01*
X108540437Y-117734401D01*
X106916357Y-118428566D01*
X105236589Y-118974356D01*
X103514660Y-119367375D01*
X101764433Y-119604459D01*
X100000000Y-119683700D01*
X98235567Y-119604459D01*
X96485340Y-119367375D01*
X94763411Y-118974356D01*
X93083643Y-118428566D01*
X91459563Y-117734401D01*
X89904244Y-116897449D01*
X88430211Y-115924448D01*
X87049332Y-114823233D01*
X85772723Y-113602670D01*
X84610664Y-112272586D01*
X83572510Y-110843691D01*
X82666622Y-109327489D01*
X81900291Y-107736187D01*
X81279689Y-106082598D01*
X80809811Y-104380035D01*
X80494442Y-102642207D01*
X80336120Y-100883106D01*
X80336120Y-99116894D01*
X80494442Y-97357793D01*
X80809811Y-95619965D01*
X81279689Y-93917402D01*
X81900291Y-92263813D01*
X82666622Y-90672511D01*
X83572510Y-89156309D01*
X84610664Y-87727414D01*
X84882738Y-87416000D01*
X103086010Y-87416000D01*
X103091159Y-87468282D01*
X103106410Y-87518555D01*
X103131174Y-87564887D01*
X103164502Y-87605498D01*
X103205113Y-87638826D01*
X103251445Y-87663590D01*
X103301718Y-87678841D01*
X103354000Y-87683990D01*
X103522225Y-87682700D01*
X103588900Y-87616025D01*
X103588900Y-86931100D01*
X103153975Y-86931100D01*
X103087300Y-86997775D01*
X103086010Y-87416000D01*
X84882738Y-87416000D01*
X85772723Y-86397330D01*
X87049332Y-85176767D01*
X88430211Y-84075552D01*
X88960794Y-83725317D01*
X97211100Y-83725317D01*
X97211100Y-84274683D01*
X97318276Y-84813492D01*
X97528509Y-85321039D01*
X97833720Y-85777820D01*
X98222180Y-86166280D01*
X98678961Y-86471491D01*
X99186508Y-86681724D01*
X99725317Y-86788900D01*
X100274683Y-86788900D01*
X100813492Y-86681724D01*
X101321039Y-86471491D01*
X101777820Y-86166280D01*
X101828100Y-86116000D01*
X103086010Y-86116000D01*
X103087300Y-86534225D01*
X103153975Y-86600900D01*
X103588900Y-86600900D01*
X103588900Y-85915975D01*
X103522225Y-85849300D01*
X103354000Y-85848010D01*
X103301718Y-85853159D01*
X103251445Y-85868410D01*
X103205113Y-85893174D01*
X103164502Y-85926502D01*
X103131174Y-85967113D01*
X103106410Y-86013445D01*
X103091159Y-86063718D01*
X103086010Y-86116000D01*
X101828100Y-86116000D01*
X102166280Y-85777820D01*
X102471491Y-85321039D01*
X102681724Y-84813492D01*
X102788900Y-84274683D01*
X102788900Y-83725317D01*
X102681724Y-83186508D01*
X102471491Y-82678961D01*
X102166280Y-82222180D01*
X101777820Y-81833720D01*
X101321039Y-81528509D01*
X100813492Y-81318276D01*
X100274683Y-81211100D01*
X99725317Y-81211100D01*
X99186508Y-81318276D01*
X98678961Y-81528509D01*
X98222180Y-81833720D01*
X97833720Y-82222180D01*
X97528509Y-82678961D01*
X97318276Y-83186508D01*
X97211100Y-83725317D01*
X88960794Y-83725317D01*
X89904244Y-83102551D01*
X91459563Y-82265599D01*
X93083643Y-81571434D01*
X94763411Y-81025644D01*
X96485340Y-80632625D01*
X98235567Y-80395541D01*
X100000000Y-80316300D01*
X101764433Y-80395541D01*
G37*
G04 #@! TD.AperFunction*
M02*
