G04 #@! TF.GenerationSoftware,KiCad,Pcbnew,5.1.9*
G04 #@! TF.CreationDate,2021-04-20T19:19:39+02:00*
G04 #@! TF.ProjectId,nibble++,6e696262-6c65-42b2-9b2e-6b696361645f,rev?*
G04 #@! TF.SameCoordinates,Original*
G04 #@! TF.FileFunction,Paste,Top*
G04 #@! TF.FilePolarity,Positive*
%FSLAX46Y46*%
G04 Gerber Fmt 4.6, Leading zero omitted, Abs format (unit mm)*
G04 Created by KiCad (PCBNEW 5.1.9) date 2021-04-20 19:19:39*
%MOMM*%
%LPD*%
G01*
G04 APERTURE LIST*
%ADD10R,0.800000X1.300000*%
G04 APERTURE END LIST*
G36*
G01*
X103600000Y-106237500D02*
X103600000Y-105762500D01*
G75*
G02*
X103837500Y-105525000I237500J0D01*
G01*
X104412500Y-105525000D01*
G75*
G02*
X104650000Y-105762500I0J-237500D01*
G01*
X104650000Y-106237500D01*
G75*
G02*
X104412500Y-106475000I-237500J0D01*
G01*
X103837500Y-106475000D01*
G75*
G02*
X103600000Y-106237500I0J237500D01*
G01*
G37*
G36*
G01*
X105350000Y-106237500D02*
X105350000Y-105762500D01*
G75*
G02*
X105587500Y-105525000I237500J0D01*
G01*
X106162500Y-105525000D01*
G75*
G02*
X106400000Y-105762500I0J-237500D01*
G01*
X106400000Y-106237500D01*
G75*
G02*
X106162500Y-106475000I-237500J0D01*
G01*
X105587500Y-106475000D01*
G75*
G02*
X105350000Y-106237500I0J237500D01*
G01*
G37*
G36*
G01*
X103400000Y-103450001D02*
X103400000Y-102549999D01*
G75*
G02*
X103649999Y-102300000I249999J0D01*
G01*
X104300001Y-102300000D01*
G75*
G02*
X104550000Y-102549999I0J-249999D01*
G01*
X104550000Y-103450001D01*
G75*
G02*
X104300001Y-103700000I-249999J0D01*
G01*
X103649999Y-103700000D01*
G75*
G02*
X103400000Y-103450001I0J249999D01*
G01*
G37*
G36*
G01*
X105450000Y-103450001D02*
X105450000Y-102549999D01*
G75*
G02*
X105699999Y-102300000I249999J0D01*
G01*
X106350001Y-102300000D01*
G75*
G02*
X106600000Y-102549999I0J-249999D01*
G01*
X106600000Y-103450001D01*
G75*
G02*
X106350001Y-103700000I-249999J0D01*
G01*
X105699999Y-103700000D01*
G75*
G02*
X105450000Y-103450001I0J249999D01*
G01*
G37*
G36*
G01*
X100190000Y-109172500D02*
X100190000Y-108827500D01*
G75*
G02*
X100337500Y-108680000I147500J0D01*
G01*
X100632500Y-108680000D01*
G75*
G02*
X100780000Y-108827500I0J-147500D01*
G01*
X100780000Y-109172500D01*
G75*
G02*
X100632500Y-109320000I-147500J0D01*
G01*
X100337500Y-109320000D01*
G75*
G02*
X100190000Y-109172500I0J147500D01*
G01*
G37*
G36*
G01*
X99220000Y-109172500D02*
X99220000Y-108827500D01*
G75*
G02*
X99367500Y-108680000I147500J0D01*
G01*
X99662500Y-108680000D01*
G75*
G02*
X99810000Y-108827500I0J-147500D01*
G01*
X99810000Y-109172500D01*
G75*
G02*
X99662500Y-109320000I-147500J0D01*
G01*
X99367500Y-109320000D01*
G75*
G02*
X99220000Y-109172500I0J147500D01*
G01*
G37*
G36*
G01*
X105190000Y-109172500D02*
X105190000Y-108827500D01*
G75*
G02*
X105337500Y-108680000I147500J0D01*
G01*
X105632500Y-108680000D01*
G75*
G02*
X105780000Y-108827500I0J-147500D01*
G01*
X105780000Y-109172500D01*
G75*
G02*
X105632500Y-109320000I-147500J0D01*
G01*
X105337500Y-109320000D01*
G75*
G02*
X105190000Y-109172500I0J147500D01*
G01*
G37*
G36*
G01*
X104220000Y-109172500D02*
X104220000Y-108827500D01*
G75*
G02*
X104367500Y-108680000I147500J0D01*
G01*
X104662500Y-108680000D01*
G75*
G02*
X104810000Y-108827500I0J-147500D01*
G01*
X104810000Y-109172500D01*
G75*
G02*
X104662500Y-109320000I-147500J0D01*
G01*
X104367500Y-109320000D01*
G75*
G02*
X104220000Y-109172500I0J147500D01*
G01*
G37*
G36*
G01*
X98400000Y-103450001D02*
X98400000Y-102549999D01*
G75*
G02*
X98649999Y-102300000I249999J0D01*
G01*
X99300001Y-102300000D01*
G75*
G02*
X99550000Y-102549999I0J-249999D01*
G01*
X99550000Y-103450001D01*
G75*
G02*
X99300001Y-103700000I-249999J0D01*
G01*
X98649999Y-103700000D01*
G75*
G02*
X98400000Y-103450001I0J249999D01*
G01*
G37*
G36*
G01*
X100450000Y-103450001D02*
X100450000Y-102549999D01*
G75*
G02*
X100699999Y-102300000I249999J0D01*
G01*
X101350001Y-102300000D01*
G75*
G02*
X101600000Y-102549999I0J-249999D01*
G01*
X101600000Y-103450001D01*
G75*
G02*
X101350001Y-103700000I-249999J0D01*
G01*
X100699999Y-103700000D01*
G75*
G02*
X100450000Y-103450001I0J249999D01*
G01*
G37*
G36*
G01*
X98600000Y-106237500D02*
X98600000Y-105762500D01*
G75*
G02*
X98837500Y-105525000I237500J0D01*
G01*
X99412500Y-105525000D01*
G75*
G02*
X99650000Y-105762500I0J-237500D01*
G01*
X99650000Y-106237500D01*
G75*
G02*
X99412500Y-106475000I-237500J0D01*
G01*
X98837500Y-106475000D01*
G75*
G02*
X98600000Y-106237500I0J237500D01*
G01*
G37*
G36*
G01*
X100350000Y-106237500D02*
X100350000Y-105762500D01*
G75*
G02*
X100587500Y-105525000I237500J0D01*
G01*
X101162500Y-105525000D01*
G75*
G02*
X101400000Y-105762500I0J-237500D01*
G01*
X101400000Y-106237500D01*
G75*
G02*
X101162500Y-106475000I-237500J0D01*
G01*
X100587500Y-106475000D01*
G75*
G02*
X100350000Y-106237500I0J237500D01*
G01*
G37*
G36*
G01*
X100150200Y-112089100D02*
X100150200Y-111888100D01*
G75*
G02*
X100229700Y-111808600I79500J0D01*
G01*
X100388700Y-111808600D01*
G75*
G02*
X100468200Y-111888100I0J-79500D01*
G01*
X100468200Y-112089100D01*
G75*
G02*
X100388700Y-112168600I-79500J0D01*
G01*
X100229700Y-112168600D01*
G75*
G02*
X100150200Y-112089100I0J79500D01*
G01*
G37*
G36*
G01*
X99460200Y-112089100D02*
X99460200Y-111888100D01*
G75*
G02*
X99539700Y-111808600I79500J0D01*
G01*
X99698700Y-111808600D01*
G75*
G02*
X99778200Y-111888100I0J-79500D01*
G01*
X99778200Y-112089100D01*
G75*
G02*
X99698700Y-112168600I-79500J0D01*
G01*
X99539700Y-112168600D01*
G75*
G02*
X99460200Y-112089100I0J79500D01*
G01*
G37*
G36*
G01*
X99496000Y-115100500D02*
X99496000Y-114899500D01*
G75*
G02*
X99575500Y-114820000I79500J0D01*
G01*
X99734500Y-114820000D01*
G75*
G02*
X99814000Y-114899500I0J-79500D01*
G01*
X99814000Y-115100500D01*
G75*
G02*
X99734500Y-115180000I-79500J0D01*
G01*
X99575500Y-115180000D01*
G75*
G02*
X99496000Y-115100500I0J79500D01*
G01*
G37*
G36*
G01*
X100186000Y-115100500D02*
X100186000Y-114899500D01*
G75*
G02*
X100265500Y-114820000I79500J0D01*
G01*
X100424500Y-114820000D01*
G75*
G02*
X100504000Y-114899500I0J-79500D01*
G01*
X100504000Y-115100500D01*
G75*
G02*
X100424500Y-115180000I-79500J0D01*
G01*
X100265500Y-115180000D01*
G75*
G02*
X100186000Y-115100500I0J79500D01*
G01*
G37*
G36*
G01*
X104590000Y-115066000D02*
X104590000Y-114931000D01*
G75*
G02*
X104657500Y-114863500I67500J0D01*
G01*
X104792500Y-114863500D01*
G75*
G02*
X104860000Y-114931000I0J-67500D01*
G01*
X104860000Y-115066000D01*
G75*
G02*
X104792500Y-115133500I-67500J0D01*
G01*
X104657500Y-115133500D01*
G75*
G02*
X104590000Y-115066000I0J67500D01*
G01*
G37*
G36*
G01*
X105140000Y-115066000D02*
X105140000Y-114931000D01*
G75*
G02*
X105207500Y-114863500I67500J0D01*
G01*
X105342500Y-114863500D01*
G75*
G02*
X105410000Y-114931000I0J-67500D01*
G01*
X105410000Y-115066000D01*
G75*
G02*
X105342500Y-115133500I-67500J0D01*
G01*
X105207500Y-115133500D01*
G75*
G02*
X105140000Y-115066000I0J67500D01*
G01*
G37*
D10*
X103754000Y-93066000D03*
X105034000Y-93066000D03*
X106294000Y-93066000D03*
X107564000Y-93066000D03*
X108844000Y-93066000D03*
X110114000Y-93066000D03*
X111374000Y-93066000D03*
X112654000Y-93066000D03*
X112654000Y-86766000D03*
X111374000Y-86766000D03*
X110114000Y-86766000D03*
X108844000Y-86766000D03*
X107564000Y-86766000D03*
X106294000Y-86766000D03*
X105034000Y-86766000D03*
X103754000Y-86766000D03*
M02*
