G04 #@! TF.GenerationSoftware,KiCad,Pcbnew,5.1.9*
G04 #@! TF.CreationDate,2021-04-20T19:19:39+02:00*
G04 #@! TF.ProjectId,nibble++,6e696262-6c65-42b2-9b2e-6b696361645f,rev?*
G04 #@! TF.SameCoordinates,Original*
G04 #@! TF.FileFunction,Soldermask,Top*
G04 #@! TF.FilePolarity,Negative*
%FSLAX46Y46*%
G04 Gerber Fmt 4.6, Leading zero omitted, Abs format (unit mm)*
G04 Created by KiCad (PCBNEW 5.1.9) date 2021-04-20 19:19:39*
%MOMM*%
%LPD*%
G01*
G04 APERTURE LIST*
%ADD10C,0.203200*%
%ADD11C,0.381000*%
%ADD12C,0.010000*%
%ADD13C,5.101600*%
G04 APERTURE END LIST*
D10*
X113665000Y-88214200D02*
X113461800Y-88214200D01*
D11*
X113842800Y-87782400D02*
X113461800Y-87782400D01*
X107619800Y-102997000D02*
X107124500Y-102997000D01*
D10*
X107022900Y-106006900D02*
X106235500Y-106006900D01*
X106299000Y-109004100D02*
X105613200Y-109004100D01*
X106095800Y-114998500D02*
X105562400Y-114998500D01*
X106006900Y-112001300D02*
X105613200Y-112001300D01*
D11*
X106921300Y-112001300D02*
X106083100Y-112001300D01*
X114173000Y-93091000D02*
X113461800Y-92379800D01*
X114173000Y-99187000D02*
X114173000Y-93091000D01*
X111950500Y-101409500D02*
X114173000Y-99187000D01*
X109232700Y-101409500D02*
X111950500Y-101409500D01*
X107632500Y-102997000D02*
X109220000Y-101409500D01*
D10*
X106426000Y-102997000D02*
X107086400Y-102997000D01*
D11*
X107657900Y-106006900D02*
X107048300Y-106006900D01*
X109702600Y-103962200D02*
X107683300Y-105981500D01*
X112509300Y-103936800D02*
X109728000Y-103936800D01*
X115062000Y-101409500D02*
X112534700Y-103911400D01*
X115062000Y-92773500D02*
X115062000Y-101409500D01*
X113411000Y-91122500D02*
X115062000Y-92773500D01*
X115912900Y-92392500D02*
X113360200Y-89839800D01*
X115912900Y-102844600D02*
X115912900Y-92392500D01*
X112280700Y-106476800D02*
X115887500Y-102870000D01*
X109728000Y-106476800D02*
X112268000Y-106476800D01*
X107200700Y-109004100D02*
X109728000Y-106476800D01*
X107188000Y-109004100D02*
X106299000Y-109004100D01*
X116776500Y-91884500D02*
X113474500Y-88646000D01*
X116776500Y-104965500D02*
X116776500Y-91884500D01*
X112649000Y-109131100D02*
X116776500Y-104990900D01*
X109791500Y-109131100D02*
X112610900Y-109131100D01*
X106921300Y-112001300D02*
X109791500Y-109131100D01*
X117627400Y-91554300D02*
X113855500Y-87795100D01*
X117640100Y-107454700D02*
X117627400Y-91554300D01*
X113271300Y-111874300D02*
X117640100Y-107505500D01*
X110490000Y-111887000D02*
X113258600Y-111887000D01*
X107378500Y-114998500D02*
X110490000Y-111887000D01*
X106108500Y-114998500D02*
X107378500Y-114998500D01*
D10*
X117208300Y-91744800D02*
X113690400Y-88214200D01*
X117208300Y-107327700D02*
X117208300Y-91757500D01*
X113093500Y-111442500D02*
X117208300Y-107327700D01*
X110236000Y-111442500D02*
X113093500Y-111442500D01*
X107188000Y-114490500D02*
X110236000Y-111442500D01*
X109601000Y-108712000D02*
X106832400Y-111480600D01*
X112458500Y-108712000D02*
X109601000Y-108712000D01*
X116332000Y-104838500D02*
X112458500Y-108712000D01*
X116344700Y-92087700D02*
X116344700Y-104825800D01*
X113411000Y-89154000D02*
X116344700Y-92087700D01*
X115481100Y-92570300D02*
X113411000Y-90487500D01*
X115493800Y-102565200D02*
X115481100Y-92583000D01*
X112039400Y-106045000D02*
X115493800Y-102590600D01*
X109550200Y-106045000D02*
X112014000Y-106045000D01*
X109537500Y-106057700D02*
X107200700Y-108407200D01*
X114604800Y-92913200D02*
X113385600Y-91694000D01*
X114617500Y-101155500D02*
X114617500Y-92925900D01*
X112268000Y-103505000D02*
X114617500Y-101155500D01*
X109550200Y-103505000D02*
X112268000Y-103505000D01*
X109537500Y-103517700D02*
X107810300Y-105244900D01*
X108966000Y-100965000D02*
X107911900Y-102019100D01*
X113730000Y-93330000D02*
X113470000Y-93070000D01*
X113728500Y-98996500D02*
X113730000Y-93330000D01*
X111760000Y-100965000D02*
X113728500Y-98996500D01*
X108966000Y-100965000D02*
X111760000Y-100965000D01*
D12*
G36*
X96464330Y-90012944D02*
G01*
X96484970Y-90017138D01*
X96491943Y-90027148D01*
X96491989Y-90037022D01*
X96485614Y-90056742D01*
X96468264Y-90077551D01*
X96437680Y-90100819D01*
X96391603Y-90127918D01*
X96327771Y-90160220D01*
X96243924Y-90199097D01*
X96173227Y-90230468D01*
X96089163Y-90267787D01*
X96026243Y-90296962D01*
X95982001Y-90319321D01*
X95953970Y-90336189D01*
X95939685Y-90348893D01*
X95936533Y-90357766D01*
X95940305Y-90385492D01*
X95946729Y-90422535D01*
X95947377Y-90425920D01*
X95949751Y-90465400D01*
X95937568Y-90490001D01*
X95923277Y-90497843D01*
X95887412Y-90515015D01*
X95831739Y-90540727D01*
X95758023Y-90574190D01*
X95668030Y-90614617D01*
X95563526Y-90661218D01*
X95446276Y-90713205D01*
X95318046Y-90769789D01*
X95180602Y-90830182D01*
X95035709Y-90893595D01*
X94957226Y-90927843D01*
X94809656Y-90992288D01*
X94668986Y-91053945D01*
X94536938Y-91112048D01*
X94415233Y-91165827D01*
X94305594Y-91214514D01*
X94209741Y-91257342D01*
X94129397Y-91293542D01*
X94066283Y-91322346D01*
X94022121Y-91342986D01*
X93998632Y-91354695D01*
X93995150Y-91357045D01*
X93999848Y-91371621D01*
X94013017Y-91405190D01*
X94032900Y-91453455D01*
X94057744Y-91512116D01*
X94071678Y-91544467D01*
X94103491Y-91618963D01*
X94124675Y-91674170D01*
X94134899Y-91714060D01*
X94133828Y-91742605D01*
X94121131Y-91763779D01*
X94096473Y-91781554D01*
X94059522Y-91799902D01*
X94049891Y-91804328D01*
X93987668Y-91830949D01*
X93942914Y-91843962D01*
X93911138Y-91842596D01*
X93887849Y-91826084D01*
X93868557Y-91793657D01*
X93859192Y-91771698D01*
X93843619Y-91740116D01*
X93828482Y-91720526D01*
X93825210Y-91718506D01*
X93806958Y-91714656D01*
X93769423Y-91708774D01*
X93718590Y-91701750D01*
X93675774Y-91696319D01*
X93541340Y-91679889D01*
X93332450Y-91760043D01*
X93171112Y-91822549D01*
X92990697Y-91893520D01*
X92795445Y-91971252D01*
X92589595Y-92054041D01*
X92377386Y-92140184D01*
X92163060Y-92227976D01*
X91985203Y-92301455D01*
X91824798Y-92368041D01*
X91686257Y-92425593D01*
X91567906Y-92474722D01*
X91468071Y-92516040D01*
X91385076Y-92550155D01*
X91317248Y-92577678D01*
X91262911Y-92599221D01*
X91220391Y-92615393D01*
X91188013Y-92626805D01*
X91164103Y-92634067D01*
X91146986Y-92637790D01*
X91134987Y-92638583D01*
X91126432Y-92637059D01*
X91119646Y-92633826D01*
X91112954Y-92629496D01*
X91104682Y-92624679D01*
X91102013Y-92623398D01*
X91077186Y-92603283D01*
X91051895Y-92569531D01*
X91042760Y-92552856D01*
X91025496Y-92521320D01*
X91011488Y-92502907D01*
X91006709Y-92500756D01*
X90941057Y-92529429D01*
X90881265Y-92557781D01*
X90831431Y-92583650D01*
X90795653Y-92604871D01*
X90778028Y-92619284D01*
X90776891Y-92622058D01*
X90768769Y-92653825D01*
X90747333Y-92696802D01*
X90716973Y-92743933D01*
X90682082Y-92788165D01*
X90658074Y-92812926D01*
X90625583Y-92837262D01*
X90573055Y-92869798D01*
X90503888Y-92908839D01*
X90421478Y-92952688D01*
X90329223Y-92999649D01*
X90230521Y-93048026D01*
X90128768Y-93096123D01*
X90027362Y-93142243D01*
X89929700Y-93184691D01*
X89839179Y-93221771D01*
X89839054Y-93221821D01*
X89775298Y-93246951D01*
X89755821Y-93197367D01*
X89744398Y-93165856D01*
X89743799Y-93150037D01*
X89755089Y-93142110D01*
X89763753Y-93139221D01*
X89793139Y-93128217D01*
X89841626Y-93107954D01*
X89905373Y-93080167D01*
X89980541Y-93046589D01*
X90063289Y-93008955D01*
X90149778Y-92968999D01*
X90236168Y-92928455D01*
X90318619Y-92889057D01*
X90331723Y-92882717D01*
X90430001Y-92832864D01*
X90511036Y-92787151D01*
X90573296Y-92746607D01*
X90615253Y-92712262D01*
X90635375Y-92685146D01*
X90636981Y-92677197D01*
X90626115Y-92676025D01*
X90597452Y-92682686D01*
X90556890Y-92695763D01*
X90551308Y-92697766D01*
X90438532Y-92733985D01*
X90343588Y-92753728D01*
X90264736Y-92756768D01*
X90200237Y-92742882D01*
X90148351Y-92711844D01*
X90107340Y-92663429D01*
X90093240Y-92638455D01*
X90068718Y-92566109D01*
X90068346Y-92512744D01*
X90170104Y-92512744D01*
X90174403Y-92561941D01*
X90195791Y-92608034D01*
X90206245Y-92620819D01*
X90245842Y-92644421D01*
X90304122Y-92650924D01*
X90380938Y-92640332D01*
X90472426Y-92613932D01*
X90547598Y-92587776D01*
X90601740Y-92567684D01*
X90638008Y-92551837D01*
X90659559Y-92538417D01*
X90669549Y-92525605D01*
X90671134Y-92511585D01*
X90669080Y-92500667D01*
X90649181Y-92459614D01*
X90613070Y-92417354D01*
X90568165Y-92382097D01*
X90555171Y-92374673D01*
X90507912Y-92361009D01*
X90446381Y-92358532D01*
X90378742Y-92366439D01*
X90313160Y-92383928D01*
X90270668Y-92402615D01*
X90230603Y-92427876D01*
X90197701Y-92454668D01*
X90184276Y-92469947D01*
X90170104Y-92512744D01*
X90068346Y-92512744D01*
X90068234Y-92496742D01*
X90090415Y-92432149D01*
X90133887Y-92374126D01*
X90197279Y-92324468D01*
X90279216Y-92284971D01*
X90378327Y-92257429D01*
X90385680Y-92256031D01*
X90475581Y-92250856D01*
X90561183Y-92267443D01*
X90638306Y-92303685D01*
X90702768Y-92357473D01*
X90750388Y-92426701D01*
X90758213Y-92443851D01*
X90774643Y-92472486D01*
X90790483Y-92482330D01*
X90792720Y-92481795D01*
X90849853Y-92457825D01*
X90900474Y-92434787D01*
X90939853Y-92415006D01*
X90963260Y-92400806D01*
X90967677Y-92395803D01*
X90963023Y-92379197D01*
X90951145Y-92347871D01*
X90942239Y-92326456D01*
X90927198Y-92285516D01*
X90918069Y-92249384D01*
X90916800Y-92237077D01*
X90916708Y-92227822D01*
X90917131Y-92219173D01*
X90919121Y-92210598D01*
X90923728Y-92201563D01*
X90932002Y-92191535D01*
X90944996Y-92179980D01*
X90963758Y-92166366D01*
X90989341Y-92150159D01*
X91022795Y-92130826D01*
X91065170Y-92107833D01*
X91117517Y-92080647D01*
X91180888Y-92048735D01*
X91256333Y-92011563D01*
X91344902Y-91968599D01*
X91447646Y-91919308D01*
X91565616Y-91863158D01*
X91699864Y-91799616D01*
X91851438Y-91728147D01*
X92021392Y-91648219D01*
X92210774Y-91559299D01*
X92420636Y-91460852D01*
X92652028Y-91352347D01*
X92756158Y-91303519D01*
X93279091Y-91058303D01*
X93357134Y-90944923D01*
X93389113Y-90896742D01*
X93414751Y-90854838D01*
X93430993Y-90824408D01*
X93435178Y-90812043D01*
X93429586Y-90787770D01*
X93416029Y-90755535D01*
X93415064Y-90753648D01*
X93400651Y-90715651D01*
X93403303Y-90685086D01*
X93425258Y-90658307D01*
X93468755Y-90631670D01*
X93498677Y-90617536D01*
X93557293Y-90593060D01*
X93598364Y-90580777D01*
X93626300Y-90580036D01*
X93645512Y-90590184D01*
X93650155Y-90595158D01*
X93660320Y-90612670D01*
X93678342Y-90648852D01*
X93701985Y-90699026D01*
X93729014Y-90758511D01*
X93739788Y-90782764D01*
X93767072Y-90842565D01*
X93791679Y-90892770D01*
X93811501Y-90929353D01*
X93824429Y-90948288D01*
X93827368Y-90949997D01*
X93841314Y-90944460D01*
X93876113Y-90929759D01*
X93929322Y-90906952D01*
X93998497Y-90877095D01*
X94081197Y-90841243D01*
X94174978Y-90800452D01*
X94277398Y-90755779D01*
X94346628Y-90725518D01*
X94558031Y-90633030D01*
X94747365Y-90550206D01*
X94915874Y-90476525D01*
X95064799Y-90411467D01*
X95195385Y-90354512D01*
X95308873Y-90305141D01*
X95406507Y-90262834D01*
X95489529Y-90227071D01*
X95559182Y-90197332D01*
X95616709Y-90173097D01*
X95663352Y-90153847D01*
X95700355Y-90139062D01*
X95728959Y-90128221D01*
X95750409Y-90120806D01*
X95765946Y-90116296D01*
X95776813Y-90114172D01*
X95784254Y-90113913D01*
X95789511Y-90115000D01*
X95793826Y-90116913D01*
X95797434Y-90118688D01*
X95822529Y-90139465D01*
X95844143Y-90172186D01*
X95846275Y-90176960D01*
X95860740Y-90205661D01*
X95873178Y-90220767D01*
X95875279Y-90221448D01*
X95889582Y-90216501D01*
X95923427Y-90202700D01*
X95973149Y-90181603D01*
X96035083Y-90154770D01*
X96105562Y-90123760D01*
X96119951Y-90117376D01*
X96203844Y-90080533D01*
X96268716Y-90053260D01*
X96318514Y-90034193D01*
X96357188Y-90021971D01*
X96388686Y-90015233D01*
X96416955Y-90012616D01*
X96424161Y-90012444D01*
X96464330Y-90012944D01*
G37*
X96464330Y-90012944D02*
X96484970Y-90017138D01*
X96491943Y-90027148D01*
X96491989Y-90037022D01*
X96485614Y-90056742D01*
X96468264Y-90077551D01*
X96437680Y-90100819D01*
X96391603Y-90127918D01*
X96327771Y-90160220D01*
X96243924Y-90199097D01*
X96173227Y-90230468D01*
X96089163Y-90267787D01*
X96026243Y-90296962D01*
X95982001Y-90319321D01*
X95953970Y-90336189D01*
X95939685Y-90348893D01*
X95936533Y-90357766D01*
X95940305Y-90385492D01*
X95946729Y-90422535D01*
X95947377Y-90425920D01*
X95949751Y-90465400D01*
X95937568Y-90490001D01*
X95923277Y-90497843D01*
X95887412Y-90515015D01*
X95831739Y-90540727D01*
X95758023Y-90574190D01*
X95668030Y-90614617D01*
X95563526Y-90661218D01*
X95446276Y-90713205D01*
X95318046Y-90769789D01*
X95180602Y-90830182D01*
X95035709Y-90893595D01*
X94957226Y-90927843D01*
X94809656Y-90992288D01*
X94668986Y-91053945D01*
X94536938Y-91112048D01*
X94415233Y-91165827D01*
X94305594Y-91214514D01*
X94209741Y-91257342D01*
X94129397Y-91293542D01*
X94066283Y-91322346D01*
X94022121Y-91342986D01*
X93998632Y-91354695D01*
X93995150Y-91357045D01*
X93999848Y-91371621D01*
X94013017Y-91405190D01*
X94032900Y-91453455D01*
X94057744Y-91512116D01*
X94071678Y-91544467D01*
X94103491Y-91618963D01*
X94124675Y-91674170D01*
X94134899Y-91714060D01*
X94133828Y-91742605D01*
X94121131Y-91763779D01*
X94096473Y-91781554D01*
X94059522Y-91799902D01*
X94049891Y-91804328D01*
X93987668Y-91830949D01*
X93942914Y-91843962D01*
X93911138Y-91842596D01*
X93887849Y-91826084D01*
X93868557Y-91793657D01*
X93859192Y-91771698D01*
X93843619Y-91740116D01*
X93828482Y-91720526D01*
X93825210Y-91718506D01*
X93806958Y-91714656D01*
X93769423Y-91708774D01*
X93718590Y-91701750D01*
X93675774Y-91696319D01*
X93541340Y-91679889D01*
X93332450Y-91760043D01*
X93171112Y-91822549D01*
X92990697Y-91893520D01*
X92795445Y-91971252D01*
X92589595Y-92054041D01*
X92377386Y-92140184D01*
X92163060Y-92227976D01*
X91985203Y-92301455D01*
X91824798Y-92368041D01*
X91686257Y-92425593D01*
X91567906Y-92474722D01*
X91468071Y-92516040D01*
X91385076Y-92550155D01*
X91317248Y-92577678D01*
X91262911Y-92599221D01*
X91220391Y-92615393D01*
X91188013Y-92626805D01*
X91164103Y-92634067D01*
X91146986Y-92637790D01*
X91134987Y-92638583D01*
X91126432Y-92637059D01*
X91119646Y-92633826D01*
X91112954Y-92629496D01*
X91104682Y-92624679D01*
X91102013Y-92623398D01*
X91077186Y-92603283D01*
X91051895Y-92569531D01*
X91042760Y-92552856D01*
X91025496Y-92521320D01*
X91011488Y-92502907D01*
X91006709Y-92500756D01*
X90941057Y-92529429D01*
X90881265Y-92557781D01*
X90831431Y-92583650D01*
X90795653Y-92604871D01*
X90778028Y-92619284D01*
X90776891Y-92622058D01*
X90768769Y-92653825D01*
X90747333Y-92696802D01*
X90716973Y-92743933D01*
X90682082Y-92788165D01*
X90658074Y-92812926D01*
X90625583Y-92837262D01*
X90573055Y-92869798D01*
X90503888Y-92908839D01*
X90421478Y-92952688D01*
X90329223Y-92999649D01*
X90230521Y-93048026D01*
X90128768Y-93096123D01*
X90027362Y-93142243D01*
X89929700Y-93184691D01*
X89839179Y-93221771D01*
X89839054Y-93221821D01*
X89775298Y-93246951D01*
X89755821Y-93197367D01*
X89744398Y-93165856D01*
X89743799Y-93150037D01*
X89755089Y-93142110D01*
X89763753Y-93139221D01*
X89793139Y-93128217D01*
X89841626Y-93107954D01*
X89905373Y-93080167D01*
X89980541Y-93046589D01*
X90063289Y-93008955D01*
X90149778Y-92968999D01*
X90236168Y-92928455D01*
X90318619Y-92889057D01*
X90331723Y-92882717D01*
X90430001Y-92832864D01*
X90511036Y-92787151D01*
X90573296Y-92746607D01*
X90615253Y-92712262D01*
X90635375Y-92685146D01*
X90636981Y-92677197D01*
X90626115Y-92676025D01*
X90597452Y-92682686D01*
X90556890Y-92695763D01*
X90551308Y-92697766D01*
X90438532Y-92733985D01*
X90343588Y-92753728D01*
X90264736Y-92756768D01*
X90200237Y-92742882D01*
X90148351Y-92711844D01*
X90107340Y-92663429D01*
X90093240Y-92638455D01*
X90068718Y-92566109D01*
X90068346Y-92512744D01*
X90170104Y-92512744D01*
X90174403Y-92561941D01*
X90195791Y-92608034D01*
X90206245Y-92620819D01*
X90245842Y-92644421D01*
X90304122Y-92650924D01*
X90380938Y-92640332D01*
X90472426Y-92613932D01*
X90547598Y-92587776D01*
X90601740Y-92567684D01*
X90638008Y-92551837D01*
X90659559Y-92538417D01*
X90669549Y-92525605D01*
X90671134Y-92511585D01*
X90669080Y-92500667D01*
X90649181Y-92459614D01*
X90613070Y-92417354D01*
X90568165Y-92382097D01*
X90555171Y-92374673D01*
X90507912Y-92361009D01*
X90446381Y-92358532D01*
X90378742Y-92366439D01*
X90313160Y-92383928D01*
X90270668Y-92402615D01*
X90230603Y-92427876D01*
X90197701Y-92454668D01*
X90184276Y-92469947D01*
X90170104Y-92512744D01*
X90068346Y-92512744D01*
X90068234Y-92496742D01*
X90090415Y-92432149D01*
X90133887Y-92374126D01*
X90197279Y-92324468D01*
X90279216Y-92284971D01*
X90378327Y-92257429D01*
X90385680Y-92256031D01*
X90475581Y-92250856D01*
X90561183Y-92267443D01*
X90638306Y-92303685D01*
X90702768Y-92357473D01*
X90750388Y-92426701D01*
X90758213Y-92443851D01*
X90774643Y-92472486D01*
X90790483Y-92482330D01*
X90792720Y-92481795D01*
X90849853Y-92457825D01*
X90900474Y-92434787D01*
X90939853Y-92415006D01*
X90963260Y-92400806D01*
X90967677Y-92395803D01*
X90963023Y-92379197D01*
X90951145Y-92347871D01*
X90942239Y-92326456D01*
X90927198Y-92285516D01*
X90918069Y-92249384D01*
X90916800Y-92237077D01*
X90916708Y-92227822D01*
X90917131Y-92219173D01*
X90919121Y-92210598D01*
X90923728Y-92201563D01*
X90932002Y-92191535D01*
X90944996Y-92179980D01*
X90963758Y-92166366D01*
X90989341Y-92150159D01*
X91022795Y-92130826D01*
X91065170Y-92107833D01*
X91117517Y-92080647D01*
X91180888Y-92048735D01*
X91256333Y-92011563D01*
X91344902Y-91968599D01*
X91447646Y-91919308D01*
X91565616Y-91863158D01*
X91699864Y-91799616D01*
X91851438Y-91728147D01*
X92021392Y-91648219D01*
X92210774Y-91559299D01*
X92420636Y-91460852D01*
X92652028Y-91352347D01*
X92756158Y-91303519D01*
X93279091Y-91058303D01*
X93357134Y-90944923D01*
X93389113Y-90896742D01*
X93414751Y-90854838D01*
X93430993Y-90824408D01*
X93435178Y-90812043D01*
X93429586Y-90787770D01*
X93416029Y-90755535D01*
X93415064Y-90753648D01*
X93400651Y-90715651D01*
X93403303Y-90685086D01*
X93425258Y-90658307D01*
X93468755Y-90631670D01*
X93498677Y-90617536D01*
X93557293Y-90593060D01*
X93598364Y-90580777D01*
X93626300Y-90580036D01*
X93645512Y-90590184D01*
X93650155Y-90595158D01*
X93660320Y-90612670D01*
X93678342Y-90648852D01*
X93701985Y-90699026D01*
X93729014Y-90758511D01*
X93739788Y-90782764D01*
X93767072Y-90842565D01*
X93791679Y-90892770D01*
X93811501Y-90929353D01*
X93824429Y-90948288D01*
X93827368Y-90949997D01*
X93841314Y-90944460D01*
X93876113Y-90929759D01*
X93929322Y-90906952D01*
X93998497Y-90877095D01*
X94081197Y-90841243D01*
X94174978Y-90800452D01*
X94277398Y-90755779D01*
X94346628Y-90725518D01*
X94558031Y-90633030D01*
X94747365Y-90550206D01*
X94915874Y-90476525D01*
X95064799Y-90411467D01*
X95195385Y-90354512D01*
X95308873Y-90305141D01*
X95406507Y-90262834D01*
X95489529Y-90227071D01*
X95559182Y-90197332D01*
X95616709Y-90173097D01*
X95663352Y-90153847D01*
X95700355Y-90139062D01*
X95728959Y-90128221D01*
X95750409Y-90120806D01*
X95765946Y-90116296D01*
X95776813Y-90114172D01*
X95784254Y-90113913D01*
X95789511Y-90115000D01*
X95793826Y-90116913D01*
X95797434Y-90118688D01*
X95822529Y-90139465D01*
X95844143Y-90172186D01*
X95846275Y-90176960D01*
X95860740Y-90205661D01*
X95873178Y-90220767D01*
X95875279Y-90221448D01*
X95889582Y-90216501D01*
X95923427Y-90202700D01*
X95973149Y-90181603D01*
X96035083Y-90154770D01*
X96105562Y-90123760D01*
X96119951Y-90117376D01*
X96203844Y-90080533D01*
X96268716Y-90053260D01*
X96318514Y-90034193D01*
X96357188Y-90021971D01*
X96388686Y-90015233D01*
X96416955Y-90012616D01*
X96424161Y-90012444D01*
X96464330Y-90012944D01*
G36*
X93150241Y-91938986D02*
G01*
X93185548Y-91952537D01*
X93240252Y-91974106D01*
X93312288Y-92002864D01*
X93399592Y-92037980D01*
X93500099Y-92078623D01*
X93611745Y-92123964D01*
X93732467Y-92173171D01*
X93860200Y-92225414D01*
X93868813Y-92228943D01*
X94017453Y-92289805D01*
X94144521Y-92341680D01*
X94251961Y-92385284D01*
X94341717Y-92421332D01*
X94415731Y-92450538D01*
X94475947Y-92473620D01*
X94524310Y-92491292D01*
X94562762Y-92504269D01*
X94593246Y-92513268D01*
X94617707Y-92519003D01*
X94638088Y-92522191D01*
X94656332Y-92523546D01*
X94669744Y-92523790D01*
X94729903Y-92527146D01*
X94794865Y-92535538D01*
X94829394Y-92542323D01*
X94872170Y-92554089D01*
X94924659Y-92570945D01*
X94980737Y-92590619D01*
X95034282Y-92610836D01*
X95079168Y-92629322D01*
X95109273Y-92643802D01*
X95117341Y-92649264D01*
X95115852Y-92663129D01*
X95106456Y-92695143D01*
X95091165Y-92740028D01*
X95071993Y-92792509D01*
X95050952Y-92847309D01*
X95030055Y-92899151D01*
X95011315Y-92942761D01*
X94996745Y-92972861D01*
X94989932Y-92983239D01*
X94975305Y-92981931D01*
X94942618Y-92971553D01*
X94896826Y-92953866D01*
X94846996Y-92932478D01*
X94735852Y-92878638D01*
X94647314Y-92826526D01*
X94578774Y-92774501D01*
X94547372Y-92743953D01*
X94536438Y-92734235D01*
X94519368Y-92722728D01*
X94494519Y-92708707D01*
X94460249Y-92691447D01*
X94414918Y-92670223D01*
X94356881Y-92644311D01*
X94284499Y-92612986D01*
X94196128Y-92575522D01*
X94090126Y-92531195D01*
X93964853Y-92479280D01*
X93818665Y-92419052D01*
X93714272Y-92376178D01*
X93579125Y-92320737D01*
X93450513Y-92267997D01*
X93330434Y-92218776D01*
X93220882Y-92173892D01*
X93123856Y-92134162D01*
X93041350Y-92100404D01*
X92975363Y-92073435D01*
X92927890Y-92054071D01*
X92900928Y-92043132D01*
X92895704Y-92041054D01*
X92890216Y-92034620D01*
X92901692Y-92024490D01*
X92932400Y-92009366D01*
X92984609Y-91987953D01*
X92997200Y-91983046D01*
X93050300Y-91962935D01*
X93095025Y-91946857D01*
X93125815Y-91936760D01*
X93136393Y-91934284D01*
X93150241Y-91938986D01*
G37*
X93150241Y-91938986D02*
X93185548Y-91952537D01*
X93240252Y-91974106D01*
X93312288Y-92002864D01*
X93399592Y-92037980D01*
X93500099Y-92078623D01*
X93611745Y-92123964D01*
X93732467Y-92173171D01*
X93860200Y-92225414D01*
X93868813Y-92228943D01*
X94017453Y-92289805D01*
X94144521Y-92341680D01*
X94251961Y-92385284D01*
X94341717Y-92421332D01*
X94415731Y-92450538D01*
X94475947Y-92473620D01*
X94524310Y-92491292D01*
X94562762Y-92504269D01*
X94593246Y-92513268D01*
X94617707Y-92519003D01*
X94638088Y-92522191D01*
X94656332Y-92523546D01*
X94669744Y-92523790D01*
X94729903Y-92527146D01*
X94794865Y-92535538D01*
X94829394Y-92542323D01*
X94872170Y-92554089D01*
X94924659Y-92570945D01*
X94980737Y-92590619D01*
X95034282Y-92610836D01*
X95079168Y-92629322D01*
X95109273Y-92643802D01*
X95117341Y-92649264D01*
X95115852Y-92663129D01*
X95106456Y-92695143D01*
X95091165Y-92740028D01*
X95071993Y-92792509D01*
X95050952Y-92847309D01*
X95030055Y-92899151D01*
X95011315Y-92942761D01*
X94996745Y-92972861D01*
X94989932Y-92983239D01*
X94975305Y-92981931D01*
X94942618Y-92971553D01*
X94896826Y-92953866D01*
X94846996Y-92932478D01*
X94735852Y-92878638D01*
X94647314Y-92826526D01*
X94578774Y-92774501D01*
X94547372Y-92743953D01*
X94536438Y-92734235D01*
X94519368Y-92722728D01*
X94494519Y-92708707D01*
X94460249Y-92691447D01*
X94414918Y-92670223D01*
X94356881Y-92644311D01*
X94284499Y-92612986D01*
X94196128Y-92575522D01*
X94090126Y-92531195D01*
X93964853Y-92479280D01*
X93818665Y-92419052D01*
X93714272Y-92376178D01*
X93579125Y-92320737D01*
X93450513Y-92267997D01*
X93330434Y-92218776D01*
X93220882Y-92173892D01*
X93123856Y-92134162D01*
X93041350Y-92100404D01*
X92975363Y-92073435D01*
X92927890Y-92054071D01*
X92900928Y-92043132D01*
X92895704Y-92041054D01*
X92890216Y-92034620D01*
X92901692Y-92024490D01*
X92932400Y-92009366D01*
X92984609Y-91987953D01*
X92997200Y-91983046D01*
X93050300Y-91962935D01*
X93095025Y-91946857D01*
X93125815Y-91936760D01*
X93136393Y-91934284D01*
X93150241Y-91938986D01*
G36*
X89048368Y-89943347D02*
G01*
X89067603Y-89945387D01*
X89090545Y-89950071D01*
X89119371Y-89958168D01*
X89156264Y-89970447D01*
X89203404Y-89987677D01*
X89262971Y-90010626D01*
X89337144Y-90040065D01*
X89428105Y-90076761D01*
X89538034Y-90121484D01*
X89669112Y-90175003D01*
X89683086Y-90180713D01*
X89812261Y-90233486D01*
X89945206Y-90287785D01*
X90077873Y-90341957D01*
X90206214Y-90394349D01*
X90326181Y-90443310D01*
X90433726Y-90487188D01*
X90524800Y-90524328D01*
X90579745Y-90546721D01*
X90662873Y-90580795D01*
X90738617Y-90612239D01*
X90803652Y-90639640D01*
X90854655Y-90661586D01*
X90888303Y-90676667D01*
X90900902Y-90683126D01*
X90914783Y-90705336D01*
X90916800Y-90717919D01*
X90927023Y-90742134D01*
X90952148Y-90769621D01*
X90983863Y-90793256D01*
X91013855Y-90805913D01*
X91020161Y-90806526D01*
X91049020Y-90800783D01*
X91082895Y-90787061D01*
X91117098Y-90774909D01*
X91144326Y-90780344D01*
X91145567Y-90780993D01*
X91178774Y-90809272D01*
X91194107Y-90850115D01*
X91191666Y-90905251D01*
X91171552Y-90976409D01*
X91158829Y-91009144D01*
X91121038Y-91100788D01*
X91187447Y-91129658D01*
X91214497Y-91141086D01*
X91261968Y-91160780D01*
X91326710Y-91187448D01*
X91405571Y-91219797D01*
X91495398Y-91256533D01*
X91593040Y-91296364D01*
X91689159Y-91335481D01*
X91787890Y-91375806D01*
X91878791Y-91413298D01*
X91959259Y-91446857D01*
X92026691Y-91475380D01*
X92078485Y-91497767D01*
X92112037Y-91512916D01*
X92124745Y-91519724D01*
X92124788Y-91519838D01*
X92114010Y-91527624D01*
X92084678Y-91542730D01*
X92041730Y-91562720D01*
X92006857Y-91578037D01*
X91888600Y-91628832D01*
X91475835Y-91459351D01*
X91379472Y-91419987D01*
X91290529Y-91384045D01*
X91211748Y-91352603D01*
X91145866Y-91326736D01*
X91095625Y-91307522D01*
X91063765Y-91296038D01*
X91053133Y-91293172D01*
X91043875Y-91305594D01*
X91027771Y-91335866D01*
X91007741Y-91378347D01*
X90999887Y-91396101D01*
X90977265Y-91444093D01*
X90955178Y-91484141D01*
X90937476Y-91509447D01*
X90933510Y-91513215D01*
X90901985Y-91527528D01*
X90865164Y-91531404D01*
X90831101Y-91525816D01*
X90807853Y-91511736D01*
X90802329Y-91497377D01*
X90793892Y-91477115D01*
X90772876Y-91449637D01*
X90765150Y-91441502D01*
X90721486Y-91411345D01*
X90673986Y-91405903D01*
X90632030Y-91418714D01*
X90627239Y-91421398D01*
X90623324Y-91423902D01*
X90618889Y-91425687D01*
X90612539Y-91426216D01*
X90602877Y-91424949D01*
X90588508Y-91421348D01*
X90568037Y-91414874D01*
X90540068Y-91404989D01*
X90503205Y-91391155D01*
X90456052Y-91372832D01*
X90397214Y-91349483D01*
X90325295Y-91320569D01*
X90238900Y-91285551D01*
X90136633Y-91243890D01*
X90017098Y-91195049D01*
X89878899Y-91138489D01*
X89720642Y-91073670D01*
X89540929Y-91000056D01*
X89441686Y-90959411D01*
X89275649Y-90891079D01*
X89133016Y-90831647D01*
X89013420Y-90780955D01*
X88916495Y-90738842D01*
X88841876Y-90705148D01*
X88789194Y-90679712D01*
X88758085Y-90662374D01*
X88750511Y-90656696D01*
X88715393Y-90615497D01*
X88686778Y-90567700D01*
X88669413Y-90522221D01*
X88669325Y-90521533D01*
X88939319Y-90521533D01*
X88944989Y-90538853D01*
X88958204Y-90546344D01*
X88992759Y-90562403D01*
X89046398Y-90586101D01*
X89116861Y-90616510D01*
X89201892Y-90652700D01*
X89299231Y-90693744D01*
X89406621Y-90738714D01*
X89521804Y-90786680D01*
X89642521Y-90836713D01*
X89766515Y-90887887D01*
X89891526Y-90939271D01*
X90015299Y-90989939D01*
X90135573Y-91038960D01*
X90250092Y-91085406D01*
X90356596Y-91128350D01*
X90452828Y-91166862D01*
X90536531Y-91200015D01*
X90605445Y-91226879D01*
X90657312Y-91246526D01*
X90689875Y-91258027D01*
X90700576Y-91260731D01*
X90715521Y-91247174D01*
X90719655Y-91227142D01*
X90718473Y-91220871D01*
X90713880Y-91213980D01*
X90704301Y-91205770D01*
X90688161Y-91195541D01*
X90663887Y-91182593D01*
X90629904Y-91166226D01*
X90584638Y-91145740D01*
X90526515Y-91120435D01*
X90453960Y-91089611D01*
X90365399Y-91052569D01*
X90259259Y-91008608D01*
X90133965Y-90957028D01*
X89987942Y-90897130D01*
X89854757Y-90842594D01*
X89713796Y-90785015D01*
X89579415Y-90730344D01*
X89453511Y-90679339D01*
X89337979Y-90632758D01*
X89234716Y-90591357D01*
X89145618Y-90555896D01*
X89072580Y-90527132D01*
X89017498Y-90505822D01*
X88982270Y-90492725D01*
X88968962Y-90488579D01*
X88946704Y-90498522D01*
X88939319Y-90521533D01*
X88669325Y-90521533D01*
X88666389Y-90498595D01*
X88671418Y-90478215D01*
X88684926Y-90438551D01*
X88705375Y-90383706D01*
X88731233Y-90317780D01*
X88760962Y-90244876D01*
X88762411Y-90241393D01*
X88881748Y-90241393D01*
X88889251Y-90266276D01*
X88910386Y-90270982D01*
X88943092Y-90255357D01*
X88954592Y-90246887D01*
X88995484Y-90227180D01*
X89034524Y-90221448D01*
X89048701Y-90223594D01*
X89073057Y-90230300D01*
X89108607Y-90241967D01*
X89156367Y-90258999D01*
X89217353Y-90281797D01*
X89292582Y-90310763D01*
X89383069Y-90346300D01*
X89489830Y-90388810D01*
X89613881Y-90438696D01*
X89756237Y-90496358D01*
X89917916Y-90562200D01*
X90099932Y-90636624D01*
X90303302Y-90720032D01*
X90529042Y-90812826D01*
X90547947Y-90820605D01*
X90626580Y-90852509D01*
X90698021Y-90880637D01*
X90758713Y-90903656D01*
X90805095Y-90920234D01*
X90833607Y-90929039D01*
X90840486Y-90930072D01*
X90855421Y-90916514D01*
X90859565Y-90896632D01*
X90858188Y-90888991D01*
X90852750Y-90880872D01*
X90841284Y-90871362D01*
X90821827Y-90859547D01*
X90792412Y-90844515D01*
X90751077Y-90825352D01*
X90695855Y-90801146D01*
X90624782Y-90770984D01*
X90535893Y-90733951D01*
X90427223Y-90689135D01*
X90306285Y-90639507D01*
X90110536Y-90559297D01*
X89936908Y-90488203D01*
X89783987Y-90425683D01*
X89650358Y-90371197D01*
X89534609Y-90324202D01*
X89435325Y-90284158D01*
X89351094Y-90250523D01*
X89280500Y-90222757D01*
X89222132Y-90200318D01*
X89174574Y-90182665D01*
X89136414Y-90169256D01*
X89106237Y-90159552D01*
X89082630Y-90153009D01*
X89064180Y-90149088D01*
X89049472Y-90147246D01*
X89037094Y-90146943D01*
X89025631Y-90147638D01*
X89022293Y-90147947D01*
X88967196Y-90159964D01*
X88921822Y-90182442D01*
X88891574Y-90211790D01*
X88881748Y-90241393D01*
X88762411Y-90241393D01*
X88764962Y-90235265D01*
X88802557Y-90146252D01*
X88833227Y-90078021D01*
X88859410Y-90027703D01*
X88883544Y-89992430D01*
X88908068Y-89969330D01*
X88935418Y-89955534D01*
X88968032Y-89948173D01*
X89008349Y-89944377D01*
X89012292Y-89944121D01*
X89030657Y-89943181D01*
X89048368Y-89943347D01*
G37*
X89048368Y-89943347D02*
X89067603Y-89945387D01*
X89090545Y-89950071D01*
X89119371Y-89958168D01*
X89156264Y-89970447D01*
X89203404Y-89987677D01*
X89262971Y-90010626D01*
X89337144Y-90040065D01*
X89428105Y-90076761D01*
X89538034Y-90121484D01*
X89669112Y-90175003D01*
X89683086Y-90180713D01*
X89812261Y-90233486D01*
X89945206Y-90287785D01*
X90077873Y-90341957D01*
X90206214Y-90394349D01*
X90326181Y-90443310D01*
X90433726Y-90487188D01*
X90524800Y-90524328D01*
X90579745Y-90546721D01*
X90662873Y-90580795D01*
X90738617Y-90612239D01*
X90803652Y-90639640D01*
X90854655Y-90661586D01*
X90888303Y-90676667D01*
X90900902Y-90683126D01*
X90914783Y-90705336D01*
X90916800Y-90717919D01*
X90927023Y-90742134D01*
X90952148Y-90769621D01*
X90983863Y-90793256D01*
X91013855Y-90805913D01*
X91020161Y-90806526D01*
X91049020Y-90800783D01*
X91082895Y-90787061D01*
X91117098Y-90774909D01*
X91144326Y-90780344D01*
X91145567Y-90780993D01*
X91178774Y-90809272D01*
X91194107Y-90850115D01*
X91191666Y-90905251D01*
X91171552Y-90976409D01*
X91158829Y-91009144D01*
X91121038Y-91100788D01*
X91187447Y-91129658D01*
X91214497Y-91141086D01*
X91261968Y-91160780D01*
X91326710Y-91187448D01*
X91405571Y-91219797D01*
X91495398Y-91256533D01*
X91593040Y-91296364D01*
X91689159Y-91335481D01*
X91787890Y-91375806D01*
X91878791Y-91413298D01*
X91959259Y-91446857D01*
X92026691Y-91475380D01*
X92078485Y-91497767D01*
X92112037Y-91512916D01*
X92124745Y-91519724D01*
X92124788Y-91519838D01*
X92114010Y-91527624D01*
X92084678Y-91542730D01*
X92041730Y-91562720D01*
X92006857Y-91578037D01*
X91888600Y-91628832D01*
X91475835Y-91459351D01*
X91379472Y-91419987D01*
X91290529Y-91384045D01*
X91211748Y-91352603D01*
X91145866Y-91326736D01*
X91095625Y-91307522D01*
X91063765Y-91296038D01*
X91053133Y-91293172D01*
X91043875Y-91305594D01*
X91027771Y-91335866D01*
X91007741Y-91378347D01*
X90999887Y-91396101D01*
X90977265Y-91444093D01*
X90955178Y-91484141D01*
X90937476Y-91509447D01*
X90933510Y-91513215D01*
X90901985Y-91527528D01*
X90865164Y-91531404D01*
X90831101Y-91525816D01*
X90807853Y-91511736D01*
X90802329Y-91497377D01*
X90793892Y-91477115D01*
X90772876Y-91449637D01*
X90765150Y-91441502D01*
X90721486Y-91411345D01*
X90673986Y-91405903D01*
X90632030Y-91418714D01*
X90627239Y-91421398D01*
X90623324Y-91423902D01*
X90618889Y-91425687D01*
X90612539Y-91426216D01*
X90602877Y-91424949D01*
X90588508Y-91421348D01*
X90568037Y-91414874D01*
X90540068Y-91404989D01*
X90503205Y-91391155D01*
X90456052Y-91372832D01*
X90397214Y-91349483D01*
X90325295Y-91320569D01*
X90238900Y-91285551D01*
X90136633Y-91243890D01*
X90017098Y-91195049D01*
X89878899Y-91138489D01*
X89720642Y-91073670D01*
X89540929Y-91000056D01*
X89441686Y-90959411D01*
X89275649Y-90891079D01*
X89133016Y-90831647D01*
X89013420Y-90780955D01*
X88916495Y-90738842D01*
X88841876Y-90705148D01*
X88789194Y-90679712D01*
X88758085Y-90662374D01*
X88750511Y-90656696D01*
X88715393Y-90615497D01*
X88686778Y-90567700D01*
X88669413Y-90522221D01*
X88669325Y-90521533D01*
X88939319Y-90521533D01*
X88944989Y-90538853D01*
X88958204Y-90546344D01*
X88992759Y-90562403D01*
X89046398Y-90586101D01*
X89116861Y-90616510D01*
X89201892Y-90652700D01*
X89299231Y-90693744D01*
X89406621Y-90738714D01*
X89521804Y-90786680D01*
X89642521Y-90836713D01*
X89766515Y-90887887D01*
X89891526Y-90939271D01*
X90015299Y-90989939D01*
X90135573Y-91038960D01*
X90250092Y-91085406D01*
X90356596Y-91128350D01*
X90452828Y-91166862D01*
X90536531Y-91200015D01*
X90605445Y-91226879D01*
X90657312Y-91246526D01*
X90689875Y-91258027D01*
X90700576Y-91260731D01*
X90715521Y-91247174D01*
X90719655Y-91227142D01*
X90718473Y-91220871D01*
X90713880Y-91213980D01*
X90704301Y-91205770D01*
X90688161Y-91195541D01*
X90663887Y-91182593D01*
X90629904Y-91166226D01*
X90584638Y-91145740D01*
X90526515Y-91120435D01*
X90453960Y-91089611D01*
X90365399Y-91052569D01*
X90259259Y-91008608D01*
X90133965Y-90957028D01*
X89987942Y-90897130D01*
X89854757Y-90842594D01*
X89713796Y-90785015D01*
X89579415Y-90730344D01*
X89453511Y-90679339D01*
X89337979Y-90632758D01*
X89234716Y-90591357D01*
X89145618Y-90555896D01*
X89072580Y-90527132D01*
X89017498Y-90505822D01*
X88982270Y-90492725D01*
X88968962Y-90488579D01*
X88946704Y-90498522D01*
X88939319Y-90521533D01*
X88669325Y-90521533D01*
X88666389Y-90498595D01*
X88671418Y-90478215D01*
X88684926Y-90438551D01*
X88705375Y-90383706D01*
X88731233Y-90317780D01*
X88760962Y-90244876D01*
X88762411Y-90241393D01*
X88881748Y-90241393D01*
X88889251Y-90266276D01*
X88910386Y-90270982D01*
X88943092Y-90255357D01*
X88954592Y-90246887D01*
X88995484Y-90227180D01*
X89034524Y-90221448D01*
X89048701Y-90223594D01*
X89073057Y-90230300D01*
X89108607Y-90241967D01*
X89156367Y-90258999D01*
X89217353Y-90281797D01*
X89292582Y-90310763D01*
X89383069Y-90346300D01*
X89489830Y-90388810D01*
X89613881Y-90438696D01*
X89756237Y-90496358D01*
X89917916Y-90562200D01*
X90099932Y-90636624D01*
X90303302Y-90720032D01*
X90529042Y-90812826D01*
X90547947Y-90820605D01*
X90626580Y-90852509D01*
X90698021Y-90880637D01*
X90758713Y-90903656D01*
X90805095Y-90920234D01*
X90833607Y-90929039D01*
X90840486Y-90930072D01*
X90855421Y-90916514D01*
X90859565Y-90896632D01*
X90858188Y-90888991D01*
X90852750Y-90880872D01*
X90841284Y-90871362D01*
X90821827Y-90859547D01*
X90792412Y-90844515D01*
X90751077Y-90825352D01*
X90695855Y-90801146D01*
X90624782Y-90770984D01*
X90535893Y-90733951D01*
X90427223Y-90689135D01*
X90306285Y-90639507D01*
X90110536Y-90559297D01*
X89936908Y-90488203D01*
X89783987Y-90425683D01*
X89650358Y-90371197D01*
X89534609Y-90324202D01*
X89435325Y-90284158D01*
X89351094Y-90250523D01*
X89280500Y-90222757D01*
X89222132Y-90200318D01*
X89174574Y-90182665D01*
X89136414Y-90169256D01*
X89106237Y-90159552D01*
X89082630Y-90153009D01*
X89064180Y-90149088D01*
X89049472Y-90147246D01*
X89037094Y-90146943D01*
X89025631Y-90147638D01*
X89022293Y-90147947D01*
X88967196Y-90159964D01*
X88921822Y-90182442D01*
X88891574Y-90211790D01*
X88881748Y-90241393D01*
X88762411Y-90241393D01*
X88764962Y-90235265D01*
X88802557Y-90146252D01*
X88833227Y-90078021D01*
X88859410Y-90027703D01*
X88883544Y-89992430D01*
X88908068Y-89969330D01*
X88935418Y-89955534D01*
X88968032Y-89948173D01*
X89008349Y-89944377D01*
X89012292Y-89944121D01*
X89030657Y-89943181D01*
X89048368Y-89943347D01*
G36*
X91422705Y-86353740D02*
G01*
X91545969Y-86366665D01*
X91616350Y-86379072D01*
X91771152Y-86420414D01*
X91920674Y-86476478D01*
X92057287Y-86544183D01*
X92120040Y-86582537D01*
X92220081Y-86655776D01*
X92305695Y-86735732D01*
X92384065Y-86829609D01*
X92427183Y-86890527D01*
X92478044Y-86957824D01*
X92528065Y-87008705D01*
X92551102Y-87026250D01*
X92597953Y-87051890D01*
X92646077Y-87069462D01*
X92688718Y-87077300D01*
X92719118Y-87073741D01*
X92725818Y-87069296D01*
X92734324Y-87047524D01*
X92723191Y-87027380D01*
X92697476Y-87016595D01*
X92691103Y-87016241D01*
X92630478Y-87003827D01*
X92569735Y-86967524D01*
X92527141Y-86927119D01*
X92502571Y-86898848D01*
X92490876Y-86878386D01*
X92494167Y-86861518D01*
X92514556Y-86844028D01*
X92554154Y-86821698D01*
X92588909Y-86803764D01*
X92737487Y-86740602D01*
X92899867Y-86694942D01*
X93071081Y-86667116D01*
X93246161Y-86657455D01*
X93420140Y-86666292D01*
X93588050Y-86693959D01*
X93711472Y-86728776D01*
X93849153Y-86784742D01*
X93968717Y-86851615D01*
X94069509Y-86927776D01*
X94150874Y-87011607D01*
X94212155Y-87101488D01*
X94252697Y-87195801D01*
X94271845Y-87292926D01*
X94268943Y-87391245D01*
X94243334Y-87489138D01*
X94194364Y-87584986D01*
X94121377Y-87677170D01*
X94103072Y-87695780D01*
X94009482Y-87774553D01*
X93901915Y-87843072D01*
X93786825Y-87898233D01*
X93670664Y-87936933D01*
X93562369Y-87955866D01*
X93513375Y-87960693D01*
X93484610Y-87966249D01*
X93470889Y-87974349D01*
X93467026Y-87986808D01*
X93466976Y-87989250D01*
X93470610Y-88004514D01*
X93485541Y-88013043D01*
X93517813Y-88017485D01*
X93533751Y-88018533D01*
X93600526Y-88022377D01*
X93600526Y-88339025D01*
X93663412Y-88339025D01*
X93712446Y-88343405D01*
X93747627Y-88358613D01*
X93759254Y-88367643D01*
X93792211Y-88396261D01*
X93740090Y-89337473D01*
X93729622Y-89524691D01*
X93720266Y-89687899D01*
X93711922Y-89828498D01*
X93704486Y-89947886D01*
X93697858Y-90047464D01*
X93691937Y-90128630D01*
X93686620Y-90192786D01*
X93681807Y-90241329D01*
X93677395Y-90275661D01*
X93673283Y-90297180D01*
X93669782Y-90306708D01*
X93643726Y-90329242D01*
X93610162Y-90341446D01*
X93571398Y-90346097D01*
X93511314Y-90351234D01*
X93434017Y-90356631D01*
X93343615Y-90362062D01*
X93244214Y-90367302D01*
X93139923Y-90372123D01*
X93034848Y-90376301D01*
X92933098Y-90379608D01*
X92900977Y-90380470D01*
X92744369Y-90384315D01*
X92609080Y-90387357D01*
X92491004Y-90389616D01*
X92386034Y-90391117D01*
X92290066Y-90391882D01*
X92198992Y-90391933D01*
X92108707Y-90391294D01*
X92015105Y-90389987D01*
X91914080Y-90388035D01*
X91838934Y-90386348D01*
X91692792Y-90382420D01*
X91552954Y-90377674D01*
X91421814Y-90372251D01*
X91301766Y-90366296D01*
X91195205Y-90359949D01*
X91104524Y-90353353D01*
X91032119Y-90346651D01*
X90980383Y-90339986D01*
X90951862Y-90333558D01*
X90922504Y-90312763D01*
X90905725Y-90274495D01*
X90905601Y-90273996D01*
X90902983Y-90253609D01*
X90899188Y-90210047D01*
X90894359Y-90145539D01*
X90888640Y-90062313D01*
X90882173Y-89962598D01*
X90875102Y-89848624D01*
X90867568Y-89722619D01*
X90862826Y-89640588D01*
X91654507Y-89640588D01*
X91654645Y-89748659D01*
X91655163Y-89834139D01*
X91656211Y-89899872D01*
X91657944Y-89948705D01*
X91660513Y-89983483D01*
X91664072Y-90007052D01*
X91668773Y-90022256D01*
X91674769Y-90031942D01*
X91675557Y-90032841D01*
X91689601Y-90043970D01*
X91710939Y-90050958D01*
X91745010Y-90054684D01*
X91797257Y-90056029D01*
X91819395Y-90056100D01*
X91889137Y-90054404D01*
X91936479Y-90049084D01*
X91964246Y-90039795D01*
X91966873Y-90038055D01*
X91972602Y-90032988D01*
X91977391Y-90025429D01*
X91981341Y-90013179D01*
X91984553Y-89994037D01*
X91987127Y-89965802D01*
X91989165Y-89926276D01*
X91990767Y-89873256D01*
X91992034Y-89804544D01*
X91993067Y-89717938D01*
X91993968Y-89611239D01*
X91994835Y-89482246D01*
X91995223Y-89419533D01*
X91995255Y-89413787D01*
X92285609Y-89413787D01*
X92290356Y-89529104D01*
X92306134Y-89629080D01*
X92334758Y-89722085D01*
X92369219Y-89799278D01*
X92404391Y-89856451D01*
X92450579Y-89913537D01*
X92502094Y-89964848D01*
X92553245Y-90004697D01*
X92597070Y-90026999D01*
X92682739Y-90042059D01*
X92768278Y-90034267D01*
X92833827Y-90010972D01*
X92912968Y-89957843D01*
X92980859Y-89884970D01*
X93036732Y-89795787D01*
X93079817Y-89693732D01*
X93109346Y-89582237D01*
X93124550Y-89464738D01*
X93124660Y-89344670D01*
X93108908Y-89225469D01*
X93076524Y-89110568D01*
X93049623Y-89046844D01*
X92997898Y-88954944D01*
X92940357Y-88884341D01*
X92873484Y-88830997D01*
X92849048Y-88816645D01*
X92767894Y-88785456D01*
X92686466Y-88779306D01*
X92606276Y-88797856D01*
X92528836Y-88840769D01*
X92459418Y-88903549D01*
X92387282Y-88999000D01*
X92334861Y-89106574D01*
X92301513Y-89228154D01*
X92286596Y-89365626D01*
X92285609Y-89413787D01*
X91995255Y-89413787D01*
X91996016Y-89279552D01*
X91996497Y-89162805D01*
X91996602Y-89067090D01*
X91996268Y-88990205D01*
X91995433Y-88929946D01*
X91994033Y-88884111D01*
X91992006Y-88850497D01*
X91989287Y-88826902D01*
X91985815Y-88811123D01*
X91981526Y-88800958D01*
X91977353Y-88795264D01*
X91963457Y-88783986D01*
X91942852Y-88776874D01*
X91910077Y-88773038D01*
X91859674Y-88771586D01*
X91831511Y-88771474D01*
X91765740Y-88772780D01*
X91721760Y-88776998D01*
X91696041Y-88784571D01*
X91689262Y-88789412D01*
X91681435Y-88810313D01*
X91674555Y-88856031D01*
X91668645Y-88925962D01*
X91663730Y-89019502D01*
X91659835Y-89136047D01*
X91656984Y-89274991D01*
X91655203Y-89435732D01*
X91654515Y-89617664D01*
X91654507Y-89640588D01*
X90862826Y-89640588D01*
X90859717Y-89586812D01*
X90851689Y-89443431D01*
X90847981Y-89375630D01*
X90839968Y-89229061D01*
X90832182Y-89088688D01*
X90824757Y-88956787D01*
X90817825Y-88835631D01*
X90811520Y-88727497D01*
X90805975Y-88634658D01*
X90801324Y-88559389D01*
X90797700Y-88503967D01*
X90795236Y-88470664D01*
X90794550Y-88463577D01*
X90791931Y-88424123D01*
X90798082Y-88398333D01*
X90816039Y-88375090D01*
X90819710Y-88371364D01*
X90842539Y-88352567D01*
X90868713Y-88342767D01*
X90907346Y-88339266D01*
X90928941Y-88339025D01*
X91005834Y-88339025D01*
X91005834Y-88090508D01*
X91102325Y-88095381D01*
X91159221Y-88096194D01*
X91197850Y-88092307D01*
X91212981Y-88086089D01*
X91221044Y-88072017D01*
X91212489Y-88060548D01*
X91185104Y-88050898D01*
X91136679Y-88042285D01*
X91066124Y-88034037D01*
X90885643Y-88006358D01*
X90717215Y-87961702D01*
X90562569Y-87901074D01*
X90423434Y-87825472D01*
X90301538Y-87735901D01*
X90198610Y-87633360D01*
X90116379Y-87518851D01*
X90088525Y-87467622D01*
X90063718Y-87415896D01*
X90047664Y-87375469D01*
X90038087Y-87337200D01*
X90032713Y-87291949D01*
X90029269Y-87230574D01*
X90029208Y-87229218D01*
X90027199Y-87165190D01*
X90028546Y-87117641D01*
X90034275Y-87077722D01*
X90045414Y-87036579D01*
X90054806Y-87008533D01*
X90109862Y-86888383D01*
X90187650Y-86777023D01*
X90286652Y-86675561D01*
X90405349Y-86585108D01*
X90542223Y-86506771D01*
X90695753Y-86441660D01*
X90864423Y-86390884D01*
X90917125Y-86378747D01*
X91028397Y-86360981D01*
X91155418Y-86350894D01*
X91289687Y-86348482D01*
X91422705Y-86353740D01*
G37*
X91422705Y-86353740D02*
X91545969Y-86366665D01*
X91616350Y-86379072D01*
X91771152Y-86420414D01*
X91920674Y-86476478D01*
X92057287Y-86544183D01*
X92120040Y-86582537D01*
X92220081Y-86655776D01*
X92305695Y-86735732D01*
X92384065Y-86829609D01*
X92427183Y-86890527D01*
X92478044Y-86957824D01*
X92528065Y-87008705D01*
X92551102Y-87026250D01*
X92597953Y-87051890D01*
X92646077Y-87069462D01*
X92688718Y-87077300D01*
X92719118Y-87073741D01*
X92725818Y-87069296D01*
X92734324Y-87047524D01*
X92723191Y-87027380D01*
X92697476Y-87016595D01*
X92691103Y-87016241D01*
X92630478Y-87003827D01*
X92569735Y-86967524D01*
X92527141Y-86927119D01*
X92502571Y-86898848D01*
X92490876Y-86878386D01*
X92494167Y-86861518D01*
X92514556Y-86844028D01*
X92554154Y-86821698D01*
X92588909Y-86803764D01*
X92737487Y-86740602D01*
X92899867Y-86694942D01*
X93071081Y-86667116D01*
X93246161Y-86657455D01*
X93420140Y-86666292D01*
X93588050Y-86693959D01*
X93711472Y-86728776D01*
X93849153Y-86784742D01*
X93968717Y-86851615D01*
X94069509Y-86927776D01*
X94150874Y-87011607D01*
X94212155Y-87101488D01*
X94252697Y-87195801D01*
X94271845Y-87292926D01*
X94268943Y-87391245D01*
X94243334Y-87489138D01*
X94194364Y-87584986D01*
X94121377Y-87677170D01*
X94103072Y-87695780D01*
X94009482Y-87774553D01*
X93901915Y-87843072D01*
X93786825Y-87898233D01*
X93670664Y-87936933D01*
X93562369Y-87955866D01*
X93513375Y-87960693D01*
X93484610Y-87966249D01*
X93470889Y-87974349D01*
X93467026Y-87986808D01*
X93466976Y-87989250D01*
X93470610Y-88004514D01*
X93485541Y-88013043D01*
X93517813Y-88017485D01*
X93533751Y-88018533D01*
X93600526Y-88022377D01*
X93600526Y-88339025D01*
X93663412Y-88339025D01*
X93712446Y-88343405D01*
X93747627Y-88358613D01*
X93759254Y-88367643D01*
X93792211Y-88396261D01*
X93740090Y-89337473D01*
X93729622Y-89524691D01*
X93720266Y-89687899D01*
X93711922Y-89828498D01*
X93704486Y-89947886D01*
X93697858Y-90047464D01*
X93691937Y-90128630D01*
X93686620Y-90192786D01*
X93681807Y-90241329D01*
X93677395Y-90275661D01*
X93673283Y-90297180D01*
X93669782Y-90306708D01*
X93643726Y-90329242D01*
X93610162Y-90341446D01*
X93571398Y-90346097D01*
X93511314Y-90351234D01*
X93434017Y-90356631D01*
X93343615Y-90362062D01*
X93244214Y-90367302D01*
X93139923Y-90372123D01*
X93034848Y-90376301D01*
X92933098Y-90379608D01*
X92900977Y-90380470D01*
X92744369Y-90384315D01*
X92609080Y-90387357D01*
X92491004Y-90389616D01*
X92386034Y-90391117D01*
X92290066Y-90391882D01*
X92198992Y-90391933D01*
X92108707Y-90391294D01*
X92015105Y-90389987D01*
X91914080Y-90388035D01*
X91838934Y-90386348D01*
X91692792Y-90382420D01*
X91552954Y-90377674D01*
X91421814Y-90372251D01*
X91301766Y-90366296D01*
X91195205Y-90359949D01*
X91104524Y-90353353D01*
X91032119Y-90346651D01*
X90980383Y-90339986D01*
X90951862Y-90333558D01*
X90922504Y-90312763D01*
X90905725Y-90274495D01*
X90905601Y-90273996D01*
X90902983Y-90253609D01*
X90899188Y-90210047D01*
X90894359Y-90145539D01*
X90888640Y-90062313D01*
X90882173Y-89962598D01*
X90875102Y-89848624D01*
X90867568Y-89722619D01*
X90862826Y-89640588D01*
X91654507Y-89640588D01*
X91654645Y-89748659D01*
X91655163Y-89834139D01*
X91656211Y-89899872D01*
X91657944Y-89948705D01*
X91660513Y-89983483D01*
X91664072Y-90007052D01*
X91668773Y-90022256D01*
X91674769Y-90031942D01*
X91675557Y-90032841D01*
X91689601Y-90043970D01*
X91710939Y-90050958D01*
X91745010Y-90054684D01*
X91797257Y-90056029D01*
X91819395Y-90056100D01*
X91889137Y-90054404D01*
X91936479Y-90049084D01*
X91964246Y-90039795D01*
X91966873Y-90038055D01*
X91972602Y-90032988D01*
X91977391Y-90025429D01*
X91981341Y-90013179D01*
X91984553Y-89994037D01*
X91987127Y-89965802D01*
X91989165Y-89926276D01*
X91990767Y-89873256D01*
X91992034Y-89804544D01*
X91993067Y-89717938D01*
X91993968Y-89611239D01*
X91994835Y-89482246D01*
X91995223Y-89419533D01*
X91995255Y-89413787D01*
X92285609Y-89413787D01*
X92290356Y-89529104D01*
X92306134Y-89629080D01*
X92334758Y-89722085D01*
X92369219Y-89799278D01*
X92404391Y-89856451D01*
X92450579Y-89913537D01*
X92502094Y-89964848D01*
X92553245Y-90004697D01*
X92597070Y-90026999D01*
X92682739Y-90042059D01*
X92768278Y-90034267D01*
X92833827Y-90010972D01*
X92912968Y-89957843D01*
X92980859Y-89884970D01*
X93036732Y-89795787D01*
X93079817Y-89693732D01*
X93109346Y-89582237D01*
X93124550Y-89464738D01*
X93124660Y-89344670D01*
X93108908Y-89225469D01*
X93076524Y-89110568D01*
X93049623Y-89046844D01*
X92997898Y-88954944D01*
X92940357Y-88884341D01*
X92873484Y-88830997D01*
X92849048Y-88816645D01*
X92767894Y-88785456D01*
X92686466Y-88779306D01*
X92606276Y-88797856D01*
X92528836Y-88840769D01*
X92459418Y-88903549D01*
X92387282Y-88999000D01*
X92334861Y-89106574D01*
X92301513Y-89228154D01*
X92286596Y-89365626D01*
X92285609Y-89413787D01*
X91995255Y-89413787D01*
X91996016Y-89279552D01*
X91996497Y-89162805D01*
X91996602Y-89067090D01*
X91996268Y-88990205D01*
X91995433Y-88929946D01*
X91994033Y-88884111D01*
X91992006Y-88850497D01*
X91989287Y-88826902D01*
X91985815Y-88811123D01*
X91981526Y-88800958D01*
X91977353Y-88795264D01*
X91963457Y-88783986D01*
X91942852Y-88776874D01*
X91910077Y-88773038D01*
X91859674Y-88771586D01*
X91831511Y-88771474D01*
X91765740Y-88772780D01*
X91721760Y-88776998D01*
X91696041Y-88784571D01*
X91689262Y-88789412D01*
X91681435Y-88810313D01*
X91674555Y-88856031D01*
X91668645Y-88925962D01*
X91663730Y-89019502D01*
X91659835Y-89136047D01*
X91656984Y-89274991D01*
X91655203Y-89435732D01*
X91654515Y-89617664D01*
X91654507Y-89640588D01*
X90862826Y-89640588D01*
X90859717Y-89586812D01*
X90851689Y-89443431D01*
X90847981Y-89375630D01*
X90839968Y-89229061D01*
X90832182Y-89088688D01*
X90824757Y-88956787D01*
X90817825Y-88835631D01*
X90811520Y-88727497D01*
X90805975Y-88634658D01*
X90801324Y-88559389D01*
X90797700Y-88503967D01*
X90795236Y-88470664D01*
X90794550Y-88463577D01*
X90791931Y-88424123D01*
X90798082Y-88398333D01*
X90816039Y-88375090D01*
X90819710Y-88371364D01*
X90842539Y-88352567D01*
X90868713Y-88342767D01*
X90907346Y-88339266D01*
X90928941Y-88339025D01*
X91005834Y-88339025D01*
X91005834Y-88090508D01*
X91102325Y-88095381D01*
X91159221Y-88096194D01*
X91197850Y-88092307D01*
X91212981Y-88086089D01*
X91221044Y-88072017D01*
X91212489Y-88060548D01*
X91185104Y-88050898D01*
X91136679Y-88042285D01*
X91066124Y-88034037D01*
X90885643Y-88006358D01*
X90717215Y-87961702D01*
X90562569Y-87901074D01*
X90423434Y-87825472D01*
X90301538Y-87735901D01*
X90198610Y-87633360D01*
X90116379Y-87518851D01*
X90088525Y-87467622D01*
X90063718Y-87415896D01*
X90047664Y-87375469D01*
X90038087Y-87337200D01*
X90032713Y-87291949D01*
X90029269Y-87230574D01*
X90029208Y-87229218D01*
X90027199Y-87165190D01*
X90028546Y-87117641D01*
X90034275Y-87077722D01*
X90045414Y-87036579D01*
X90054806Y-87008533D01*
X90109862Y-86888383D01*
X90187650Y-86777023D01*
X90286652Y-86675561D01*
X90405349Y-86585108D01*
X90542223Y-86506771D01*
X90695753Y-86441660D01*
X90864423Y-86390884D01*
X90917125Y-86378747D01*
X91028397Y-86360981D01*
X91155418Y-86350894D01*
X91289687Y-86348482D01*
X91422705Y-86353740D01*
D10*
X113665000Y-88214200D02*
X113461800Y-88214200D01*
D11*
X113842800Y-87782400D02*
X113461800Y-87782400D01*
X107619800Y-102997000D02*
X107124500Y-102997000D01*
D10*
X107022900Y-106006900D02*
X106235500Y-106006900D01*
X106299000Y-109004100D02*
X105613200Y-109004100D01*
X106095800Y-114998500D02*
X105562400Y-114998500D01*
X106006900Y-112001300D02*
X105613200Y-112001300D01*
D11*
X106921300Y-112001300D02*
X106083100Y-112001300D01*
X114173000Y-93091000D02*
X113461800Y-92379800D01*
X114173000Y-99187000D02*
X114173000Y-93091000D01*
X111950500Y-101409500D02*
X114173000Y-99187000D01*
X109232700Y-101409500D02*
X111950500Y-101409500D01*
X107632500Y-102997000D02*
X109220000Y-101409500D01*
D10*
X106426000Y-102997000D02*
X107086400Y-102997000D01*
D11*
X107657900Y-106006900D02*
X107048300Y-106006900D01*
X109702600Y-103962200D02*
X107683300Y-105981500D01*
X112509300Y-103936800D02*
X109728000Y-103936800D01*
X115062000Y-101409500D02*
X112534700Y-103911400D01*
X115062000Y-92773500D02*
X115062000Y-101409500D01*
X113411000Y-91122500D02*
X115062000Y-92773500D01*
X115912900Y-92392500D02*
X113360200Y-89839800D01*
X115912900Y-102844600D02*
X115912900Y-92392500D01*
X112280700Y-106476800D02*
X115887500Y-102870000D01*
X109728000Y-106476800D02*
X112268000Y-106476800D01*
X107200700Y-109004100D02*
X109728000Y-106476800D01*
X107188000Y-109004100D02*
X106299000Y-109004100D01*
X116776500Y-91884500D02*
X113474500Y-88646000D01*
X116776500Y-104965500D02*
X116776500Y-91884500D01*
X112649000Y-109131100D02*
X116776500Y-104990900D01*
X109791500Y-109131100D02*
X112610900Y-109131100D01*
X106921300Y-112001300D02*
X109791500Y-109131100D01*
X117627400Y-91554300D02*
X113855500Y-87795100D01*
X117640100Y-107454700D02*
X117627400Y-91554300D01*
X113271300Y-111874300D02*
X117640100Y-107505500D01*
X110490000Y-111887000D02*
X113258600Y-111887000D01*
X107378500Y-114998500D02*
X110490000Y-111887000D01*
X106108500Y-114998500D02*
X107378500Y-114998500D01*
D10*
X117208300Y-91744800D02*
X113690400Y-88214200D01*
X117208300Y-107327700D02*
X117208300Y-91757500D01*
X113093500Y-111442500D02*
X117208300Y-107327700D01*
X110236000Y-111442500D02*
X113093500Y-111442500D01*
X107188000Y-114490500D02*
X110236000Y-111442500D01*
X109601000Y-108712000D02*
X106832400Y-111480600D01*
X112458500Y-108712000D02*
X109601000Y-108712000D01*
X116332000Y-104838500D02*
X112458500Y-108712000D01*
X116344700Y-92087700D02*
X116344700Y-104825800D01*
X113411000Y-89154000D02*
X116344700Y-92087700D01*
X115481100Y-92570300D02*
X113411000Y-90487500D01*
X115493800Y-102565200D02*
X115481100Y-92583000D01*
X112039400Y-106045000D02*
X115493800Y-102590600D01*
X109550200Y-106045000D02*
X112014000Y-106045000D01*
X109537500Y-106057700D02*
X107200700Y-108407200D01*
X114604800Y-92913200D02*
X113385600Y-91694000D01*
X114617500Y-101155500D02*
X114617500Y-92925900D01*
X112268000Y-103505000D02*
X114617500Y-101155500D01*
X109550200Y-103505000D02*
X112268000Y-103505000D01*
X109537500Y-103517700D02*
X107810300Y-105244900D01*
X108966000Y-100965000D02*
X107911900Y-102019100D01*
X113730000Y-93330000D02*
X113470000Y-93070000D01*
X113728500Y-98996500D02*
X113730000Y-93330000D01*
X111760000Y-100965000D02*
X113728500Y-98996500D01*
X108966000Y-100965000D02*
X111760000Y-100965000D01*
D12*
G36*
X96464330Y-90012944D02*
G01*
X96484970Y-90017138D01*
X96491943Y-90027148D01*
X96491989Y-90037022D01*
X96485614Y-90056742D01*
X96468264Y-90077551D01*
X96437680Y-90100819D01*
X96391603Y-90127918D01*
X96327771Y-90160220D01*
X96243924Y-90199097D01*
X96173227Y-90230468D01*
X96089163Y-90267787D01*
X96026243Y-90296962D01*
X95982001Y-90319321D01*
X95953970Y-90336189D01*
X95939685Y-90348893D01*
X95936533Y-90357766D01*
X95940305Y-90385492D01*
X95946729Y-90422535D01*
X95947377Y-90425920D01*
X95949751Y-90465400D01*
X95937568Y-90490001D01*
X95923277Y-90497843D01*
X95887412Y-90515015D01*
X95831739Y-90540727D01*
X95758023Y-90574190D01*
X95668030Y-90614617D01*
X95563526Y-90661218D01*
X95446276Y-90713205D01*
X95318046Y-90769789D01*
X95180602Y-90830182D01*
X95035709Y-90893595D01*
X94957226Y-90927843D01*
X94809656Y-90992288D01*
X94668986Y-91053945D01*
X94536938Y-91112048D01*
X94415233Y-91165827D01*
X94305594Y-91214514D01*
X94209741Y-91257342D01*
X94129397Y-91293542D01*
X94066283Y-91322346D01*
X94022121Y-91342986D01*
X93998632Y-91354695D01*
X93995150Y-91357045D01*
X93999848Y-91371621D01*
X94013017Y-91405190D01*
X94032900Y-91453455D01*
X94057744Y-91512116D01*
X94071678Y-91544467D01*
X94103491Y-91618963D01*
X94124675Y-91674170D01*
X94134899Y-91714060D01*
X94133828Y-91742605D01*
X94121131Y-91763779D01*
X94096473Y-91781554D01*
X94059522Y-91799902D01*
X94049891Y-91804328D01*
X93987668Y-91830949D01*
X93942914Y-91843962D01*
X93911138Y-91842596D01*
X93887849Y-91826084D01*
X93868557Y-91793657D01*
X93859192Y-91771698D01*
X93843619Y-91740116D01*
X93828482Y-91720526D01*
X93825210Y-91718506D01*
X93806958Y-91714656D01*
X93769423Y-91708774D01*
X93718590Y-91701750D01*
X93675774Y-91696319D01*
X93541340Y-91679889D01*
X93332450Y-91760043D01*
X93171112Y-91822549D01*
X92990697Y-91893520D01*
X92795445Y-91971252D01*
X92589595Y-92054041D01*
X92377386Y-92140184D01*
X92163060Y-92227976D01*
X91985203Y-92301455D01*
X91824798Y-92368041D01*
X91686257Y-92425593D01*
X91567906Y-92474722D01*
X91468071Y-92516040D01*
X91385076Y-92550155D01*
X91317248Y-92577678D01*
X91262911Y-92599221D01*
X91220391Y-92615393D01*
X91188013Y-92626805D01*
X91164103Y-92634067D01*
X91146986Y-92637790D01*
X91134987Y-92638583D01*
X91126432Y-92637059D01*
X91119646Y-92633826D01*
X91112954Y-92629496D01*
X91104682Y-92624679D01*
X91102013Y-92623398D01*
X91077186Y-92603283D01*
X91051895Y-92569531D01*
X91042760Y-92552856D01*
X91025496Y-92521320D01*
X91011488Y-92502907D01*
X91006709Y-92500756D01*
X90941057Y-92529429D01*
X90881265Y-92557781D01*
X90831431Y-92583650D01*
X90795653Y-92604871D01*
X90778028Y-92619284D01*
X90776891Y-92622058D01*
X90768769Y-92653825D01*
X90747333Y-92696802D01*
X90716973Y-92743933D01*
X90682082Y-92788165D01*
X90658074Y-92812926D01*
X90625583Y-92837262D01*
X90573055Y-92869798D01*
X90503888Y-92908839D01*
X90421478Y-92952688D01*
X90329223Y-92999649D01*
X90230521Y-93048026D01*
X90128768Y-93096123D01*
X90027362Y-93142243D01*
X89929700Y-93184691D01*
X89839179Y-93221771D01*
X89839054Y-93221821D01*
X89775298Y-93246951D01*
X89755821Y-93197367D01*
X89744398Y-93165856D01*
X89743799Y-93150037D01*
X89755089Y-93142110D01*
X89763753Y-93139221D01*
X89793139Y-93128217D01*
X89841626Y-93107954D01*
X89905373Y-93080167D01*
X89980541Y-93046589D01*
X90063289Y-93008955D01*
X90149778Y-92968999D01*
X90236168Y-92928455D01*
X90318619Y-92889057D01*
X90331723Y-92882717D01*
X90430001Y-92832864D01*
X90511036Y-92787151D01*
X90573296Y-92746607D01*
X90615253Y-92712262D01*
X90635375Y-92685146D01*
X90636981Y-92677197D01*
X90626115Y-92676025D01*
X90597452Y-92682686D01*
X90556890Y-92695763D01*
X90551308Y-92697766D01*
X90438532Y-92733985D01*
X90343588Y-92753728D01*
X90264736Y-92756768D01*
X90200237Y-92742882D01*
X90148351Y-92711844D01*
X90107340Y-92663429D01*
X90093240Y-92638455D01*
X90068718Y-92566109D01*
X90068346Y-92512744D01*
X90170104Y-92512744D01*
X90174403Y-92561941D01*
X90195791Y-92608034D01*
X90206245Y-92620819D01*
X90245842Y-92644421D01*
X90304122Y-92650924D01*
X90380938Y-92640332D01*
X90472426Y-92613932D01*
X90547598Y-92587776D01*
X90601740Y-92567684D01*
X90638008Y-92551837D01*
X90659559Y-92538417D01*
X90669549Y-92525605D01*
X90671134Y-92511585D01*
X90669080Y-92500667D01*
X90649181Y-92459614D01*
X90613070Y-92417354D01*
X90568165Y-92382097D01*
X90555171Y-92374673D01*
X90507912Y-92361009D01*
X90446381Y-92358532D01*
X90378742Y-92366439D01*
X90313160Y-92383928D01*
X90270668Y-92402615D01*
X90230603Y-92427876D01*
X90197701Y-92454668D01*
X90184276Y-92469947D01*
X90170104Y-92512744D01*
X90068346Y-92512744D01*
X90068234Y-92496742D01*
X90090415Y-92432149D01*
X90133887Y-92374126D01*
X90197279Y-92324468D01*
X90279216Y-92284971D01*
X90378327Y-92257429D01*
X90385680Y-92256031D01*
X90475581Y-92250856D01*
X90561183Y-92267443D01*
X90638306Y-92303685D01*
X90702768Y-92357473D01*
X90750388Y-92426701D01*
X90758213Y-92443851D01*
X90774643Y-92472486D01*
X90790483Y-92482330D01*
X90792720Y-92481795D01*
X90849853Y-92457825D01*
X90900474Y-92434787D01*
X90939853Y-92415006D01*
X90963260Y-92400806D01*
X90967677Y-92395803D01*
X90963023Y-92379197D01*
X90951145Y-92347871D01*
X90942239Y-92326456D01*
X90927198Y-92285516D01*
X90918069Y-92249384D01*
X90916800Y-92237077D01*
X90916708Y-92227822D01*
X90917131Y-92219173D01*
X90919121Y-92210598D01*
X90923728Y-92201563D01*
X90932002Y-92191535D01*
X90944996Y-92179980D01*
X90963758Y-92166366D01*
X90989341Y-92150159D01*
X91022795Y-92130826D01*
X91065170Y-92107833D01*
X91117517Y-92080647D01*
X91180888Y-92048735D01*
X91256333Y-92011563D01*
X91344902Y-91968599D01*
X91447646Y-91919308D01*
X91565616Y-91863158D01*
X91699864Y-91799616D01*
X91851438Y-91728147D01*
X92021392Y-91648219D01*
X92210774Y-91559299D01*
X92420636Y-91460852D01*
X92652028Y-91352347D01*
X92756158Y-91303519D01*
X93279091Y-91058303D01*
X93357134Y-90944923D01*
X93389113Y-90896742D01*
X93414751Y-90854838D01*
X93430993Y-90824408D01*
X93435178Y-90812043D01*
X93429586Y-90787770D01*
X93416029Y-90755535D01*
X93415064Y-90753648D01*
X93400651Y-90715651D01*
X93403303Y-90685086D01*
X93425258Y-90658307D01*
X93468755Y-90631670D01*
X93498677Y-90617536D01*
X93557293Y-90593060D01*
X93598364Y-90580777D01*
X93626300Y-90580036D01*
X93645512Y-90590184D01*
X93650155Y-90595158D01*
X93660320Y-90612670D01*
X93678342Y-90648852D01*
X93701985Y-90699026D01*
X93729014Y-90758511D01*
X93739788Y-90782764D01*
X93767072Y-90842565D01*
X93791679Y-90892770D01*
X93811501Y-90929353D01*
X93824429Y-90948288D01*
X93827368Y-90949997D01*
X93841314Y-90944460D01*
X93876113Y-90929759D01*
X93929322Y-90906952D01*
X93998497Y-90877095D01*
X94081197Y-90841243D01*
X94174978Y-90800452D01*
X94277398Y-90755779D01*
X94346628Y-90725518D01*
X94558031Y-90633030D01*
X94747365Y-90550206D01*
X94915874Y-90476525D01*
X95064799Y-90411467D01*
X95195385Y-90354512D01*
X95308873Y-90305141D01*
X95406507Y-90262834D01*
X95489529Y-90227071D01*
X95559182Y-90197332D01*
X95616709Y-90173097D01*
X95663352Y-90153847D01*
X95700355Y-90139062D01*
X95728959Y-90128221D01*
X95750409Y-90120806D01*
X95765946Y-90116296D01*
X95776813Y-90114172D01*
X95784254Y-90113913D01*
X95789511Y-90115000D01*
X95793826Y-90116913D01*
X95797434Y-90118688D01*
X95822529Y-90139465D01*
X95844143Y-90172186D01*
X95846275Y-90176960D01*
X95860740Y-90205661D01*
X95873178Y-90220767D01*
X95875279Y-90221448D01*
X95889582Y-90216501D01*
X95923427Y-90202700D01*
X95973149Y-90181603D01*
X96035083Y-90154770D01*
X96105562Y-90123760D01*
X96119951Y-90117376D01*
X96203844Y-90080533D01*
X96268716Y-90053260D01*
X96318514Y-90034193D01*
X96357188Y-90021971D01*
X96388686Y-90015233D01*
X96416955Y-90012616D01*
X96424161Y-90012444D01*
X96464330Y-90012944D01*
G37*
X96464330Y-90012944D02*
X96484970Y-90017138D01*
X96491943Y-90027148D01*
X96491989Y-90037022D01*
X96485614Y-90056742D01*
X96468264Y-90077551D01*
X96437680Y-90100819D01*
X96391603Y-90127918D01*
X96327771Y-90160220D01*
X96243924Y-90199097D01*
X96173227Y-90230468D01*
X96089163Y-90267787D01*
X96026243Y-90296962D01*
X95982001Y-90319321D01*
X95953970Y-90336189D01*
X95939685Y-90348893D01*
X95936533Y-90357766D01*
X95940305Y-90385492D01*
X95946729Y-90422535D01*
X95947377Y-90425920D01*
X95949751Y-90465400D01*
X95937568Y-90490001D01*
X95923277Y-90497843D01*
X95887412Y-90515015D01*
X95831739Y-90540727D01*
X95758023Y-90574190D01*
X95668030Y-90614617D01*
X95563526Y-90661218D01*
X95446276Y-90713205D01*
X95318046Y-90769789D01*
X95180602Y-90830182D01*
X95035709Y-90893595D01*
X94957226Y-90927843D01*
X94809656Y-90992288D01*
X94668986Y-91053945D01*
X94536938Y-91112048D01*
X94415233Y-91165827D01*
X94305594Y-91214514D01*
X94209741Y-91257342D01*
X94129397Y-91293542D01*
X94066283Y-91322346D01*
X94022121Y-91342986D01*
X93998632Y-91354695D01*
X93995150Y-91357045D01*
X93999848Y-91371621D01*
X94013017Y-91405190D01*
X94032900Y-91453455D01*
X94057744Y-91512116D01*
X94071678Y-91544467D01*
X94103491Y-91618963D01*
X94124675Y-91674170D01*
X94134899Y-91714060D01*
X94133828Y-91742605D01*
X94121131Y-91763779D01*
X94096473Y-91781554D01*
X94059522Y-91799902D01*
X94049891Y-91804328D01*
X93987668Y-91830949D01*
X93942914Y-91843962D01*
X93911138Y-91842596D01*
X93887849Y-91826084D01*
X93868557Y-91793657D01*
X93859192Y-91771698D01*
X93843619Y-91740116D01*
X93828482Y-91720526D01*
X93825210Y-91718506D01*
X93806958Y-91714656D01*
X93769423Y-91708774D01*
X93718590Y-91701750D01*
X93675774Y-91696319D01*
X93541340Y-91679889D01*
X93332450Y-91760043D01*
X93171112Y-91822549D01*
X92990697Y-91893520D01*
X92795445Y-91971252D01*
X92589595Y-92054041D01*
X92377386Y-92140184D01*
X92163060Y-92227976D01*
X91985203Y-92301455D01*
X91824798Y-92368041D01*
X91686257Y-92425593D01*
X91567906Y-92474722D01*
X91468071Y-92516040D01*
X91385076Y-92550155D01*
X91317248Y-92577678D01*
X91262911Y-92599221D01*
X91220391Y-92615393D01*
X91188013Y-92626805D01*
X91164103Y-92634067D01*
X91146986Y-92637790D01*
X91134987Y-92638583D01*
X91126432Y-92637059D01*
X91119646Y-92633826D01*
X91112954Y-92629496D01*
X91104682Y-92624679D01*
X91102013Y-92623398D01*
X91077186Y-92603283D01*
X91051895Y-92569531D01*
X91042760Y-92552856D01*
X91025496Y-92521320D01*
X91011488Y-92502907D01*
X91006709Y-92500756D01*
X90941057Y-92529429D01*
X90881265Y-92557781D01*
X90831431Y-92583650D01*
X90795653Y-92604871D01*
X90778028Y-92619284D01*
X90776891Y-92622058D01*
X90768769Y-92653825D01*
X90747333Y-92696802D01*
X90716973Y-92743933D01*
X90682082Y-92788165D01*
X90658074Y-92812926D01*
X90625583Y-92837262D01*
X90573055Y-92869798D01*
X90503888Y-92908839D01*
X90421478Y-92952688D01*
X90329223Y-92999649D01*
X90230521Y-93048026D01*
X90128768Y-93096123D01*
X90027362Y-93142243D01*
X89929700Y-93184691D01*
X89839179Y-93221771D01*
X89839054Y-93221821D01*
X89775298Y-93246951D01*
X89755821Y-93197367D01*
X89744398Y-93165856D01*
X89743799Y-93150037D01*
X89755089Y-93142110D01*
X89763753Y-93139221D01*
X89793139Y-93128217D01*
X89841626Y-93107954D01*
X89905373Y-93080167D01*
X89980541Y-93046589D01*
X90063289Y-93008955D01*
X90149778Y-92968999D01*
X90236168Y-92928455D01*
X90318619Y-92889057D01*
X90331723Y-92882717D01*
X90430001Y-92832864D01*
X90511036Y-92787151D01*
X90573296Y-92746607D01*
X90615253Y-92712262D01*
X90635375Y-92685146D01*
X90636981Y-92677197D01*
X90626115Y-92676025D01*
X90597452Y-92682686D01*
X90556890Y-92695763D01*
X90551308Y-92697766D01*
X90438532Y-92733985D01*
X90343588Y-92753728D01*
X90264736Y-92756768D01*
X90200237Y-92742882D01*
X90148351Y-92711844D01*
X90107340Y-92663429D01*
X90093240Y-92638455D01*
X90068718Y-92566109D01*
X90068346Y-92512744D01*
X90170104Y-92512744D01*
X90174403Y-92561941D01*
X90195791Y-92608034D01*
X90206245Y-92620819D01*
X90245842Y-92644421D01*
X90304122Y-92650924D01*
X90380938Y-92640332D01*
X90472426Y-92613932D01*
X90547598Y-92587776D01*
X90601740Y-92567684D01*
X90638008Y-92551837D01*
X90659559Y-92538417D01*
X90669549Y-92525605D01*
X90671134Y-92511585D01*
X90669080Y-92500667D01*
X90649181Y-92459614D01*
X90613070Y-92417354D01*
X90568165Y-92382097D01*
X90555171Y-92374673D01*
X90507912Y-92361009D01*
X90446381Y-92358532D01*
X90378742Y-92366439D01*
X90313160Y-92383928D01*
X90270668Y-92402615D01*
X90230603Y-92427876D01*
X90197701Y-92454668D01*
X90184276Y-92469947D01*
X90170104Y-92512744D01*
X90068346Y-92512744D01*
X90068234Y-92496742D01*
X90090415Y-92432149D01*
X90133887Y-92374126D01*
X90197279Y-92324468D01*
X90279216Y-92284971D01*
X90378327Y-92257429D01*
X90385680Y-92256031D01*
X90475581Y-92250856D01*
X90561183Y-92267443D01*
X90638306Y-92303685D01*
X90702768Y-92357473D01*
X90750388Y-92426701D01*
X90758213Y-92443851D01*
X90774643Y-92472486D01*
X90790483Y-92482330D01*
X90792720Y-92481795D01*
X90849853Y-92457825D01*
X90900474Y-92434787D01*
X90939853Y-92415006D01*
X90963260Y-92400806D01*
X90967677Y-92395803D01*
X90963023Y-92379197D01*
X90951145Y-92347871D01*
X90942239Y-92326456D01*
X90927198Y-92285516D01*
X90918069Y-92249384D01*
X90916800Y-92237077D01*
X90916708Y-92227822D01*
X90917131Y-92219173D01*
X90919121Y-92210598D01*
X90923728Y-92201563D01*
X90932002Y-92191535D01*
X90944996Y-92179980D01*
X90963758Y-92166366D01*
X90989341Y-92150159D01*
X91022795Y-92130826D01*
X91065170Y-92107833D01*
X91117517Y-92080647D01*
X91180888Y-92048735D01*
X91256333Y-92011563D01*
X91344902Y-91968599D01*
X91447646Y-91919308D01*
X91565616Y-91863158D01*
X91699864Y-91799616D01*
X91851438Y-91728147D01*
X92021392Y-91648219D01*
X92210774Y-91559299D01*
X92420636Y-91460852D01*
X92652028Y-91352347D01*
X92756158Y-91303519D01*
X93279091Y-91058303D01*
X93357134Y-90944923D01*
X93389113Y-90896742D01*
X93414751Y-90854838D01*
X93430993Y-90824408D01*
X93435178Y-90812043D01*
X93429586Y-90787770D01*
X93416029Y-90755535D01*
X93415064Y-90753648D01*
X93400651Y-90715651D01*
X93403303Y-90685086D01*
X93425258Y-90658307D01*
X93468755Y-90631670D01*
X93498677Y-90617536D01*
X93557293Y-90593060D01*
X93598364Y-90580777D01*
X93626300Y-90580036D01*
X93645512Y-90590184D01*
X93650155Y-90595158D01*
X93660320Y-90612670D01*
X93678342Y-90648852D01*
X93701985Y-90699026D01*
X93729014Y-90758511D01*
X93739788Y-90782764D01*
X93767072Y-90842565D01*
X93791679Y-90892770D01*
X93811501Y-90929353D01*
X93824429Y-90948288D01*
X93827368Y-90949997D01*
X93841314Y-90944460D01*
X93876113Y-90929759D01*
X93929322Y-90906952D01*
X93998497Y-90877095D01*
X94081197Y-90841243D01*
X94174978Y-90800452D01*
X94277398Y-90755779D01*
X94346628Y-90725518D01*
X94558031Y-90633030D01*
X94747365Y-90550206D01*
X94915874Y-90476525D01*
X95064799Y-90411467D01*
X95195385Y-90354512D01*
X95308873Y-90305141D01*
X95406507Y-90262834D01*
X95489529Y-90227071D01*
X95559182Y-90197332D01*
X95616709Y-90173097D01*
X95663352Y-90153847D01*
X95700355Y-90139062D01*
X95728959Y-90128221D01*
X95750409Y-90120806D01*
X95765946Y-90116296D01*
X95776813Y-90114172D01*
X95784254Y-90113913D01*
X95789511Y-90115000D01*
X95793826Y-90116913D01*
X95797434Y-90118688D01*
X95822529Y-90139465D01*
X95844143Y-90172186D01*
X95846275Y-90176960D01*
X95860740Y-90205661D01*
X95873178Y-90220767D01*
X95875279Y-90221448D01*
X95889582Y-90216501D01*
X95923427Y-90202700D01*
X95973149Y-90181603D01*
X96035083Y-90154770D01*
X96105562Y-90123760D01*
X96119951Y-90117376D01*
X96203844Y-90080533D01*
X96268716Y-90053260D01*
X96318514Y-90034193D01*
X96357188Y-90021971D01*
X96388686Y-90015233D01*
X96416955Y-90012616D01*
X96424161Y-90012444D01*
X96464330Y-90012944D01*
G36*
X93150241Y-91938986D02*
G01*
X93185548Y-91952537D01*
X93240252Y-91974106D01*
X93312288Y-92002864D01*
X93399592Y-92037980D01*
X93500099Y-92078623D01*
X93611745Y-92123964D01*
X93732467Y-92173171D01*
X93860200Y-92225414D01*
X93868813Y-92228943D01*
X94017453Y-92289805D01*
X94144521Y-92341680D01*
X94251961Y-92385284D01*
X94341717Y-92421332D01*
X94415731Y-92450538D01*
X94475947Y-92473620D01*
X94524310Y-92491292D01*
X94562762Y-92504269D01*
X94593246Y-92513268D01*
X94617707Y-92519003D01*
X94638088Y-92522191D01*
X94656332Y-92523546D01*
X94669744Y-92523790D01*
X94729903Y-92527146D01*
X94794865Y-92535538D01*
X94829394Y-92542323D01*
X94872170Y-92554089D01*
X94924659Y-92570945D01*
X94980737Y-92590619D01*
X95034282Y-92610836D01*
X95079168Y-92629322D01*
X95109273Y-92643802D01*
X95117341Y-92649264D01*
X95115852Y-92663129D01*
X95106456Y-92695143D01*
X95091165Y-92740028D01*
X95071993Y-92792509D01*
X95050952Y-92847309D01*
X95030055Y-92899151D01*
X95011315Y-92942761D01*
X94996745Y-92972861D01*
X94989932Y-92983239D01*
X94975305Y-92981931D01*
X94942618Y-92971553D01*
X94896826Y-92953866D01*
X94846996Y-92932478D01*
X94735852Y-92878638D01*
X94647314Y-92826526D01*
X94578774Y-92774501D01*
X94547372Y-92743953D01*
X94536438Y-92734235D01*
X94519368Y-92722728D01*
X94494519Y-92708707D01*
X94460249Y-92691447D01*
X94414918Y-92670223D01*
X94356881Y-92644311D01*
X94284499Y-92612986D01*
X94196128Y-92575522D01*
X94090126Y-92531195D01*
X93964853Y-92479280D01*
X93818665Y-92419052D01*
X93714272Y-92376178D01*
X93579125Y-92320737D01*
X93450513Y-92267997D01*
X93330434Y-92218776D01*
X93220882Y-92173892D01*
X93123856Y-92134162D01*
X93041350Y-92100404D01*
X92975363Y-92073435D01*
X92927890Y-92054071D01*
X92900928Y-92043132D01*
X92895704Y-92041054D01*
X92890216Y-92034620D01*
X92901692Y-92024490D01*
X92932400Y-92009366D01*
X92984609Y-91987953D01*
X92997200Y-91983046D01*
X93050300Y-91962935D01*
X93095025Y-91946857D01*
X93125815Y-91936760D01*
X93136393Y-91934284D01*
X93150241Y-91938986D01*
G37*
X93150241Y-91938986D02*
X93185548Y-91952537D01*
X93240252Y-91974106D01*
X93312288Y-92002864D01*
X93399592Y-92037980D01*
X93500099Y-92078623D01*
X93611745Y-92123964D01*
X93732467Y-92173171D01*
X93860200Y-92225414D01*
X93868813Y-92228943D01*
X94017453Y-92289805D01*
X94144521Y-92341680D01*
X94251961Y-92385284D01*
X94341717Y-92421332D01*
X94415731Y-92450538D01*
X94475947Y-92473620D01*
X94524310Y-92491292D01*
X94562762Y-92504269D01*
X94593246Y-92513268D01*
X94617707Y-92519003D01*
X94638088Y-92522191D01*
X94656332Y-92523546D01*
X94669744Y-92523790D01*
X94729903Y-92527146D01*
X94794865Y-92535538D01*
X94829394Y-92542323D01*
X94872170Y-92554089D01*
X94924659Y-92570945D01*
X94980737Y-92590619D01*
X95034282Y-92610836D01*
X95079168Y-92629322D01*
X95109273Y-92643802D01*
X95117341Y-92649264D01*
X95115852Y-92663129D01*
X95106456Y-92695143D01*
X95091165Y-92740028D01*
X95071993Y-92792509D01*
X95050952Y-92847309D01*
X95030055Y-92899151D01*
X95011315Y-92942761D01*
X94996745Y-92972861D01*
X94989932Y-92983239D01*
X94975305Y-92981931D01*
X94942618Y-92971553D01*
X94896826Y-92953866D01*
X94846996Y-92932478D01*
X94735852Y-92878638D01*
X94647314Y-92826526D01*
X94578774Y-92774501D01*
X94547372Y-92743953D01*
X94536438Y-92734235D01*
X94519368Y-92722728D01*
X94494519Y-92708707D01*
X94460249Y-92691447D01*
X94414918Y-92670223D01*
X94356881Y-92644311D01*
X94284499Y-92612986D01*
X94196128Y-92575522D01*
X94090126Y-92531195D01*
X93964853Y-92479280D01*
X93818665Y-92419052D01*
X93714272Y-92376178D01*
X93579125Y-92320737D01*
X93450513Y-92267997D01*
X93330434Y-92218776D01*
X93220882Y-92173892D01*
X93123856Y-92134162D01*
X93041350Y-92100404D01*
X92975363Y-92073435D01*
X92927890Y-92054071D01*
X92900928Y-92043132D01*
X92895704Y-92041054D01*
X92890216Y-92034620D01*
X92901692Y-92024490D01*
X92932400Y-92009366D01*
X92984609Y-91987953D01*
X92997200Y-91983046D01*
X93050300Y-91962935D01*
X93095025Y-91946857D01*
X93125815Y-91936760D01*
X93136393Y-91934284D01*
X93150241Y-91938986D01*
G36*
X89048368Y-89943347D02*
G01*
X89067603Y-89945387D01*
X89090545Y-89950071D01*
X89119371Y-89958168D01*
X89156264Y-89970447D01*
X89203404Y-89987677D01*
X89262971Y-90010626D01*
X89337144Y-90040065D01*
X89428105Y-90076761D01*
X89538034Y-90121484D01*
X89669112Y-90175003D01*
X89683086Y-90180713D01*
X89812261Y-90233486D01*
X89945206Y-90287785D01*
X90077873Y-90341957D01*
X90206214Y-90394349D01*
X90326181Y-90443310D01*
X90433726Y-90487188D01*
X90524800Y-90524328D01*
X90579745Y-90546721D01*
X90662873Y-90580795D01*
X90738617Y-90612239D01*
X90803652Y-90639640D01*
X90854655Y-90661586D01*
X90888303Y-90676667D01*
X90900902Y-90683126D01*
X90914783Y-90705336D01*
X90916800Y-90717919D01*
X90927023Y-90742134D01*
X90952148Y-90769621D01*
X90983863Y-90793256D01*
X91013855Y-90805913D01*
X91020161Y-90806526D01*
X91049020Y-90800783D01*
X91082895Y-90787061D01*
X91117098Y-90774909D01*
X91144326Y-90780344D01*
X91145567Y-90780993D01*
X91178774Y-90809272D01*
X91194107Y-90850115D01*
X91191666Y-90905251D01*
X91171552Y-90976409D01*
X91158829Y-91009144D01*
X91121038Y-91100788D01*
X91187447Y-91129658D01*
X91214497Y-91141086D01*
X91261968Y-91160780D01*
X91326710Y-91187448D01*
X91405571Y-91219797D01*
X91495398Y-91256533D01*
X91593040Y-91296364D01*
X91689159Y-91335481D01*
X91787890Y-91375806D01*
X91878791Y-91413298D01*
X91959259Y-91446857D01*
X92026691Y-91475380D01*
X92078485Y-91497767D01*
X92112037Y-91512916D01*
X92124745Y-91519724D01*
X92124788Y-91519838D01*
X92114010Y-91527624D01*
X92084678Y-91542730D01*
X92041730Y-91562720D01*
X92006857Y-91578037D01*
X91888600Y-91628832D01*
X91475835Y-91459351D01*
X91379472Y-91419987D01*
X91290529Y-91384045D01*
X91211748Y-91352603D01*
X91145866Y-91326736D01*
X91095625Y-91307522D01*
X91063765Y-91296038D01*
X91053133Y-91293172D01*
X91043875Y-91305594D01*
X91027771Y-91335866D01*
X91007741Y-91378347D01*
X90999887Y-91396101D01*
X90977265Y-91444093D01*
X90955178Y-91484141D01*
X90937476Y-91509447D01*
X90933510Y-91513215D01*
X90901985Y-91527528D01*
X90865164Y-91531404D01*
X90831101Y-91525816D01*
X90807853Y-91511736D01*
X90802329Y-91497377D01*
X90793892Y-91477115D01*
X90772876Y-91449637D01*
X90765150Y-91441502D01*
X90721486Y-91411345D01*
X90673986Y-91405903D01*
X90632030Y-91418714D01*
X90627239Y-91421398D01*
X90623324Y-91423902D01*
X90618889Y-91425687D01*
X90612539Y-91426216D01*
X90602877Y-91424949D01*
X90588508Y-91421348D01*
X90568037Y-91414874D01*
X90540068Y-91404989D01*
X90503205Y-91391155D01*
X90456052Y-91372832D01*
X90397214Y-91349483D01*
X90325295Y-91320569D01*
X90238900Y-91285551D01*
X90136633Y-91243890D01*
X90017098Y-91195049D01*
X89878899Y-91138489D01*
X89720642Y-91073670D01*
X89540929Y-91000056D01*
X89441686Y-90959411D01*
X89275649Y-90891079D01*
X89133016Y-90831647D01*
X89013420Y-90780955D01*
X88916495Y-90738842D01*
X88841876Y-90705148D01*
X88789194Y-90679712D01*
X88758085Y-90662374D01*
X88750511Y-90656696D01*
X88715393Y-90615497D01*
X88686778Y-90567700D01*
X88669413Y-90522221D01*
X88669325Y-90521533D01*
X88939319Y-90521533D01*
X88944989Y-90538853D01*
X88958204Y-90546344D01*
X88992759Y-90562403D01*
X89046398Y-90586101D01*
X89116861Y-90616510D01*
X89201892Y-90652700D01*
X89299231Y-90693744D01*
X89406621Y-90738714D01*
X89521804Y-90786680D01*
X89642521Y-90836713D01*
X89766515Y-90887887D01*
X89891526Y-90939271D01*
X90015299Y-90989939D01*
X90135573Y-91038960D01*
X90250092Y-91085406D01*
X90356596Y-91128350D01*
X90452828Y-91166862D01*
X90536531Y-91200015D01*
X90605445Y-91226879D01*
X90657312Y-91246526D01*
X90689875Y-91258027D01*
X90700576Y-91260731D01*
X90715521Y-91247174D01*
X90719655Y-91227142D01*
X90718473Y-91220871D01*
X90713880Y-91213980D01*
X90704301Y-91205770D01*
X90688161Y-91195541D01*
X90663887Y-91182593D01*
X90629904Y-91166226D01*
X90584638Y-91145740D01*
X90526515Y-91120435D01*
X90453960Y-91089611D01*
X90365399Y-91052569D01*
X90259259Y-91008608D01*
X90133965Y-90957028D01*
X89987942Y-90897130D01*
X89854757Y-90842594D01*
X89713796Y-90785015D01*
X89579415Y-90730344D01*
X89453511Y-90679339D01*
X89337979Y-90632758D01*
X89234716Y-90591357D01*
X89145618Y-90555896D01*
X89072580Y-90527132D01*
X89017498Y-90505822D01*
X88982270Y-90492725D01*
X88968962Y-90488579D01*
X88946704Y-90498522D01*
X88939319Y-90521533D01*
X88669325Y-90521533D01*
X88666389Y-90498595D01*
X88671418Y-90478215D01*
X88684926Y-90438551D01*
X88705375Y-90383706D01*
X88731233Y-90317780D01*
X88760962Y-90244876D01*
X88762411Y-90241393D01*
X88881748Y-90241393D01*
X88889251Y-90266276D01*
X88910386Y-90270982D01*
X88943092Y-90255357D01*
X88954592Y-90246887D01*
X88995484Y-90227180D01*
X89034524Y-90221448D01*
X89048701Y-90223594D01*
X89073057Y-90230300D01*
X89108607Y-90241967D01*
X89156367Y-90258999D01*
X89217353Y-90281797D01*
X89292582Y-90310763D01*
X89383069Y-90346300D01*
X89489830Y-90388810D01*
X89613881Y-90438696D01*
X89756237Y-90496358D01*
X89917916Y-90562200D01*
X90099932Y-90636624D01*
X90303302Y-90720032D01*
X90529042Y-90812826D01*
X90547947Y-90820605D01*
X90626580Y-90852509D01*
X90698021Y-90880637D01*
X90758713Y-90903656D01*
X90805095Y-90920234D01*
X90833607Y-90929039D01*
X90840486Y-90930072D01*
X90855421Y-90916514D01*
X90859565Y-90896632D01*
X90858188Y-90888991D01*
X90852750Y-90880872D01*
X90841284Y-90871362D01*
X90821827Y-90859547D01*
X90792412Y-90844515D01*
X90751077Y-90825352D01*
X90695855Y-90801146D01*
X90624782Y-90770984D01*
X90535893Y-90733951D01*
X90427223Y-90689135D01*
X90306285Y-90639507D01*
X90110536Y-90559297D01*
X89936908Y-90488203D01*
X89783987Y-90425683D01*
X89650358Y-90371197D01*
X89534609Y-90324202D01*
X89435325Y-90284158D01*
X89351094Y-90250523D01*
X89280500Y-90222757D01*
X89222132Y-90200318D01*
X89174574Y-90182665D01*
X89136414Y-90169256D01*
X89106237Y-90159552D01*
X89082630Y-90153009D01*
X89064180Y-90149088D01*
X89049472Y-90147246D01*
X89037094Y-90146943D01*
X89025631Y-90147638D01*
X89022293Y-90147947D01*
X88967196Y-90159964D01*
X88921822Y-90182442D01*
X88891574Y-90211790D01*
X88881748Y-90241393D01*
X88762411Y-90241393D01*
X88764962Y-90235265D01*
X88802557Y-90146252D01*
X88833227Y-90078021D01*
X88859410Y-90027703D01*
X88883544Y-89992430D01*
X88908068Y-89969330D01*
X88935418Y-89955534D01*
X88968032Y-89948173D01*
X89008349Y-89944377D01*
X89012292Y-89944121D01*
X89030657Y-89943181D01*
X89048368Y-89943347D01*
G37*
X89048368Y-89943347D02*
X89067603Y-89945387D01*
X89090545Y-89950071D01*
X89119371Y-89958168D01*
X89156264Y-89970447D01*
X89203404Y-89987677D01*
X89262971Y-90010626D01*
X89337144Y-90040065D01*
X89428105Y-90076761D01*
X89538034Y-90121484D01*
X89669112Y-90175003D01*
X89683086Y-90180713D01*
X89812261Y-90233486D01*
X89945206Y-90287785D01*
X90077873Y-90341957D01*
X90206214Y-90394349D01*
X90326181Y-90443310D01*
X90433726Y-90487188D01*
X90524800Y-90524328D01*
X90579745Y-90546721D01*
X90662873Y-90580795D01*
X90738617Y-90612239D01*
X90803652Y-90639640D01*
X90854655Y-90661586D01*
X90888303Y-90676667D01*
X90900902Y-90683126D01*
X90914783Y-90705336D01*
X90916800Y-90717919D01*
X90927023Y-90742134D01*
X90952148Y-90769621D01*
X90983863Y-90793256D01*
X91013855Y-90805913D01*
X91020161Y-90806526D01*
X91049020Y-90800783D01*
X91082895Y-90787061D01*
X91117098Y-90774909D01*
X91144326Y-90780344D01*
X91145567Y-90780993D01*
X91178774Y-90809272D01*
X91194107Y-90850115D01*
X91191666Y-90905251D01*
X91171552Y-90976409D01*
X91158829Y-91009144D01*
X91121038Y-91100788D01*
X91187447Y-91129658D01*
X91214497Y-91141086D01*
X91261968Y-91160780D01*
X91326710Y-91187448D01*
X91405571Y-91219797D01*
X91495398Y-91256533D01*
X91593040Y-91296364D01*
X91689159Y-91335481D01*
X91787890Y-91375806D01*
X91878791Y-91413298D01*
X91959259Y-91446857D01*
X92026691Y-91475380D01*
X92078485Y-91497767D01*
X92112037Y-91512916D01*
X92124745Y-91519724D01*
X92124788Y-91519838D01*
X92114010Y-91527624D01*
X92084678Y-91542730D01*
X92041730Y-91562720D01*
X92006857Y-91578037D01*
X91888600Y-91628832D01*
X91475835Y-91459351D01*
X91379472Y-91419987D01*
X91290529Y-91384045D01*
X91211748Y-91352603D01*
X91145866Y-91326736D01*
X91095625Y-91307522D01*
X91063765Y-91296038D01*
X91053133Y-91293172D01*
X91043875Y-91305594D01*
X91027771Y-91335866D01*
X91007741Y-91378347D01*
X90999887Y-91396101D01*
X90977265Y-91444093D01*
X90955178Y-91484141D01*
X90937476Y-91509447D01*
X90933510Y-91513215D01*
X90901985Y-91527528D01*
X90865164Y-91531404D01*
X90831101Y-91525816D01*
X90807853Y-91511736D01*
X90802329Y-91497377D01*
X90793892Y-91477115D01*
X90772876Y-91449637D01*
X90765150Y-91441502D01*
X90721486Y-91411345D01*
X90673986Y-91405903D01*
X90632030Y-91418714D01*
X90627239Y-91421398D01*
X90623324Y-91423902D01*
X90618889Y-91425687D01*
X90612539Y-91426216D01*
X90602877Y-91424949D01*
X90588508Y-91421348D01*
X90568037Y-91414874D01*
X90540068Y-91404989D01*
X90503205Y-91391155D01*
X90456052Y-91372832D01*
X90397214Y-91349483D01*
X90325295Y-91320569D01*
X90238900Y-91285551D01*
X90136633Y-91243890D01*
X90017098Y-91195049D01*
X89878899Y-91138489D01*
X89720642Y-91073670D01*
X89540929Y-91000056D01*
X89441686Y-90959411D01*
X89275649Y-90891079D01*
X89133016Y-90831647D01*
X89013420Y-90780955D01*
X88916495Y-90738842D01*
X88841876Y-90705148D01*
X88789194Y-90679712D01*
X88758085Y-90662374D01*
X88750511Y-90656696D01*
X88715393Y-90615497D01*
X88686778Y-90567700D01*
X88669413Y-90522221D01*
X88669325Y-90521533D01*
X88939319Y-90521533D01*
X88944989Y-90538853D01*
X88958204Y-90546344D01*
X88992759Y-90562403D01*
X89046398Y-90586101D01*
X89116861Y-90616510D01*
X89201892Y-90652700D01*
X89299231Y-90693744D01*
X89406621Y-90738714D01*
X89521804Y-90786680D01*
X89642521Y-90836713D01*
X89766515Y-90887887D01*
X89891526Y-90939271D01*
X90015299Y-90989939D01*
X90135573Y-91038960D01*
X90250092Y-91085406D01*
X90356596Y-91128350D01*
X90452828Y-91166862D01*
X90536531Y-91200015D01*
X90605445Y-91226879D01*
X90657312Y-91246526D01*
X90689875Y-91258027D01*
X90700576Y-91260731D01*
X90715521Y-91247174D01*
X90719655Y-91227142D01*
X90718473Y-91220871D01*
X90713880Y-91213980D01*
X90704301Y-91205770D01*
X90688161Y-91195541D01*
X90663887Y-91182593D01*
X90629904Y-91166226D01*
X90584638Y-91145740D01*
X90526515Y-91120435D01*
X90453960Y-91089611D01*
X90365399Y-91052569D01*
X90259259Y-91008608D01*
X90133965Y-90957028D01*
X89987942Y-90897130D01*
X89854757Y-90842594D01*
X89713796Y-90785015D01*
X89579415Y-90730344D01*
X89453511Y-90679339D01*
X89337979Y-90632758D01*
X89234716Y-90591357D01*
X89145618Y-90555896D01*
X89072580Y-90527132D01*
X89017498Y-90505822D01*
X88982270Y-90492725D01*
X88968962Y-90488579D01*
X88946704Y-90498522D01*
X88939319Y-90521533D01*
X88669325Y-90521533D01*
X88666389Y-90498595D01*
X88671418Y-90478215D01*
X88684926Y-90438551D01*
X88705375Y-90383706D01*
X88731233Y-90317780D01*
X88760962Y-90244876D01*
X88762411Y-90241393D01*
X88881748Y-90241393D01*
X88889251Y-90266276D01*
X88910386Y-90270982D01*
X88943092Y-90255357D01*
X88954592Y-90246887D01*
X88995484Y-90227180D01*
X89034524Y-90221448D01*
X89048701Y-90223594D01*
X89073057Y-90230300D01*
X89108607Y-90241967D01*
X89156367Y-90258999D01*
X89217353Y-90281797D01*
X89292582Y-90310763D01*
X89383069Y-90346300D01*
X89489830Y-90388810D01*
X89613881Y-90438696D01*
X89756237Y-90496358D01*
X89917916Y-90562200D01*
X90099932Y-90636624D01*
X90303302Y-90720032D01*
X90529042Y-90812826D01*
X90547947Y-90820605D01*
X90626580Y-90852509D01*
X90698021Y-90880637D01*
X90758713Y-90903656D01*
X90805095Y-90920234D01*
X90833607Y-90929039D01*
X90840486Y-90930072D01*
X90855421Y-90916514D01*
X90859565Y-90896632D01*
X90858188Y-90888991D01*
X90852750Y-90880872D01*
X90841284Y-90871362D01*
X90821827Y-90859547D01*
X90792412Y-90844515D01*
X90751077Y-90825352D01*
X90695855Y-90801146D01*
X90624782Y-90770984D01*
X90535893Y-90733951D01*
X90427223Y-90689135D01*
X90306285Y-90639507D01*
X90110536Y-90559297D01*
X89936908Y-90488203D01*
X89783987Y-90425683D01*
X89650358Y-90371197D01*
X89534609Y-90324202D01*
X89435325Y-90284158D01*
X89351094Y-90250523D01*
X89280500Y-90222757D01*
X89222132Y-90200318D01*
X89174574Y-90182665D01*
X89136414Y-90169256D01*
X89106237Y-90159552D01*
X89082630Y-90153009D01*
X89064180Y-90149088D01*
X89049472Y-90147246D01*
X89037094Y-90146943D01*
X89025631Y-90147638D01*
X89022293Y-90147947D01*
X88967196Y-90159964D01*
X88921822Y-90182442D01*
X88891574Y-90211790D01*
X88881748Y-90241393D01*
X88762411Y-90241393D01*
X88764962Y-90235265D01*
X88802557Y-90146252D01*
X88833227Y-90078021D01*
X88859410Y-90027703D01*
X88883544Y-89992430D01*
X88908068Y-89969330D01*
X88935418Y-89955534D01*
X88968032Y-89948173D01*
X89008349Y-89944377D01*
X89012292Y-89944121D01*
X89030657Y-89943181D01*
X89048368Y-89943347D01*
G36*
X91422705Y-86353740D02*
G01*
X91545969Y-86366665D01*
X91616350Y-86379072D01*
X91771152Y-86420414D01*
X91920674Y-86476478D01*
X92057287Y-86544183D01*
X92120040Y-86582537D01*
X92220081Y-86655776D01*
X92305695Y-86735732D01*
X92384065Y-86829609D01*
X92427183Y-86890527D01*
X92478044Y-86957824D01*
X92528065Y-87008705D01*
X92551102Y-87026250D01*
X92597953Y-87051890D01*
X92646077Y-87069462D01*
X92688718Y-87077300D01*
X92719118Y-87073741D01*
X92725818Y-87069296D01*
X92734324Y-87047524D01*
X92723191Y-87027380D01*
X92697476Y-87016595D01*
X92691103Y-87016241D01*
X92630478Y-87003827D01*
X92569735Y-86967524D01*
X92527141Y-86927119D01*
X92502571Y-86898848D01*
X92490876Y-86878386D01*
X92494167Y-86861518D01*
X92514556Y-86844028D01*
X92554154Y-86821698D01*
X92588909Y-86803764D01*
X92737487Y-86740602D01*
X92899867Y-86694942D01*
X93071081Y-86667116D01*
X93246161Y-86657455D01*
X93420140Y-86666292D01*
X93588050Y-86693959D01*
X93711472Y-86728776D01*
X93849153Y-86784742D01*
X93968717Y-86851615D01*
X94069509Y-86927776D01*
X94150874Y-87011607D01*
X94212155Y-87101488D01*
X94252697Y-87195801D01*
X94271845Y-87292926D01*
X94268943Y-87391245D01*
X94243334Y-87489138D01*
X94194364Y-87584986D01*
X94121377Y-87677170D01*
X94103072Y-87695780D01*
X94009482Y-87774553D01*
X93901915Y-87843072D01*
X93786825Y-87898233D01*
X93670664Y-87936933D01*
X93562369Y-87955866D01*
X93513375Y-87960693D01*
X93484610Y-87966249D01*
X93470889Y-87974349D01*
X93467026Y-87986808D01*
X93466976Y-87989250D01*
X93470610Y-88004514D01*
X93485541Y-88013043D01*
X93517813Y-88017485D01*
X93533751Y-88018533D01*
X93600526Y-88022377D01*
X93600526Y-88339025D01*
X93663412Y-88339025D01*
X93712446Y-88343405D01*
X93747627Y-88358613D01*
X93759254Y-88367643D01*
X93792211Y-88396261D01*
X93740090Y-89337473D01*
X93729622Y-89524691D01*
X93720266Y-89687899D01*
X93711922Y-89828498D01*
X93704486Y-89947886D01*
X93697858Y-90047464D01*
X93691937Y-90128630D01*
X93686620Y-90192786D01*
X93681807Y-90241329D01*
X93677395Y-90275661D01*
X93673283Y-90297180D01*
X93669782Y-90306708D01*
X93643726Y-90329242D01*
X93610162Y-90341446D01*
X93571398Y-90346097D01*
X93511314Y-90351234D01*
X93434017Y-90356631D01*
X93343615Y-90362062D01*
X93244214Y-90367302D01*
X93139923Y-90372123D01*
X93034848Y-90376301D01*
X92933098Y-90379608D01*
X92900977Y-90380470D01*
X92744369Y-90384315D01*
X92609080Y-90387357D01*
X92491004Y-90389616D01*
X92386034Y-90391117D01*
X92290066Y-90391882D01*
X92198992Y-90391933D01*
X92108707Y-90391294D01*
X92015105Y-90389987D01*
X91914080Y-90388035D01*
X91838934Y-90386348D01*
X91692792Y-90382420D01*
X91552954Y-90377674D01*
X91421814Y-90372251D01*
X91301766Y-90366296D01*
X91195205Y-90359949D01*
X91104524Y-90353353D01*
X91032119Y-90346651D01*
X90980383Y-90339986D01*
X90951862Y-90333558D01*
X90922504Y-90312763D01*
X90905725Y-90274495D01*
X90905601Y-90273996D01*
X90902983Y-90253609D01*
X90899188Y-90210047D01*
X90894359Y-90145539D01*
X90888640Y-90062313D01*
X90882173Y-89962598D01*
X90875102Y-89848624D01*
X90867568Y-89722619D01*
X90862826Y-89640588D01*
X91654507Y-89640588D01*
X91654645Y-89748659D01*
X91655163Y-89834139D01*
X91656211Y-89899872D01*
X91657944Y-89948705D01*
X91660513Y-89983483D01*
X91664072Y-90007052D01*
X91668773Y-90022256D01*
X91674769Y-90031942D01*
X91675557Y-90032841D01*
X91689601Y-90043970D01*
X91710939Y-90050958D01*
X91745010Y-90054684D01*
X91797257Y-90056029D01*
X91819395Y-90056100D01*
X91889137Y-90054404D01*
X91936479Y-90049084D01*
X91964246Y-90039795D01*
X91966873Y-90038055D01*
X91972602Y-90032988D01*
X91977391Y-90025429D01*
X91981341Y-90013179D01*
X91984553Y-89994037D01*
X91987127Y-89965802D01*
X91989165Y-89926276D01*
X91990767Y-89873256D01*
X91992034Y-89804544D01*
X91993067Y-89717938D01*
X91993968Y-89611239D01*
X91994835Y-89482246D01*
X91995223Y-89419533D01*
X91995255Y-89413787D01*
X92285609Y-89413787D01*
X92290356Y-89529104D01*
X92306134Y-89629080D01*
X92334758Y-89722085D01*
X92369219Y-89799278D01*
X92404391Y-89856451D01*
X92450579Y-89913537D01*
X92502094Y-89964848D01*
X92553245Y-90004697D01*
X92597070Y-90026999D01*
X92682739Y-90042059D01*
X92768278Y-90034267D01*
X92833827Y-90010972D01*
X92912968Y-89957843D01*
X92980859Y-89884970D01*
X93036732Y-89795787D01*
X93079817Y-89693732D01*
X93109346Y-89582237D01*
X93124550Y-89464738D01*
X93124660Y-89344670D01*
X93108908Y-89225469D01*
X93076524Y-89110568D01*
X93049623Y-89046844D01*
X92997898Y-88954944D01*
X92940357Y-88884341D01*
X92873484Y-88830997D01*
X92849048Y-88816645D01*
X92767894Y-88785456D01*
X92686466Y-88779306D01*
X92606276Y-88797856D01*
X92528836Y-88840769D01*
X92459418Y-88903549D01*
X92387282Y-88999000D01*
X92334861Y-89106574D01*
X92301513Y-89228154D01*
X92286596Y-89365626D01*
X92285609Y-89413787D01*
X91995255Y-89413787D01*
X91996016Y-89279552D01*
X91996497Y-89162805D01*
X91996602Y-89067090D01*
X91996268Y-88990205D01*
X91995433Y-88929946D01*
X91994033Y-88884111D01*
X91992006Y-88850497D01*
X91989287Y-88826902D01*
X91985815Y-88811123D01*
X91981526Y-88800958D01*
X91977353Y-88795264D01*
X91963457Y-88783986D01*
X91942852Y-88776874D01*
X91910077Y-88773038D01*
X91859674Y-88771586D01*
X91831511Y-88771474D01*
X91765740Y-88772780D01*
X91721760Y-88776998D01*
X91696041Y-88784571D01*
X91689262Y-88789412D01*
X91681435Y-88810313D01*
X91674555Y-88856031D01*
X91668645Y-88925962D01*
X91663730Y-89019502D01*
X91659835Y-89136047D01*
X91656984Y-89274991D01*
X91655203Y-89435732D01*
X91654515Y-89617664D01*
X91654507Y-89640588D01*
X90862826Y-89640588D01*
X90859717Y-89586812D01*
X90851689Y-89443431D01*
X90847981Y-89375630D01*
X90839968Y-89229061D01*
X90832182Y-89088688D01*
X90824757Y-88956787D01*
X90817825Y-88835631D01*
X90811520Y-88727497D01*
X90805975Y-88634658D01*
X90801324Y-88559389D01*
X90797700Y-88503967D01*
X90795236Y-88470664D01*
X90794550Y-88463577D01*
X90791931Y-88424123D01*
X90798082Y-88398333D01*
X90816039Y-88375090D01*
X90819710Y-88371364D01*
X90842539Y-88352567D01*
X90868713Y-88342767D01*
X90907346Y-88339266D01*
X90928941Y-88339025D01*
X91005834Y-88339025D01*
X91005834Y-88090508D01*
X91102325Y-88095381D01*
X91159221Y-88096194D01*
X91197850Y-88092307D01*
X91212981Y-88086089D01*
X91221044Y-88072017D01*
X91212489Y-88060548D01*
X91185104Y-88050898D01*
X91136679Y-88042285D01*
X91066124Y-88034037D01*
X90885643Y-88006358D01*
X90717215Y-87961702D01*
X90562569Y-87901074D01*
X90423434Y-87825472D01*
X90301538Y-87735901D01*
X90198610Y-87633360D01*
X90116379Y-87518851D01*
X90088525Y-87467622D01*
X90063718Y-87415896D01*
X90047664Y-87375469D01*
X90038087Y-87337200D01*
X90032713Y-87291949D01*
X90029269Y-87230574D01*
X90029208Y-87229218D01*
X90027199Y-87165190D01*
X90028546Y-87117641D01*
X90034275Y-87077722D01*
X90045414Y-87036579D01*
X90054806Y-87008533D01*
X90109862Y-86888383D01*
X90187650Y-86777023D01*
X90286652Y-86675561D01*
X90405349Y-86585108D01*
X90542223Y-86506771D01*
X90695753Y-86441660D01*
X90864423Y-86390884D01*
X90917125Y-86378747D01*
X91028397Y-86360981D01*
X91155418Y-86350894D01*
X91289687Y-86348482D01*
X91422705Y-86353740D01*
G37*
X91422705Y-86353740D02*
X91545969Y-86366665D01*
X91616350Y-86379072D01*
X91771152Y-86420414D01*
X91920674Y-86476478D01*
X92057287Y-86544183D01*
X92120040Y-86582537D01*
X92220081Y-86655776D01*
X92305695Y-86735732D01*
X92384065Y-86829609D01*
X92427183Y-86890527D01*
X92478044Y-86957824D01*
X92528065Y-87008705D01*
X92551102Y-87026250D01*
X92597953Y-87051890D01*
X92646077Y-87069462D01*
X92688718Y-87077300D01*
X92719118Y-87073741D01*
X92725818Y-87069296D01*
X92734324Y-87047524D01*
X92723191Y-87027380D01*
X92697476Y-87016595D01*
X92691103Y-87016241D01*
X92630478Y-87003827D01*
X92569735Y-86967524D01*
X92527141Y-86927119D01*
X92502571Y-86898848D01*
X92490876Y-86878386D01*
X92494167Y-86861518D01*
X92514556Y-86844028D01*
X92554154Y-86821698D01*
X92588909Y-86803764D01*
X92737487Y-86740602D01*
X92899867Y-86694942D01*
X93071081Y-86667116D01*
X93246161Y-86657455D01*
X93420140Y-86666292D01*
X93588050Y-86693959D01*
X93711472Y-86728776D01*
X93849153Y-86784742D01*
X93968717Y-86851615D01*
X94069509Y-86927776D01*
X94150874Y-87011607D01*
X94212155Y-87101488D01*
X94252697Y-87195801D01*
X94271845Y-87292926D01*
X94268943Y-87391245D01*
X94243334Y-87489138D01*
X94194364Y-87584986D01*
X94121377Y-87677170D01*
X94103072Y-87695780D01*
X94009482Y-87774553D01*
X93901915Y-87843072D01*
X93786825Y-87898233D01*
X93670664Y-87936933D01*
X93562369Y-87955866D01*
X93513375Y-87960693D01*
X93484610Y-87966249D01*
X93470889Y-87974349D01*
X93467026Y-87986808D01*
X93466976Y-87989250D01*
X93470610Y-88004514D01*
X93485541Y-88013043D01*
X93517813Y-88017485D01*
X93533751Y-88018533D01*
X93600526Y-88022377D01*
X93600526Y-88339025D01*
X93663412Y-88339025D01*
X93712446Y-88343405D01*
X93747627Y-88358613D01*
X93759254Y-88367643D01*
X93792211Y-88396261D01*
X93740090Y-89337473D01*
X93729622Y-89524691D01*
X93720266Y-89687899D01*
X93711922Y-89828498D01*
X93704486Y-89947886D01*
X93697858Y-90047464D01*
X93691937Y-90128630D01*
X93686620Y-90192786D01*
X93681807Y-90241329D01*
X93677395Y-90275661D01*
X93673283Y-90297180D01*
X93669782Y-90306708D01*
X93643726Y-90329242D01*
X93610162Y-90341446D01*
X93571398Y-90346097D01*
X93511314Y-90351234D01*
X93434017Y-90356631D01*
X93343615Y-90362062D01*
X93244214Y-90367302D01*
X93139923Y-90372123D01*
X93034848Y-90376301D01*
X92933098Y-90379608D01*
X92900977Y-90380470D01*
X92744369Y-90384315D01*
X92609080Y-90387357D01*
X92491004Y-90389616D01*
X92386034Y-90391117D01*
X92290066Y-90391882D01*
X92198992Y-90391933D01*
X92108707Y-90391294D01*
X92015105Y-90389987D01*
X91914080Y-90388035D01*
X91838934Y-90386348D01*
X91692792Y-90382420D01*
X91552954Y-90377674D01*
X91421814Y-90372251D01*
X91301766Y-90366296D01*
X91195205Y-90359949D01*
X91104524Y-90353353D01*
X91032119Y-90346651D01*
X90980383Y-90339986D01*
X90951862Y-90333558D01*
X90922504Y-90312763D01*
X90905725Y-90274495D01*
X90905601Y-90273996D01*
X90902983Y-90253609D01*
X90899188Y-90210047D01*
X90894359Y-90145539D01*
X90888640Y-90062313D01*
X90882173Y-89962598D01*
X90875102Y-89848624D01*
X90867568Y-89722619D01*
X90862826Y-89640588D01*
X91654507Y-89640588D01*
X91654645Y-89748659D01*
X91655163Y-89834139D01*
X91656211Y-89899872D01*
X91657944Y-89948705D01*
X91660513Y-89983483D01*
X91664072Y-90007052D01*
X91668773Y-90022256D01*
X91674769Y-90031942D01*
X91675557Y-90032841D01*
X91689601Y-90043970D01*
X91710939Y-90050958D01*
X91745010Y-90054684D01*
X91797257Y-90056029D01*
X91819395Y-90056100D01*
X91889137Y-90054404D01*
X91936479Y-90049084D01*
X91964246Y-90039795D01*
X91966873Y-90038055D01*
X91972602Y-90032988D01*
X91977391Y-90025429D01*
X91981341Y-90013179D01*
X91984553Y-89994037D01*
X91987127Y-89965802D01*
X91989165Y-89926276D01*
X91990767Y-89873256D01*
X91992034Y-89804544D01*
X91993067Y-89717938D01*
X91993968Y-89611239D01*
X91994835Y-89482246D01*
X91995223Y-89419533D01*
X91995255Y-89413787D01*
X92285609Y-89413787D01*
X92290356Y-89529104D01*
X92306134Y-89629080D01*
X92334758Y-89722085D01*
X92369219Y-89799278D01*
X92404391Y-89856451D01*
X92450579Y-89913537D01*
X92502094Y-89964848D01*
X92553245Y-90004697D01*
X92597070Y-90026999D01*
X92682739Y-90042059D01*
X92768278Y-90034267D01*
X92833827Y-90010972D01*
X92912968Y-89957843D01*
X92980859Y-89884970D01*
X93036732Y-89795787D01*
X93079817Y-89693732D01*
X93109346Y-89582237D01*
X93124550Y-89464738D01*
X93124660Y-89344670D01*
X93108908Y-89225469D01*
X93076524Y-89110568D01*
X93049623Y-89046844D01*
X92997898Y-88954944D01*
X92940357Y-88884341D01*
X92873484Y-88830997D01*
X92849048Y-88816645D01*
X92767894Y-88785456D01*
X92686466Y-88779306D01*
X92606276Y-88797856D01*
X92528836Y-88840769D01*
X92459418Y-88903549D01*
X92387282Y-88999000D01*
X92334861Y-89106574D01*
X92301513Y-89228154D01*
X92286596Y-89365626D01*
X92285609Y-89413787D01*
X91995255Y-89413787D01*
X91996016Y-89279552D01*
X91996497Y-89162805D01*
X91996602Y-89067090D01*
X91996268Y-88990205D01*
X91995433Y-88929946D01*
X91994033Y-88884111D01*
X91992006Y-88850497D01*
X91989287Y-88826902D01*
X91985815Y-88811123D01*
X91981526Y-88800958D01*
X91977353Y-88795264D01*
X91963457Y-88783986D01*
X91942852Y-88776874D01*
X91910077Y-88773038D01*
X91859674Y-88771586D01*
X91831511Y-88771474D01*
X91765740Y-88772780D01*
X91721760Y-88776998D01*
X91696041Y-88784571D01*
X91689262Y-88789412D01*
X91681435Y-88810313D01*
X91674555Y-88856031D01*
X91668645Y-88925962D01*
X91663730Y-89019502D01*
X91659835Y-89136047D01*
X91656984Y-89274991D01*
X91655203Y-89435732D01*
X91654515Y-89617664D01*
X91654507Y-89640588D01*
X90862826Y-89640588D01*
X90859717Y-89586812D01*
X90851689Y-89443431D01*
X90847981Y-89375630D01*
X90839968Y-89229061D01*
X90832182Y-89088688D01*
X90824757Y-88956787D01*
X90817825Y-88835631D01*
X90811520Y-88727497D01*
X90805975Y-88634658D01*
X90801324Y-88559389D01*
X90797700Y-88503967D01*
X90795236Y-88470664D01*
X90794550Y-88463577D01*
X90791931Y-88424123D01*
X90798082Y-88398333D01*
X90816039Y-88375090D01*
X90819710Y-88371364D01*
X90842539Y-88352567D01*
X90868713Y-88342767D01*
X90907346Y-88339266D01*
X90928941Y-88339025D01*
X91005834Y-88339025D01*
X91005834Y-88090508D01*
X91102325Y-88095381D01*
X91159221Y-88096194D01*
X91197850Y-88092307D01*
X91212981Y-88086089D01*
X91221044Y-88072017D01*
X91212489Y-88060548D01*
X91185104Y-88050898D01*
X91136679Y-88042285D01*
X91066124Y-88034037D01*
X90885643Y-88006358D01*
X90717215Y-87961702D01*
X90562569Y-87901074D01*
X90423434Y-87825472D01*
X90301538Y-87735901D01*
X90198610Y-87633360D01*
X90116379Y-87518851D01*
X90088525Y-87467622D01*
X90063718Y-87415896D01*
X90047664Y-87375469D01*
X90038087Y-87337200D01*
X90032713Y-87291949D01*
X90029269Y-87230574D01*
X90029208Y-87229218D01*
X90027199Y-87165190D01*
X90028546Y-87117641D01*
X90034275Y-87077722D01*
X90045414Y-87036579D01*
X90054806Y-87008533D01*
X90109862Y-86888383D01*
X90187650Y-86777023D01*
X90286652Y-86675561D01*
X90405349Y-86585108D01*
X90542223Y-86506771D01*
X90695753Y-86441660D01*
X90864423Y-86390884D01*
X90917125Y-86378747D01*
X91028397Y-86360981D01*
X91155418Y-86350894D01*
X91289687Y-86348482D01*
X91422705Y-86353740D01*
G36*
G01*
X103549200Y-106262900D02*
X103549200Y-105737100D01*
G75*
G02*
X103812100Y-105474200I262900J0D01*
G01*
X104437900Y-105474200D01*
G75*
G02*
X104700800Y-105737100I0J-262900D01*
G01*
X104700800Y-106262900D01*
G75*
G02*
X104437900Y-106525800I-262900J0D01*
G01*
X103812100Y-106525800D01*
G75*
G02*
X103549200Y-106262900I0J262900D01*
G01*
G37*
G36*
G01*
X105299200Y-106262900D02*
X105299200Y-105737100D01*
G75*
G02*
X105562100Y-105474200I262900J0D01*
G01*
X106187900Y-105474200D01*
G75*
G02*
X106450800Y-105737100I0J-262900D01*
G01*
X106450800Y-106262900D01*
G75*
G02*
X106187900Y-106525800I-262900J0D01*
G01*
X105562100Y-106525800D01*
G75*
G02*
X105299200Y-106262900I0J262900D01*
G01*
G37*
G36*
G01*
X103349200Y-103478715D02*
X103349200Y-102521285D01*
G75*
G02*
X103621285Y-102249200I272085J0D01*
G01*
X104328715Y-102249200D01*
G75*
G02*
X104600800Y-102521285I0J-272085D01*
G01*
X104600800Y-103478715D01*
G75*
G02*
X104328715Y-103750800I-272085J0D01*
G01*
X103621285Y-103750800D01*
G75*
G02*
X103349200Y-103478715I0J272085D01*
G01*
G37*
G36*
G01*
X105399200Y-103478715D02*
X105399200Y-102521285D01*
G75*
G02*
X105671285Y-102249200I272085J0D01*
G01*
X106378715Y-102249200D01*
G75*
G02*
X106650800Y-102521285I0J-272085D01*
G01*
X106650800Y-103478715D01*
G75*
G02*
X106378715Y-103750800I-272085J0D01*
G01*
X105671285Y-103750800D01*
G75*
G02*
X105399200Y-103478715I0J272085D01*
G01*
G37*
G36*
G01*
X100139200Y-109197900D02*
X100139200Y-108802100D01*
G75*
G02*
X100312100Y-108629200I172900J0D01*
G01*
X100657900Y-108629200D01*
G75*
G02*
X100830800Y-108802100I0J-172900D01*
G01*
X100830800Y-109197900D01*
G75*
G02*
X100657900Y-109370800I-172900J0D01*
G01*
X100312100Y-109370800D01*
G75*
G02*
X100139200Y-109197900I0J172900D01*
G01*
G37*
G36*
G01*
X99169200Y-109197900D02*
X99169200Y-108802100D01*
G75*
G02*
X99342100Y-108629200I172900J0D01*
G01*
X99687900Y-108629200D01*
G75*
G02*
X99860800Y-108802100I0J-172900D01*
G01*
X99860800Y-109197900D01*
G75*
G02*
X99687900Y-109370800I-172900J0D01*
G01*
X99342100Y-109370800D01*
G75*
G02*
X99169200Y-109197900I0J172900D01*
G01*
G37*
D13*
X100000000Y-84000000D03*
G36*
G01*
X105139200Y-109197900D02*
X105139200Y-108802100D01*
G75*
G02*
X105312100Y-108629200I172900J0D01*
G01*
X105657900Y-108629200D01*
G75*
G02*
X105830800Y-108802100I0J-172900D01*
G01*
X105830800Y-109197900D01*
G75*
G02*
X105657900Y-109370800I-172900J0D01*
G01*
X105312100Y-109370800D01*
G75*
G02*
X105139200Y-109197900I0J172900D01*
G01*
G37*
G36*
G01*
X104169200Y-109197900D02*
X104169200Y-108802100D01*
G75*
G02*
X104342100Y-108629200I172900J0D01*
G01*
X104687900Y-108629200D01*
G75*
G02*
X104860800Y-108802100I0J-172900D01*
G01*
X104860800Y-109197900D01*
G75*
G02*
X104687900Y-109370800I-172900J0D01*
G01*
X104342100Y-109370800D01*
G75*
G02*
X104169200Y-109197900I0J172900D01*
G01*
G37*
G36*
G01*
X98349200Y-103478715D02*
X98349200Y-102521285D01*
G75*
G02*
X98621285Y-102249200I272085J0D01*
G01*
X99328715Y-102249200D01*
G75*
G02*
X99600800Y-102521285I0J-272085D01*
G01*
X99600800Y-103478715D01*
G75*
G02*
X99328715Y-103750800I-272085J0D01*
G01*
X98621285Y-103750800D01*
G75*
G02*
X98349200Y-103478715I0J272085D01*
G01*
G37*
G36*
G01*
X100399200Y-103478715D02*
X100399200Y-102521285D01*
G75*
G02*
X100671285Y-102249200I272085J0D01*
G01*
X101378715Y-102249200D01*
G75*
G02*
X101650800Y-102521285I0J-272085D01*
G01*
X101650800Y-103478715D01*
G75*
G02*
X101378715Y-103750800I-272085J0D01*
G01*
X100671285Y-103750800D01*
G75*
G02*
X100399200Y-103478715I0J272085D01*
G01*
G37*
G36*
G01*
X98549200Y-106262900D02*
X98549200Y-105737100D01*
G75*
G02*
X98812100Y-105474200I262900J0D01*
G01*
X99437900Y-105474200D01*
G75*
G02*
X99700800Y-105737100I0J-262900D01*
G01*
X99700800Y-106262900D01*
G75*
G02*
X99437900Y-106525800I-262900J0D01*
G01*
X98812100Y-106525800D01*
G75*
G02*
X98549200Y-106262900I0J262900D01*
G01*
G37*
G36*
G01*
X100299200Y-106262900D02*
X100299200Y-105737100D01*
G75*
G02*
X100562100Y-105474200I262900J0D01*
G01*
X101187900Y-105474200D01*
G75*
G02*
X101450800Y-105737100I0J-262900D01*
G01*
X101450800Y-106262900D01*
G75*
G02*
X101187900Y-106525800I-262900J0D01*
G01*
X100562100Y-106525800D01*
G75*
G02*
X100299200Y-106262900I0J262900D01*
G01*
G37*
G36*
G01*
X100013400Y-112114000D02*
X100013400Y-111863200D01*
G75*
G02*
X100138800Y-111737800I125400J0D01*
G01*
X100589600Y-111737800D01*
G75*
G02*
X100715000Y-111863200I0J-125400D01*
G01*
X100715000Y-112114000D01*
G75*
G02*
X100589600Y-112239400I-125400J0D01*
G01*
X100138800Y-112239400D01*
G75*
G02*
X100013400Y-112114000I0J125400D01*
G01*
G37*
G36*
G01*
X99213400Y-112114000D02*
X99213400Y-111863200D01*
G75*
G02*
X99338800Y-111737800I125400J0D01*
G01*
X99789600Y-111737800D01*
G75*
G02*
X99915000Y-111863200I0J-125400D01*
G01*
X99915000Y-112114000D01*
G75*
G02*
X99789600Y-112239400I-125400J0D01*
G01*
X99338800Y-112239400D01*
G75*
G02*
X99213400Y-112114000I0J125400D01*
G01*
G37*
G36*
G01*
X99249200Y-115125400D02*
X99249200Y-114874600D01*
G75*
G02*
X99374600Y-114749200I125400J0D01*
G01*
X99825400Y-114749200D01*
G75*
G02*
X99950800Y-114874600I0J-125400D01*
G01*
X99950800Y-115125400D01*
G75*
G02*
X99825400Y-115250800I-125400J0D01*
G01*
X99374600Y-115250800D01*
G75*
G02*
X99249200Y-115125400I0J125400D01*
G01*
G37*
G36*
G01*
X100049200Y-115125400D02*
X100049200Y-114874600D01*
G75*
G02*
X100174600Y-114749200I125400J0D01*
G01*
X100625400Y-114749200D01*
G75*
G02*
X100750800Y-114874600I0J-125400D01*
G01*
X100750800Y-115125400D01*
G75*
G02*
X100625400Y-115250800I-125400J0D01*
G01*
X100174600Y-115250800D01*
G75*
G02*
X100049200Y-115125400I0J125400D01*
G01*
G37*
G36*
G01*
X104249200Y-112125400D02*
X104249200Y-111874600D01*
G75*
G02*
X104374600Y-111749200I125400J0D01*
G01*
X104825400Y-111749200D01*
G75*
G02*
X104950800Y-111874600I0J-125400D01*
G01*
X104950800Y-112125400D01*
G75*
G02*
X104825400Y-112250800I-125400J0D01*
G01*
X104374600Y-112250800D01*
G75*
G02*
X104249200Y-112125400I0J125400D01*
G01*
G37*
G36*
G01*
X105049200Y-112125400D02*
X105049200Y-111874600D01*
G75*
G02*
X105174600Y-111749200I125400J0D01*
G01*
X105625400Y-111749200D01*
G75*
G02*
X105750800Y-111874600I0J-125400D01*
G01*
X105750800Y-112125400D01*
G75*
G02*
X105625400Y-112250800I-125400J0D01*
G01*
X105174600Y-112250800D01*
G75*
G02*
X105049200Y-112125400I0J125400D01*
G01*
G37*
G36*
G01*
X104249200Y-115098900D02*
X104249200Y-114898100D01*
G75*
G02*
X104349600Y-114797700I100400J0D01*
G01*
X104850400Y-114797700D01*
G75*
G02*
X104950800Y-114898100I0J-100400D01*
G01*
X104950800Y-115098900D01*
G75*
G02*
X104850400Y-115199300I-100400J0D01*
G01*
X104349600Y-115199300D01*
G75*
G02*
X104249200Y-115098900I0J100400D01*
G01*
G37*
G36*
G01*
X105049200Y-115098900D02*
X105049200Y-114898100D01*
G75*
G02*
X105149600Y-114797700I100400J0D01*
G01*
X105650400Y-114797700D01*
G75*
G02*
X105750800Y-114898100I0J-100400D01*
G01*
X105750800Y-115098900D01*
G75*
G02*
X105650400Y-115199300I-100400J0D01*
G01*
X105149600Y-115199300D01*
G75*
G02*
X105049200Y-115098900I0J100400D01*
G01*
G37*
G36*
G01*
X104154000Y-93766800D02*
X103354000Y-93766800D01*
G75*
G02*
X103303200Y-93716000I0J50800D01*
G01*
X103303200Y-92416000D01*
G75*
G02*
X103354000Y-92365200I50800J0D01*
G01*
X104154000Y-92365200D01*
G75*
G02*
X104204800Y-92416000I0J-50800D01*
G01*
X104204800Y-93716000D01*
G75*
G02*
X104154000Y-93766800I-50800J0D01*
G01*
G37*
G36*
G01*
X105434000Y-93766800D02*
X104634000Y-93766800D01*
G75*
G02*
X104583200Y-93716000I0J50800D01*
G01*
X104583200Y-92416000D01*
G75*
G02*
X104634000Y-92365200I50800J0D01*
G01*
X105434000Y-92365200D01*
G75*
G02*
X105484800Y-92416000I0J-50800D01*
G01*
X105484800Y-93716000D01*
G75*
G02*
X105434000Y-93766800I-50800J0D01*
G01*
G37*
G36*
G01*
X106694000Y-93766800D02*
X105894000Y-93766800D01*
G75*
G02*
X105843200Y-93716000I0J50800D01*
G01*
X105843200Y-92416000D01*
G75*
G02*
X105894000Y-92365200I50800J0D01*
G01*
X106694000Y-92365200D01*
G75*
G02*
X106744800Y-92416000I0J-50800D01*
G01*
X106744800Y-93716000D01*
G75*
G02*
X106694000Y-93766800I-50800J0D01*
G01*
G37*
G36*
G01*
X107964000Y-93766800D02*
X107164000Y-93766800D01*
G75*
G02*
X107113200Y-93716000I0J50800D01*
G01*
X107113200Y-92416000D01*
G75*
G02*
X107164000Y-92365200I50800J0D01*
G01*
X107964000Y-92365200D01*
G75*
G02*
X108014800Y-92416000I0J-50800D01*
G01*
X108014800Y-93716000D01*
G75*
G02*
X107964000Y-93766800I-50800J0D01*
G01*
G37*
G36*
G01*
X109244000Y-93766800D02*
X108444000Y-93766800D01*
G75*
G02*
X108393200Y-93716000I0J50800D01*
G01*
X108393200Y-92416000D01*
G75*
G02*
X108444000Y-92365200I50800J0D01*
G01*
X109244000Y-92365200D01*
G75*
G02*
X109294800Y-92416000I0J-50800D01*
G01*
X109294800Y-93716000D01*
G75*
G02*
X109244000Y-93766800I-50800J0D01*
G01*
G37*
G36*
G01*
X110514000Y-93766800D02*
X109714000Y-93766800D01*
G75*
G02*
X109663200Y-93716000I0J50800D01*
G01*
X109663200Y-92416000D01*
G75*
G02*
X109714000Y-92365200I50800J0D01*
G01*
X110514000Y-92365200D01*
G75*
G02*
X110564800Y-92416000I0J-50800D01*
G01*
X110564800Y-93716000D01*
G75*
G02*
X110514000Y-93766800I-50800J0D01*
G01*
G37*
G36*
G01*
X111774000Y-93766800D02*
X110974000Y-93766800D01*
G75*
G02*
X110923200Y-93716000I0J50800D01*
G01*
X110923200Y-92416000D01*
G75*
G02*
X110974000Y-92365200I50800J0D01*
G01*
X111774000Y-92365200D01*
G75*
G02*
X111824800Y-92416000I0J-50800D01*
G01*
X111824800Y-93716000D01*
G75*
G02*
X111774000Y-93766800I-50800J0D01*
G01*
G37*
G36*
G01*
X113054000Y-93766800D02*
X112254000Y-93766800D01*
G75*
G02*
X112203200Y-93716000I0J50800D01*
G01*
X112203200Y-92416000D01*
G75*
G02*
X112254000Y-92365200I50800J0D01*
G01*
X113054000Y-92365200D01*
G75*
G02*
X113104800Y-92416000I0J-50800D01*
G01*
X113104800Y-93716000D01*
G75*
G02*
X113054000Y-93766800I-50800J0D01*
G01*
G37*
G36*
G01*
X113054000Y-87466800D02*
X112254000Y-87466800D01*
G75*
G02*
X112203200Y-87416000I0J50800D01*
G01*
X112203200Y-86116000D01*
G75*
G02*
X112254000Y-86065200I50800J0D01*
G01*
X113054000Y-86065200D01*
G75*
G02*
X113104800Y-86116000I0J-50800D01*
G01*
X113104800Y-87416000D01*
G75*
G02*
X113054000Y-87466800I-50800J0D01*
G01*
G37*
G36*
G01*
X111774000Y-87466800D02*
X110974000Y-87466800D01*
G75*
G02*
X110923200Y-87416000I0J50800D01*
G01*
X110923200Y-86116000D01*
G75*
G02*
X110974000Y-86065200I50800J0D01*
G01*
X111774000Y-86065200D01*
G75*
G02*
X111824800Y-86116000I0J-50800D01*
G01*
X111824800Y-87416000D01*
G75*
G02*
X111774000Y-87466800I-50800J0D01*
G01*
G37*
G36*
G01*
X110514000Y-87466800D02*
X109714000Y-87466800D01*
G75*
G02*
X109663200Y-87416000I0J50800D01*
G01*
X109663200Y-86116000D01*
G75*
G02*
X109714000Y-86065200I50800J0D01*
G01*
X110514000Y-86065200D01*
G75*
G02*
X110564800Y-86116000I0J-50800D01*
G01*
X110564800Y-87416000D01*
G75*
G02*
X110514000Y-87466800I-50800J0D01*
G01*
G37*
G36*
G01*
X109244000Y-87466800D02*
X108444000Y-87466800D01*
G75*
G02*
X108393200Y-87416000I0J50800D01*
G01*
X108393200Y-86116000D01*
G75*
G02*
X108444000Y-86065200I50800J0D01*
G01*
X109244000Y-86065200D01*
G75*
G02*
X109294800Y-86116000I0J-50800D01*
G01*
X109294800Y-87416000D01*
G75*
G02*
X109244000Y-87466800I-50800J0D01*
G01*
G37*
G36*
G01*
X107964000Y-87466800D02*
X107164000Y-87466800D01*
G75*
G02*
X107113200Y-87416000I0J50800D01*
G01*
X107113200Y-86116000D01*
G75*
G02*
X107164000Y-86065200I50800J0D01*
G01*
X107964000Y-86065200D01*
G75*
G02*
X108014800Y-86116000I0J-50800D01*
G01*
X108014800Y-87416000D01*
G75*
G02*
X107964000Y-87466800I-50800J0D01*
G01*
G37*
G36*
G01*
X106694000Y-87466800D02*
X105894000Y-87466800D01*
G75*
G02*
X105843200Y-87416000I0J50800D01*
G01*
X105843200Y-86116000D01*
G75*
G02*
X105894000Y-86065200I50800J0D01*
G01*
X106694000Y-86065200D01*
G75*
G02*
X106744800Y-86116000I0J-50800D01*
G01*
X106744800Y-87416000D01*
G75*
G02*
X106694000Y-87466800I-50800J0D01*
G01*
G37*
G36*
G01*
X105434000Y-87466800D02*
X104634000Y-87466800D01*
G75*
G02*
X104583200Y-87416000I0J50800D01*
G01*
X104583200Y-86116000D01*
G75*
G02*
X104634000Y-86065200I50800J0D01*
G01*
X105434000Y-86065200D01*
G75*
G02*
X105484800Y-86116000I0J-50800D01*
G01*
X105484800Y-87416000D01*
G75*
G02*
X105434000Y-87466800I-50800J0D01*
G01*
G37*
G36*
G01*
X104154000Y-87466800D02*
X103354000Y-87466800D01*
G75*
G02*
X103303200Y-87416000I0J50800D01*
G01*
X103303200Y-86116000D01*
G75*
G02*
X103354000Y-86065200I50800J0D01*
G01*
X104154000Y-86065200D01*
G75*
G02*
X104204800Y-86116000I0J-50800D01*
G01*
X104204800Y-87416000D01*
G75*
G02*
X104154000Y-87466800I-50800J0D01*
G01*
G37*
M02*
