G04 #@! TF.GenerationSoftware,KiCad,Pcbnew,5.1.9*
G04 #@! TF.CreationDate,2021-04-20T19:19:39+02:00*
G04 #@! TF.ProjectId,nibble++,6e696262-6c65-42b2-9b2e-6b696361645f,rev?*
G04 #@! TF.SameCoordinates,Original*
G04 #@! TF.FileFunction,Legend,Bot*
G04 #@! TF.FilePolarity,Positive*
%FSLAX46Y46*%
G04 Gerber Fmt 4.6, Leading zero omitted, Abs format (unit mm)*
G04 Created by KiCad (PCBNEW 5.1.9) date 2021-04-20 19:19:39*
%MOMM*%
%LPD*%
G01*
G04 APERTURE LIST*
%ADD10C,0.187500*%
%ADD11C,0.110000*%
%ADD12C,0.140000*%
%ADD13C,0.120000*%
%ADD14C,0.150000*%
G04 APERTURE END LIST*
D10*
X97033172Y-87591809D02*
X97033172Y-85991809D01*
X96118886Y-87591809D01*
X96118886Y-85991809D01*
X95356982Y-87591809D02*
X95356982Y-86525142D01*
X95356982Y-85991809D02*
X95433172Y-86068000D01*
X95356982Y-86144190D01*
X95280791Y-86068000D01*
X95356982Y-85991809D01*
X95356982Y-86144190D01*
X94595077Y-87591809D02*
X94595077Y-85991809D01*
X94595077Y-86601333D02*
X94442696Y-86525142D01*
X94137934Y-86525142D01*
X93985553Y-86601333D01*
X93909363Y-86677523D01*
X93833172Y-86829904D01*
X93833172Y-87287047D01*
X93909363Y-87439428D01*
X93985553Y-87515619D01*
X94137934Y-87591809D01*
X94442696Y-87591809D01*
X94595077Y-87515619D01*
X93147458Y-87591809D02*
X93147458Y-85991809D01*
X93147458Y-86601333D02*
X92995077Y-86525142D01*
X92690315Y-86525142D01*
X92537934Y-86601333D01*
X92461744Y-86677523D01*
X92385553Y-86829904D01*
X92385553Y-87287047D01*
X92461744Y-87439428D01*
X92537934Y-87515619D01*
X92690315Y-87591809D01*
X92995077Y-87591809D01*
X93147458Y-87515619D01*
X91471267Y-87591809D02*
X91623648Y-87515619D01*
X91699839Y-87363238D01*
X91699839Y-85991809D01*
X90252220Y-87515619D02*
X90404601Y-87591809D01*
X90709363Y-87591809D01*
X90861744Y-87515619D01*
X90937934Y-87363238D01*
X90937934Y-86753714D01*
X90861744Y-86601333D01*
X90709363Y-86525142D01*
X90404601Y-86525142D01*
X90252220Y-86601333D01*
X90176029Y-86753714D01*
X90176029Y-86906095D01*
X90937934Y-87058476D01*
X89490315Y-86982285D02*
X88271267Y-86982285D01*
X88880791Y-87591809D02*
X88880791Y-86372761D01*
X87509363Y-86982285D02*
X86290315Y-86982285D01*
X86899839Y-87591809D02*
X86899839Y-86372761D01*
D11*
X86867904Y-87864190D02*
X86701238Y-88364190D01*
X86534571Y-87864190D01*
X86106000Y-88364190D02*
X86391714Y-88364190D01*
X86248857Y-88364190D02*
X86248857Y-87864190D01*
X86296476Y-87935619D01*
X86344095Y-87983238D01*
X86391714Y-88007047D01*
X85891714Y-88316571D02*
X85867904Y-88340380D01*
X85891714Y-88364190D01*
X85915523Y-88340380D01*
X85891714Y-88316571D01*
X85891714Y-88364190D01*
X85677428Y-87911809D02*
X85653619Y-87888000D01*
X85606000Y-87864190D01*
X85486952Y-87864190D01*
X85439333Y-87888000D01*
X85415523Y-87911809D01*
X85391714Y-87959428D01*
X85391714Y-88007047D01*
X85415523Y-88078476D01*
X85701238Y-88364190D01*
X85391714Y-88364190D01*
D12*
X97012428Y-89874285D02*
X97012428Y-89124285D01*
X97012428Y-89410000D02*
X96941000Y-89374285D01*
X96798142Y-89374285D01*
X96726714Y-89410000D01*
X96691000Y-89445714D01*
X96655285Y-89517142D01*
X96655285Y-89731428D01*
X96691000Y-89802857D01*
X96726714Y-89838571D01*
X96798142Y-89874285D01*
X96941000Y-89874285D01*
X97012428Y-89838571D01*
X96333857Y-89874285D02*
X96333857Y-89374285D01*
X96333857Y-89124285D02*
X96369571Y-89160000D01*
X96333857Y-89195714D01*
X96298142Y-89160000D01*
X96333857Y-89124285D01*
X96333857Y-89195714D01*
X95976714Y-89374285D02*
X95976714Y-89874285D01*
X95976714Y-89445714D02*
X95941000Y-89410000D01*
X95869571Y-89374285D01*
X95762428Y-89374285D01*
X95691000Y-89410000D01*
X95655285Y-89481428D01*
X95655285Y-89874285D01*
X94976714Y-89874285D02*
X94976714Y-89481428D01*
X95012428Y-89410000D01*
X95083857Y-89374285D01*
X95226714Y-89374285D01*
X95298142Y-89410000D01*
X94976714Y-89838571D02*
X95048142Y-89874285D01*
X95226714Y-89874285D01*
X95298142Y-89838571D01*
X95333857Y-89767142D01*
X95333857Y-89695714D01*
X95298142Y-89624285D01*
X95226714Y-89588571D01*
X95048142Y-89588571D01*
X94976714Y-89552857D01*
X94619571Y-89874285D02*
X94619571Y-89374285D01*
X94619571Y-89517142D02*
X94583857Y-89445714D01*
X94548142Y-89410000D01*
X94476714Y-89374285D01*
X94405285Y-89374285D01*
X94226714Y-89374285D02*
X94048142Y-89874285D01*
X93869571Y-89374285D02*
X94048142Y-89874285D01*
X94119571Y-90052857D01*
X94155285Y-90088571D01*
X94226714Y-90124285D01*
X93583857Y-89588571D02*
X93012428Y-89588571D01*
X92655285Y-89874285D02*
X92655285Y-89124285D01*
X92583857Y-89588571D02*
X92369571Y-89874285D01*
X92369571Y-89374285D02*
X92655285Y-89660000D01*
X92048142Y-89874285D02*
X92048142Y-89374285D01*
X92048142Y-89124285D02*
X92083857Y-89160000D01*
X92048142Y-89195714D01*
X92012428Y-89160000D01*
X92048142Y-89124285D01*
X92048142Y-89195714D01*
X91798142Y-89374285D02*
X91512428Y-89374285D01*
X91691000Y-89124285D02*
X91691000Y-89767142D01*
X91655285Y-89838571D01*
X91583857Y-89874285D01*
X91512428Y-89874285D01*
X90941000Y-89838571D02*
X91012428Y-89874285D01*
X91155285Y-89874285D01*
X91226714Y-89838571D01*
X91262428Y-89802857D01*
X91298142Y-89731428D01*
X91298142Y-89517142D01*
X91262428Y-89445714D01*
X91226714Y-89410000D01*
X91155285Y-89374285D01*
X91012428Y-89374285D01*
X90941000Y-89410000D01*
X90619571Y-89874285D02*
X90619571Y-89124285D01*
X90298142Y-89874285D02*
X90298142Y-89481428D01*
X90333857Y-89410000D01*
X90405285Y-89374285D01*
X90512428Y-89374285D01*
X90583857Y-89410000D01*
X90619571Y-89445714D01*
X89655285Y-89838571D02*
X89726714Y-89874285D01*
X89869571Y-89874285D01*
X89941000Y-89838571D01*
X89976714Y-89767142D01*
X89976714Y-89481428D01*
X89941000Y-89410000D01*
X89869571Y-89374285D01*
X89726714Y-89374285D01*
X89655285Y-89410000D01*
X89619571Y-89481428D01*
X89619571Y-89552857D01*
X89976714Y-89624285D01*
X89298142Y-89374285D02*
X89298142Y-89874285D01*
X89298142Y-89445714D02*
X89262428Y-89410000D01*
X89191000Y-89374285D01*
X89083857Y-89374285D01*
X89012428Y-89410000D01*
X88976714Y-89481428D01*
X88976714Y-89874285D01*
X88619571Y-89802857D02*
X88583857Y-89838571D01*
X88619571Y-89874285D01*
X88655285Y-89838571D01*
X88619571Y-89802857D01*
X88619571Y-89874285D01*
X87941000Y-89874285D02*
X87941000Y-89124285D01*
X87941000Y-89838571D02*
X88012428Y-89874285D01*
X88155285Y-89874285D01*
X88226714Y-89838571D01*
X88262428Y-89802857D01*
X88298142Y-89731428D01*
X88298142Y-89517142D01*
X88262428Y-89445714D01*
X88226714Y-89410000D01*
X88155285Y-89374285D01*
X88012428Y-89374285D01*
X87941000Y-89410000D01*
X87298142Y-89838571D02*
X87369571Y-89874285D01*
X87512428Y-89874285D01*
X87583857Y-89838571D01*
X87619571Y-89767142D01*
X87619571Y-89481428D01*
X87583857Y-89410000D01*
X87512428Y-89374285D01*
X87369571Y-89374285D01*
X87298142Y-89410000D01*
X87262428Y-89481428D01*
X87262428Y-89552857D01*
X87619571Y-89624285D01*
X96583857Y-91199857D02*
X96619571Y-91235571D01*
X96726714Y-91271285D01*
X96798142Y-91271285D01*
X96905285Y-91235571D01*
X96976714Y-91164142D01*
X97012428Y-91092714D01*
X97048142Y-90949857D01*
X97048142Y-90842714D01*
X97012428Y-90699857D01*
X96976714Y-90628428D01*
X96905285Y-90557000D01*
X96798142Y-90521285D01*
X96726714Y-90521285D01*
X96619571Y-90557000D01*
X96583857Y-90592714D01*
X95833857Y-91199857D02*
X95869571Y-91235571D01*
X95976714Y-91271285D01*
X96048142Y-91271285D01*
X96155285Y-91235571D01*
X96226714Y-91164142D01*
X96262428Y-91092714D01*
X96298142Y-90949857D01*
X96298142Y-90842714D01*
X96262428Y-90699857D01*
X96226714Y-90628428D01*
X96155285Y-90557000D01*
X96048142Y-90521285D01*
X95976714Y-90521285D01*
X95869571Y-90557000D01*
X95833857Y-90592714D01*
X95512428Y-90985571D02*
X94941000Y-90985571D01*
X94333857Y-90878428D02*
X94226714Y-90914142D01*
X94191000Y-90949857D01*
X94155285Y-91021285D01*
X94155285Y-91128428D01*
X94191000Y-91199857D01*
X94226714Y-91235571D01*
X94298142Y-91271285D01*
X94583857Y-91271285D01*
X94583857Y-90521285D01*
X94333857Y-90521285D01*
X94262428Y-90557000D01*
X94226714Y-90592714D01*
X94191000Y-90664142D01*
X94191000Y-90735571D01*
X94226714Y-90807000D01*
X94262428Y-90842714D01*
X94333857Y-90878428D01*
X94583857Y-90878428D01*
X93691000Y-90914142D02*
X93691000Y-91271285D01*
X93941000Y-90521285D02*
X93691000Y-90914142D01*
X93441000Y-90521285D01*
X93191000Y-90985571D02*
X92619571Y-90985571D01*
X92298142Y-91235571D02*
X92191000Y-91271285D01*
X92012428Y-91271285D01*
X91941000Y-91235571D01*
X91905285Y-91199857D01*
X91869571Y-91128428D01*
X91869571Y-91057000D01*
X91905285Y-90985571D01*
X91941000Y-90949857D01*
X92012428Y-90914142D01*
X92155285Y-90878428D01*
X92226714Y-90842714D01*
X92262428Y-90807000D01*
X92298142Y-90735571D01*
X92298142Y-90664142D01*
X92262428Y-90592714D01*
X92226714Y-90557000D01*
X92155285Y-90521285D01*
X91976714Y-90521285D01*
X91869571Y-90557000D01*
X91583857Y-91057000D02*
X91226714Y-91057000D01*
X91655285Y-91271285D02*
X91405285Y-90521285D01*
X91155285Y-91271285D01*
X90405285Y-90521285D02*
X89941000Y-90521285D01*
X90191000Y-90807000D01*
X90083857Y-90807000D01*
X90012428Y-90842714D01*
X89976714Y-90878428D01*
X89941000Y-90949857D01*
X89941000Y-91128428D01*
X89976714Y-91199857D01*
X90012428Y-91235571D01*
X90083857Y-91271285D01*
X90298142Y-91271285D01*
X90369571Y-91235571D01*
X90405285Y-91199857D01*
X89619571Y-91199857D02*
X89583857Y-91235571D01*
X89619571Y-91271285D01*
X89655285Y-91235571D01*
X89619571Y-91199857D01*
X89619571Y-91271285D01*
X89119571Y-90521285D02*
X89048142Y-90521285D01*
X88976714Y-90557000D01*
X88941000Y-90592714D01*
X88905285Y-90664142D01*
X88869571Y-90807000D01*
X88869571Y-90985571D01*
X88905285Y-91128428D01*
X88941000Y-91199857D01*
X88976714Y-91235571D01*
X89048142Y-91271285D01*
X89119571Y-91271285D01*
X89191000Y-91235571D01*
X89226714Y-91199857D01*
X89262428Y-91128428D01*
X89298142Y-90985571D01*
X89298142Y-90807000D01*
X89262428Y-90664142D01*
X89226714Y-90592714D01*
X89191000Y-90557000D01*
X89119571Y-90521285D01*
D13*
X116261252Y-106628000D02*
X115738748Y-106628000D01*
X116261252Y-105208000D02*
X115738748Y-105208000D01*
X116261252Y-108914000D02*
X115738748Y-108914000D01*
X116261252Y-107494000D02*
X115738748Y-107494000D01*
X113539748Y-109780000D02*
X114062252Y-109780000D01*
X113539748Y-111200000D02*
X114062252Y-111200000D01*
X106917748Y-113082000D02*
X107440252Y-113082000D01*
X106917748Y-114502000D02*
X107440252Y-114502000D01*
X106917748Y-110288000D02*
X107440252Y-110288000D01*
X106917748Y-111708000D02*
X107440252Y-111708000D01*
D14*
X88857000Y-114539000D02*
X87457000Y-114539000D01*
X88857000Y-109439000D02*
X93007000Y-109439000D01*
X88857000Y-114589000D02*
X93007000Y-114589000D01*
X88857000Y-109439000D02*
X88857000Y-109584000D01*
X93007000Y-109439000D02*
X93007000Y-109584000D01*
X93007000Y-114589000D02*
X93007000Y-114444000D01*
X88857000Y-114589000D02*
X88857000Y-114539000D01*
D13*
X111350000Y-96150000D02*
X114550000Y-96150000D01*
X114550000Y-96150000D02*
X114550000Y-97700000D01*
X111350000Y-91650000D02*
X111350000Y-96150000D01*
X111350000Y-91650000D02*
X90450000Y-91650000D01*
X88650000Y-93450000D02*
X88650000Y-96150000D01*
X90450000Y-91650000D02*
X88650000Y-93450000D01*
X88650000Y-96150000D02*
X85450000Y-96150000D01*
X85450000Y-96150000D02*
X85450000Y-97700000D01*
X88650000Y-103850000D02*
X85450000Y-103850000D01*
X85450000Y-103850000D02*
X85450000Y-102300000D01*
X111350000Y-103850000D02*
X114550000Y-103850000D01*
X114550000Y-103850000D02*
X114550000Y-102300000D01*
X88650000Y-108350000D02*
X111350000Y-108350000D01*
X88650000Y-108350000D02*
X88650000Y-103850000D01*
X111350000Y-108350000D02*
X111350000Y-103850000D01*
X87000000Y-95000000D02*
X87000000Y-93000000D01*
X88000000Y-94000000D02*
X86000000Y-94000000D01*
D14*
X96322000Y-113456000D02*
X96322000Y-116556000D01*
X96322000Y-116556000D02*
X103322000Y-116556000D01*
X103322000Y-116556000D02*
X103322000Y-113456000D01*
X103322000Y-113456000D02*
X96322000Y-113456000D01*
X97922000Y-115856000D02*
X97922000Y-114156000D01*
X97922000Y-114156000D02*
X101822000Y-114156000D01*
X101822000Y-114156000D02*
X101822000Y-115856000D01*
X101822000Y-115856000D02*
X97922000Y-115856000D01*
X98422000Y-115356000D02*
X98422000Y-114656000D01*
X98422000Y-114656000D02*
X99122000Y-114656000D01*
X99122000Y-114656000D02*
X99122000Y-115356000D01*
X99122000Y-115356000D02*
X98422000Y-115356000D01*
G36*
X98422000Y-115356000D02*
G01*
X99122000Y-115356000D01*
X99122000Y-114656000D01*
X98422000Y-114656000D01*
X98422000Y-115356000D01*
G37*
X98422000Y-115356000D02*
X99122000Y-115356000D01*
X99122000Y-114656000D01*
X98422000Y-114656000D01*
X98422000Y-115356000D01*
X113166666Y-106357142D02*
X113214285Y-106404761D01*
X113357142Y-106452380D01*
X113452380Y-106452380D01*
X113595238Y-106404761D01*
X113690476Y-106309523D01*
X113738095Y-106214285D01*
X113785714Y-106023809D01*
X113785714Y-105880952D01*
X113738095Y-105690476D01*
X113690476Y-105595238D01*
X113595238Y-105500000D01*
X113452380Y-105452380D01*
X113357142Y-105452380D01*
X113214285Y-105500000D01*
X113166666Y-105547619D01*
X112214285Y-106452380D02*
X112785714Y-106452380D01*
X112500000Y-106452380D02*
X112500000Y-105452380D01*
X112595238Y-105595238D01*
X112690476Y-105690476D01*
X112785714Y-105738095D01*
X113166666Y-108561142D02*
X113214285Y-108608761D01*
X113357142Y-108656380D01*
X113452380Y-108656380D01*
X113595238Y-108608761D01*
X113690476Y-108513523D01*
X113738095Y-108418285D01*
X113785714Y-108227809D01*
X113785714Y-108084952D01*
X113738095Y-107894476D01*
X113690476Y-107799238D01*
X113595238Y-107704000D01*
X113452380Y-107656380D01*
X113357142Y-107656380D01*
X113214285Y-107704000D01*
X113166666Y-107751619D01*
X112785714Y-107751619D02*
X112738095Y-107704000D01*
X112642857Y-107656380D01*
X112404761Y-107656380D01*
X112309523Y-107704000D01*
X112261904Y-107751619D01*
X112214285Y-107846857D01*
X112214285Y-107942095D01*
X112261904Y-108084952D01*
X112833333Y-108656380D01*
X112214285Y-108656380D01*
X113958666Y-112625142D02*
X114006285Y-112672761D01*
X114149142Y-112720380D01*
X114244380Y-112720380D01*
X114387238Y-112672761D01*
X114482476Y-112577523D01*
X114530095Y-112482285D01*
X114577714Y-112291809D01*
X114577714Y-112148952D01*
X114530095Y-111958476D01*
X114482476Y-111863238D01*
X114387238Y-111768000D01*
X114244380Y-111720380D01*
X114149142Y-111720380D01*
X114006285Y-111768000D01*
X113958666Y-111815619D01*
X113625333Y-111720380D02*
X113006285Y-111720380D01*
X113339619Y-112101333D01*
X113196761Y-112101333D01*
X113101523Y-112148952D01*
X113053904Y-112196571D01*
X113006285Y-112291809D01*
X113006285Y-112529904D01*
X113053904Y-112625142D01*
X113101523Y-112672761D01*
X113196761Y-112720380D01*
X113482476Y-112720380D01*
X113577714Y-112672761D01*
X113625333Y-112625142D01*
X110148666Y-114244380D02*
X110482000Y-113768190D01*
X110720095Y-114244380D02*
X110720095Y-113244380D01*
X110339142Y-113244380D01*
X110243904Y-113292000D01*
X110196285Y-113339619D01*
X110148666Y-113434857D01*
X110148666Y-113577714D01*
X110196285Y-113672952D01*
X110243904Y-113720571D01*
X110339142Y-113768190D01*
X110720095Y-113768190D01*
X109291523Y-113244380D02*
X109482000Y-113244380D01*
X109577238Y-113292000D01*
X109624857Y-113339619D01*
X109720095Y-113482476D01*
X109767714Y-113672952D01*
X109767714Y-114053904D01*
X109720095Y-114149142D01*
X109672476Y-114196761D01*
X109577238Y-114244380D01*
X109386761Y-114244380D01*
X109291523Y-114196761D01*
X109243904Y-114149142D01*
X109196285Y-114053904D01*
X109196285Y-113815809D01*
X109243904Y-113720571D01*
X109291523Y-113672952D01*
X109386761Y-113625333D01*
X109577238Y-113625333D01*
X109672476Y-113672952D01*
X109720095Y-113720571D01*
X109767714Y-113815809D01*
X110148666Y-111450380D02*
X110482000Y-110974190D01*
X110720095Y-111450380D02*
X110720095Y-110450380D01*
X110339142Y-110450380D01*
X110243904Y-110498000D01*
X110196285Y-110545619D01*
X110148666Y-110640857D01*
X110148666Y-110783714D01*
X110196285Y-110878952D01*
X110243904Y-110926571D01*
X110339142Y-110974190D01*
X110720095Y-110974190D01*
X109815333Y-110450380D02*
X109148666Y-110450380D01*
X109577238Y-111450380D01*
X91693904Y-114966380D02*
X91693904Y-115775904D01*
X91646285Y-115871142D01*
X91598666Y-115918761D01*
X91503428Y-115966380D01*
X91312952Y-115966380D01*
X91217714Y-115918761D01*
X91170095Y-115871142D01*
X91122476Y-115775904D01*
X91122476Y-114966380D01*
X90122476Y-115966380D02*
X90693904Y-115966380D01*
X90408190Y-115966380D02*
X90408190Y-114966380D01*
X90503428Y-115109238D01*
X90598666Y-115204476D01*
X90693904Y-115252095D01*
X86660714Y-105228571D02*
X86517857Y-105276190D01*
X86470238Y-105323809D01*
X86422619Y-105419047D01*
X86422619Y-105561904D01*
X86470238Y-105657142D01*
X86517857Y-105704761D01*
X86613095Y-105752380D01*
X86994047Y-105752380D01*
X86994047Y-104752380D01*
X86660714Y-104752380D01*
X86565476Y-104800000D01*
X86517857Y-104847619D01*
X86470238Y-104942857D01*
X86470238Y-105038095D01*
X86517857Y-105133333D01*
X86565476Y-105180952D01*
X86660714Y-105228571D01*
X86994047Y-105228571D01*
X86136904Y-104752380D02*
X85565476Y-104752380D01*
X85851190Y-105752380D02*
X85851190Y-104752380D01*
X84708333Y-105752380D02*
X85279761Y-105752380D01*
X84994047Y-105752380D02*
X84994047Y-104752380D01*
X85089285Y-104895238D01*
X85184523Y-104990476D01*
X85279761Y-105038095D01*
X106235333Y-116482761D02*
X106092476Y-116530380D01*
X105854380Y-116530380D01*
X105759142Y-116482761D01*
X105711523Y-116435142D01*
X105663904Y-116339904D01*
X105663904Y-116244666D01*
X105711523Y-116149428D01*
X105759142Y-116101809D01*
X105854380Y-116054190D01*
X106044857Y-116006571D01*
X106140095Y-115958952D01*
X106187714Y-115911333D01*
X106235333Y-115816095D01*
X106235333Y-115720857D01*
X106187714Y-115625619D01*
X106140095Y-115578000D01*
X106044857Y-115530380D01*
X105806761Y-115530380D01*
X105663904Y-115578000D01*
X105330571Y-115530380D02*
X105092476Y-116530380D01*
X104902000Y-115816095D01*
X104711523Y-116530380D01*
X104473428Y-115530380D01*
X103568666Y-116530380D02*
X104140095Y-116530380D01*
X103854380Y-116530380D02*
X103854380Y-115530380D01*
X103949619Y-115673238D01*
X104044857Y-115768476D01*
X104140095Y-115816095D01*
M02*
