<?xml version="1.0" encoding="UTF-8" standalone="no"?>
<!-- Created with Inkscape (http://www.inkscape.org/) -->

<svg
   xmlns:dc="http://purl.org/dc/elements/1.1/"
   xmlns:cc="http://creativecommons.org/ns#"
   xmlns:rdf="http://www.w3.org/1999/02/22-rdf-syntax-ns#"
   xmlns:svg="http://www.w3.org/2000/svg"
   xmlns="http://www.w3.org/2000/svg"
   xmlns:sodipodi="http://sodipodi.sourceforge.net/DTD/sodipodi-0.dtd"
   xmlns:inkscape="http://www.inkscape.org/namespaces/inkscape"
   width="640"
   height="640"
   id="svg3049"
   version="1.1"
   inkscape:version="0.92.2 (5c3e80d, 2017-08-06)"
   sodipodi:docname="binary_kitchen.svg"
   inkscape:export-filename="/home/flo/Documents/binary kitchen/binary_kitchen.png"
   inkscape:export-xdpi="90"
   inkscape:export-ydpi="90">
  <defs
     id="defs3051" />
  <sodipodi:namedview
     id="base"
     pagecolor="#ffffff"
     bordercolor="#666666"
     borderopacity="1.0"
     inkscape:pageopacity="1"
     inkscape:pageshadow="2"
     inkscape:zoom="1.3155765"
     inkscape:cx="197.32051"
     inkscape:cy="343.90885"
     inkscape:document-units="px"
     inkscape:current-layer="layer2"
     showgrid="false"
     inkscape:window-width="1920"
     inkscape:window-height="1017"
     inkscape:window-x="-8"
     inkscape:window-y="-8"
     inkscape:window-maximized="1"
     showguides="true"
     inkscape:guide-bbox="true"
     inkscape:pagecheckerboard="true" />
  <metadata
     id="metadata3054">
    <rdf:RDF>
      <cc:Work
         rdf:about="">
        <dc:format>image/svg+xml</dc:format>
        <dc:type
           rdf:resource="http://purl.org/dc/dcmitype/StillImage" />
        <dc:title></dc:title>
      </cc:Work>
    </rdf:RDF>
  </metadata>
  <g
     inkscape:groupmode="layer"
     id="layer2"
     inkscape:label="BG" />
  <g
     inkscape:label="Layer 1"
     inkscape:groupmode="layer"
     id="layer1"
     transform="translate(0,-482.51966)">
    <path
       style="font-style:normal;font-variant:normal;font-weight:bold;font-stretch:normal;font-size:54.54985428px;line-height:125%;font-family:FreeMono;-inkscape-font-specification:'FreeMono Bold';letter-spacing:0px;word-spacing:0px;fill:#020000;fill-opacity:1;stroke:none;stroke-width:1.06666672"
       d="m 481.66667,999.25299 c -2.55,0 -4.53334,0.64099 -4.53334,3.46671 0,2.8256 1.91442,3.4333 4.53334,3.4333 h 1.1 v 29.2333 h -0.4 c -2.48109,0 -4.56667,0.6077 -4.56667,3.4334 0,2.6189 1.94775,3.4666 4.56667,3.4666 h 7.7 c 2.54998,0 4.63333,-0.641 4.63333,-3.4666 0,-2.8257 -2.01442,-3.4334 -4.63333,-3.4334 h -0.4 v -12.6333 c 3.92837,-3.7905 5.42748,-4.6 8.66666,-4.6 5.37565,0 6.06667,2.4698 6.06667,5.4333 v 11.8 H 504 c -2.48108,0 -4.63333,0.5388 -4.63333,3.4334 0,2.7567 2.15225,3.4666 4.63333,3.4666 h 7.73333 c 2.55,0 4.53334,-0.7099 4.53334,-3.4666 0,-2.7568 -1.84552,-3.4334 -4.53334,-3.4334 H 511.3 v -12.7 c 0,-6.8918 -4.89461,-11.4333 -12.2,-11.4333 -3.58378,0 -6.67659,1.3743 -9.43333,4.2 v -16.20001 z m -378.23334,0.0667 v 7.26661 h 8.13334 v -7.26661 z m 273.36667,0 v 7.26661 h 8.13333 v -7.26661 z m 31.9,2.23331 c -2.89459,0 -3.43333,2.1212 -3.43333,4.5333 v 6.0667 h -2.43334 c -2.68783,0 -4.53333,0.6077 -4.53333,3.4333 0,2.7568 1.98335,3.4667 4.53333,3.4667 h 2.43334 v 14.8 c 0,5.8581 4.87659,9.5333 12.73333,9.5333 5.23781,0 15.86667,-2.3648 15.86667,-6.5 0,-1.9297 -1.43919,-3.5 -3.3,-3.5 -2.41214,0 -4.64328,3.1 -12.5,3.1 -5.09999,0 -5.9,-1.3144 -5.9,-3.9333 v -13.5 h 12.46666 c 2.55002,0 4.53334,-0.7099 4.53334,-3.4667 0,-2.8256 -1.9144,-3.4333 -4.53334,-3.4333 h -12.46666 v -6.0667 c 0,-2.6878 -0.64101,-4.5333 -3.46667,-4.5333 z m -353.666667,0.5333 c -2.412153,0 -4.533333,0.5032 -4.533333,3.4667 0,2.8257 1.983342,3.4333 4.533333,3.4333 h 1.033334 v 26.4 h -1.033334 c -2.549991,0 -4.533333,0.6077 -4.533333,3.4334 0,1.4473 0.673887,3.4666 4.533333,3.4666 h 20.333334 c 8.132402,0 13.6,-4.4171 13.6,-11.0333 0,-4.3419 -2.33785,-7.5189 -7.3,-10 3.03242,-2.3433 4.333333,-4.6298 4.333333,-7.8 0,-6.5473 -5.712186,-11.3667 -13.5,-11.3667 z m 270.266667,0 c -2.68782,0 -4.53333,0.641 -4.53333,3.4667 0,2.8257 1.98335,3.4333 4.53333,3.4333 h 1.03333 v 26.4 H 325.3 c -2.54998,0 -4.53333,0.6077 -4.53333,3.4334 0,1.4473 0.67387,3.4666 4.53333,3.4666 h 10.33333 c 2.68783,0 4.56667,-0.8477 4.56667,-3.4666 0,-2.8946 -2.1545,-3.4334 -4.56667,-3.4334 h -2.4 v -7.4666 l 4.13334,-3.5 c 4.20404,1.3094 8.59415,8.0113 11.83333,17.8666 h 7.6 c 2.68784,0 4.53333,-0.8477 4.53333,-3.4666 0,-2.8946 -2.12117,-3.4334 -4.53333,-3.4334 h -2.2 c -3.17025,-7.9256 -7.46262,-13.6612 -11.66667,-15.8666 l 12.13334,-10.5334 c 2.82566,0 4.26666,-1.159 4.26666,-3.4333 0,-2.7567 -1.84551,-3.4667 -4.53333,-3.4667 h -6.9 c -2.68782,0 -4.53333,0.9834 -4.53333,3.5334 0,1.5851 0.68603,2.5486 2.13333,3.1 l -12.26667,10.5333 v -10.2667 h 2.4 c 2.54999,0 4.56667,-0.6076 4.56667,-3.4333 0,-2.8946 -2.1545,-3.4667 -4.56667,-3.4667 z m -262.333333,6.9 h 9.166666 c 4.341877,0 6.966667,1.6433 6.966667,4.4 0,3.1703 -3.371188,5.3 -8.333333,5.3 h -7.8 z m 88.300003,2.2667 c -3.79052,0 -6.15858,1.0297 -9.46667,4.2 v -3.3 h -6.46667 c -2.68783,0 -4.6,0.9522 -4.6,3.4333 0,2.2054 1.51217,3.3978 4.2,3.4667 v 16.3333 H 134.5 c -2.48108,0 -4.53333,0.6077 -4.53333,3.4334 0,2.6189 1.84551,3.4666 4.53333,3.4666 h 7.73333 c 2.41216,0 4.53334,-0.641 4.53334,-3.4666 0,-2.8946 -2.12118,-3.4334 -4.53334,-3.4334 H 141.8 v -12.5666 c 3.23916,-3.5149 5.46307,-4.6667 8.63333,-4.6667 4.27296,0 6.2,1.5896 6.2,4.9667 v 12.2666 c -2.68782,0 -4.2,1.228 -4.2,3.4334 0,2.2743 1.49867,3.4666 4.6,3.4666 h 6.13334 c 2.54998,0 4.56666,-0.7099 4.56666,-3.4666 0,-2.2054 -1.51218,-3.4334 -4.2,-3.4334 v -12.5666 c 0,-7.5811 -5.37478,-11.5667 -12.26666,-11.5667 z m 37.2,0 c -3.44592,0 -8.52523,0.895 -11.83334,2.0667 -1.37838,0.4824 -2.06666,1.4527 -2.06666,2.9 0,1.9986 1.43695,3.5 3.36666,3.5 2.2054,0 5.77119,-1.5667 10.73334,-1.5667 4.41078,0 6.43333,1.0234 6.43333,3.3667 v 1.6 c -2.82566,-0.4825 -4.96129,-0.7 -7.16667,-0.7 -10.33781,0 -16.7,5.6374 -16.7,11.6333 0,5.1 5.57705,9.3333 12.4,9.3333 4.06619,0 8.15856,-0.977 11.46667,-2.7 v 1.6 h 8.06667 c 2.55,0 4.53333,-0.7099 4.53333,-3.4666 0,-2.7568 -1.84549,-3.4334 -4.53333,-3.4334 h -1.1 v -13.9333 c 0,-6.4094 -5.123,-10.2 -13.6,-10.2 z m 267.8,0 c -10.40673,0 -17.63334,6.9113 -17.63334,16.7667 0,6.6851 3.71582,15.3666 18.53334,15.3666 10.33781,0 16.66666,-3.4428 16.66666,-7.2333 0,-1.9297 -1.57252,-3.5333 -3.43333,-3.5333 -2.82566,0 -2.15319,3.8666 -12.76667,3.8666 -8.06348,0 -12.13333,-2.8153 -12.13333,-8.4666 0,-5.8581 4.21938,-9.8667 10.76667,-9.8667 3.03241,0 5.50809,0.6306 7.3,1.7333 2.48106,1.7919 0.82703,5.7667 5.1,5.7667 2.89457,0 3.43333,-2.1212 3.43333,-4.5333 v -5.3 c 0,-3.1703 -1.0257,-4.5667 -3.3,-4.5667 -1.44731,0 -2.18649,0.6194 -2.6,2.0667 -2.68782,-1.3784 -6.00498,-2.0667 -9.93333,-2.0667 z m 81.33333,0 c -10.06214,0 -17.76667,7.0361 -17.76667,16.1333 0,9.373 7.51761,16 18.2,16 2.96351,0 17.43334,-0.8401 17.43334,-5.7333 0,-1.9297 -1.47253,-3.4333 -3.33334,-3.4333 -2.6878,0 -7.09056,2.2666 -13.5,2.2666 -6.06484,0 -9.71486,-1.9315 -11.3,-6.0666 h 28.13334 v -2.7 c 0,-9.5108 -7.59778,-16.4667 -17.86667,-16.4667 z m 44.16667,0 c -3.79054,0 -6.15857,1.0297 -9.46667,4.2 v -3.3 h -6.46667 c -2.6878,0 -4.63333,0.9522 -4.63333,3.4333 0,2.2054 1.5455,3.3978 4.23333,3.4667 v 16.3333 H 565 c -2.48109,0 -4.53333,0.6077 -4.53333,3.4334 0,2.6189 1.84549,3.4666 4.53333,3.4666 h 7.73333 c 2.41216,0 4.53334,-0.641 4.53334,-3.4666 0,-2.8946 -2.12118,-3.4334 -4.53334,-3.4334 H 572.3 v -12.5666 c 3.23918,-3.5149 5.46306,-4.6667 8.63333,-4.6667 4.27295,0 6.2,1.5896 6.2,4.9667 v 12.2666 c -2.68784,0 -4.2,1.228 -4.2,3.4334 0,2.2743 1.49865,3.4666 4.6,3.4666 h 6.13334 c 2.54998,0 4.56666,-0.7099 4.56666,-3.4666 0,-2.2054 -1.51217,-3.4334 -4.2,-3.4334 v -12.5666 c 0,-7.5811 -5.3748,-11.5667 -12.26666,-11.5667 z M 239,1011.3197 c -3.37702,0 -5.98651,1.1648 -11.5,5.3 v -4.4667 h -9.33333 c -3.03242,0 -4.53334,1.2969 -4.53334,3.4333 0,2.6189 1.84552,3.4667 4.53334,3.4667 H 220.6 v 16.3333 h -4 c -2.68782,0 -4.56667,0.6077 -4.56667,3.4334 0,2.6189 1.94778,3.4666 4.56667,3.4666 h 20.46667 c 2.54998,0 4.6,-0.7099 4.6,-3.4666 0,-2.8257 -1.98109,-3.4334 -4.6,-3.4334 H 227.5 v -10.1333 c 6.54727,-5.3757 9.16127,-7.0333 11.36667,-7.0333 2.27431,0 3.09234,2.4666 5.36666,2.4666 1.8608,0 3.43334,-1.5702 3.43334,-3.5 0,-3.1702 -5.0829,-5.8666 -8.66667,-5.8666 z m -138.73333,0.8333 c -2.550016,0 -4.633337,0.4698 -4.633337,3.4333 0,2.7568 2.083321,3.4667 4.633337,3.4667 h 5.36666 v 16.3333 h -8.399997 c -2.687819,0 -4.566666,0.6077 -4.566666,3.4334 0,1.4473 0.707225,3.4666 4.566666,3.4666 h 23.699997 c 2.68784,0 4.53334,-0.8477 4.53334,-3.4666 0,-2.8946 -2.12117,-3.4334 -4.53334,-3.4334 h -8.4 v -23.2333 z m 155.93333,0 c -2.54998,0 -4.53333,1.0212 -4.53333,3.4333 0,1.9297 1.23019,3.191 3.36666,3.4667 l 11.86667,23 -3.8,7.1 h -6.9 c -2.54998,0 -4.53333,0.641 -4.53333,3.4667 0,1.3094 0.76533,3.4333 3.86666,3.4333 H 256.2 271.03333 c 2.48108,0 4.53334,-0.6766 4.53334,-3.4333 0,-2.8257 -1.91444,-3.4667 -4.53334,-3.4667 h -0.36666 l 15.86666,-30.1 c 2.27431,-0.2067 3.6,-1.4681 3.6,-3.4667 0,-2.8256 -1.94776,-3.4333 -4.56666,-3.4333 h -6.33334 c -2.68782,0 -4.63333,0.9522 -4.63333,3.4333 0,2.2054 1.60768,3.4667 4.43333,3.4667 l -8.26666,15.3667 L 262.9,1019.053 c 2.6189,-0.069 4.06667,-1.3302 4.06667,-3.4667 0,-2.8256 -1.94777,-3.4333 -4.56667,-3.4333 z m 117.43333,0 c -2.55,0 -4.63333,0.4698 -4.63333,3.4333 0,2.7568 2.08333,3.4667 4.63333,3.4667 H 379 v 16.3333 h -8.4 c -2.68782,0 -4.56667,0.6077 -4.56667,3.4334 0,1.4473 0.70724,3.4666 4.56667,3.4666 h 23.7 c 2.68783,0 4.53333,-0.8477 4.53333,-3.4666 0,-2.8946 -2.12117,-3.4334 -4.53333,-3.4334 h -8.4 v -23.2333 z m 164.03334,6 c 5.03105,0 9.03063,2.4095 10.13333,6.2 h -20.26667 c 1.03378,-3.7216 5.10228,-6.2 10.13334,-6.2 z m -474.700003,7.4333 h 9.3 c 5.858088,0 9.8,2.414 9.8,6.0667 0,2.4811 -2.346866,3.7333 -7.033334,3.7333 H 62.966667 Z M 187.5,1028.753 c 2.34323,0 4.90992,0.2842 7.66667,0.7667 v 3.4333 c -3.79053,2.3432 -7.64506,3.5333 -11.36667,3.5333 -2.96352,0 -5.26667,-1.1838 -5.26667,-2.7 0,-2.6189 4.28021,-5.0333 8.96667,-5.0333 z"
       id="path4555"
       inkscape:connector-curvature="0"
       inkscape:export-xdpi="300"
       inkscape:export-ydpi="300" />
    <path
       style="font-style:normal;font-variant:normal;font-weight:bold;font-stretch:normal;font-size:23.90202141px;line-height:125%;font-family:FreeMono;-inkscape-font-specification:'FreeMono Bold';letter-spacing:0px;word-spacing:0px;fill:#020000;fill-opacity:1;stroke:none;stroke-width:1.06666672"
       d="m 259.2,970.61966 c -1.24993,0 -2.23333,0.31494 -2.23333,1.7 0,1.38505 0.94962,1.66667 2.23333,1.66667 h 0.53333 v 14.33333 H 259.2 c -1.31749,0 -2.23333,0.31494 -2.23333,1.7 0,1.11481 0.74693,1.7 2.23333,1.7 h 3.93333 v -5.56667 l 0.6,-0.46666 3.46667,3.06666 c -0.40539,0.43916 -0.53333,0.79372 -0.53333,1.26667 0,1.11481 0.74692,1.7 2.23333,1.7 h 4 c 1.21615,0 2.23333,-0.31495 2.23333,-1.7 0,-1.38506 -0.94963,-1.7 -2.23333,-1.7 h -1.13333 l -5.4,-4.76667 4,-3.23333 H 271.3 c 1.21614,0 2.23333,-0.34873 2.23333,-1.7 0,-1.35128 -0.88206,-1.66667 -2.23333,-1.66667 h -3.8 c -1.21616,0 -2.23333,0.24783 -2.23333,1.66667 0,0.47295 0.12794,0.79372 0.53333,1.26667 l -2.66667,2.13333 v -11.4 z m 253.46667,0 c -1.24994,0 -2.23334,0.31494 -2.23334,1.7 0,1.38505 0.94961,1.66667 2.23334,1.66667 H 513.2 v 14.33333 h -0.53333 c -1.31751,0 -2.23334,0.31494 -2.23334,1.7 0,1.35128 0.9834,1.7 2.23334,1.7 H 516.6 v -1.2 c 1.75665,1.21615 3.10687,1.66667 5.1,1.66667 5.0673,0 8.3,-3.44169 8.3,-7.83334 0,-4.35788 -3.13091,-7.9 -8.33333,-7.9 -2.02692,0 -3.61404,0.55142 -5.06667,1.7 v -7.53333 z m -313.9,1.4 c -1.31751,0 -2.23334,0.2816 -2.23334,1.66667 0,0.97966 0.65188,1.59864 1.76667,1.7 v 12.93333 h -0.2 c -1.3175,0 -2.23333,0.31494 -2.23333,1.7 0,1.35128 0.9834,1.7 2.23333,1.7 h 4.1 c 1.24994,0 2.2,-0.34872 2.2,-1.7 0,-1.41883 -1.01763,-1.7 -2.2,-1.7 h -0.53333 v -4.76667 H 208.9 v 4.76667 h -0.5 c -1.24994,0 -2.23333,0.31494 -2.23333,1.7 0,1.28372 0.94961,1.7 2.23333,1.7 h 4.1 c 1.24993,0 2.23333,-0.34872 2.23333,-1.7 0,-1.41883 -1.05096,-1.7 -2.23333,-1.7 h -0.2 v -12.93333 c 1.11479,-0.10134 1.73333,-0.72034 1.73333,-1.7 0,-1.35128 -0.91584,-1.66667 -2.23333,-1.66667 h -3.4 c -1.3175,0 -2.23333,0.2816 -2.23333,1.66667 0,1.38505 0.98339,1.7 2.23333,1.7 h 0.5 v 4.8 h -7.23333 v -4.8 H 202.2 c 1.24994,0 2.2,-0.31495 2.2,-1.7 0,-1.41885 -1.01763,-1.66667 -2.2,-1.66667 z m 193.06666,0 c -1.31749,0 -2.23333,0.2816 -2.23333,1.66667 0,1.38505 0.98341,1.7 2.23333,1.7 h 0.53334 v 12.93333 h -0.53334 c -1.24992,0 -2.23333,0.31494 -2.23333,1.7 0,0.70942 0.34155,1.7 2.23333,1.7 H 396.9 c 1.31748,0 2.23333,-0.41628 2.23333,-1.7 0,-1.35128 -0.91585,-1.7 -2.23333,-1.7 h -1.16667 v -4.1 h 3.23334 c 1.41883,0.50673 4.54424,4.22316 6.23333,7.5 h 2.66667 c 1.31749,0 2.23333,-0.41628 2.23333,-1.7 0,-1.35128 -0.91584,-1.7 -2.23333,-1.7 h -0.43334 c -1.41883,-2.26338 -2.67892,-3.81495 -4.26666,-5.2 2.46609,-1.35128 3.63333,-2.97173 3.63333,-5.1 0,-3.54711 -3.04169,-6 -7.43333,-6 z m 3.9,3.36667 H 399.5 c 2.16204,0 3.73333,1.0807 3.73333,2.53333 0,1.6891 -2.09564,2.9 -4.93333,2.9 h -2.56667 z m 43.03334,1.06666 c -4.52679,0 -7.96667,3.40701 -7.96667,7.9 0,4.45922 3.43988,7.83334 7.96667,7.83334 1.75665,0 3.21269,-0.51808 4.76666,-1.66667 v 1.86667 c 0,1.75667 -1.24108,2.7 -3.16666,2.7 h -3.7 c -1.31751,0 -2.23334,0.31493 -2.23334,1.7 0,1.2837 0.91583,1.66666 2.23334,1.66666 h 3.8 c 3.68223,0 6.43333,-2.48578 6.43333,-6.06666 v -12.06667 h 0.56667 c 1.24993,0 2.23333,-0.31495 2.23333,-1.7 0,-1.35128 -0.91584,-1.66667 -2.23333,-1.66667 h -3.93334 v 1.2 c -1.31749,-1.11479 -2.94244,-1.7 -4.76666,-1.7 z m 141.8,0 c -4.52677,0 -7.96667,3.40701 -7.96667,7.9 0,4.45922 3.4399,7.83334 7.96667,7.83334 1.75667,0 3.2127,-0.51808 4.76666,-1.66667 v 1.86667 c 0,1.75667 -1.2411,2.7 -3.16666,2.7 h -3.7 c -1.3175,0 -2.23334,0.31493 -2.23334,1.7 0,1.2837 0.91584,1.66666 2.23334,1.66666 h 3.8 c 3.68223,0 6.43333,-2.48578 6.43333,-6.06666 v -12.06667 h 0.53333 c 1.24994,0 2.23334,-0.31495 2.23334,-1.7 0,-1.35128 -0.91584,-1.66667 -2.23334,-1.66667 h -3.9 v 1.2 c -1.3175,-1.11479 -2.94244,-1.7 -4.76666,-1.7 z M 225.2,976.48627 c -1.6891,0 -4.17847,0.45904 -5.8,1.03334 -0.67564,0.23648 -1,0.69058 -1,1.4 0,0.97968 0.68742,1.73333 1.63333,1.73333 1.08102,0 2.83437,-0.76667 5.26667,-0.76667 2.16205,0 3.16667,0.48476 3.16667,1.63334 v 0.8 c -1.38506,-0.23646 -2.45232,-0.33334 -3.53334,-0.33334 -5.06729,0 -8.16666,2.76098 -8.16666,5.7 0,2.49987 2.72227,4.56667 6.06666,4.56667 1.99314,0 4.01179,-0.48879 5.63334,-1.33333 v 0.8 H 232.4 c 1.24992,0 2.23333,-0.34872 2.23333,-1.7 0,-1.35128 -0.91585,-1.7 -2.23333,-1.7 h -0.53333 v -6.83334 c 0,-3.14172 -2.51151,-5 -6.66667,-5 z m 20.86667,0 c -5.10107,0 -8.63334,3.40253 -8.63334,8.23334 0,3.27685 1.80356,7.53333 9.06667,7.53333 5.06729,0 8.2,-1.70866 8.2,-3.56667 0,-0.94589 -0.78788,-1.7 -1.7,-1.7 -1.38506,0 -1.03091,1.86667 -6.23333,1.86667 -3.95249,0 -5.96667,-1.36321 -5.96667,-4.13333 0,-2.87147 2.05739,-4.83334 5.26667,-4.83334 1.48641,0 2.72167,0.29281 3.6,0.83334 1.21615,0.87832 0.40552,2.83333 2.5,2.83333 1.41884,0 1.66666,-1.05098 1.66666,-2.23333 v -2.6 c 0,-1.55399 -0.4852,-2.23334 -1.6,-2.23334 -0.70944,0 -1.09731,0.32392 -1.3,1.03334 -1.31749,-0.67564 -2.94111,-1.03334 -4.86666,-1.03334 z m 40.1,0 c -4.05384,0 -6.93334,1.93079 -6.93334,4.63334 0,2.66877 1.97053,4.0266 6.7,4.53333 1.01345,0.10133 4.26667,0.34782 4.26667,1.76667 0,0.77697 -1.77129,1.43333 -3.93333,1.43333 -1.82423,0 -3.25367,-0.42167 -4.23334,-1.3 -0.30403,-1.01346 -0.85499,-1.5 -1.73333,-1.5 -1.41884,0 -1.73333,1.01673 -1.73333,2.26667 v 1.13333 c 0,1.18237 0.28071,2.23333 1.73333,2.23333 0.43917,0 0.72841,-0.12929 1.1,-0.43333 1.35127,0.64184 3.07442,1 5,1 4.35787,0 7.53333,-1.99656 7.53333,-4.76667 0,-1.55396 -0.88027,-3.02257 -2.36666,-3.83333 -2.87147,-1.62153 -8.63334,-1.04604 -8.63334,-2.6 0,-0.60809 1.6438,-1.16667 3.36667,-1.16667 4.45922,0 3.30777,2.33334 5.23333,2.33334 1.38507,0 1.66667,-0.94962 1.66667,-2.23334 v -1.26666 c 0,-1.55399 -0.48564,-2.23334 -1.56667,-2.23334 -0.50672,0 -0.82975,0.25814 -1.1,0.9 -1.31749,-0.60808 -2.71137,-0.9 -4.36666,-0.9 z m 21.26666,0 c -2.09448,0 -3.51136,0.54783 -5.16666,1.96667 v -1.5 h -3.93334 c -1.24993,0 -2.23333,0.28161 -2.23333,1.66667 0,1.38505 0.94962,1.7 2.23333,1.7 h 0.53334 v 14.76666 h -0.53334 c -1.24993,0 -2.23333,0.31494 -2.23333,1.7 0,1.38506 0.9834,1.66667 2.23333,1.66667 H 304.2 c 1.21615,0 2.23333,-0.31539 2.23333,-1.66667 0,-1.38506 -0.88206,-1.7 -2.23333,-1.7 h -1.93333 v -5.6 c 1.75665,1.35128 3.2402,1.86667 5.23333,1.86667 4.69569,0 8.16667,-3.04482 8.16667,-7.2 0,-4.35788 -3.50386,-7.66667 -8.23334,-7.66667 z m 19.06667,0 c -1.6891,0 -4.21181,0.45904 -5.83333,1.03334 -0.67564,0.23648 -1,0.69058 -1,1.4 0,0.97968 0.72076,1.73333 1.66666,1.73333 1.08102,0 2.83438,-0.76667 5.26667,-0.76667 2.16205,0 3.13333,0.48476 3.13333,1.63334 v 0.8 c -1.38505,-0.23646 -2.41898,-0.33334 -3.5,-0.33334 -5.06729,0 -8.2,2.76098 -8.2,5.7 0,2.49987 2.75559,4.56667 6.1,4.56667 1.99312,0 3.97847,-0.48879 5.6,-1.33333 v 0.8 H 333.7 c 1.24993,0 2.23333,-0.34872 2.23333,-1.7 0,-1.35128 -0.91584,-1.7 -2.23333,-1.7 h -0.56667 v -6.83334 c 0,-3.14172 -2.47816,-5 -6.63333,-5 z m 20.86667,0 c -5.10107,0 -8.66667,3.40253 -8.66667,8.23334 0,3.27685 1.83689,7.53333 9.1,7.53333 5.06729,0 8.16667,-1.70866 8.16667,-3.56667 0,-0.94589 -0.7879,-1.7 -1.7,-1.7 -1.38506,0 -1.03092,1.86667 -6.23334,1.86667 -3.95248,0 -5.93333,-1.36321 -5.93333,-4.13333 0,-2.87147 2.05739,-4.83334 5.26667,-4.83334 1.4864,0 2.68834,0.29281 3.56666,0.83334 1.21614,0.87832 0.40552,2.83333 2.5,2.83333 1.41884,0 1.7,-1.05098 1.7,-2.23333 v -2.6 c 0,-1.55399 -0.51852,-2.23334 -1.63333,-2.23334 -0.70942,0 -1.06398,0.32392 -1.26667,1.03334 -1.31749,-0.67564 -2.94108,-1.03334 -4.86666,-1.03334 z m 19.6,0 c -4.93216,0 -8.7,3.47411 -8.7,7.93334 0,4.59433 3.66379,7.83333 8.9,7.83333 1.45262,0 8.56666,-0.40148 8.56666,-2.8 0,-0.9459 -0.72122,-1.7 -1.63333,-1.7 -1.31749,0 -3.49161,1.1 -6.63333,1.1 -2.9728,0 -4.75634,-0.93976 -5.53334,-2.96667 h 13.8 v -1.3 c 0,-4.66191 -3.73316,-8.1 -8.76666,-8.1 z m 52.3,0 c -4.93216,0 -8.73334,3.47411 -8.73334,7.93334 0,4.59433 3.69713,7.83333 8.93334,7.83333 1.45262,0 8.53333,-0.40148 8.53333,-2.8 0,-0.9459 -0.68787,-1.7 -1.6,-1.7 -1.31748,0 -3.49163,1.1 -6.63333,1.1 -2.97282,0 -4.75636,-0.93976 -5.53334,-2.96667 H 428 v -1.3 c 0,-4.66191 -3.69984,-8.1 -8.73333,-8.1 z m 40.5,0 c -4.93216,0 -8.7,3.47411 -8.7,7.93334 0,4.59433 3.66379,7.83333 8.9,7.83333 1.45263,0 8.56666,-0.40148 8.56666,-2.8 0,-0.9459 -0.72122,-1.7 -1.63333,-1.7 -1.3175,0 -3.49162,1.1 -6.63333,1.1 -2.97282,0 -4.75636,-0.93976 -5.53334,-2.96667 h 13.8 v -1.3 c 0,-4.66191 -3.73316,-8.1 -8.76666,-8.1 z m 21.63333,0 c -1.85801,0 -2.97846,0.51268 -4.6,2.06667 v -1.6 h -3.2 c -1.31749,0 -2.26667,0.45052 -2.26667,1.66667 0,1.08101 0.74918,1.66621 2.06667,1.7 v 8 h -0.2 c -1.21616,0 -2.23333,0.31494 -2.23333,1.7 0,1.28372 0.91584,1.7 2.23333,1.7 h 3.8 c 1.18237,0 2.23333,-0.31495 2.23333,-1.7 0,-1.41883 -1.05096,-1.7 -2.23333,-1.7 h -0.2 v -6.13334 c 1.58774,-1.72288 2.64603,-2.3 4.2,-2.3 2.09449,0 3.03333,0.77802 3.03333,2.43334 v 6 c -1.31748,0 -2.03333,0.61898 -2.03333,1.7 0,1.11481 0.74649,1.7 2.26667,1.7 h 3 c 1.24993,0 2.23333,-0.34872 2.23333,-1.7 0,-1.08102 -0.74917,-1.7 -2.06667,-1.7 v -6.13334 c 0,-3.71601 -2.65513,-5.7 -6.03333,-5.7 z m 19.13333,0 c -4.05383,0 -6.96666,1.93079 -6.96666,4.63334 0,2.66877 2.00386,4.0266 6.73333,4.53333 1.01346,0.10133 4.23333,0.34782 4.23333,1.76667 0,0.77697 -1.7713,1.43333 -3.93333,1.43333 -1.82423,0 -3.25365,-0.42167 -4.23333,-1.3 -0.30402,-1.01346 -0.85501,-1.5 -1.73334,-1.5 -1.41883,0 -1.7,1.01673 -1.7,2.26667 v 1.13333 c 0,1.18237 0.24738,2.23333 1.7,2.23333 0.43917,0 0.7284,-0.12929 1.1,-0.43333 1.35129,0.64184 3.07442,1 5,1 4.35786,0 7.53334,-1.99656 7.53334,-4.76667 0,-1.55396 -0.88026,-3.02257 -2.36667,-3.83333 -2.87147,-1.62153 -8.63333,-1.04604 -8.63333,-2.6 0,-0.60809 1.64379,-1.16667 3.36666,-1.16667 4.45921,0 3.30777,2.33334 5.23334,2.33334 1.38505,0 1.66666,-0.94962 1.66666,-2.23334 v -1.26666 c 0,-1.55399 -0.48565,-2.23334 -1.56666,-2.23334 -0.50673,0 -0.82974,0.25814 -1.1,0.9 -1.31749,-0.60808 -2.67802,-0.9 -4.33334,-0.9 z m 65.73334,0.0333 c -1.65532,0 -2.96412,0.60642 -5.66667,2.63334 v -2.2 h -4.53333 c -1.4864,0 -2.23334,0.61943 -2.23334,1.66666 0,1.28372 0.91584,1.7 2.23334,1.7 h 1.16666 v 8 h -1.96666 c -1.31751,0 -2.23334,0.31495 -2.23334,1.7 0,1.28372 0.94962,1.7 2.23334,1.7 H 565.3 c 1.24994,0 2.26667,-0.34871 2.26667,-1.7 0,-1.38505 -0.98296,-1.7 -2.26667,-1.7 h -4.7 v -4.96666 c 3.20928,-2.63499 4.51899,-3.43334 5.6,-3.43334 1.11481,0 1.51854,1.2 2.63333,1.2 0.91212,0 1.66667,-0.75411 1.66667,-1.7 0,-1.55398 -2.47668,-2.9 -4.23333,-2.9 z m -32.63334,0.43334 c -1.31749,0 -2.23333,0.28161 -2.23333,1.66666 0,0.97968 0.75186,1.7 1.86667,1.7 h 0.9 v 6.1 c 0,3.71601 2.62136,5.73334 6.03333,5.73334 1.85801,0 2.94423,-0.47893 4.63333,-2.06667 v 1.63333 h 3.2 c 1.18237,0 2.23334,-0.31494 2.23334,-1.7 0,-1.08101 -0.74917,-1.7 -2.06667,-1.7 v -11.36666 h -4.56667 c -1.24994,0 -2.23333,0.28161 -2.23333,1.66666 0,0.64186 0.37982,1.7 1.9,1.7 h 0.33333 1.2 v 6.13334 c -1.75666,1.858 -2.6109,2.3 -4.3,2.3 -2.02691,0 -2.96666,-0.77802 -2.96666,-2.43334 v -9.36666 z m -94.8,2.9 c 2.63499,0 4.7,1.99969 4.7,4.53333 0,2.43231 -2.13257,4.4 -4.7,4.4 -2.56742,0 -4.66666,-1.96681 -4.66666,-4.46667 0,-2.46609 2.09924,-4.46666 4.66666,-4.46666 z m 82.8,0 c 3.00661,0 5,1.9668 5,4.46666 0,2.60121 -2.06096,4.46667 -5,4.46667 -2.9728,0 -5.03333,-1.83122 -5.03333,-4.5 0,-2.43231 1.89163,-4.43333 5.03333,-4.43333 z m 59,0 c 2.63498,0 4.7,1.99969 4.7,4.53333 0,2.43231 -2.13257,4.4 -4.7,4.4 -2.56742,0 -4.66666,-1.96681 -4.66666,-4.46667 0,-2.46609 2.09924,-4.46666 4.66666,-4.46666 z M 307.3,979.88617 c 3.00659,0 5,1.73614 5,4.03333 0,2.36472 -2.09476,4.06667 -5,4.06667 -2.97281,0 -5.03333,-1.7015 -5.03333,-4.1 0,-2.22963 1.95918,-4 5.03333,-4 z m 59.7,0 c 2.46607,0 4.42617,1.17532 4.96667,3.03333 h -9.93334 c 0.50673,-1.82423 2.50058,-3.03333 4.96667,-3.03333 z m 52.3,0 c 2.46607,0 4.42614,1.17532 4.96667,3.03333 h -9.93334 c 0.50673,-1.82423 2.50058,-3.03333 4.96667,-3.03333 z m 40.5,0 c 2.46608,0 4.42615,1.17532 4.96667,3.03333 h -9.93334 c 0.50673,-1.82423 2.50059,-3.03333 4.96667,-3.03333 z m -235.06667,5.2 c 1.1486,0 2.4154,0.13018 3.76667,0.36666 v 1.7 c -1.85801,1.14859 -3.77578,1.7 -5.6,1.7 -1.45263,0 -2.56667,-0.55679 -2.56667,-1.3 0,-1.2837 2.10283,-2.46666 4.4,-2.46666 z m 101.3,0 c 1.14859,0 2.38205,0.13018 3.73334,0.36666 v 1.7 c -1.85801,1.14859 -3.74244,1.7 -5.56667,1.7 -1.45262,0 -2.56667,-0.55679 -2.56667,-1.3 0,-1.2837 2.10282,-2.46666 4.4,-2.46666 z"
       id="path3016"
       inkscape:connector-curvature="0"
       inkscape:export-xdpi="300"
       inkscape:export-ydpi="300" />
    <path
       style="fill:#020000;fill-opacity:1;fill-rule:nonzero;stroke:none;stroke-width:1.06666672"
       d="m 249.86667,531.65299 c -44.47864,0.0337 -80.52319,24.82094 -80.5,55.4 0.0196,25.78828 25.60443,47.58886 60.4,53.26667 7.2553,1.18389 11.35259,1.12088 15.66666,1.33333 0.9075,0.0452 1.67262,0.9829 1.63334,1.8 -0.0393,0.8171 -0.8925,1.71182 -1.8,1.66667 -6.45445,-0.32114 -7.25847,-0.28023 -12.06667,-0.73333 v 16.3 l -8.16667,0.0333 c -3.16672,0.0129 -5.91323,2.5384 -5.73333,5.7 l 6.73333,118.33333 c 0.1799,3.16161 2.57461,5.47494 5.73334,5.7 55.70136,3.96861 112.09306,4.20446 169.2,-0.13333 3.15761,-0.23986 5.52543,-2.53808 5.7,-5.7 L 413.2,666.28627 c 0.17457,-3.16189 -2.53331,-5.7 -5.7,-5.7 h -6.53333 l -0.0333,-21.03333 c -1.94509,0.2247 -4.2714,0.33503 -7.5,0.33333 -0.93466,-4.9e-4 -1.80805,-0.93046 -1.8,-1.76666 0.009,-0.8362 0.89886,-1.71869 1.83333,-1.7 3.56199,0.0712 5.92127,0.0509 7.8,-0.4 25.34123,-6.08187 43.31412,-22.163 43.3,-40.8 -0.0182,-24.09258 -30.10118,-43.59478 -67.16667,-43.56667 -19.43702,0.0147 -36.94786,5.40899 -49.2,14 2.33636,3.16149 4.31936,5.57108 6.53334,7.2 2.25615,1.65995 4.77785,2.60534 8.7,2.8 0.90751,0.045 1.67262,0.9829 1.63333,1.8 -0.0392,0.81711 -0.8925,1.71174 -1.8,1.66667 -4.43897,-0.22046 -7.94774,-1.25732 -10.6,-3.46667 -3.23497,-2.69476 -4.84853,-3.77018 -7.7,-8.7 -11.89331,-20.56191 -40.88214,-35.32589 -75.10005,-35.29995 z m 30.8,156.7 11.9,0.13334 c 2.71162,0.0326 4.85973,2.22165 4.83333,4.93333 l -0.7,73.5 c -0.0265,2.71169 -2.25503,4.89934 -4.96667,4.86667 l -11.86666,-0.13334 c -2.71163,-0.0326 -4.85973,-2.22164 -4.83334,-4.93333 l 0.7,-73.5 c 0.0265,-2.71168 2.22171,-4.89934 4.93334,-4.86667 z M 343.3,688.98633 c 15.07632,0.14979 27.12468,18.58555 26.9,41.2 -0.22468,22.61445 -12.59035,40.81644 -27.66667,40.66666 -15.0763,-0.14979 -27.12468,-18.58553 -26.9,-41.2 0.22469,-22.61444 12.59037,-40.81646 27.66667,-40.66666 z"
       id="path3021"
       inkscape:connector-curvature="0"
       inkscape:export-xdpi="300"
       inkscape:export-ydpi="300" />
    <path
       style="fill:#020000;fill-opacity:1;fill-rule:nonzero;stroke:none;stroke-width:1.06666672"
       d="m 105.56667,763.75299 c -4.58896,0.13246 -10.239226,1.83841 -12.06667,6.3 l -11.066667,27 c -2.760512,6.73963 4.521078,14.53913 8.333334,16.1 l 116.700003,47.76667 c 1.27845,-1.27445 3.05287,-2.08568 5,-2.13333 4.03188,-0.0987 7.40127,3.16804 7.5,7.2 0.49246,0.21682 1.01595,0.46258 1.43333,0.63333 3.81268,1.55976 8.14007,-0.2874 9.7,-4.1 l 4.7,-11.5 54.4,22.26667 16.33333,-7.16667 -65.83333,-26.96667 4.7,-11.5 c 1.55994,-3.81263 -0.24957,-8.18445 -4.06667,-9.73333 L 239.9,817.35299 c -1.30022,1.52833 -3.23614,2.51371 -5.4,2.56667 -4.0319,0.0987 -7.51792,-3.47763 -7.43333,-7.86667 -40.21834,-16.66213 -79.99725,-32.752 -116.36667,-47.6 -1.18432,-0.4835 -3.04745,-0.76021 -5.13333,-0.7 z M 105.3,777.38633 c 2.25707,-0.0414 4.58218,0.21427 6.36667,0.93333 37.80627,15.23398 73.49551,29.99597 111.23333,45.4 1.0929,0.48209 1.61334,2.00368 1.2,3 -0.41335,0.99632 -1.86076,1.71806 -2.96667,1.26667 l -110.8,-45.2 h -0.0333 c -4.65957,-1.89063 -8.4456,-0.8379 -10.599997,1.9 -0.81408,1.03456 -2.536704,1.30631 -3.433333,0.56666 -0.896629,-0.73965 -0.970293,-2.5123 -0.1,-3.5 2.746645,-3.11717 6.18741,-4.31267 9.13333,-4.36666 z m -3.6,22 c 0.30664,-0.0188 0.60951,0.0344 0.93333,0.16666 37.71659,15.40521 73.48156,30.09179 111.2,45.53334 1.12577,0.46088 1.71324,2.01491 1.3,3.03333 -0.41324,1.01843 -1.90763,1.72771 -3.03333,1.26667 l -111,-45.46667 c -1.269685,-0.52002 -1.799659,-2.01518 -1.4,-3.06667 0.28552,-0.75121 1.08009,-1.41047 2,-1.46666 z m 269.1,93.06666 -17.43333,6.7 L 460.5,943.01966 c 0.82048,3.54295 10.32565,9.91384 17.13333,13.03333 4.29387,1.96761 8.76683,3.56628 13.13334,5.36667 2.99509,-7.4056 6.02176,-14.81472 9.06666,-22.2 -4.38144,-1.76396 -8.62981,-3.80846 -13.1,-5.33333 -5.68896,-1.94059 -16.75616,-4.56716 -21.4,-2.73334 z"
       id="use3078"
       inkscape:connector-curvature="0"
       inkscape:export-xdpi="300"
       inkscape:export-ydpi="300" />
    <path
       style="fill:#020000;fill-opacity:1;fill-rule:nonzero;stroke:none;stroke-width:1.06666672"
       d="m 399.76522,805.26713 -9.83062,4.30865 c -2.01995,0.88484 -2.93589,3.19649 -2.05691,5.219 l 2.65722,6.11421 -10.64572,15.31209 c -47.25538,22.04013 -98.88427,46.44473 -148.26917,69.70749 -3.72665,1.75543 -5.46875,6.02644 -3.81069,9.79742 l 3.13947,7.14038 c -4.23191,2.02084 -8.45199,4.04503 -12.66713,5.97759 -1.41049,-5.84951 -5.2782,-10.58239 -10.19072,-13.16221 -5.87747,-3.08657 -12.65735,-3.3331 -19.88563,-1.09826 -1.81557,0.56133 -3.72818,1.29906 -5.59978,2.25193 -1.87162,0.95287 -3.68842,2.12698 -5.32621,3.55049 -3.2756,2.847 -5.88211,7.16926 -5.23851,12.19888 0.54964,4.29534 2.46087,8.55933 6.29415,11.22113 3.83328,2.6618 9.20558,3.34627 15.61651,1.64518 5.42269,-1.43885 10.66949,-3.23823 15.80898,-5.27136 -0.29208,0.47244 -0.41559,0.95863 -0.76312,1.42201 -2.32735,3.10315 -5.89952,5.85039 -9.69954,7.70453 -15.52577,7.57551 -31.89873,15.6372 -48.28385,22.03806 l 2.54952,6.45179 c 16.76437,-6.54905 33.26489,-14.68378 48.77298,-22.25064 4.65613,-2.27187 9.05617,-5.56768 12.2145,-9.77884 2.06825,-2.7577 3.51867,-5.99526 4.09241,-9.48374 5.08966,-2.27511 10.09426,-4.64486 15.08224,-7.02719 l 2.10316,4.75582 c 1.66615,3.76743 5.94944,5.45792 9.74958,3.86783 49.99077,-20.91758 103.34057,-43.34023 151.91357,-61.40544 l 18.43138,2.60257 2.68774,6.10095 c 0.88907,2.01816 3.19923,2.94217 5.21901,2.05691 l 9.83062,-4.30865 c 2.01995,-0.88485 2.96924,-3.21095 2.08748,-5.23229 l -9.74268,-22.33419 124.34855,-54.33234 c 2.44012,-1.06629 3.55044,-3.87314 2.48903,-6.31543 l -2.03278,-4.67738 31.00312,-13.54657 c 2.09718,-0.91609 7.27813,-5.17452 6.36203,-7.27172 -0.91218,-2.09892 -7.57723,-1.18233 -9.67433,-0.26602 l -31.00301,13.54652 -2.03278,-4.67737 c -1.06141,-2.44229 -3.90561,-3.54132 -6.34605,-2.47573 l -124.33115,54.28844 -9.7733,-22.32088 c -0.88485,-2.01997 -3.2298,-2.92888 -5.24957,-2.04362 z M 188.0288,922.03834 c 0.75397,-0.30966 1.52263,-0.60812 2.25426,-0.83432 5.76615,-1.78278 10.38218,-1.67651 14.68365,0.66948 3.49914,1.90843 6.23555,5.12698 6.92568,9.74728 -6.48574,2.77554 -13.0033,5.33595 -19.73008,7.12084 -5.1136,1.35684 -8.05458,0.67167 -9.89495,-0.60627 -1.84037,-1.27795 -2.96729,-3.50909 -3.34165,-6.43464 -0.30112,-2.35319 0.68354,-4.1766 2.87974,-6.08544 1.0981,-0.95442 2.50544,-1.81389 3.97437,-2.56318 0.73445,-0.37467 1.49497,-0.70415 2.249,-1.0137 z"
       id="path3858"
       inkscape:connector-curvature="0"
       sodipodi:nodetypes="sssccssccasssssscssccssccssccsssscsscscscsscssssacssssss"
       inkscape:export-xdpi="300"
       inkscape:export-ydpi="300" />
  </g>
</svg>
